<?xml version="1.0" encoding="UTF-8" standalone="no"?>
<!-- Created with Inkscape (http://www.inkscape.org/) -->

<svg
   version="1.1"
   id="svg1"
   width="211.40668"
   height="150.74667"
   viewBox="0 0 211.40668 150.74667"
   xmlns="http://www.w3.org/2000/svg"
   xmlns:svg="http://www.w3.org/2000/svg">
  <defs
     id="defs1" />
  <g
     id="g1">
    <path
       id="path1"
       d="M -2.83484,56.69362 H 2.83484"
       style="fill:none;stroke:#000000;stroke-width:0.3985;stroke-linecap:butt;stroke-linejoin:miter;stroke-miterlimit:10;stroke-dasharray:none;stroke-opacity:1"
       transform="matrix(1.3333333,0,0,-1.3333333,24.908,130.35333)" />
    <g
       id="g2"
       aria-label="a&#10;2"
       transform="matrix(1.3333333,0,0,1.3333333,4.428,56.998667)">
      <path
         id="path2"
         d="m 3.5989219,-1.4169688 c -0.058594,0.1992188 -0.058594,0.2226563 -0.2226563,0.44531255 -0.2695312,0.33984375 -0.796875,0.85546875 -1.359375,0.85546875 -0.4804687,0 -0.7617187,-0.4453125 -0.7617187,-1.1484375 0,-0.65625 0.375,-1.9921875 0.5976562,-2.4960938 0.4101563,-0.84375 0.9726563,-1.265625 1.4414063,-1.265625 0.7851562,0 0.9375,0.9726563 0.9375,1.0664063 0,0.011719 -0.035156,0.1757812 -0.046875,0.1992187 z M 4.3606406,-4.4872813 C 4.2317344,-4.7919688 3.9153281,-5.2724375 3.2942344,-5.2724375 c -1.359375,0 -2.81250003,1.7460937 -2.81250003,3.515625 0,1.18359375 0.69140623,1.875 1.50000003,1.875 0.65625,0 1.21875,-0.515625 1.5585937,-0.90234375 0.1171875,0.703125 0.6796875,0.90234375 1.0429688,0.90234375 0.3515625,0 0.6445312,-0.2109375 0.8554687,-0.64453125 0.1875,-0.41015625 0.3632813,-1.13671875 0.3632813,-1.18359375 0,-0.058594 -0.046875,-0.1054688 -0.1171875,-0.1054688 -0.1171875,0 -0.1289063,0.058594 -0.1757813,0.234375 -0.1757812,0.7148438 -0.3984375,1.4648438 -0.890625,1.4648438 -0.3515625,0 -0.375,-0.31640625 -0.375,-0.55078125 0,-0.28125 0.035156,-0.41015625 0.140625,-0.87890625 0.082031,-0.2929688 0.1523438,-0.5625 0.2460938,-0.9023438 0.4335937,-1.7929687 0.5507812,-2.2265625 0.5507812,-2.296875 0,-0.1640625 -0.140625,-0.2929687 -0.3164062,-0.2929687 -0.375,0 -0.4804688,0.4101562 -0.5039063,0.5507812 z m 0,0"
         style="fill:#000000;fill-opacity:1;fill-rule:nonzero;stroke:none" />
      <path
         id="path3"
         d="m 8.3948203,0.1650625 c 0.1289063,-0.1171875 0.4570313,-0.375 0.5859375,-0.4921875 0.4921875,-0.45703125 0.9609375,-0.890625 0.9609375,-1.6171875 0,-0.9492188 -0.796875,-1.5585938 -1.7929687,-1.5585938 -0.9492188,0 -1.5820313,0.7265625 -1.5820313,1.4296875 0,0.3984375 0.3164063,0.4453125 0.421875,0.4453125 0.1640625,0 0.4101563,-0.1171875 0.4101563,-0.421875 0,-0.4101562 -0.3984375,-0.4101562 -0.4921875,-0.4101562 0.234375,-0.5859375 0.7734375,-0.7851563 1.1601562,-0.7851563 0.7382813,0 1.125,0.6328125 1.125,1.3007813 0,0.8320312 -0.5859375,1.4296875 -1.5234375,2.40234375 L 6.6604453,1.4892812 c -0.09375,0.09375 -0.09375,0.1054688 -0.09375,0.3046875 H 9.7190391 L 9.9416953,0.36428125 H 9.6956016 c -0.023437,0.1640625 -0.082031,0.5625 -0.1757813,0.71484375 -0.046875,0.058594 -0.65625,0.058594 -0.7851562,0.058594 H 7.3166953 Z m 0,0"
         style="fill:#000000;fill-opacity:1;fill-rule:nonzero;stroke:none" />
    </g>
    <g
       id="g3"
       aria-label="|⃗a|=&#10;p"
       transform="matrix(1.1547067,-0.66666667,0.66666667,1.1547067,48.736,107.54133)">
      <path
         id="path4"
         d="m 1.8910031,-8.5277683 c 0.00827,-0.225262 0.00482,-0.4302265 -0.2262996,-0.428348 -0.2471294,0.00617 -0.2436809,0.2111324 -0.2519511,0.4363944 l 0.00155,11.0832544 C 1.4118924,2.7786458 1.4094824,2.9937591 1.65661,2.9875912 1.8877313,2.9857112 1.8901422,2.7705994 1.8925531,2.5554861 Z m 0,0"
         style="fill:#000000;fill-opacity:1;fill-rule:nonzero;stroke:none" />
      <path
         id="path5"
         d="m 8.9511591,-7.1274759 c -0.1546415,0.1272234 -0.5838305,0.5424795 -0.5831015,0.7052793 -0.00199,0.120635 0.090497,0.2416905 0.2111325,0.2436809 0.1104863,-0.00387 0.1515016,-0.07491 0.2538296,-0.2052731 0.2835467,-0.350495 0.6072678,-0.5830743 0.8739656,-0.7403234 0.1194855,-0.066331 0.205385,-0.097927 0.2030861,-0.2345697 0.00199,-0.1206351 -0.089348,-0.173369 -0.1646783,-0.2303923 -0.3333375,-0.2195146 -0.4132657,-0.5498241 -0.4577295,-0.6837477 -0.035885,-0.1019075 -0.064341,-0.2401205 -0.2271405,-0.2393915 -0.07847,-0.00471 -0.2182532,0.049903 -0.2233835,0.2228511 0.00387,0.1104863 0.070929,0.3927716 0.3035084,0.7164927 l -4.0219708,0.00536 c -0.1991053,-0.0067 -0.4040698,-0.00325 -0.4021913,0.2278695 -0.00241,0.2151133 0.2127024,0.2175242 0.4016589,0.2183651 z m -2.0284195,5.7164694 c -0.059014,0.1959653 -0.060584,0.2221221 -0.2257944,0.43796439 -0.2776874,0.34034623 -0.7916265,0.85551947 -1.3584961,0.85299668 -0.4883994,0.002187 -0.7611531,-0.43944962 -0.7609293,-1.14296227 -0.00292,-0.6511992 0.3664455,-1.9940805 0.6012391,-2.4945071 0.4019947,-0.836904 0.973686,-1.2646077 1.4359287,-1.2683647 0.7878422,-0.00522 0.9390081,0.9751441 0.9385876,1.0696223 0.00429,0.016008 -0.031287,0.1713786 -0.048865,0.2018247 z M 7.6850118,-4.4891203 C 7.5554895,-4.7804049 7.2335622,-5.2774949 6.6085197,-5.2730089 c -1.3547119,0.00269 -2.7986022,1.753597 -2.8050211,3.5225274 0.00196,1.1919121 0.690814,1.87378124 1.4888049,1.87442554 0.6613479,0.002943 1.2174517,-0.51494942 1.5767493,-0.9028993 0.1102624,0.69964377 0.6704318,0.90127181 1.0323369,0.90724305 C 8.253146,0.1283997 8.544851,-0.0956009 8.7647861,-0.52341659 8.9468457,-0.93250482 9.121588,-1.6570439 9.1188686,-1.6992087 c 0.009,-0.062462 -0.046034,-0.1077669 -0.1143553,-0.1066174 -0.120635,-0.00199 -0.1339236,0.044464 -0.17107,0.225991 -0.184891,0.71867979 -0.3975086,1.46194637 -0.8960567,1.4582741 -0.3517564,-1.1191e-4 -0.3750818,-0.31127342 -0.3769603,-0.54239475 0.00126,-0.28343481 0.035268,-0.41264855 0.1419972,-0.87876015 0.085591,-0.2888737 0.1493146,-0.5633093 0.2481941,-0.8986371 0.4280667,-1.7961247 0.5593828,-2.2345096 0.5582333,-2.3028311 -7.29e-4,-0.1627998 -0.155679,-0.2928545 -0.3344869,-0.2878361 -0.3677643,0.00418 -0.4654944,0.4078268 -0.4893522,0.5428999 z m 0,0"
         style="fill:#000000;fill-opacity:1;fill-rule:nonzero;stroke:none" />
      <path
         id="path6"
         d="m 11.35973,-8.5277814 c 0.0083,-0.225262 0.0048,-0.4302266 -0.226299,-0.4283481 -0.24713,0.00617 -0.243681,0.2111325 -0.251951,0.4363945 l 0.0015,11.0832544 c -0.0024,0.2151133 -0.0048,0.4302265 0.242307,0.4240587 0.231122,-0.00188 0.233533,-0.2169918 0.235943,-0.4321051 z m 0,0"
         style="fill:#000000;fill-opacity:1;fill-rule:nonzero;stroke:none" />
      <path
         id="path7"
         d="m 24.184276,-3.86371 c 0.162799,-7.29e-4 0.367764,-0.00418 0.370175,-0.2192908 -0.0019,-0.2311213 -0.190835,-0.2319622 -0.369643,-0.2269438 l -7.045276,-0.0081 c -0.178807,0.00502 -0.383772,0.00847 -0.386183,0.2235801 0.0019,0.2311213 0.196694,0.2218135 0.385651,0.2226545 z m 0.0032,2.2210243 c 0.1628,-7.29e-4 0.367764,-0.00418 0.370175,-0.2192907 -0.0019,-0.2311214 -0.190835,-0.2319623 -0.369643,-0.2269439 l -7.045275,-0.0081 c -0.178808,0.00502 -0.383773,0.00847 -0.386183,0.2235802 0.0019,0.2311213 0.196694,0.2218135 0.38565,0.2226544 z m 0,0"
         style="fill:#000000;fill-opacity:1;fill-rule:nonzero;stroke:none" />
      <path
         id="path8"
         d="m 33.592795,3.4593101 c 0.377913,0.00168 0.388062,0.00754 0.49667,-0.227449 l 6.552241,-13.6457501 c 0.08789,-0.152231 0.08946,-0.178388 0.08088,-0.210404 0.0036,-0.146792 -0.08464,-0.251839 -0.231429,-0.255399 -0.152652,0.0066 -0.201096,0.113934 -0.267119,0.251727 l -6.179543,12.85959 -2.536143,-5.9431863 -1.662761,1.2862513 0.182257,0.1999461 0.847388,-0.647415 z m 0,0"
         style="fill:#000000;fill-opacity:1;fill-rule:nonzero;stroke:none" />
    </g>
    <path
       id="path9"
       d="M 0,0 H 36.172"
       style="fill:none;stroke:#000000;stroke-width:0.478;stroke-linecap:butt;stroke-linejoin:miter;stroke-miterlimit:10;stroke-dasharray:none;stroke-opacity:1"
       transform="matrix(1.1547067,-0.66666667,-0.66666667,-1.1547067,88.400252,68.270671)" />
    <g
       id="g9"
       aria-label="a&#10;2&#10;1&#10;+a&#10;2&#10;2"
       transform="matrix(1.1547067,-0.66666667,0.66666667,1.1547067,95.488918,80.548667)">
      <path
         id="path10"
         d="M 3.6025988,-1.4127477 C 3.543585,-1.2167823 3.5420151,-1.1906256 3.3768044,-0.97478327 3.099117,-0.63443704 2.585178,-0.11926379 2.0183083,-0.12178659 1.5299089,-0.11959953 1.2571552,-0.56123621 1.257379,-1.2647489 1.254463,-1.9159481 1.6238245,-3.2588294 1.8586181,-3.759256 c 0.4019947,-0.8369039 0.9736861,-1.2646077 1.4359287,-1.2683647 0.7878422,-0.00521 0.9390081,0.9751441 0.9385876,1.0696224 0.00429,0.016008 -0.031287,0.1713785 -0.048865,0.2018247 z M 4.364871,-4.4908615 C 4.2353487,-4.782146 3.9134214,-5.2792361 3.2883789,-5.2747501 1.933667,-5.2720578 0.48977667,-3.521153 0.48335777,-1.7522226 0.485321,-0.56031056 1.1741718,0.12155859 1.9721627,0.12220288 c 0.6613479,0.002943 1.2174517,-0.51494942 1.5767493,-0.9028993 0.1102624,0.69964377 0.6704318,0.90127181 1.0323369,0.90724305 0.3517563,1.1192e-4 0.6434613,-0.22388868 0.8633964,-0.65170438 0.1820596,-0.40908823 0.3568019,-1.13362735 0.3540825,-1.17579215 0.009,-0.062462 -0.046034,-0.1077668 -0.1143553,-0.1066174 -0.120635,-0.00199 -0.1339236,0.044464 -0.17107,0.225991 -0.184891,0.71867983 -0.3975086,1.46194642 -0.8960567,1.45827414 -0.3517564,-1.1191e-4 -0.3750818,-0.31127342 -0.3769603,-0.54239474 0.00126,-0.28343482 0.035268,-0.4126486 0.1419972,-0.8787602 0.085591,-0.2888736 0.1493146,-0.5633092 0.2481941,-0.8986371 0.4280667,-1.7961247 0.5593828,-2.2345096 0.5582334,-2.3028311 -7.291e-4,-0.1627998 -0.1556791,-0.2928545 -0.3344869,-0.2878361 -0.3677644,0.00418 -0.4654945,0.4078268 -0.4893523,0.5428999 z m 0,0"
         style="fill:#000000;fill-opacity:1;fill-rule:nonzero;stroke:none" />
      <path
         id="path11"
         d="m 8.3945577,-5.7400518 c 0.1327741,-0.1127853 0.4580652,-0.3715214 0.5966987,-0.4944554 0.4846423,-0.4644297 0.9618555,-0.8925539 0.9577899,-1.6120747 -0.00594,-0.950642 -0.8041316,-1.5603207 -1.8070872,-1.5575165 -0.9447827,-0.0042 -1.5759083,0.7139427 -1.5761321,1.4174554 -0.00325,0.4040698 0.3192079,0.4549253 0.4195455,0.445197 0.1627998,-7.29e-4 0.4162089,-0.1115238 0.4131809,-0.4109667 0.00325,-0.4040698 -0.400818,-0.4073216 -0.4952962,-0.4077421 0.2453627,-0.5890455 0.7666191,-0.7887679 1.1605402,-0.7913754 0.7398182,0.00765 1.1280766,0.6242287 1.1294227,1.3015846 -0.00221,0.8241477 -0.5790359,1.4248 -1.5194445,2.3973941 l -1.01187,1.0260571 c -0.094899,0.094058 -0.090609,0.1100659 -0.09731,0.3091711 l 3.1497991,0.0053 0.2331389,-1.4350606 -0.2572781,3.086e-4 c -0.015279,0.1670892 -0.080993,0.5621598 -0.1688829,0.7143904 -0.051164,0.065182 -0.6601984,0.065378 -0.7968415,0.067677 L 7.317506,-4.7651587 Z m 0.2590606,3.6001196 c -0.00774,-0.2209727 -0.023746,-0.2166833 -0.2388591,-0.2190942 -0.3182823,0.316909 -0.7392011,0.5069031 -1.5110353,0.5078287 l -0.00555,0.2674268 c 0.2311213,-0.00188 0.6511992,-0.00292 1.1318607,-0.2260757 l -0.0095,4.0945817 C 8.02942,2.5740292 7.9969834,2.6770863 7.2352979,2.6838713 l -0.2834348,-0.00126 3.086e-4,0.257278 c 0.3271695,-0.027615 1.0205335,-0.03325 1.3722898,-0.033138 0.3619051,0.00597 1.0552691,3.357e-4 1.3792987,0.025034 L 9.7034516,2.6745059 9.4200168,2.6732446 C 8.6743394,2.6757402 8.6544624,2.5695432 8.6455751,2.2802491 Z m 0,0"
         style="fill:#000000;fill-opacity:1;fill-rule:nonzero;stroke:none" />
      <path
         id="path12"
         d="m 18.293345,-2.7583927 3.312599,0.00457 c 0.1628,-7.29e-4 0.367764,-0.00418 0.370175,-0.2192907 0.0024,-0.2151133 -0.186545,-0.2159543 -0.365353,-0.2109359 l -3.312599,-0.00457 0.0046,-3.3125988 c -7.29e-4,-0.1627998 -0.0085,-0.3837724 -0.213432,-0.3803239 -0.231121,0.00188 -0.227673,0.206843 -0.222654,0.3856509 l -0.0046,3.3125988 -3.296591,-0.00886 c -0.178808,0.00502 -0.383772,0.00847 -0.380324,0.2134315 -0.0083,0.225262 0.186546,0.2159542 0.375503,0.2167951 l 3.29659,0.00886 0.0013,3.30245009 c 7.29e-4,0.1627998 -0.0017,0.37791308 0.219291,0.37017526 0.215113,0.002411 0.211665,-0.2025537 0.216795,-0.37550221 z m 0,0"
         style="fill:#000000;fill-opacity:1;fill-rule:nonzero;stroke:none" />
      <path
         id="path13"
         d="m 28.896752,-1.4131915 c -0.05901,0.1959653 -0.06058,0.2221221 -0.225795,0.43796436 -0.277687,0.34034623 -0.791626,0.85551947 -1.358496,0.85299668 -0.488399,0.002187 -0.761153,-0.43944963 -0.760929,-1.14296234 -0.0029,-0.6511992 0.366446,-1.9940805 0.601239,-2.4945071 0.401995,-0.8369039 0.973686,-1.2646077 1.435929,-1.2683647 0.787842,-0.00521 0.939008,0.9751441 0.938588,1.0696224 0.0043,0.016008 -0.03129,0.1713786 -0.04887,0.2018247 z m 0.762272,-3.0781138 c -0.129522,-0.2912846 -0.45145,-0.7883746 -1.076492,-0.7838886 -1.354712,0.00269 -2.798602,1.753597 -2.805021,3.5225274 0.002,1.19191207 0.690814,1.87378121 1.488805,1.8744255 0.661348,0.002943 1.217451,-0.51494941 1.576749,-0.90289929 0.110263,0.69964376 0.670432,0.90127181 1.032337,0.90724305 0.351756,1.1191e-4 0.643461,-0.22388869 0.863396,-0.65170438 0.18206,-0.40908823 0.356802,-1.13362738 0.354083,-1.17579208 0.009,-0.062462 -0.04603,-0.1077669 -0.114355,-0.1066174 -0.120635,-0.00199 -0.133924,0.044464 -0.17107,0.225991 -0.184891,0.71867976 -0.397509,1.46194634 -0.896057,1.45827407 -0.351757,-1.1192e-4 -0.375082,-0.31127342 -0.37696,-0.54239475 0.0013,-0.28343481 0.03527,-0.41264862 0.141997,-0.87876012 0.08559,-0.2888737 0.149314,-0.5633093 0.248194,-0.8986371 0.428067,-1.7961248 0.559383,-2.2345096 0.558233,-2.3028312 -7.29e-4,-0.1627998 -0.155679,-0.2928545 -0.334487,-0.2878361 -0.367764,0.00418 -0.465494,0.4078269 -0.489352,0.5429 z m 0,0"
         style="fill:#000000;fill-opacity:1;fill-rule:nonzero;stroke:none" />
      <path
         id="path14"
         d="m 33.690176,-5.7430329 c 0.132774,-0.1127853 0.458065,-0.3715214 0.596698,-0.4944553 0.484643,-0.4644297 0.961856,-0.892554 0.95779,-1.6120747 -0.0059,-0.950642 -0.804131,-1.5603207 -1.807087,-1.5575166 -0.944783,-0.0042 -1.575908,0.7139428 -1.576132,1.4174554 -0.0033,0.4040699 0.319208,0.4549253 0.419545,0.4451971 0.1628,-7.29e-4 0.416209,-0.1115239 0.413181,-0.4109667 0.0033,-0.4040699 -0.400818,-0.4073217 -0.495296,-0.4077421 0.245363,-0.5890456 0.766619,-0.788768 1.16054,-0.7913755 0.739818,0.00765 1.128077,0.6242287 1.129423,1.3015847 -0.0022,0.8241477 -0.579036,1.4248 -1.519445,2.3973941 l -1.01187,1.0260571 c -0.0949,0.094058 -0.09061,0.1100658 -0.09731,0.3091711 l 3.149799,0.0053 0.233139,-1.4350606 -0.257278,3.085e-4 c -0.01528,0.1670892 -0.08099,0.5621598 -0.168883,0.7143904 -0.05116,0.065182 -0.660199,0.065378 -0.796842,0.067677 l -1.407025,-4.477e-4 z m -4.86e-4,7.04967 c 0.132774,-0.1127852 0.458065,-0.37152135 0.596698,-0.49445533 0.484643,-0.4644297 0.961856,-0.89255395 0.95779,-1.61207467 -0.0059,-0.950642 -0.804132,-1.5603207 -1.807087,-1.5575166 -0.944783,-0.0042 -1.575908,0.7139428 -1.576132,1.41745545 -0.0033,0.40406983 0.319208,0.45492529 0.419545,0.44519705 0.1628,-7.2902e-4 0.416209,-0.11152388 0.413181,-0.41096673 0.0033,-0.40406987 -0.400818,-0.40732167 -0.495296,-0.40774207 0.245363,-0.5890456 0.766619,-0.7887679 1.16054,-0.7913755 0.739818,0.00765 1.128077,0.6242287 1.129423,1.30158468 -0.0022,0.8241477 -0.579036,1.42479999 -1.519445,2.39739412 l -1.01187,1.0260571 c -0.0949,0.094058 -0.09061,0.1100658 -0.09731,0.3091711 l 3.149799,0.0053 0.233139,-1.4350606 -0.257278,3.085e-4 c -0.01528,0.1670892 -0.08099,0.5621598 -0.168883,0.7143904 -0.05116,0.065182 -0.660199,0.065378 -0.796842,0.067677 l -1.407025,-4.477e-4 z m 0,0"
         style="fill:#000000;fill-opacity:1;fill-rule:nonzero;stroke:none" />
    </g>
    <g
       id="g14"
       aria-label="a&#10;1"
       transform="matrix(1.3333333,0,0,1.3333333,93.246667,143.928)">
      <path
         id="path15"
         d="m 3.5972266,-1.4167031 c -0.058594,0.1992187 -0.058594,0.2226562 -0.2226563,0.44531247 -0.2695312,0.33984375 -0.796875,0.85546875 -1.359375,0.85546875 -0.4804687,0 -0.7617187,-0.4453125 -0.7617187,-1.14843752 0,-0.65625 0.375,-1.9921875 0.5976562,-2.4960937 0.4101563,-0.84375 0.9726563,-1.265625 1.4414063,-1.265625 0.7851562,0 0.9375,0.9726562 0.9375,1.0664062 0,0.011719 -0.035156,0.1757813 -0.046875,0.1992188 z M 4.3589453,-4.4870156 C 4.2300391,-4.7917031 3.9136328,-5.2721719 3.2925391,-5.2721719 c -1.359375,0 -2.81250004,1.7460938 -2.81250004,3.515625 0,1.18359377 0.69140624,1.87500002 1.50000004,1.87500002 0.65625,0 1.21875,-0.515625 1.5585937,-0.90234375 0.1171875,0.703125 0.6796875,0.90234375 1.0429688,0.90234375 0.3515625,0 0.6445312,-0.2109375 0.8554687,-0.64453125 0.1875,-0.41015625 0.3632813,-1.13671877 0.3632813,-1.18359377 0,-0.058594 -0.046875,-0.1054687 -0.1171875,-0.1054687 -0.1171875,0 -0.1289063,0.058594 -0.1757813,0.234375 -0.1757812,0.71484372 -0.3984375,1.46484372 -0.890625,1.46484372 -0.3515625,0 -0.375,-0.31640625 -0.375,-0.55078125 0,-0.28125 0.035156,-0.41015627 0.140625,-0.87890627 0.082031,-0.2929687 0.1523438,-0.5625 0.2460938,-0.9023437 0.4335937,-1.7929688 0.5507812,-2.2265625 0.5507812,-2.296875 0,-0.1640625 -0.140625,-0.2929688 -0.3164062,-0.2929688 -0.375,0 -0.4804688,0.4101563 -0.5039063,0.5507813 z m 0,0"
         style="fill:#e81c2b;fill-opacity:1;fill-rule:nonzero;stroke:none" />
      <path
         id="path16"
         d="m 8.6538672,-3.2799844 c 0,-0.2226562 -0.023437,-0.2226562 -0.234375,-0.2226562 -0.328125,0.3164062 -0.75,0.5039062 -1.5117188,0.5039062 v 0.2695313 c 0.2226563,0 0.6445313,0 1.1132813,-0.2226563 v 4.0898438 c 0,0.2929687 -0.023438,0.3984375 -0.7851563,0.3984375 h -0.28125 v 0.2578125 c 0.328125,-0.023437 1.0195313,-0.023437 1.3710938,-0.023437 0.3632812,0 1.0546875,0 1.3828125,0.023437 V 1.5364219 h -0.28125 c -0.75,0 -0.7734375,-0.1054688 -0.7734375,-0.3984375 z m 0,0"
         style="fill:#e81c2b;fill-opacity:1;fill-rule:nonzero;stroke:none" />
    </g>
    <path
       id="path17"
       d="M 0,0 H 98.19649"
       style="fill:none;stroke:#e81c2b;stroke-width:0.79701;stroke-linecap:butt;stroke-linejoin:miter;stroke-miterlimit:10;stroke-dasharray:2.98883, 2.98883;stroke-dashoffset:0;stroke-opacity:1"
       transform="matrix(1.3333333,0,0,-1.3333333,24.908,130.35333)" />
    <g
       id="g17"
       aria-label="a&#10;2"
       transform="matrix(1.3333333,0,0,1.3333333,161.27867,94.794667)">
      <path
         id="path18"
         d="m 3.5966641,-1.4192422 c -0.058594,0.1992188 -0.058594,0.2226563 -0.2226563,0.44531251 -0.2695312,0.33984375 -0.796875,0.85546875 -1.359375,0.85546875 -0.4804687,0 -0.7617187,-0.4453125 -0.7617187,-1.14843746 0,-0.65625 0.375,-1.9921875 0.5976562,-2.4960938 0.4101563,-0.84375 0.9726563,-1.265625 1.4414063,-1.265625 0.7851562,0 0.9375,0.9726563 0.9375,1.0664063 0,0.011719 -0.035156,0.1757812 -0.046875,0.1992187 z M 4.3583828,-4.4895547 C 4.2294766,-4.7942422 3.9130703,-5.2747109 3.2919766,-5.2747109 c -1.359375,0 -2.81250004,1.7460937 -2.81250004,3.515625 0,1.18359371 0.69140624,1.87499996 1.50000004,1.87499996 0.65625,0 1.21875,-0.515625 1.5585937,-0.90234375 0.1171875,0.703125 0.6796875,0.90234375 1.0429688,0.90234375 0.3515625,0 0.6445312,-0.2109375 0.8554687,-0.64453125 0.1875,-0.41015625 0.3632813,-1.13671871 0.3632813,-1.18359371 0,-0.058594 -0.046875,-0.1054688 -0.1171875,-0.1054688 -0.1171875,0 -0.1289063,0.058594 -0.1757813,0.234375 -0.1757812,0.71484376 -0.3984375,1.46484376 -0.890625,1.46484376 -0.3515625,0 -0.375,-0.31640625 -0.375,-0.55078125 0,-0.28125 0.035156,-0.41015621 0.140625,-0.87890621 0.082031,-0.2929688 0.1523438,-0.5625 0.2460938,-0.9023438 0.4335937,-1.7929687 0.5507812,-2.2265625 0.5507812,-2.296875 0,-0.1640625 -0.140625,-0.2929687 -0.3164062,-0.2929687 -0.375,0 -0.4804688,0.4101562 -0.5039063,0.5507812 z m 0,0"
         style="fill:#0ca34f;fill-opacity:1;fill-rule:nonzero;stroke:none" />
      <path
         id="path19"
         d="m 8.3925625,0.16278906 c 0.1289063,-0.1171875 0.4570313,-0.375 0.5859375,-0.4921875 0.4921875,-0.45703125 0.9609375,-0.89062496 0.9609375,-1.61718746 0,-0.9492188 -0.796875,-1.5585938 -1.7929687,-1.5585938 -0.9492188,0 -1.5820313,0.7265625 -1.5820313,1.4296875 0,0.3984375 0.3164063,0.4453125 0.421875,0.4453125 0.1640625,0 0.4101563,-0.1171875 0.4101563,-0.421875 0,-0.4101562 -0.3984375,-0.4101562 -0.4921875,-0.4101562 0.234375,-0.5859375 0.7734375,-0.7851563 1.1601562,-0.7851563 0.7382813,0 1.125,0.6328125 1.125,1.3007813 0,0.8320312 -0.5859375,1.42968746 -1.5234375,2.40234371 L 6.6581875,1.4870078 c -0.09375,0.09375 -0.09375,0.1054688 -0.09375,0.3046875 H 9.7167813 L 9.9394375,0.36200781 H 9.6933438 c -0.023437,0.1640625 -0.082031,0.5625 -0.1757813,0.71484379 -0.046875,0.058594 -0.65625,0.058594 -0.7851562,0.058594 H 7.3144375 Z m 0,0"
         style="fill:#0ca34f;fill-opacity:1;fill-rule:nonzero;stroke:none" />
    </g>
    <path
       id="path20"
       d="M 98.19649,0 V 56.69362"
       style="fill:none;stroke:#0ca34f;stroke-width:0.79701;stroke-linecap:butt;stroke-linejoin:miter;stroke-miterlimit:10;stroke-dasharray:2.98883, 2.98883;stroke-dashoffset:0;stroke-opacity:1"
       transform="matrix(1.3333333,0,0,-1.3333333,24.908,130.35333)" />
    <path
       id="path21"
       d="m 5.6591875,-4.8751328 c -0.375,0.070312 -0.515625,0.3515625 -0.515625,0.5859375 0,0.28125 0.2226562,0.375 0.3867187,0.375 0.3632813,0 0.609375,-0.3046875 0.609375,-0.6328125 0,-0.4921875 -0.5742187,-0.7265625 -1.078125,-0.7265625 -0.7265625,0 -1.125,0.7148437 -1.2421875,0.9492187 -0.2695312,-0.9023437 -1.0078125,-0.9492187 -1.2304687,-0.9492187 -1.21875,0 -1.86328125,1.5703125 -1.86328125,1.828125 0,0.046875 0.046875,0.1054687 0.12890625,0.1054687 0.10546875,0 0.12890625,-0.070312 0.1523437,-0.1171875 0.3984375,-1.3242187 1.2070313,-1.5703125 1.546875,-1.5703125 0.5390625,0 0.6445313,0.4921875 0.6445313,0.7851563 0,0.2578125 -0.070312,0.5390625 -0.2109375,1.1132812 L 2.5771562,-1.5001328 C 2.401375,-0.77357031 2.0498125,-0.11732031 1.417,-0.11732031 c -0.058594,0 -0.3515625,0 -0.609375,-0.15234375 0.4335937,-0.09375 0.5273437,-0.4453125 0.5273437,-0.5859375 0,-0.24609374 -0.1757812,-0.38671874 -0.39843745,-0.38671874 -0.29296875,0 -0.59765625,0.24609374 -0.59765625,0.63281249 0,0.50390625 0.5625,0.7265625 1.0664062,0.7265625 0.5742188,0 0.984375,-0.45703125 1.2304688,-0.9375 0.1992187,0.703125 0.796875,0.9375 1.2304687,0.9375 1.2304688,0 1.875,-1.55859379 1.875,-1.82812499 0,-0.058594 -0.046875,-0.1054688 -0.1289062,-0.1054688 -0.1054688,0 -0.1171875,0.058594 -0.1523438,0.1523438 -0.3164062,1.05468749 -1.0195312,1.54687499 -1.546875,1.54687499 -0.421875,0 -0.65625,-0.31640625 -0.65625,-0.80859375 0,-0.25781254 0.058594,-0.44531254 0.2460938,-1.24218754 l 0.421875,-1.6171875 c 0.1757812,-0.7265625 0.5859375,-1.2421875 1.125,-1.2421875 0.035156,0 0.3632812,0 0.609375,0.1523438 z m 0,0"
       style="fill:#000000;fill-opacity:1;fill-rule:nonzero;stroke:none"
       aria-label="x"
       transform="matrix(1.3333333,0,0,1.3333333,198.11067,133.78533)" />
    <path
       id="path22"
       d="M -7.08669,0 H 127.10236"
       style="fill:none;stroke:#000000;stroke-width:0.3985;stroke-linecap:butt;stroke-linejoin:miter;stroke-miterlimit:10;stroke-dasharray:none;stroke-opacity:1"
       transform="matrix(1.3333333,0,0,-1.3333333,24.908,130.35333)" />
    <path
       id="path23"
       d="M -1.19551,1.59401 C -1.09587,0.99626 0,0.09961 0.29886,0 0,-0.09961 -1.09587,-0.99626 -1.19551,-1.59401"
       style="fill:none;stroke:#000000;stroke-width:0.31879;stroke-linecap:round;stroke-linejoin:round;stroke-miterlimit:10;stroke-dasharray:none;stroke-opacity:1"
       transform="matrix(1.3333333,0,0,-1.3333333,194.37781,130.35333)" />
    <path
       id="path24"
       d="M 3.1409297,1.3347344 C 2.8245234,1.7917656 2.3557734,2.2019219 1.7698359,2.2019219 c -0.140625,0 -0.7148437,-0.023437 -0.90234371,-0.5742188 0.046875,0.011719 0.10546875,0.011719 0.12890625,0.011719 0.35156246,0 0.59765626,-0.3164063 0.59765626,-0.5859375 0,-0.28125003 -0.234375,-0.37500003 -0.4101563,-0.37500003 -0.18749996,0 -0.60937496,0.140625 -0.60937496,0.72656253 0,0.609375 0.51562496,1.03125 1.19531246,1.03125 1.1953125,0 2.4023438,-1.1015625 2.7421875,-2.42578128 l 1.171875,-4.66406252 c 0.011719,-0.058594 0.035156,-0.1289062 0.035156,-0.1992187 0,-0.1757813 -0.1523438,-0.3046875 -0.328125,-0.3046875 -0.1054688,0 -0.3632813,0.046875 -0.4570313,0.4101562 l -0.8789062,3.515625 c -0.058594,0.2109375 -0.058594,0.23437502 -0.1523438,0.37500002 -0.2460937,0.328125 -0.6445312,0.73828125 -1.2070312,0.73828125 -0.6796875,0 -0.7382813,-0.65625 -0.7382813,-0.98437497 0,-0.6796875 0.328125,-1.6054688 0.6445313,-2.4609375 0.140625,-0.3515625 0.2109375,-0.515625 0.2109375,-0.75 0,-0.5039063 -0.3632813,-0.9609375 -0.9492188,-0.9609375 -1.10156246,0 -1.53515621,1.734375 -1.53515621,1.828125 0,0.046875 0.046875,0.1054687 0.12890625,0.1054687 0.10546875,0 0.1171875,-0.046875 0.1640625,-0.2109375 0.29296875,-1.0078125 0.73828126,-1.4765625 1.20703126,-1.4765625 0.1054687,0 0.3164062,0 0.3164062,0.3867188 0,0.3164062 -0.140625,0.65625 -0.3164062,1.1132812 -0.5859375,1.5703125 -0.5859375,1.9570313 -0.5859375,2.25 0,1.13671877 0.8085937,1.39453127 1.40625,1.39453127 0.3515625,0 0.7851562,-0.10546875 1.1953125,-0.55078125 l 0.011719,0.0117188 c -0.1757812,0.703125 -0.2929687,1.171875 -0.7148437,1.75781228 z m 0,0"
       style="fill:#000000;fill-opacity:1;fill-rule:nonzero;stroke:none"
       aria-label="y"
       transform="matrix(1.3333333,0,0,1.3333333,20.816,11.290667)" />
    <path
       id="path25"
       d="M 0,-7.08669 V 84.58214"
       style="fill:none;stroke:#000000;stroke-width:0.3985;stroke-linecap:butt;stroke-linejoin:miter;stroke-miterlimit:10;stroke-dasharray:none;stroke-opacity:1"
       transform="matrix(1.3333333,0,0,-1.3333333,24.908,130.35333)" />
    <path
       id="path26"
       d="M -1.19551,1.59401 C -1.09587,0.99626 0,0.09961 0.29886,0 0,-0.09961 -1.09587,-0.99626 -1.19551,-1.59401"
       style="fill:none;stroke:#000000;stroke-width:0.31879;stroke-linecap:round;stroke-linejoin:round;stroke-miterlimit:10;stroke-dasharray:none;stroke-opacity:1"
       transform="matrix(0,-1.3333333,-1.3333333,0,24.908,17.577147)" />
    <path
       id="path27"
       d="M 0,0 97.58391,56.33995"
       style="fill:none;stroke:#000000;stroke-width:0.79701;stroke-linecap:butt;stroke-linejoin:miter;stroke-miterlimit:10;stroke-dasharray:none;stroke-opacity:1"
       transform="matrix(1.3333333,0,0,-1.3333333,24.908,130.35333)" />
    <path
       id="path28"
       d="M -1.55415,2.0722 C -1.42464,1.29512 0,0.1295 0.38852,0 0,-0.1295 -1.42464,-1.29512 -1.55415,-2.0722"
       style="fill:none;stroke:#000000;stroke-width:0.6376;stroke-linecap:round;stroke-linejoin:round;stroke-miterlimit:10;stroke-dasharray:none;stroke-opacity:1"
       transform="matrix(1.15468,-0.66664,-0.66664,-1.15468,155.01987,55.233413)" />
    <path
       id="path29"
       d="m 6.3982578,-7.1356797 c -0.1523437,0.1289063 -0.5859375,0.5507813 -0.5859375,0.7148438 0,0.1171875 0.1054688,0.234375 0.2226563,0.234375 0.1054687,0 0.1523437,-0.070312 0.2460937,-0.1992188 0.28125,-0.3515625 0.609375,-0.5859375 0.8789063,-0.7382812 0.1171875,-0.070312 0.1992187,-0.1054688 0.1992187,-0.234375 0,-0.1171875 -0.09375,-0.1757813 -0.1640625,-0.234375 -0.3398437,-0.2226563 -0.421875,-0.5507813 -0.4570312,-0.6914063 -0.035156,-0.09375 -0.070312,-0.234375 -0.234375,-0.234375 -0.070312,0 -0.2109375,0.046875 -0.2109375,0.2226563 0,0.1054687 0.070312,0.3984375 0.2929687,0.7148437 H 2.5662266 c -0.1992188,0 -0.3984375,0 -0.3984375,0.234375 0,0.2109375 0.2109375,0.2109375 0.3984375,0.2109375 z m -2.0273437,5.71875 c -0.058594,0.1992188 -0.058594,0.2226563 -0.2226563,0.44531251 -0.2695312,0.33984375 -0.796875,0.85546875 -1.359375,0.85546875 -0.4804687,0 -0.7617187,-0.4453125 -0.7617187,-1.14843746 0,-0.65625 0.375,-1.9921875 0.5976562,-2.4960938 0.4101563,-0.84375 0.9726563,-1.265625 1.4414063,-1.265625 0.7851562,0 0.9375,0.9726563 0.9375,1.0664063 0,0.011719 -0.035156,0.1757812 -0.046875,0.1992187 z M 5.1326328,-4.4872422 C 5.0037266,-4.7919297 4.6873203,-5.2723984 4.0662266,-5.2723984 c -1.359375,0 -2.8125,1.7460937 -2.8125,3.515625 0,1.18359371 0.6914062,1.87499996 1.5,1.87499996 0.65625,0 1.21875,-0.515625 1.5585937,-0.90234375 0.1171875,0.703125 0.6796875,0.90234375 1.0429688,0.90234375 0.3515625,0 0.6445312,-0.2109375 0.8554687,-0.64453125 0.1875,-0.41015625 0.3632813,-1.13671871 0.3632813,-1.18359371 0,-0.058594 -0.046875,-0.1054688 -0.1171875,-0.1054688 -0.1171875,0 -0.1289063,0.058594 -0.1757813,0.234375 -0.1757812,0.71484376 -0.3984375,1.46484376 -0.890625,1.46484376 -0.3515625,0 -0.375,-0.31640625 -0.375,-0.55078125 0,-0.28125 0.035156,-0.41015621 0.140625,-0.87890621 0.082031,-0.2929688 0.1523438,-0.5625 0.2460938,-0.9023438 0.4335937,-1.7929687 0.5507812,-2.2265625 0.5507812,-2.296875 0,-0.1640625 -0.140625,-0.2929687 -0.3164062,-0.2929687 -0.375,0 -0.4804688,0.4101562 -0.5039063,0.5507812 z m 0,0"
       style="fill:#000000;fill-opacity:1;fill-rule:nonzero;stroke:none"
       aria-label="⃗a"
       transform="matrix(1.3333333,0,0,1.3333333,159.62133,52.885333)" />
  </g>
</svg>
