<?xml version="1.0" encoding="UTF-8" standalone="no"?>
<!-- Created with Inkscape (http://www.inkscape.org/) -->

<svg
   version="1.1"
   id="svg1"
   width="416.44934"
   height="182.11867"
   viewBox="0 0 416.44934 182.11867"
   xmlns="http://www.w3.org/2000/svg"
   xmlns:svg="http://www.w3.org/2000/svg">
  <defs
     id="defs1" />
  <g
     id="g1">
    <path
       id="path1"
       d="M 0,0 60.13274,-30.0657"
       style="fill:none;stroke:#e81c2b;stroke-width:0.79701;stroke-linecap:butt;stroke-linejoin:miter;stroke-miterlimit:10;stroke-dasharray:2.98883, 2.98883;stroke-dashoffset:0;stroke-opacity:1"
       transform="matrix(1.3333333,0,0,-1.3333333,34.357333,112.028)" />
    <path
       id="path2"
       d="m 60.13274,-30.0657 20.04425,10.02189"
       style="fill:none;stroke:#0ca34f;stroke-width:0.79701;stroke-linecap:butt;stroke-linejoin:miter;stroke-miterlimit:10;stroke-dasharray:2.98883, 2.98883;stroke-dashoffset:0;stroke-opacity:1"
       transform="matrix(1.3333333,0,0,-1.3333333,34.357333,112.028)" />
    <path
       id="path3"
       d="M 0,0 80.17699,-20.04381"
       style="fill:none;stroke:#eace2b;stroke-width:0.79701;stroke-linecap:butt;stroke-linejoin:miter;stroke-miterlimit:10;stroke-dasharray:2.98883, 2.98883;stroke-dashoffset:0;stroke-opacity:1"
       transform="matrix(1.3333333,0,0,-1.3333333,34.357333,112.028)" />
    <path
       id="path4"
       d="M 80.17699,-20.04381 V 29.05444"
       style="fill:none;stroke:#449fe3;stroke-width:0.79701;stroke-linecap:butt;stroke-linejoin:miter;stroke-miterlimit:10;stroke-dasharray:2.98883, 2.98883;stroke-dashoffset:0;stroke-opacity:1"
       transform="matrix(1.3333333,0,0,-1.3333333,34.357333,112.028)" />
    <path
       id="path5"
       d="M 0,0 79.74615,28.89832"
       style="fill:none;stroke:#000000;stroke-width:0.3985;stroke-linecap:butt;stroke-linejoin:miter;stroke-miterlimit:10;stroke-dasharray:none;stroke-opacity:1"
       transform="matrix(1.3333333,0,0,-1.3333333,34.357333,112.028)" />
    <path
       id="path6"
       d="M -1.19551,1.59401 C -1.09587,0.99626 0,0.09961 0.29886,0 0,-0.09961 -1.09587,-0.99626 -1.19551,-1.59401"
       style="fill:none;stroke:#000000;stroke-width:0.31879;stroke-linecap:round;stroke-linejoin:round;stroke-miterlimit:10;stroke-dasharray:none;stroke-opacity:1"
       transform="matrix(1.2535467,-0.45424,-0.45424,-1.2535467,140.68552,73.496907)" />
    <path
       id="path7"
       d="m 5.3440391,-5.9305703 c -0.1289063,0.1289062 -0.4570313,0.4101562 -0.4570313,0.5859375 0,0.1054687 0.09375,0.1992187 0.1992188,0.1992187 0.082031,0 0.1289062,-0.070312 0.1875,-0.1289062 0.1171875,-0.140625 0.3398437,-0.421875 0.7851562,-0.6445313 0.070312,-0.035156 0.1640625,-0.09375 0.1640625,-0.2109375 0,-0.09375 -0.070312,-0.1523437 -0.140625,-0.1992187 -0.2109375,-0.1523438 -0.328125,-0.328125 -0.3984375,-0.5625 -0.023437,-0.09375 -0.070312,-0.2226563 -0.1992187,-0.2226563 -0.140625,0 -0.1992188,0.1289063 -0.1992188,0.2109375 0,0.046875 0.070312,0.3632813 0.234375,0.5742188 H 2.1565391 c -0.1640625,0 -0.3398438,0 -0.3398438,0.1992187 0,0.1992188 0.1757813,0.1992188 0.3398438,0.1992188 z m -1.0019532,2.1679687 c -0.1757812,-0.375 -0.46875,-0.6445312 -0.9140625,-0.6445312 -1.171875,0 -2.4023437,1.4648437 -2.4023437,2.9179687 0,0.93750004 0.5507812,1.59375004 1.3242187,1.59375004 0.1992188,0 0.703125,-0.03515625 1.3007813,-0.73828125 0.070312,0.41015625 0.421875,0.73828125 0.9023437,0.73828125 0.3515625,0 0.5742188,-0.22265625 0.7382813,-0.5390625 0.1640625,-0.36328125 0.2929687,-0.97265624 0.2929687,-0.99609374 0,-0.09375 -0.082031,-0.09375 -0.1171875,-0.09375 -0.09375,0 -0.1054687,0.035156 -0.140625,0.1757812 -0.1640625,0.64453129 -0.3515625,1.24218754 -0.75,1.24218754 -0.2695312,0 -0.3046875,-0.2578125 -0.3046875,-0.45703125 0,-0.22265625 0.023437,-0.3046875 0.1289063,-0.73828129 0.1171875,-0.421875 0.1289062,-0.5273437 0.2226562,-0.9023437 l 0.3515625,-1.3945313 c 0.070312,-0.28125 0.070312,-0.2929687 0.070312,-0.3398437 0,-0.1640625 -0.1171875,-0.2695313 -0.28125,-0.2695313 -0.2460937,0 -0.3867187,0.2226563 -0.4218745,0.4453125 z m -0.6445312,2.578125 c -0.046875,0.1757813 -0.046875,0.19921879 -0.1992188,0.36328129 -0.4453125,0.55078125 -0.84375,0.71484375 -1.125,0.71484375 -0.5039062,0 -0.6445312,-0.55078125 -0.6445312,-0.93750004 0,-0.5039062 0.328125,-1.7226562 0.5507812,-2.1796875 0.3046875,-0.5976562 0.7617188,-0.9609375 1.1601563,-0.9609375 0.6445312,0 0.7851562,0.8203125 0.7851562,0.8789063 0,0.058594 -0.023437,0.1171875 -0.035156,0.1640625 z m 0,0"
       style="fill:#000000;fill-opacity:1;fill-rule:nonzero;stroke:none"
       aria-label="⃗a"
       transform="matrix(1.3333333,0,0,1.3333333,142.26133,74.161333)" />
    <path
       id="path8"
       d="M 2.628227,7.970392 1.4524916,4.2427775 0.69900803,5.0379092 0.78971252,5.1264534 1.1643778,4.7472997 2.4051798,8.7246549 c 0.1907112,-0.0046 0.2021738,-0.00703 0.2580466,-0.1387153 l 3.0105903,-8.60699345 c 0.031231,-0.07852179 0.028795,-0.08998439 0.026358,-0.10144699 0.00587,-0.0851113 -0.063626,-0.1302416 -0.1119133,-0.13195803 -0.082675,0.005593 -0.1073163,0.0587532 -0.1246484,0.14630108 z m 0,0"
       style="fill:#000000;fill-opacity:1;fill-rule:nonzero;stroke:none"
       aria-label="q"
       transform="matrix(1.3042,0.27722667,-0.27722667,1.3042,83.098278,109.2514)" />
    <path
       id="path9"
       d="M 0,0 H 23.871"
       style="fill:none;stroke:#000000;stroke-width:0.242;stroke-linecap:butt;stroke-linejoin:miter;stroke-miterlimit:10;stroke-dasharray:none;stroke-opacity:1"
       transform="matrix(1.3042,0.27722667,0.27722667,-1.3042,90.427517,110.6444)" />
    <g
       id="g9"
       aria-label="a&#10;2&#10;1&#10;+a&#10;2&#10;2"
       transform="matrix(1.3042,0.27722667,-0.27722667,1.3042,88.801028,118.29614)">
      <path
         id="path10"
         d="m 2.8901665,-1.6201469 c 0.026358,-0.101447 0.061022,-0.2765426 0.056149,-0.2994678 0.00343,-0.096574 -0.050447,-0.1809651 -0.181409,-0.1770884 -0.082675,0.00559 -0.2153528,0.057757 -0.2434273,0.2074909 C 2.4210285,-2.0236068 2.2396195,-2.2006951 1.91551,-2.2036841 c -0.6940694,0.00377 -1.38924369,0.6786808 -1.39206496,1.39811192 -8.2862e-4,0.50335817 0.3758885,0.86656087 0.86778406,0.86982604 0.4182469,-0.0050408 0.7272932,-0.29836304 0.7887592,-0.3473701 0.097018,0.23096847 0.3603814,0.34271405 0.587917,0.34227014 0.1931478,0.0068657 0.3341319,-0.11894668 0.4424446,-0.28573642 0.1263649,-0.19458802 0.2037226,-0.45064203 0.2078756,-0.48746638 -0.00316,-0.0712122 -0.099731,-0.074645 -0.1111931,-0.0722085 -0.096574,-0.003433 -0.091701,0.0194923 -0.1204955,0.10947672 -0.098843,0.3804262 -0.2276441,0.56355162 -0.3978667,0.55181281 -0.1424243,0.006313 -0.2011775,-0.10100308 -0.1960282,-0.24586393 -0.00559,-0.0826748 0.038097,-0.27166959 0.08007,-0.41237746 z M 2.216645,-0.67428493 C 2.18785,-0.58430053 2.190287,-0.57283794 2.1017427,-0.48213344 1.9205014,-0.26390011 1.6648913,-0.11372227 1.4005314,-0.11743134 1.2327453,-0.11770755 0.97181823,-0.21799052 0.96921399,-0.62477478 0.96877009,-0.85231039 1.0866613,-1.3685714 1.269619,-1.6350917 c 0.1944203,-0.2689568 0.4434409,-0.3937729 0.6480513,-0.3893437 0.2275356,-4.439e-4 0.4474854,0.1325104 0.5108355,0.4305381 z m 0,0"
         style="fill:#000000;fill-opacity:1;fill-rule:nonzero;stroke:none" />
      <path
         id="path11"
         d="m 6.7933477,-2.6744596 -0.216073,-0.00199 c -0.014895,0.09901 -0.059582,0.3960417 -0.1415365,0.4613845 -0.031951,0.018772 -0.4501981,0.023813 -0.5238468,0.015507 l -0.9813546,0.00493 c 0.3187925,-0.2474718 0.7039241,-0.5210255 0.9866124,-0.7129008 0.4604967,-0.3135347 0.8775796,-0.6058607 0.8735351,-1.132144 0.00841,-0.6367564 -0.5958383,-0.9995152 -1.3128329,-0.9908739 -0.6711442,-0.0011 -1.1653086,0.379489 -1.1661372,0.8828472 0.00532,0.2504608 0.2196735,0.3007404 0.2908857,0.2975838 0.1333982,0.00759 0.290718,-0.097738 0.2861211,-0.2884492 -0.0046,-0.1907113 -0.1321257,-0.2834084 -0.2794231,-0.3000203 0.1329543,-0.2199498 0.4368514,-0.3684112 0.7609609,-0.3654222 0.4779964,-0.00576 0.8974073,0.2764835 0.8941421,0.768379 0.00748,0.4297095 -0.2991324,0.7344944 -0.6859805,1.056335 l -1.2081109,1.0235551 c -0.050003,0.04657 -0.061466,0.049007 -0.054156,0.083395 l -0.00271,0.1563234 2.3121804,-2.86e-4 z M 5.832282,-0.70004862 c 0.00271,-0.15632345 -0.00875,-0.15388691 -0.1650733,-0.15659966 -0.3614862,0.32843017 -0.9131314,0.32588511 -1.0097053,0.32245225 l -0.082675,0.005593 -0.00199,0.216073 0.082675,-0.005593 c 0.1080365,9.9632e-4 0.4297095,-0.007477 0.7245805,-0.14203959 l 0.00245,2.49142912 c -2.762e-4,0.167786 -0.00443,0.2046104 -0.5307125,0.2086548 l -0.2414348,-0.00858 4.439e-4,0.2275356 c 0.2594869,-0.019216 0.7030955,-0.017667 1.0018433,-0.021268 0.2758225,0.00127 0.7194312,0.00282 1.0001268,0.027019 L 6.6123604,2.2370902 6.359463,2.2309446 C 5.8331797,2.2349891 5.8373327,2.1981647 5.8376089,2.0303787 Z m 6.243342,-0.40161768 1.737611,0.00204 c 0.07121,-0.00316 0.190711,-0.0046 0.184397,-0.1470212 0.0076,-0.1333982 -0.111913,-0.131958 -0.183125,-0.1288014 l -1.73761,-0.00204 -0.0094,-1.7351736 c 0.0083,-0.073649 0.0044,-0.2046104 -0.140431,-0.2097597 -0.130962,0.00388 -0.127085,0.1348385 -0.135391,0.2084872 l 0.0094,1.7351735 -1.73761,-0.00204 c -0.05975,7.201e-4 -0.2021736,0.00703 -0.2097594,0.1404316 0.00631,0.1424243 0.1487374,0.136111 0.2084874,0.1353909 l 1.73761,0.00204 -0.002,1.73761009 c 0.0032,0.0712122 -0.0069,0.1931478 0.124096,0.18927104 0.144861,0.005149 0.154883,-0.11678635 0.151726,-0.18799851 z m 0,0"
         style="fill:#000000;fill-opacity:1;fill-rule:nonzero;stroke:none" />
      <path
         id="path12"
         d="m 19.01568,-1.6214291 c 0.02636,-0.101447 0.06102,-0.2765427 0.05615,-0.2994679 0.0034,-0.096574 -0.05045,-0.1809651 -0.181409,-0.1770883 -0.08267,0.00559 -0.215353,0.057757 -0.243427,0.2074908 -0.100451,-0.1343945 -0.28186,-0.3114829 -0.60597,-0.3144718 -0.694069,0.00377 -1.389243,0.6786807 -1.392065,1.39811187 -8.28e-4,0.50335816 0.375889,0.86656087 0.867784,0.86982604 0.418247,-0.0050408 0.727294,-0.29836304 0.78876,-0.3473701 0.09702,0.23096847 0.360381,0.34271404 0.587917,0.34227014 0.193148,0.0068657 0.334132,-0.11894669 0.442444,-0.28573642 0.126365,-0.19458803 0.203723,-0.45064203 0.207876,-0.48746638 -0.0032,-0.0712122 -0.09973,-0.074645 -0.111193,-0.0722085 -0.09657,-0.003433 -0.0917,0.0194923 -0.120496,0.10947673 -0.09884,0.38042619 -0.227644,0.56355162 -0.397866,0.55181281 -0.142425,0.006313 -0.201178,-0.10100309 -0.196029,-0.24586394 -0.0056,-0.0826748 0.0381,-0.27166958 0.08007,-0.41237746 z m -0.673522,0.94586192 c -0.02879,0.0899844 -0.02636,0.10144699 -0.114902,0.19215148 -0.181241,0.21823334 -0.436851,0.36841118 -0.701211,0.36470211 -0.167786,-2.7621e-4 -0.428713,-0.10055918 -0.431318,-0.50734345 -4.44e-4,-0.2275356 0.117448,-0.74379656 0.300405,-1.01031686 0.194421,-0.2689569 0.443441,-0.3937729 0.648052,-0.3893438 0.227535,-4.439e-4 0.447485,0.1325105 0.510835,0.4305381 z m 0,0"
         style="fill:#000000;fill-opacity:1;fill-rule:nonzero;stroke:none" />
      <path
         id="path13"
         d="m 22.918861,-2.6757418 -0.216073,-0.00199 c -0.0149,0.099011 -0.05958,0.3960418 -0.141536,0.4613845 -0.03195,0.018772 -0.450199,0.023813 -0.523847,0.015507 l -0.981355,0.00493 c 0.318793,-0.2474719 0.703924,-0.5210256 0.986613,-0.7129009 0.460496,-0.3135347 0.877579,-0.6058606 0.873535,-1.132144 0.0084,-0.6367564 -0.595839,-0.9995152 -1.312833,-0.9908739 -0.671144,-0.0011 -1.165309,0.3794891 -1.166137,0.8828473 0.0053,0.2504608 0.219673,0.3007404 0.290885,0.2975837 0.133398,0.00759 0.290718,-0.097738 0.286121,-0.2884492 -0.0046,-0.1907112 -0.132125,-0.2834084 -0.279423,-0.3000203 0.132955,-0.2199497 0.436852,-0.3684111 0.760961,-0.3654222 0.477997,-0.00576 0.897407,0.2764835 0.894142,0.7683791 0.0075,0.4297094 -0.299132,0.7344943 -0.68598,1.056335 l -1.208111,1.0235551 c -0.05,0.046571 -0.06147,0.049007 -0.05416,0.083395 l -0.0027,0.1563235 2.31218,-2.861e-4 z m -0.0014,4.1784957 -0.216073,-0.00199 c -0.01489,0.099011 -0.05958,0.3960418 -0.141536,0.4613845 -0.03195,0.018772 -0.450198,0.023813 -0.523847,0.015507 l -0.981355,0.00493 c 0.318793,-0.2474719 0.703924,-0.5210256 0.986613,-0.7129009 0.460496,-0.31353468 0.877579,-0.60586062 0.873535,-1.13214398 0.0084,-0.63675642 -0.595839,-0.99951522 -1.312833,-0.99087388 -0.671144,-0.001105 -1.165309,0.37948905 -1.166137,0.88284722 0.0053,0.25046081 0.219673,0.3007404 0.290885,0.29758375 0.133399,0.007586 0.290718,-0.0977379 0.286121,-0.28844918 -0.0046,-0.19071126 -0.132125,-0.28340839 -0.279423,-0.30002029 0.132955,-0.21994977 0.436852,-0.36841117 0.760961,-0.36542221 0.477997,-0.005761 0.897408,0.27648348 0.894142,0.76837905 0.0075,0.42970946 -0.299132,0.73449432 -0.68598,1.05633502 l -1.208111,1.0235551 c -0.05,0.04657 -0.06147,0.049007 -0.05416,0.083395 l -0.0027,0.1563235 2.31218,-2.861e-4 z m 0,0"
         style="fill:#000000;fill-opacity:1;fill-rule:nonzero;stroke:none" />
    </g>
    <path
       id="path14"
       d="m 3.3271016,-3.0111641 c 0.058594,-0.2578125 0.2929687,-1.171875 0.984375,-1.171875 0.046875,0 0.2929687,0 0.5039062,0.1289063 -0.28125,0.046875 -0.4804687,0.3046875 -0.4804687,0.5390625 0,0.1640625 0.1054687,0.3515625 0.375,0.3515625 0.2226562,0 0.5390625,-0.1875 0.5390625,-0.5859375 0,-0.515625 -0.5859375,-0.65625 -0.9257813,-0.65625 -0.5742187,0 -0.9257812,0.5273437 -1.0429687,0.7617187 -0.2578125,-0.65625 -0.7851563,-0.7617187 -1.078125,-0.7617187 -1.0429688,0 -1.60546879,1.2890625 -1.60546879,1.5351562 0,0.1054688 0.10546875,0.1054688 0.1171875,0.1054688 0.0820313,0 0.1171875,-0.023437 0.12890625,-0.1171875 0.33984374,-1.0546875 0.99609374,-1.3007813 1.33593754,-1.3007813 0.1875,0 0.5390625,0.09375 0.5390625,0.6679688 0,0.3046875 -0.1640625,0.9726562 -0.5390625,2.3671875 -0.1523438,0.62109374 -0.5039063,1.04296874 -0.9492188,1.04296874 -0.058594,0 -0.28124999,0 -0.49218749,-0.12890625 0.24609375,-0.0585937 0.46874999,-0.26953125 0.46874999,-0.5390625 0,-0.26953129 -0.22265624,-0.35156249 -0.37499999,-0.35156249 -0.29296875,0 -0.5390625,0.25781249 -0.5390625,0.57421874 0,0.45703125 0.4921875,0.65625 0.93749999,0.65625 0.65625,0 1.0078125,-0.69140625 1.0429688,-0.75 0.1171875,0.36328125 0.4804687,0.75 1.078125,0.75 1.0195312,0 1.59375,-1.27734374 1.59375,-1.53515624 0,-0.09375 -0.09375,-0.09375 -0.1289063,-0.09375 -0.082031,0 -0.1054687,0.035156 -0.1289062,0.1054687 -0.328125,1.06640629 -0.9960938,1.31250004 -1.3242188,1.31250004 -0.3867187,0 -0.5390625,-0.328125 -0.5390625,-0.65625 0,-0.22265625 0.058594,-0.44531254 0.1640625,-0.87890624 z m 0,0"
       style="fill:#000000;fill-opacity:1;fill-rule:nonzero;stroke:none"
       aria-label="x"
       transform="matrix(1.3333333,0,0,1.3333333,156.16933,177.69067)" />
    <path
       id="path15"
       d="m -5.01105,2.50546 94.8003,-47.39911"
       style="fill:none;stroke:#000000;stroke-width:0.3985;stroke-linecap:butt;stroke-linejoin:miter;stroke-miterlimit:10;stroke-dasharray:none;stroke-opacity:1"
       transform="matrix(1.3333333,0,0,-1.3333333,34.357333,112.028)" />
    <path
       id="path16"
       d="M -1.19551,1.59401 C -1.09587,0.99626 0,0.09961 0.29886,0 0,-0.09961 -1.09587,-0.99626 -1.19551,-1.59401"
       style="fill:none;stroke:#000000;stroke-width:0.31879;stroke-linecap:round;stroke-linejoin:round;stroke-miterlimit:10;stroke-dasharray:none;stroke-opacity:1"
       transform="matrix(1.1925067,0.59622667,0.59622667,-1.1925067,154.07631,171.88617)" />
    <path
       id="path17"
       d="m 4.8399531,-3.7979219 c 0.046875,-0.140625 0.046875,-0.1523437 0.046875,-0.2226562 0,-0.1875 -0.140625,-0.2695313 -0.2929687,-0.2695313 -0.1054688,0 -0.2578125,0.058594 -0.3515625,0.1992188 -0.023437,0.058594 -0.09375,0.3632812 -0.140625,0.5390625 -0.070312,0.2578125 -0.140625,0.5273437 -0.1992188,0.796875 l -0.4453125,1.79296872 c -0.035156,0.15234375 -0.46875,0.85546875 -1.125,0.85546875 -0.5039062,0 -0.6210937,-0.4453125 -0.6210937,-0.80859375 0,-0.45703122 0.1757812,-1.07812502 0.515625,-1.95703122 0.1523437,-0.4101563 0.1992187,-0.515625 0.1992187,-0.7148438 0,-0.4453125 -0.328125,-0.8203125 -0.8203125,-0.8203125 -0.94921872,0 -1.31249997,1.453125 -1.31249997,1.5351563 0,0.1054687 0.09375,0.1054687 0.1171875,0.1054687 0.09375,0 0.10546875,-0.023437 0.15234375,-0.1875 0.26953125,-0.9375 0.66796872,-1.2304687 1.00781252,-1.2304687 0.082031,0 0.2578125,0 0.2578125,0.3164062 0,0.2460938 -0.1054688,0.515625 -0.1757813,0.703125 -0.3984375,1.0546875 -0.5742187,1.6171875 -0.5742187,2.0859375 0,0.89062502 0.6210937,1.18359377 1.21875,1.18359377 0.3867187,0 0.7265625,-0.1640625 0.9960937,-0.4453125 -0.1289062,0.515625 -0.2460937,1.0078125 -0.6445312,1.53515623 -0.2578125,0.3398438 -0.6328125,0.6328125 -1.0898438,0.6328125 -0.140625,0 -0.59765622,-0.035156 -0.76171872,-0.421875 0.1640625,0 0.29296872,0 0.43359372,-0.1171875 0.09375,-0.09375 0.1992188,-0.2226562 0.1992188,-0.41015623 0,-0.31640625 -0.2695313,-0.3515625 -0.375,-0.3515625 -0.22265627,0 -0.55078127,0.1640625 -0.55078127,0.64453123 0,0.5039063 0.43359375,0.8671875 1.05468747,0.8671875 1.0195313,0 2.0507813,-0.9023437 2.3320313,-2.02734373 z m 0,0"
       style="fill:#000000;fill-opacity:1;fill-rule:nonzero;stroke:none"
       aria-label="y"
       transform="matrix(1.3333333,0,0,1.3333333,116.38267,70.837333)" />
    <path
       id="path18"
       d="M -5.01105,-2.50546 59.72289,29.86078"
       style="fill:none;stroke:#000000;stroke-width:0.3985;stroke-linecap:butt;stroke-linejoin:miter;stroke-miterlimit:10;stroke-dasharray:none;stroke-opacity:1"
       transform="matrix(1.3333333,0,0,-1.3333333,34.357333,112.028)" />
    <path
       id="path19"
       d="M -1.19551,1.59401 C -1.09587,0.99626 0,0.09961 0.29886,0 0,-0.09961 -1.09587,-0.99626 -1.19551,-1.59401"
       style="fill:none;stroke:#000000;stroke-width:0.31879;stroke-linecap:round;stroke-linejoin:round;stroke-miterlimit:10;stroke-dasharray:none;stroke-opacity:1"
       transform="matrix(1.1925067,-0.59622667,-0.59622667,-1.1925067,113.98783,72.213653)" />
    <path
       id="path20"
       d="M 1.3246406,-0.83070312 C 1.8637031,-1.4049219 2.1566719,-1.6510156 2.5082344,-1.9557031 c 0,-0.011719 0.6210937,-0.5390625 0.984375,-0.9023438 0.9375,-0.9257812 1.1601562,-1.40625 1.1601562,-1.4414062 0,-0.1054688 -0.09375,-0.1054688 -0.1054687,-0.1054688 -0.070312,0 -0.1054688,0.023437 -0.1523438,0.1171875 -0.3046875,0.46875 -0.5039062,0.6328125 -0.75,0.6328125 -0.234375,0 -0.3515625,-0.1523437 -0.5039062,-0.3164062 -0.1875,-0.234375 -0.3632813,-0.4335938 -0.6914063,-0.4335938 -0.75,0 -1.2070312,0.9257813 -1.2070312,1.1367188 0,0.046875 0.035156,0.1171875 0.1171875,0.1171875 0.09375,0 0.1171875,-0.058594 0.140625,-0.1171875 0.1875,-0.4570313 0.7617187,-0.46875 0.84375,-0.46875 0.2109375,0 0.3984375,0.070312 0.6210937,0.1523437 0.3984375,0.1523438 0.515625,0.1523438 0.7734375,0.1523438 -0.3632812,0.421875 -1.1953125,1.1367187 -1.3828125,1.3007812 l -0.9023437,0.8320313 c -0.67968752,0.66796873 -1.01953127,1.24218748 -1.01953127,1.31249998 0,0.09375 0.09375,0.09375 0.1171875,0.09375 0.0820313,0 0.09375,-0.01171875 0.15234375,-0.12890625 0.234375,-0.33984375 0.52734372,-0.609375 0.85546872,-0.609375 0.2226563,0 0.328125,0.0820313 0.5742188,0.375 0.1640625,0.2109375 0.3515625,0.36328125 0.6328125,0.36328125 0.984375,0 1.5703125,-1.26562498 1.5703125,-1.53515628 0,-0.046875 -0.046875,-0.09375 -0.1171875,-0.09375 -0.09375,0 -0.1171875,0.058594 -0.140625,0.1289063 -0.234375,0.64453123 -0.8671875,0.83203123 -1.1953125,0.83203123 -0.1992188,0 -0.3867188,-0.0585938 -0.5859375,-0.12890625 -0.3398438,-0.12890625 -0.4921875,-0.1640625 -0.703125,-0.1640625 -0.023437,0 -0.1757813,0 -0.2695313,0.0234375 z m 0,0"
       style="fill:#000000;fill-opacity:1;fill-rule:nonzero;stroke:none"
       aria-label="z"
       transform="matrix(1.3333333,0,0,1.3333333,30.976,10.146667)" />
    <path
       id="path21"
       d="M 0,-6.13727 V 73.1891"
       style="fill:none;stroke:#000000;stroke-width:0.3985;stroke-linecap:butt;stroke-linejoin:miter;stroke-miterlimit:10;stroke-dasharray:none;stroke-opacity:1"
       transform="matrix(1.3333333,0,0,-1.3333333,34.357333,112.028)" />
    <path
       id="path22"
       d="M -1.19551,1.59401 C -1.09587,0.99626 0,0.09961 0.29886,0 0,-0.09961 -1.09587,-0.99626 -1.19551,-1.59401"
       style="fill:none;stroke:#000000;stroke-width:0.31879;stroke-linecap:round;stroke-linejoin:round;stroke-miterlimit:10;stroke-dasharray:none;stroke-opacity:1"
       transform="matrix(0,-1.3333333,-1.3333333,0,34.357333,14.442533)" />
    <path
       id="path23"
       d="m 58.1282,-31.06796 4.00907,2.0045"
       style="fill:none;stroke:#000000;stroke-width:0.3985;stroke-linecap:butt;stroke-linejoin:miter;stroke-miterlimit:10;stroke-dasharray:none;stroke-opacity:1"
       transform="matrix(1.3333333,0,0,-1.3333333,34.357333,112.028)" />
    <g
       id="g23"
       aria-label="a&#10;1"
       transform="matrix(1.3333333,0,0,1.3333333,98.688,158.656)">
      <path
         id="path24"
         d="m 3.7144687,-3.7615312 c -0.1757812,-0.375 -0.46875,-0.6445313 -0.9140625,-0.6445313 -1.171875,0 -2.4023437,1.4648438 -2.4023437,2.9179688 0,0.93749995 0.55078125,1.59374995 1.3242187,1.59374995 0.1992188,0 0.703125,-0.03515625 1.3007813,-0.73828125 0.070312,0.41015625 0.421875,0.73828125 0.9023437,0.73828125 0.3515625,0 0.5742188,-0.22265625 0.7382813,-0.5390625 C 4.82775,-0.7966875 4.9566562,-1.4060625 4.9566562,-1.4295 c 0,-0.09375 -0.082031,-0.09375 -0.1171875,-0.09375 -0.09375,0 -0.1054687,0.035156 -0.140625,0.1757813 -0.1640625,0.6445312 -0.3515625,1.24218745 -0.75,1.24218745 -0.2695312,0 -0.3046875,-0.2578125 -0.3046875,-0.45703125 0,-0.22265625 0.023437,-0.3046875 0.1289063,-0.7382812 0.1171875,-0.421875 0.1289062,-0.5273438 0.2226562,-0.9023438 l 0.3515625,-1.3945312 c 0.070312,-0.28125 0.070312,-0.2929688 0.070312,-0.3398438 0,-0.1640625 -0.1171875,-0.2695312 -0.28125,-0.2695312 -0.2460937,0 -0.3867187,0.2226562 -0.4218745,0.4453125 z m -0.6445312,2.578125 c -0.046875,0.1757812 -0.046875,0.1992187 -0.1992188,0.3632812 -0.4453125,0.55078125 -0.84375,0.71484375 -1.125,0.71484375 -0.5039062,0 -0.6445312,-0.55078125 -0.6445312,-0.93749995 0,-0.5039063 0.328125,-1.7226563 0.5507812,-2.1796875 0.3046875,-0.5976563 0.7617188,-0.9609375 1.1601563,-0.9609375 0.6445312,0 0.7851562,0.8203125 0.7851562,0.8789062 0,0.058594 -0.023437,0.1171875 -0.035156,0.1640625 z m 0,0"
         style="fill:#000000;fill-opacity:1;fill-rule:nonzero;stroke:none" />
      <path
         id="path25"
         d="m 7.5992344,-2.9353594 c 0,-0.1875 -0.011719,-0.1992187 -0.2109375,-0.1992187 -0.4453125,0.4335937 -1.078125,0.4453125 -1.359375,0.4453125 v 0.2460937 c 0.1640625,0 0.6210937,0 1.0078125,-0.1875 v 3.55078128 c 0,0.23437502 0,0.32812502 -0.6914063,0.32812502 H 6.0757969 v 0.2460937 c 0.1289062,-0.011719 0.984375,-0.023437 1.2421875,-0.023437 0.2109375,0 1.0898437,0.011719 1.2421875,0.023437 V 1.2482344 H 8.3023594 c -0.703125,0 -0.703125,-0.09375 -0.703125,-0.32812502 z m 0,0"
         style="fill:#000000;fill-opacity:1;fill-rule:nonzero;stroke:none" />
    </g>
    <path
       id="path26"
       d="M 18.0397,11.02415 22.04877,9.01964"
       style="fill:none;stroke:#000000;stroke-width:0.3985;stroke-linecap:butt;stroke-linejoin:miter;stroke-miterlimit:10;stroke-dasharray:none;stroke-opacity:1"
       transform="matrix(1.3333333,0,0,-1.3333333,34.357333,112.028)" />
    <g
       id="g26"
       aria-label="a&#10;2"
       transform="matrix(1.3333333,0,0,1.3333333,45.237333,95.853333)">
      <path
         id="path27"
         d="m 3.7155547,-3.7630469 c -0.1757813,-0.375 -0.46875,-0.6445312 -0.9140625,-0.6445312 -1.171875,0 -2.40234376,1.4648437 -2.40234376,2.9179687 0,0.93750003 0.55078125,1.59375003 1.32421876,1.59375003 0.1992187,0 0.703125,-0.03515625 1.3007812,-0.73828125 0.070312,0.41015625 0.421875,0.73828125 0.9023438,0.73828125 0.3515625,0 0.5742187,-0.22265625 0.7382812,-0.5390625 0.1640625,-0.36328125 0.2929688,-0.97265623 0.2929688,-0.99609373 0,-0.09375 -0.082031,-0.09375 -0.1171875,-0.09375 -0.09375,0 -0.1054688,0.035156 -0.140625,0.1757812 -0.1640625,0.64453128 -0.3515625,1.24218753 -0.75,1.24218753 -0.2695313,0 -0.3046875,-0.2578125 -0.3046875,-0.45703125 0,-0.22265625 0.023437,-0.3046875 0.1289062,-0.73828128 0.1171875,-0.421875 0.1289063,-0.5273437 0.2226563,-0.9023437 l 0.3515625,-1.3945313 c 0.070312,-0.28125 0.070312,-0.2929687 0.070312,-0.3398437 0,-0.1640625 -0.1171875,-0.2695313 -0.28125,-0.2695313 -0.2460938,0 -0.3867188,0.2226563 -0.4218745,0.4453125 z m -0.6445313,2.578125 c -0.046875,0.1757813 -0.046875,0.19921878 -0.1992187,0.36328128 -0.4453125,0.55078125 -0.84375,0.71484375 -1.125,0.71484375 -0.5039063,0 -0.6445313,-0.55078125 -0.6445313,-0.93750003 0,-0.5039062 0.328125,-1.7226562 0.5507813,-2.1796875 0.3046875,-0.5976562 0.7617187,-0.9609375 1.1601562,-0.9609375 0.6445313,0 0.7851563,0.8203125 0.7851563,0.8789063 0,0.058594 -0.023437,0.1171875 -0.035156,0.1640625 z m 0,0"
         style="fill:#000000;fill-opacity:1;fill-rule:nonzero;stroke:none" />
      <path
         id="path28"
         d="M 8.7839141,0.2271875 H 8.5495391 C 8.5261016,0.37953125 8.4675078,0.7896875 8.3737578,0.86 8.3151641,0.89515625 7.7761016,0.89515625 7.6823516,0.89515625 H 6.3932891 c 0.7382812,-0.64453125 0.984375,-0.84375 1.3945312,-1.171875 0.515625,-0.41015625 0.9960938,-0.84374995 0.9960938,-1.49999995 0,-0.84375 -0.7382813,-1.359375 -1.6289063,-1.359375 -0.8671875,0 -1.453125,0.609375 -1.453125,1.2421875 0,0.3632812 0.3046875,0.3984375 0.375,0.3984375 0.1640625,0 0.375,-0.1171875 0.375,-0.375 0,-0.1289063 -0.058594,-0.3632813 -0.421875,-0.3632813 C 6.2526641,-2.7376562 6.7214141,-2.89 7.0495391,-2.89 c 0.703125,0 1.0664062,0.5507813 1.0664062,1.1132813 0,0.609375 -0.4335937,1.0898437 -0.65625,1.33593745 l -1.6875,1.66406255 c -0.070312,0.058594 -0.070312,0.070312 -0.070312,0.2695312 h 2.8828125 z m 0,0"
         style="fill:#000000;fill-opacity:1;fill-rule:nonzero;stroke:none" />
    </g>
    <path
       id="path29"
       d="M -2.40518,49.09825 H 2.40518"
       style="fill:none;stroke:#000000;stroke-width:0.3985;stroke-linecap:butt;stroke-linejoin:miter;stroke-miterlimit:10;stroke-dasharray:none;stroke-opacity:1"
       transform="matrix(1.3333333,0,0,-1.3333333,34.357333,112.028)" />
    <g
       id="g29"
       aria-label="a&#10;3"
       transform="matrix(1.3333333,0,0,1.3333333,17.710667,50.233333)">
      <path
         id="path30"
         d="m 3.7150469,-3.7609375 c -0.1757813,-0.375 -0.46875,-0.6445313 -0.9140625,-0.6445313 -1.171875,0 -2.40234377,1.4648438 -2.40234377,2.9179688 0,0.9375 0.55078125,1.59375 1.32421877,1.59375 0.1992187,0 0.703125,-0.03515625 1.3007812,-0.73828125 C 3.0939531,-0.221875 3.4455156,0.10625 3.9259844,0.10625 c 0.3515625,0 0.5742187,-0.22265625 0.7382812,-0.5390625 0.1640625,-0.36328125 0.2929688,-0.9726563 0.2929688,-0.9960938 0,-0.09375 -0.082031,-0.09375 -0.1171875,-0.09375 -0.09375,0 -0.1054688,0.035156 -0.140625,0.1757813 -0.1640625,0.64453125 -0.3515625,1.2421875 -0.75,1.2421875 -0.2695313,0 -0.3046875,-0.2578125 -0.3046875,-0.45703125 0,-0.22265625 0.023437,-0.3046875 0.1289062,-0.73828125 0.1171875,-0.421875 0.1289063,-0.5273438 0.2226563,-0.9023438 L 4.3478594,-3.596875 c 0.070312,-0.28125 0.070312,-0.2929688 0.070312,-0.3398438 0,-0.1640625 -0.1171875,-0.2695312 -0.28125,-0.2695312 -0.2460938,0 -0.3867188,0.2226562 -0.4218745,0.4453125 z m -0.6445313,2.578125 c -0.046875,0.1757812 -0.046875,0.19921875 -0.1992187,0.36328125 -0.4453125,0.55078125 -0.84375,0.71484375 -1.125,0.71484375 -0.5039063,0 -0.6445313,-0.55078125 -0.6445313,-0.9375 0,-0.5039063 0.328125,-1.7226563 0.5507813,-2.1796875 0.3046875,-0.5976563 0.7617187,-0.9609375 1.1601562,-0.9609375 0.6445313,0 0.7851563,0.8203125 0.7851563,0.8789062 0,0.058594 -0.023437,0.1171875 -0.035156,0.1640625 z m 0,0"
         style="fill:#000000;fill-opacity:1;fill-rule:nonzero;stroke:none" />
      <path
         id="path31"
         d="m 7.1632891,-0.83710938 c 0.5507812,0 0.9375,0.375 0.9375,1.125 0,0.86718748 -0.5039063,1.12499998 -0.9023438,1.12499998 -0.28125,0 -0.890625,-0.082031 -1.1835937,-0.49218748 0.328125,-0.0117188 0.3984375,-0.24609375 0.3984375,-0.38671875 0,-0.22265625 -0.1640625,-0.38671875 -0.3867188,-0.38671875 -0.1875,0 -0.3867187,0.1171875 -0.3867187,0.41015625 0,0.65625003 0.7265625,1.07812503 1.5703125,1.07812503 0.9726562,0 1.640625,-0.64453128 1.640625,-1.34765628 0,-0.5390625 -0.4453125,-1.08984375 -1.21875,-1.2421875 0.7382812,-0.26953122 0.9960937,-0.79687502 0.9960937,-1.21875002 0,-0.5507812 -0.6328125,-0.9609375 -1.40625,-0.9609375 -0.7734375,0 -1.359375,0.375 -1.359375,0.9375 0,0.234375 0.1523438,0.3632813 0.3632813,0.3632813 0.2109375,0 0.3515625,-0.1640625 0.3515625,-0.3515625 0,-0.1992188 -0.140625,-0.3515625 -0.3515625,-0.3632813 0.234375,-0.3046875 0.7148437,-0.3867187 0.9726562,-0.3867187 0.3164063,0 0.7617188,0.1523437 0.7617188,0.7617187 0,0.2929688 -0.1054688,0.609375 -0.28125,0.8320313 -0.234375,0.2578125 -0.421875,0.28125 -0.7734375,0.2929687 -0.1757813,0.023437 -0.1875,0.023437 -0.2226563,0.023437 -0.011719,0 -0.070312,0.011719 -0.070312,0.09375 0,0.09375 0.058594,0.09375 0.1757813,0.09375 z m 0,0"
         style="fill:#000000;fill-opacity:1;fill-rule:nonzero;stroke:none" />
    </g>
    <path
       id="path32"
       d="M 160.35399,-20.04381 H 276.61038"
       style="fill:none;stroke:#eace2b;stroke-width:0.79701;stroke-linecap:butt;stroke-linejoin:miter;stroke-miterlimit:10;stroke-dasharray:2.98883, 2.98883;stroke-dashoffset:0;stroke-opacity:1"
       transform="matrix(1.3333333,0,0,-1.3333333,34.357333,112.028)" />
    <path
       id="path33"
       d="m 4.2181563,11.554672 c 0.3164062,0 0.328125,-0.01172 0.421875,-0.199219 L 10.08925,-0.02345313 c 0.07031,-0.12890625 0.07031,-0.140625 0.07031,-0.17578125 0,-0.10546875 -0.08203,-0.19921875 -0.1992192,-0.19921875 -0.1289063,0 -0.1640625,0.09375 -0.2226563,0.19921875 L 4.604875,10.523422 2.4837813,5.5781094 1.1009688,6.6445156 1.2415938,6.8085781 1.9564375,6.2695156 Z m 0,0"
       style="fill:#000000;fill-opacity:1;fill-rule:nonzero;stroke:none"
       aria-label="p"
       transform="matrix(1.3333333,0,0,1.3333333,297.92267,147.94533)" />
    <path
       id="path34"
       d="M 0,0 H 31.647"
       style="fill:none;stroke:#000000;stroke-width:0.398;stroke-linecap:butt;stroke-linejoin:miter;stroke-miterlimit:10;stroke-dasharray:none;stroke-opacity:1"
       transform="matrix(1.3333333,0,0,-1.3333333,311.20667,147.68)" />
    <g
       id="g34"
       aria-label="a&#10;2&#10;1&#10;+a&#10;2&#10;2"
       transform="matrix(1.3333333,0,0,1.3333333,311.20667,159.496)">
      <path
         id="path35"
         d="m 3.7151172,-3.7616484 c -0.1757813,-0.375 -0.46875,-0.6445313 -0.9140625,-0.6445313 -1.171875,0 -2.40234376,1.4648438 -2.40234376,2.9179688 0,0.93749996 0.55078125,1.59374996 1.32421876,1.59374996 0.1992187,0 0.703125,-0.03515625 1.3007812,-0.73828125 0.070312,0.41015625 0.421875,0.73828125 0.9023438,0.73828125 0.3515625,0 0.5742187,-0.22265625 0.7382812,-0.5390625 0.1640625,-0.36328125 0.2929688,-0.97265626 0.2929688,-0.99609376 0,-0.09375 -0.082031,-0.09375 -0.1171875,-0.09375 -0.09375,0 -0.1054688,0.035156 -0.140625,0.1757813 -0.1640625,0.64453121 -0.3515625,1.24218746 -0.75,1.24218746 -0.2695313,0 -0.3046875,-0.2578125 -0.3046875,-0.45703125 0,-0.22265625 0.023437,-0.3046875 0.1289062,-0.73828121 0.1171875,-0.421875 0.1289063,-0.5273438 0.2226563,-0.9023438 l 0.3515625,-1.3945312 c 0.070312,-0.28125 0.070312,-0.2929688 0.070312,-0.3398438 0,-0.1640625 -0.1171875,-0.2695312 -0.28125,-0.2695312 -0.2460938,0 -0.3867188,0.2226562 -0.4218745,0.4453125 z m -0.6445313,2.578125 c -0.046875,0.1757812 -0.046875,0.19921871 -0.1992187,0.36328121 -0.4453125,0.55078125 -0.84375,0.71484375 -1.125,0.71484375 -0.5039063,0 -0.6445313,-0.55078125 -0.6445313,-0.93749996 0,-0.5039063 0.328125,-1.7226563 0.5507813,-2.1796875 0.3046875,-0.5976563 0.7617187,-0.9609375 1.1601562,-0.9609375 0.6445313,0 0.7851563,0.8203125 0.7851563,0.8789062 0,0.058594 -0.023437,0.1171875 -0.035156,0.1640625 z m 0,0"
         style="fill:#000000;fill-opacity:1;fill-rule:nonzero;stroke:none" />
      <path
         id="path36"
         d="m 8.7805469,-4.6962187 h -0.234375 c -0.023437,0.1523437 -0.082031,0.5625 -0.1757813,0.6328125 C 8.3117969,-4.02825 7.7727344,-4.02825 7.6789844,-4.02825 H 6.3899219 c 0.7382812,-0.6445312 0.984375,-0.84375 1.3945312,-1.171875 0.515625,-0.4101562 0.9960938,-0.84375 0.9960938,-1.5 0,-0.84375 -0.7382813,-1.359375 -1.6289063,-1.359375 -0.8671875,0 -1.453125,0.609375 -1.453125,1.2421875 0,0.3632813 0.3046875,0.3984375 0.375,0.3984375 0.1640625,0 0.375,-0.1171875 0.375,-0.375 0,-0.1289062 -0.058594,-0.3632812 -0.421875,-0.3632812 0.2226563,-0.5039063 0.6914063,-0.65625 1.0195313,-0.65625 0.703125,0 1.0664062,0.5507812 1.0664062,1.1132812 0,0.609375 -0.4335937,1.0898438 -0.65625,1.3359375 l -1.6875,1.6640625 c -0.070312,0.058594 -0.070312,0.070312 -0.070312,0.2695313 h 2.8828125 z m -1.1835938,2.9238281 c 0,-0.1875 -0.011719,-0.1992188 -0.2109375,-0.1992188 -0.4453125,0.4335938 -1.078125,0.4453125 -1.359375,0.4453125 v 0.2460938 c 0.1640625,0 0.6210938,0 1.0078125,-0.1875 v 3.5507812 c 0,0.234375 0,0.328125 -0.6914062,0.328125 H 6.0735156 v 0.2460938 c 0.1289063,-0.011719 0.984375,-0.023437 1.2421875,-0.023437 0.2109375,0 1.0898438,0.011719 1.2421875,0.023437 V 2.4112031 H 8.3000781 c -0.703125,0 -0.703125,-0.09375 -0.703125,-0.328125 z m 0,0"
         style="fill:#000000;fill-opacity:1;fill-rule:nonzero;stroke:none" />
      <path
         id="path37"
         d="m 16.025664,-2.2968047 h 2.777344 c 0.140625,0 0.328125,0 0.328125,-0.1992187 0,-0.1992188 -0.1875,-0.1992188 -0.328125,-0.1992188 h -2.777344 v -2.7890625 c 0,-0.1289062 0,-0.328125 -0.199219,-0.328125 -0.199218,0 -0.199218,0.1992188 -0.199218,0.328125 v 2.7890625 h -2.789063 c -0.140625,0 -0.328125,0 -0.328125,0.1992188 0,0.1992187 0.1875,0.1992187 0.328125,0.1992187 h 2.789063 v 2.80078126 c 0,0.12890625 0,0.328125 0.199218,0.328125 0.199219,0 0.199219,-0.19921875 0.199219,-0.328125 z m 0,0"
         style="fill:#000000;fill-opacity:1;fill-rule:nonzero;stroke:none" />
      <path
         id="path38"
         d="m 25.62625,-3.7616484 c -0.175781,-0.375 -0.46875,-0.6445313 -0.914062,-0.6445313 -1.171875,0 -2.402344,1.4648438 -2.402344,2.9179688 0,0.93749996 0.550781,1.59374996 1.324219,1.59374996 0.199218,0 0.703125,-0.03515625 1.300781,-0.73828125 0.07031,0.41015625 0.421875,0.73828125 0.902344,0.73828125 0.351562,0 0.574218,-0.22265625 0.738281,-0.5390625 0.164062,-0.36328125 0.292969,-0.97265626 0.292969,-0.99609376 0,-0.09375 -0.08203,-0.09375 -0.117188,-0.09375 -0.09375,0 -0.105469,0.035156 -0.140625,0.1757813 -0.164062,0.64453121 -0.351562,1.24218746 -0.75,1.24218746 -0.269531,0 -0.304687,-0.2578125 -0.304687,-0.45703125 0,-0.22265625 0.02344,-0.3046875 0.128906,-0.73828121 0.117187,-0.421875 0.128906,-0.5273438 0.222656,-0.9023438 l 0.351563,-1.3945312 c 0.07031,-0.28125 0.07031,-0.2929688 0.07031,-0.3398438 0,-0.1640625 -0.117187,-0.2695312 -0.28125,-0.2695312 -0.246094,0 -0.386719,0.2226562 -0.421875,0.4453125 z m -0.644531,2.578125 c -0.04687,0.1757812 -0.04687,0.19921871 -0.199219,0.36328121 -0.445312,0.55078125 -0.84375,0.71484375 -1.125,0.71484375 -0.503906,0 -0.644531,-0.55078125 -0.644531,-0.93749996 0,-0.5039063 0.328125,-1.7226563 0.550781,-2.1796875 0.304688,-0.5976563 0.761719,-0.9609375 1.160156,-0.9609375 0.644532,0 0.785157,0.8203125 0.785157,0.8789062 0,0.058594 -0.02344,0.1171875 -0.03516,0.1640625 z m 0,0"
         style="fill:#000000;fill-opacity:1;fill-rule:nonzero;stroke:none" />
      <path
         id="path39"
         d="m 30.694609,-4.6962187 h -0.234375 c -0.02344,0.1523437 -0.08203,0.5625 -0.175781,0.6328125 -0.05859,0.035156 -0.597656,0.035156 -0.691406,0.035156 h -1.289063 c 0.738282,-0.6445312 0.984375,-0.84375 1.394532,-1.171875 0.515625,-0.4101562 0.996093,-0.84375 0.996093,-1.5 0,-0.84375 -0.738281,-1.359375 -1.628906,-1.359375 -0.867187,0 -1.453125,0.609375 -1.453125,1.2421875 0,0.3632813 0.304688,0.3984375 0.375,0.3984375 0.164063,0 0.375,-0.1171875 0.375,-0.375 0,-0.1289062 -0.05859,-0.3632812 -0.421875,-0.3632812 0.222656,-0.5039063 0.691406,-0.65625 1.019531,-0.65625 0.703125,0 1.066407,0.5507812 1.066407,1.1132812 0,0.609375 -0.433594,1.0898438 -0.65625,1.3359375 l -1.6875,1.6640625 c -0.07031,0.058594 -0.07031,0.070312 -0.07031,0.2695313 h 2.882813 z m 0,6.0878906 h -0.234375 c -0.02344,0.1523437 -0.08203,0.5625 -0.175781,0.6328125 -0.05859,0.035156 -0.597656,0.035156 -0.691406,0.035156 h -1.289063 c 0.738282,-0.6445312 0.984375,-0.84375 1.394532,-1.17187497 0.515625,-0.41015625 0.996093,-0.84375 0.996093,-1.5 0,-0.84375003 -0.738281,-1.35937503 -1.628906,-1.35937503 -0.867187,0 -1.453125,0.609375 -1.453125,1.24218753 0,0.36328125 0.304688,0.3984375 0.375,0.3984375 0.164063,0 0.375,-0.1171875 0.375,-0.375 0,-0.12890625 -0.05859,-0.36328123 -0.421875,-0.36328123 0.222656,-0.5039063 0.691406,-0.65625 1.019531,-0.65625 0.703125,0 1.066407,0.5507812 1.066407,1.11328123 0,0.609375 -0.433594,1.08984375 -0.65625,1.3359375 l -1.6875,1.66406247 c -0.07031,0.058594 -0.07031,0.070312 -0.07031,0.2695313 h 2.882813 z m 0,0"
         style="fill:#000000;fill-opacity:1;fill-rule:nonzero;stroke:none" />
    </g>
    <path
       id="path40"
       d="M 276.61038,-20.04381 V 29.05444"
       style="fill:none;stroke:#449fe3;stroke-width:0.79701;stroke-linecap:butt;stroke-linejoin:miter;stroke-miterlimit:10;stroke-dasharray:2.98883, 2.98883;stroke-dashoffset:0;stroke-opacity:1"
       transform="matrix(1.3333333,0,0,-1.3333333,34.357333,112.028)" />
    <path
       id="path41"
       d="M 1.3232266,-0.83271094 C 1.8622891,-1.4069297 2.1552578,-1.6530234 2.5068203,-1.9577109 c 0,-0.011719 0.6210938,-0.5390625 0.984375,-0.9023438 0.9375,-0.9257812 1.1601563,-1.40625 1.1601563,-1.4414062 0,-0.1054688 -0.09375,-0.1054688 -0.1054688,-0.1054688 -0.070312,0 -0.1054687,0.023437 -0.1523437,0.1171875 -0.3046875,0.46875 -0.5039063,0.6328125 -0.75,0.6328125 -0.234375,0 -0.3515625,-0.1523437 -0.5039063,-0.3164062 -0.1875,-0.234375 -0.3632812,-0.4335938 -0.6914062,-0.4335938 -0.75,0 -1.2070313,0.9257813 -1.2070313,1.1367188 0,0.046875 0.035156,0.1171875 0.1171875,0.1171875 0.09375,0 0.1171875,-0.058594 0.140625,-0.1171875 0.1875,-0.4570313 0.7617188,-0.46875 0.84375,-0.46875 0.2109375,0 0.3984375,0.070312 0.6210938,0.1523437 0.3984375,0.1523438 0.515625,0.1523438 0.7734375,0.1523438 -0.3632813,0.421875 -1.1953125,1.1367187 -1.3828125,1.3007812 l -0.9023438,0.8320313 c -0.67968749,0.66796871 -1.01953124,1.24218746 -1.01953124,1.31249996 0,0.09375 0.09375,0.09375 0.1171875,0.09375 0.0820313,0 0.09375,-0.01171875 0.15234375,-0.12890625 0.234375,-0.33984375 0.52734379,-0.609375 0.85546879,-0.609375 0.2226562,0 0.328125,0.0820313 0.5742187,0.375 0.1640625,0.2109375 0.3515625,0.36328125 0.6328125,0.36328125 0.984375,0 1.5703125,-1.26562496 1.5703125,-1.53515626 0,-0.046875 -0.046875,-0.09375 -0.1171875,-0.09375 -0.09375,0 -0.1171875,0.058594 -0.140625,0.1289063 -0.234375,0.64453121 -0.8671875,0.83203121 -1.1953125,0.83203121 -0.1992187,0 -0.3867187,-0.0585938 -0.5859375,-0.12890625 -0.3398437,-0.12890625 -0.4921875,-0.1640625 -0.703125,-0.1640625 -0.023437,0 -0.1757812,0 -0.2695312,0.0234375 z m 0,0"
       style="fill:#000000;fill-opacity:1;fill-rule:nonzero;stroke:none"
       aria-label="z"
       transform="matrix(1.3333333,0,0,1.3333333,244.77867,36.872)" />
    <path
       id="path42"
       d="M 160.35399,-26.18108 V 53.1453"
       style="fill:none;stroke:#000000;stroke-width:0.3985;stroke-linecap:butt;stroke-linejoin:miter;stroke-miterlimit:10;stroke-dasharray:none;stroke-opacity:1"
       transform="matrix(1.3333333,0,0,-1.3333333,34.357333,112.028)" />
    <path
       id="path43"
       d="M -1.19551,1.59401 C -1.09587,0.99626 0,0.09961 0.29886,0 0,-0.09961 -1.09587,-0.99626 -1.19551,-1.59401"
       style="fill:none;stroke:#000000;stroke-width:0.31879;stroke-linecap:round;stroke-linejoin:round;stroke-miterlimit:10;stroke-dasharray:none;stroke-opacity:1"
       transform="matrix(0,-1.3333333,-1.3333333,0,248.16265,41.1676)" />
    <path
       id="path44"
       d="m 157.94879,29.05444 h 4.8104"
       style="fill:none;stroke:#000000;stroke-width:0.3985;stroke-linecap:butt;stroke-linejoin:miter;stroke-miterlimit:10;stroke-dasharray:none;stroke-opacity:1"
       transform="matrix(1.3333333,0,0,-1.3333333,34.357333,112.028)" />
    <g
       id="g44"
       aria-label="a&#10;3"
       transform="matrix(1.3333333,0,0,1.3333333,231.51333,76.957333)">
      <path
         id="path45"
         d="m 3.7136328,-3.7619453 c -0.1757812,-0.375 -0.46875,-0.6445313 -0.9140625,-0.6445313 -1.171875,0 -2.40234374,1.4648438 -2.40234374,2.9179688 0,0.93749999 0.55078125,1.59374999 1.32421874,1.59374999 0.1992188,0 0.703125,-0.03515625 1.3007813,-0.73828125 0.070312,0.41015625 0.421875,0.73828125 0.9023437,0.73828125 0.3515625,0 0.5742188,-0.22265625 0.7382813,-0.5390625 0.1640625,-0.36328125 0.2929687,-0.97265629 0.2929687,-0.99609379 0,-0.09375 -0.082031,-0.09375 -0.1171875,-0.09375 -0.09375,0 -0.1054687,0.035156 -0.140625,0.1757813 -0.1640625,0.64453124 -0.3515625,1.24218749 -0.75,1.24218749 -0.2695312,0 -0.3046875,-0.2578125 -0.3046875,-0.45703125 0,-0.22265625 0.023437,-0.3046875 0.1289063,-0.73828124 0.1171875,-0.421875 0.1289062,-0.5273438 0.2226562,-0.9023438 l 0.3515625,-1.3945312 c 0.070312,-0.28125 0.070312,-0.2929688 0.070312,-0.3398438 0,-0.1640625 -0.1171875,-0.2695312 -0.28125,-0.2695312 -0.2460937,0 -0.3867187,0.2226562 -0.4218745,0.4453125 z m -0.6445312,2.578125 c -0.046875,0.1757812 -0.046875,0.19921874 -0.1992188,0.36328124 -0.4453125,0.55078125 -0.84375,0.71484375 -1.125,0.71484375 -0.5039062,0 -0.6445312,-0.55078125 -0.6445312,-0.93749999 0,-0.5039063 0.328125,-1.7226563 0.5507812,-2.1796875 0.3046875,-0.5976563 0.7617188,-0.9609375 1.1601563,-0.9609375 0.6445312,0 0.7851562,0.8203125 0.7851562,0.8789062 0,0.058594 -0.023437,0.1171875 -0.035156,0.1640625 z m 0,0"
         style="fill:#000000;fill-opacity:1;fill-rule:nonzero;stroke:none" />
      <path
         id="path46"
         d="m 7.1648047,-0.83811719 c 0.5507812,0 0.9375,0.375 0.9375,1.125 0,0.86718749 -0.5039063,1.12499999 -0.9023438,1.12499999 -0.28125,0 -0.890625,-0.082031 -1.1835937,-0.49218749 0.328125,-0.0117188 0.3984375,-0.24609375 0.3984375,-0.38671875 0,-0.22265625 -0.1640625,-0.38671875 -0.3867188,-0.38671875 -0.1875,0 -0.3867187,0.1171875 -0.3867187,0.41015625 0,0.65625004 0.7265625,1.07812504 1.5703125,1.07812504 0.9726562,0 1.640625,-0.64453129 1.640625,-1.34765629 0,-0.5390625 -0.4453125,-1.08984375 -1.21875,-1.2421875 0.7382812,-0.26953121 0.9960937,-0.79687501 0.9960937,-1.21875001 0,-0.5507812 -0.6328125,-0.9609375 -1.40625,-0.9609375 -0.7734375,0 -1.359375,0.375 -1.359375,0.9375 0,0.234375 0.1523438,0.3632813 0.3632813,0.3632813 0.2109375,0 0.3515625,-0.1640625 0.3515625,-0.3515625 0,-0.1992188 -0.140625,-0.3515625 -0.3515625,-0.3632813 0.234375,-0.3046875 0.7148437,-0.3867187 0.9726562,-0.3867187 0.3164063,0 0.7617188,0.1523437 0.7617188,0.7617187 0,0.2929688 -0.1054688,0.609375 -0.28125,0.8320313 -0.234375,0.2578125 -0.421875,0.28125 -0.7734375,0.2929687 -0.1757813,0.023437 -0.1875,0.023437 -0.2226563,0.023437 -0.011719,0 -0.070312,0.011719 -0.070312,0.09375 0,0.09375 0.058594,0.09375 0.1757813,0.09375 z m 0,0"
         style="fill:#000000;fill-opacity:1;fill-rule:nonzero;stroke:none" />
    </g>
    <path
       id="path47"
       d="M 160.35399,-20.04381 276.18825,28.87616"
       style="fill:none;stroke:#000000;stroke-width:0.3985;stroke-linecap:butt;stroke-linejoin:miter;stroke-miterlimit:10;stroke-dasharray:none;stroke-opacity:1"
       transform="matrix(1.3333333,0,0,-1.3333333,34.357333,112.028)" />
    <path
       id="path48"
       d="M -1.19551,1.59401 C -1.09587,0.99626 0,0.09961 0.29886,0 0,-0.09961 -1.09587,-0.99626 -1.19551,-1.59401"
       style="fill:none;stroke:#000000;stroke-width:0.31879;stroke-linecap:round;stroke-linejoin:round;stroke-miterlimit:10;stroke-dasharray:none;stroke-opacity:1"
       transform="matrix(1.2282267,-0.51872,-0.51872,-1.2282267,402.60833,73.52648)" />
    <path
       id="path49"
       d="m 5.3427266,-5.9305703 c -0.1289063,0.1289062 -0.4570313,0.4101562 -0.4570313,0.5859375 0,0.1054687 0.09375,0.1992187 0.1992188,0.1992187 0.082031,0 0.1289062,-0.070312 0.1875,-0.1289062 0.1171875,-0.140625 0.3398437,-0.421875 0.7851562,-0.6445313 0.070312,-0.035156 0.1640625,-0.09375 0.1640625,-0.2109375 0,-0.09375 -0.070312,-0.1523437 -0.140625,-0.1992187 -0.2109375,-0.1523438 -0.328125,-0.328125 -0.3984375,-0.5625 -0.023437,-0.09375 -0.070312,-0.2226563 -0.1992187,-0.2226563 -0.140625,0 -0.1992188,0.1289063 -0.1992188,0.2109375 0,0.046875 0.070312,0.3632813 0.234375,0.5742188 H 2.1552266 c -0.1640625,0 -0.3398438,0 -0.3398438,0.1992187 0,0.1992188 0.1757813,0.1992188 0.3398438,0.1992188 z m -0.9990235,2.1679687 c -0.1757812,-0.375 -0.46875,-0.6445312 -0.9140625,-0.6445312 -1.171875,0 -2.4023437,1.4648437 -2.4023437,2.9179687 0,0.93750004 0.5507812,1.59375004 1.3242187,1.59375004 0.1992188,0 0.703125,-0.03515625 1.3007813,-0.73828125 0.070312,0.41015625 0.421875,0.73828125 0.9023437,0.73828125 0.3515625,0 0.5742188,-0.22265625 0.7382813,-0.5390625 0.1640625,-0.36328125 0.2929687,-0.97265624 0.2929687,-0.99609374 0,-0.09375 -0.082031,-0.09375 -0.1171875,-0.09375 -0.09375,0 -0.1054687,0.035156 -0.140625,0.1757812 -0.1640625,0.64453129 -0.3515625,1.24218754 -0.75,1.24218754 -0.2695312,0 -0.3046875,-0.2578125 -0.3046875,-0.45703125 0,-0.22265625 0.023437,-0.3046875 0.1289063,-0.73828129 0.1171875,-0.421875 0.1289062,-0.5273437 0.2226562,-0.9023437 l 0.3515625,-1.3945313 c 0.070312,-0.28125 0.070312,-0.2929687 0.070312,-0.3398437 0,-0.1640625 -0.1171875,-0.2695313 -0.28125,-0.2695313 -0.2460937,0 -0.3867187,0.2226563 -0.4218745,0.4453125 z m -0.6445312,2.578125 c -0.046875,0.1757813 -0.046875,0.19921879 -0.1992188,0.36328129 -0.4453125,0.55078125 -0.84375,0.71484375 -1.125,0.71484375 -0.5039062,0 -0.6445312,-0.55078125 -0.6445312,-0.93750004 0,-0.5039062 0.328125,-1.7226562 0.5507812,-2.1796875 0.3046875,-0.5976562 0.7617188,-0.9609375 1.1601563,-0.9609375 0.6445312,0 0.7851562,0.8203125 0.7851562,0.8789063 0,0.058594 -0.023437,0.1171875 -0.035156,0.1640625 z m 0,0"
       style="fill:#000000;fill-opacity:1;fill-rule:nonzero;stroke:none"
       aria-label="⃗a"
       transform="matrix(1.3333333,0,0,1.3333333,404.16933,74.161333)" />
    <g
       id="g49"
       aria-label="|⃗a|=&#10;p"
       transform="matrix(1.2180533,-0.54232,0.54232,1.2180533,274.088,120.68267)">
      <path
         id="path50"
         d="m 1.5810595,-7.1202816 c -0.00227,-0.1677722 0.005,-0.3569557 -0.1889549,-0.3535141 -0.2046556,-0.00132 -0.2119197,0.1878586 -0.2096507,0.3556308 l -1.547e-4,9.2488077 c -0.0025,0.1784779 9.441e-4,0.3724279 0.2055997,0.3737528 0.19395,-0.00344 0.1905084,-0.1973916 0.193006,-0.3758694 z m 0,0"
         style="fill:#000000;fill-opacity:1;fill-rule:nonzero;stroke:none" />
      <path
         id="path51"
         d="m 7.4867498,-5.9211662 c -0.1202593,0.1260461 -0.4595501,0.3983009 -0.4465755,0.5708397 -0.010782,0.1106501 0.077208,0.2011378 0.1819195,0.1964475 0.084472,0.011954 0.1440158,-0.064158 0.1940262,-0.1188583 0.1143202,-0.1415183 0.3429608,-0.4245549 0.7845413,-0.6384388 0.071422,-0.045168 0.1630819,-0.1069801 0.163158,-0.2223968 0.00125,-0.089239 -0.059391,-0.1547214 -0.145036,-0.1928536 C 8.0177978,-6.4800515 7.9048786,-6.6586055 7.8264976,-6.8859212 7.8015686,-6.9739875 7.7635888,-7.1191759 7.6327,-7.113313 c -0.1415945,0.0011 -0.2035592,0.1402696 -0.2107471,0.2140363 0.00235,0.052356 0.073538,0.353438 0.235219,0.5665302 l -3.3625563,0.00373 c -0.1677722,0.00227 -0.3355444,0.00454 -0.3321028,0.198488 -0.00133,0.2046557 0.1664473,0.2023867 0.3342195,0.2001177 z m -1.0035882,2.160427 C 6.3037397,-4.1356646 6.0135914,-4.4059551 5.5626303,-4.4014933 c -1.1648726,-0.00553 -2.3949692,1.4607615 -2.3983046,2.908823 0.00533,0.93880569 0.5593723,1.59597592 1.3304058,1.59291519 0.2046556,0.001325 0.6960941,-0.03642636 1.2998124,-0.72971825 0.060411,0.41173259 0.431438,0.73086084 0.9038104,0.73593205 0.3462501,2.2851e-4 0.5724693,-0.21974691 0.7416427,-0.54208823 0.151356,-0.36875775 0.2814531,-0.97788196 0.275514,-0.99335406 0.00602,-0.099945 -0.072518,-0.096427 -0.1094014,-0.1000207 -0.089239,-0.00125 -0.108305,0.041574 -0.144092,0.1795742 -0.1491632,0.65194671 -0.3482606,1.2431774 -0.7468662,1.24529406 -0.2677168,-0.003746 -0.3103869,-0.25364575 -0.309062,-0.45830137 0.00609,-0.21536125 0.033518,-0.30577276 0.1349398,-0.73524649 0.1121275,-0.4247072 0.1336149,-0.5305909 0.2373819,-0.9077091 l 0.3364585,-1.3895383 c 0.060868,-0.2807676 0.065635,-0.2914732 0.06329,-0.3438288 0.00844,-0.1630057 -0.1116704,-0.2677929 -0.2746761,-0.2762295 -0.2463056,0.00579 -0.3832859,0.2270109 -0.4203219,0.4542504 z m -0.6454144,2.5732484 c -0.039381,0.174884 -0.038208,0.20106173 -0.1882394,0.36516385 -0.4525146,0.55536754 -0.8595568,0.72048991 -1.1379792,0.71197711 -0.5033167,0.006807 -0.6433577,-0.54300229 -0.6395353,-0.92613576 -0.00204,-0.5140223 0.3259814,-1.740555 0.5475865,-2.1806581 0.308575,-0.6066267 0.7645311,-0.9680442 1.1631368,-0.9701609 0.6401446,0.0028 0.7764393,0.8203283 0.7787845,0.8726838 -0.00242,0.063061 -0.020315,0.1320615 -0.023909,0.1689448 z m 0,0"
         style="fill:#000000;fill-opacity:1;fill-rule:nonzero;stroke:none" />
      <path
         id="path52"
         d="m 9.6114476,-7.1206335 c -0.00227,-0.1677723 0.00499,-0.3569558 -0.188955,-0.3535142 -0.2046556,-0.00132 -0.2119197,0.1878586 -0.2096507,0.3556308 l -1.547e-4,9.2488078 c -0.0025,0.1784778 9.441e-4,0.3724278 0.2055997,0.3737527 0.19395,-0.00344 0.1905085,-0.1973915 0.193006,-0.3758694 z m 0,0"
         style="fill:#000000;fill-opacity:1;fill-rule:nonzero;stroke:none" />
      <path
         id="path53"
         d="m 20.419404,-3.2610205 c 0.141594,-0.0011 0.330778,0.00617 0.327336,-0.1877823 0.0013,-0.2046557 -0.187858,-0.2119197 -0.329453,-0.2108233 l -5.964785,-3.67e-4 c -0.141594,0.0011 -0.320072,-0.0014 -0.321397,0.2032545 0.0034,0.19395 0.18192,0.1964475 0.33422,0.2001176 z m -0.0025,1.9359061 c 0.141595,-0.0011 0.330778,0.00617 0.332103,-0.198488 -0.0034,-0.19395 -0.192625,-0.201214 -0.334219,-0.2001176 l -5.954079,0.0044 c -0.152301,-0.00367 -0.330778,-0.00617 -0.327337,0.1877824 -0.0013,0.2046556 0.177153,0.2071532 0.318748,0.2060568 z m 0,0"
         style="fill:#000000;fill-opacity:1;fill-rule:nonzero;stroke:none" />
      <path
         id="path54"
         d="m 28.300859,2.9002366 c 0.320073,0.0014 0.329606,-0.02001 0.426109,-0.2079448 l 5.449943,-11.3762563 c 0.07267,-0.1344066 0.06673,-0.1498787 0.07033,-0.1867621 -0.0047,-0.1047111 -0.08197,-0.1904323 -0.208097,-0.195275 -0.130889,0.00586 -0.158316,0.096274 -0.216686,0.1985642 l -5.133008,10.7220406 -2.114702,-4.9309995 -1.384514,1.0640139 0.133158,0.1619093 0.726171,-0.5361491 z m 0,0"
         style="fill:#000000;fill-opacity:1;fill-rule:nonzero;stroke:none" />
    </g>
    <path
       id="path55"
       d="M 0,0 H 53.559"
       style="fill:none;stroke:#000000;stroke-width:0.398;stroke-linecap:butt;stroke-linejoin:miter;stroke-miterlimit:10;stroke-dasharray:none;stroke-opacity:1"
       transform="matrix(1.2180533,-0.54232,-0.54232,-1.2180533,310.75302,91.423909)" />
    <g
       id="g55"
       aria-label="a&#10;2&#10;1&#10;+a&#10;2&#10;2&#10;+a&#10;2&#10;3"
       transform="matrix(1.2180533,-0.54232,0.54232,1.2180533,315.55906,102.2183)">
      <path
         id="path56"
         d="M 3.7132065,-3.7597298 C 3.5337846,-4.1346552 3.2436363,-4.4049457 2.7926752,-4.4004839 c -1.1648726,-0.00553 -2.39496916,1.4607615 -2.39830457,2.908823 0.00533,0.93880569 0.55937233,1.59597592 1.33040577,1.59291519 0.2046557,0.001325 0.6960941,-0.03642636 1.2998124,-0.72971825 0.060411,0.41173259 0.4314381,0.73086084 0.9038105,0.73593205 0.34625,2.2851e-4 0.5724693,-0.21974691 0.7416426,-0.54208822 0.151356,-0.36875775 0.2814531,-0.97788197 0.275514,-0.99335407 0.00602,-0.099945 -0.072518,-0.096427 -0.1094014,-0.1000207 -0.089239,-0.00125 -0.108305,0.041574 -0.144092,0.1795742 -0.1491632,0.65194672 -0.3482605,1.2431774 -0.7468662,1.24529406 -0.2677167,-0.003746 -0.3103869,-0.25364574 -0.309062,-0.45830137 0.00609,-0.21536124 0.033518,-0.30577276 0.1349398,-0.73524649 0.1121275,-0.4247072 0.1336149,-0.5305909 0.2373819,-0.9077091 l 0.3364585,-1.3895383 c 0.060868,-0.2807676 0.065635,-0.2914732 0.06329,-0.3438288 0.00844,-0.1630057 -0.1116704,-0.2677929 -0.2746761,-0.2762295 -0.2463055,0.00579 -0.3832858,0.2270109 -0.4203219,0.4542504 z m -0.6454143,2.5732484 c -0.039381,0.174884 -0.038208,0.20106173 -0.1882394,0.36516386 -0.4525146,0.55536753 -0.8595569,0.7204899 -1.1379793,0.7119771 -0.5033167,0.006807 -0.6433577,-0.54300229 -0.6395352,-0.92613576 -0.00204,-0.5140223 0.3259814,-1.740555 0.5475864,-2.1806581 0.308575,-0.6066267 0.7645312,-0.9680442 1.1631368,-0.9701609 0.6401446,0.0028 0.7764394,0.8203283 0.7787845,0.8726838 -0.00242,0.063061 -0.020315,0.1320615 -0.023909,0.1689448 z m 0,0"
         style="fill:#000000;fill-opacity:1;fill-rule:nonzero;stroke:none" />
      <path
         id="path57"
         d="M 8.7820502,-4.7002436 8.5512168,-4.700396 c -0.029848,0.1534727 -0.084853,0.5651291 -0.18128,0.6376472 -0.051183,0.028523 -0.6020887,0.026969 -0.6913276,0.025721 l -1.2850558,0.0051 C 7.1305057,-4.6787262 7.3686031,-4.8677573 7.784082,-5.1958854 8.3007541,-5.6072371 8.7793703,-6.0483606 8.7869391,-6.6992108 8.7803606,-7.5487776 8.04417,-8.0561453 7.1470142,-8.0579272 c -0.870978,-0.00295 -1.4520363,0.6106314 -1.450072,1.2400704 0.00571,0.3617223 0.3114834,0.3952402 0.3745446,0.3976616 0.1677722,-0.00227 0.372504,-0.1163608 0.3714837,-0.3733719 0.00484,-0.1261224 -0.042594,-0.3653162 -0.4150218,-0.3643721 0.2240264,-0.5031644 0.6893633,-0.6551598 1.0249077,-0.6596978 0.7032058,0.00522 1.0633746,0.5504187 1.0677603,1.1167966 -0.00397,0.6139668 -0.444535,1.0848619 -0.6588761,1.3357817 l -1.6930882,1.6706406 c -0.065482,0.06064 -0.065482,0.06064 -0.066807,0.2652954 l 2.8854174,0.0019 z m -1.1855498,2.9292561 c 0.00726,-0.1891835 -0.00938,-0.2094222 -0.2140363,-0.2107471 -0.4417328,0.4447173 -1.0759384,0.4573873 -1.3591273,0.4595801 l -0.00492,0.241539 c 0.1677722,-0.00227 0.629439,-0.00196 1.0198365,-0.1873253 l -0.00353,3.5517398 c -0.00492,0.241539 -0.00617,0.3307779 -0.6986677,0.3303209 l -0.2677168,-0.00375 0.00579,0.2463055 c 0.1356554,-0.016568 0.9852222,-0.023147 1.2422333,-0.024167 0.2094222,-0.00938 1.0970449,0.013813 1.2445785,0.028188 l -0.00579,-0.2463055 -0.2570111,0.00102 C 7.5949308,2.4101912 7.5961795,2.3209523 7.6010984,2.0794133 Z m 0,0"
         style="fill:#000000;fill-opacity:1;fill-rule:nonzero;stroke:none" />
      <path
         id="path58"
         d="m 16.026735,-2.3020522 2.770001,0.00183 c 0.141594,-0.0011 0.330778,0.00617 0.332103,-0.198488 -0.0034,-0.19395 -0.192625,-0.201214 -0.33422,-0.2001176 l -2.77,-0.00183 0.01136,-2.7914119 c -0.0059,-0.1308888 -0.0093,-0.3248388 -0.21396,-0.3261638 -0.19395,0.00344 -0.190509,0.1973916 -0.184646,0.3282805 l -0.01136,2.7914119 -2.796178,-6.556e-4 c -0.141595,0.0011 -0.320073,-0.0014 -0.316631,0.1925489 -0.0013,0.2046556 0.177153,0.2071532 0.318747,0.2060568 l 2.796179,6.555e-4 -6.56e-4,2.79617845 c 0.0059,0.13088884 0.0045,0.33554446 0.198488,0.33210288 0.204656,0.001325 0.205981,-0.20333069 0.200118,-0.33421953 z m 0,0"
         style="fill:#000000;fill-opacity:1;fill-rule:nonzero;stroke:none" />
      <path
         id="path59"
         d="m 25.626027,-3.7589513 c -0.179422,-0.3749254 -0.46957,-0.6452158 -0.920531,-0.640754 -1.164873,-0.00553 -2.394969,1.4607614 -2.398305,2.9088229 0.0053,0.93880573 0.559372,1.59597596 1.330406,1.59291523 0.204656,0.001325 0.696094,-0.03642635 1.299812,-0.72971825 0.06041,0.41173259 0.431438,0.73086084 0.903811,0.73593205 0.34625,2.2852e-4 0.572469,-0.21974691 0.741642,-0.54208822 0.151356,-0.36875775 0.281454,-0.97788191 0.275514,-0.99335411 0.006,-0.099945 -0.07252,-0.096427 -0.109401,-0.1000207 -0.08924,-0.00125 -0.108305,0.041574 -0.144092,0.1795743 -0.149163,0.65194666 -0.348261,1.24317734 -0.746866,1.245294 -0.267717,-0.003746 -0.310387,-0.25364574 -0.309062,-0.45830137 0.0061,-0.21536124 0.03352,-0.30577276 0.13494,-0.73524653 0.112127,-0.4247072 0.133614,-0.5305908 0.237381,-0.907709 l 0.336459,-1.3895384 c 0.06087,-0.2807676 0.06564,-0.2914732 0.06329,-0.3438287 0.0084,-0.1630057 -0.111671,-0.267793 -0.274676,-0.2762296 -0.246306,0.00579 -0.383286,0.2270109 -0.420322,0.4542504 z m -0.645414,2.5732485 c -0.03938,0.1748839 -0.03821,0.20106167 -0.18824,0.3651638 -0.452514,0.55536753 -0.859557,0.7204899 -1.137979,0.7119771 -0.503317,0.006807 -0.643358,-0.54300229 -0.639535,-0.9261358 -0.002,-0.5140223 0.325981,-1.7405549 0.547586,-2.1806581 0.308575,-0.6066267 0.764531,-0.9680442 1.163137,-0.9701608 0.640145,0.0028 0.776439,0.8203282 0.778785,0.8726838 -0.0024,0.063061 -0.02032,0.1320614 -0.02391,0.1689448 z m 0,0"
         style="fill:#000000;fill-opacity:1;fill-rule:nonzero;stroke:none" />
      <path
         id="path60"
         d="m 30.693386,-4.7033331 -0.230833,-1.524e-4 c -0.02985,0.1534727 -0.08485,0.5651291 -0.181281,0.6376472 -0.05118,0.028523 -0.602088,0.026969 -0.691327,0.025721 l -1.285056,0.0051 c 0.736952,-0.6467993 0.97505,-0.8358304 1.390529,-1.1639585 0.516672,-0.4113517 0.995288,-0.8524752 1.002857,-1.5033254 -0.0066,-0.8495668 -0.742769,-1.3569345 -1.639925,-1.3587164 -0.870978,-0.00295 -1.452036,0.6106314 -1.450072,1.2400704 0.0057,0.3617223 0.311483,0.3952402 0.374544,0.3976616 0.167773,-0.00227 0.372504,-0.1163608 0.371484,-0.3733719 0.0048,-0.1261224 -0.04259,-0.3653162 -0.415022,-0.3643721 0.224027,-0.5031644 0.689364,-0.6551598 1.024908,-0.6596978 0.703206,0.00522 1.063375,0.5504187 1.06776,1.1167966 -0.004,0.6139668 -0.444535,1.084862 -0.658876,1.3357817 l -1.693088,1.6706406 c -0.06548,0.06064 -0.06548,0.06064 -0.06681,0.2652954 l 2.885417,0.0019 z m 0.0013,6.0906139 -0.230834,-1.523e-4 c -0.02985,0.1534726 -0.08485,0.5651291 -0.18128,0.6376471 -0.05118,0.028523 -0.602088,0.02697 -0.691327,0.025721 l -1.285056,0.0051 c 0.736952,-0.6467993 0.97505,-0.8358304 1.390528,-1.16395848 0.516673,-0.41135173 0.995289,-0.85247516 1.002857,-1.50332542 -0.0066,-0.8495668 -0.742769,-1.3569344 -1.639924,-1.3587164 -0.870978,-0.00295 -1.452037,0.6106315 -1.450072,1.24007047 0.0057,0.36172222 0.311483,0.3952402 0.374544,0.39766155 0.167772,-0.002269 0.372504,-0.11636077 0.371484,-0.37337193 0.0048,-0.12612232 -0.04259,-0.36531619 -0.415022,-0.36437209 0.224027,-0.5031643 0.689363,-0.6551597 1.024908,-0.6596977 0.703206,0.00522 1.063374,0.5504186 1.06776,1.11679648 -0.004,0.61396686878 -0.444535,1.084862 -0.658876,1.3357817 L 27.681323,2.3931063 c -0.06548,0.06064 -0.06548,0.06064 -0.06681,0.2652954 l 2.885418,0.0019 z m 0,0"
         style="fill:#000000;fill-opacity:1;fill-rule:nonzero;stroke:none" />
      <path
         id="path61"
         d="m 37.939556,-2.3012736 2.77,0.00183 c 0.141595,-0.0011 0.330778,0.00617 0.332103,-0.198488 -0.0034,-0.19395 -0.192625,-0.201214 -0.334219,-0.2001176 l -2.770001,-0.00183 0.01136,-2.791412 c -0.0059,-0.1308888 -0.0093,-0.3248388 -0.21396,-0.3261637 -0.19395,0.00344 -0.190508,0.1973916 -0.184645,0.3282804 l -0.01136,2.7914119 -2.796178,-6.555e-4 c -0.141594,0.0011 -0.320072,-0.0014 -0.316631,0.1925489 -0.0013,0.2046556 0.177153,0.2071531 0.318748,0.2060567 l 2.796178,6.555e-4 -6.55e-4,2.79617849 c 0.0059,0.13088884 0.0045,0.33554446 0.198488,0.33210288 0.204655,0.001325 0.20598,-0.20333069 0.200117,-0.33421953 z m 0,0"
         style="fill:#000000;fill-opacity:1;fill-rule:nonzero;stroke:none" />
      <path
         id="path62"
         d="m 47.536171,-3.7593644 c -0.179422,-0.3749254 -0.46957,-0.6452158 -0.920531,-0.640754 -1.164873,-0.00553 -2.394969,1.4607614 -2.398305,2.9088229 0.0053,0.93880574 0.559373,1.59597597 1.330406,1.59291524 0.204656,0.001325 0.696094,-0.03642635 1.299812,-0.72971825 0.06041,0.41173259 0.431438,0.73086084 0.903811,0.73593205 0.34625,2.2852e-4 0.572469,-0.2197469 0.741642,-0.54208822 0.151356,-0.36875775 0.281454,-0.97788192 0.275514,-0.99335412 0.006,-0.099944 -0.07252,-0.096427 -0.109401,-0.1000207 -0.08924,-0.00125 -0.108305,0.041574 -0.144092,0.1795743 -0.149163,0.65194667 -0.34826,1.24317735 -0.746866,1.24529401 -0.267717,-0.003746 -0.310387,-0.25364574 -0.309062,-0.45830136 0.0061,-0.21536125 0.03352,-0.30577277 0.13494,-0.73524655 0.112127,-0.4247072 0.133615,-0.5305908 0.237382,-0.907709 l 0.336458,-1.3895384 c 0.06087,-0.2807675 0.06564,-0.2914732 0.06329,-0.3438287 0.0084,-0.1630057 -0.111671,-0.267793 -0.274676,-0.2762296 -0.246306,0.00579 -0.383286,0.227011 -0.420322,0.4542504 z m -0.645414,2.5732485 c -0.03938,0.1748839 -0.03821,0.20106168 -0.18824,0.36516381 -0.452514,0.55536753 -0.859557,0.7204899 -1.137979,0.71197711 -0.503317,0.006807 -0.643358,-0.5430023 -0.639535,-0.92613582 -0.002,-0.5140223 0.325981,-1.7405549 0.547586,-2.1806581 0.308575,-0.6066266 0.764531,-0.9680442 1.163137,-0.9701608 0.640145,0.0028 0.776439,0.8203282 0.778785,0.8726838 -0.0024,0.063061 -0.02031,0.1320614 -0.02391,0.1689448 z m 0,0"
         style="fill:#000000;fill-opacity:1;fill-rule:nonzero;stroke:none" />
      <path
         id="path63"
         d="m 52.606206,-4.7025546 -0.230833,-1.523e-4 c -0.02985,0.1534727 -0.08485,0.5651291 -0.18128,0.6376471 -0.05118,0.028523 -0.602089,0.026969 -0.691328,0.025721 l -1.285055,0.0051 c 0.736952,-0.6467993 0.975049,-0.8358304 1.390528,-1.1639585 0.516672,-0.4113517 0.995289,-0.8524751 1.002857,-1.5033254 -0.0066,-0.8495668 -0.742769,-1.3569344 -1.639925,-1.3587164 -0.870978,-0.00295 -1.452036,0.6106315 -1.450072,1.2400705 0.0057,0.3617222 0.311484,0.3952402 0.374545,0.3976615 0.167772,-0.00227 0.372504,-0.1163607 0.371484,-0.3733719 0.0048,-0.1261223 -0.04259,-0.3653162 -0.415022,-0.3643721 0.224026,-0.5031643 0.689363,-0.6551597 1.024908,-0.6596977 0.703205,0.00522 1.063374,0.5504186 1.06776,1.1167965 -0.004,0.6139669 -0.444535,1.084862 -0.658876,1.3357817 L 49.592809,-3.69673 c -0.06548,0.06064 -0.06548,0.06064 -0.06681,0.2652954 l 2.885418,0.0019 z m -1.617662,5.02342788 c 0.550906,0.001553 0.934983,0.37780376 0.932105,1.13336512 -0.003,0.870978 -0.500485,1.1240905 -0.89909,1.1262072 -0.283189,0.00219 -0.895907,-0.091021 -1.187152,-0.5029058 0.335544,-0.00454 0.41423,-0.2388892 0.413134,-0.3804837 -0.0046,-0.2201277 -0.174656,-0.385631 -0.405489,-0.3857833 -0.178478,-0.0025 -0.38321,0.1115942 -0.385783,0.4054888 0.0031,0.6556168 0.735809,1.0844511 1.585376,1.0778726 0.960217,0.0042 1.640047,-0.6295451 1.634565,-1.3375175 -0.0032,-0.54020004 -0.447854,-1.09734954 -1.215217,-1.2465889 0.737896,-0.27437144 0.986927,-0.80488614 0.994344,-1.224903 0.0016,-0.5509057 -0.635941,-0.9630192 -1.406975,-0.9599584 -0.781739,-0.00171 -1.357878,0.3703412 -1.353493,0.936719 -0.0049,0.24153902 0.131833,0.36656492 0.347194,0.37265637 0.209422,-0.009381 0.359454,-0.17348282 0.356012,-0.36743277 -0.0034,-0.19395 -0.141366,-0.3451537 -0.346022,-0.3464786 0.227468,-0.3092144 0.711795,-0.3886156 0.968806,-0.3896358 0.309367,-0.00337 0.767364,0.1492393 0.768155,0.7525006 -0.0026,0.29389452 -0.108685,0.61865718 -0.282549,0.83628743 -0.229813,0.25685881 -0.433296,0.28171165 -0.773607,0.29695527 -0.177306,0.0236802 -0.192778,0.0296194 -0.218955,0.0307919 -0.01071,-0.004767 -0.07853,0.003518 -0.07502,0.0820511 -0.0012,0.0892389 0.06181,0.0916603 0.177229,0.0917364 z m 0,0"
         style="fill:#000000;fill-opacity:1;fill-rule:nonzero;stroke:none" />
    </g>
  </g>
</svg>
