<?xml version="1.0" encoding="UTF-8" standalone="no"?>
<!-- Created with Inkscape (http://www.inkscape.org/) -->

<svg
   version="1.1"
   id="svg1"
   width="357.052"
   height="256.53467"
   viewBox="0 0 357.052 256.53467"
   xmlns="http://www.w3.org/2000/svg"
   xmlns:svg="http://www.w3.org/2000/svg">
  <defs
     id="defs1" />
  <g
     id="g1">
    <path
       id="path1"
       d="M -127.56062,-14.17339 V 141.02667"
       style="fill:none;stroke:#000000;stroke-width:0.79701;stroke-linecap:butt;stroke-linejoin:miter;stroke-miterlimit:10;stroke-dasharray:none;stroke-opacity:1"
       transform="matrix(1.3333333,0,0,-1.3333333,198.06267,221.86533)" />
    <path
       id="path2"
       d="M -1.55415,2.0722 C -1.42464,1.29512 0,0.1295 0.38852,0 0,-0.1295 -1.42464,-1.29512 -1.55415,-2.0722"
       style="fill:none;stroke:#000000;stroke-width:0.6376;stroke-linecap:round;stroke-linejoin:round;stroke-miterlimit:10;stroke-dasharray:none;stroke-opacity:1"
       transform="matrix(0,-1.3333333,-1.3333333,0,27.98184,33.829773)" />
    <path
       id="path3"
       d="M -99.21382,0 H 98.50645"
       style="fill:none;stroke:#000000;stroke-width:0.79701;stroke-linecap:butt;stroke-linejoin:miter;stroke-miterlimit:10;stroke-dasharray:none;stroke-opacity:1"
       transform="matrix(1.3333333,0,0,-1.3333333,198.06267,221.86533)" />
    <path
       id="path4"
       d="M -1.55415,2.0722 C -1.42464,1.29512 0,0.1295 0.38852,0 0,-0.1295 -1.42464,-1.29512 -1.55415,-2.0722"
       style="fill:none;stroke:#000000;stroke-width:0.6376;stroke-linecap:round;stroke-linejoin:round;stroke-miterlimit:10;stroke-dasharray:none;stroke-opacity:1"
       transform="matrix(1.3333333,0,0,-1.3333333,329.4046,221.86533)" />
    <path
       id="path5"
       d="M -85.04042,-3.54333 V 3.54333"
       style="fill:none;stroke:#000000;stroke-width:0.79701;stroke-linecap:butt;stroke-linejoin:miter;stroke-miterlimit:10;stroke-dasharray:none;stroke-opacity:1"
       transform="matrix(1.3333333,0,0,-1.3333333,198.06267,221.86533)" />
    <path
       id="path6"
       d="M 0,-3.54333 V 3.54333"
       style="fill:none;stroke:#000000;stroke-width:0.79701;stroke-linecap:butt;stroke-linejoin:miter;stroke-miterlimit:10;stroke-dasharray:none;stroke-opacity:1"
       transform="matrix(1.3333333,0,0,-1.3333333,198.06267,221.86533)" />
    <path
       id="path7"
       d="M 85.04042,-3.54333 V 3.54333"
       style="fill:none;stroke:#000000;stroke-width:0.79701;stroke-linecap:butt;stroke-linejoin:miter;stroke-miterlimit:10;stroke-dasharray:none;stroke-opacity:1"
       transform="matrix(1.3333333,0,0,-1.3333333,198.06267,221.86533)" />
    <g
       id="g7"
       aria-label="−1"
       transform="matrix(1.3333333,0,0,1.3333333,74.574667,245.236)">
      <path
         id="path8"
         d="m 7.8746641,-2.755125 c 0.2109375,0 0.421875,0 0.421875,-0.234375 0,-0.234375 -0.2109375,-0.234375 -0.421875,-0.234375 h -6.46875 c -0.1992188,0 -0.41015629,0 -0.41015629,0.234375 0,0.234375 0.21093749,0.234375 0.41015629,0.234375 z m 0,0"
         style="fill:#000000;fill-opacity:1;fill-rule:nonzero;stroke:none" />
      <path
         id="path9"
         d="m 12.743805,-7.6652813 c 0,-0.2695312 0,-0.28125 -0.246094,-0.28125 -0.28125,0.3164063 -0.878906,0.7617188 -2.109375,0.7617188 V -6.83325 c 0.269531,0 0.867187,0 1.523437,-0.3164063 V -0.927 c 0,0.43359375 -0.03516,0.57421875 -1.078125,0.57421875 h -0.375 v 0.3515625 c 0.316407,-0.0234375 1.476563,-0.0234375 1.875,-0.0234375 0.398438,0 1.546875,0 1.863282,0.0234375 v -0.3515625 h -0.363282 c -1.054687,0 -1.089843,-0.140625 -1.089843,-0.57421875 z m 0,0"
         style="fill:#000000;fill-opacity:1;fill-rule:nonzero;stroke:none" />
    </g>
    <g
       id="g9"
       aria-label="−1"
       transform="matrix(1.3333333,0,0,1.3333333,176.34667,237.98)">
      <path
         id="path10"
         d="m 6.5632422,-2.2965234 c 0.1757812,0 0.3515625,0 0.3515625,-0.1992188 0,-0.1992187 -0.1757813,-0.1992187 -0.3515625,-0.1992187 h -5.390625 c -0.1640625,0 -0.33984376,0 -0.33984376,0.1992187 0,0.1992188 0.17578126,0.1992188 0.33984376,0.1992188 z m 0,0"
         style="fill:#000000;fill-opacity:1;fill-rule:nonzero;stroke:none" />
      <path
         id="path11"
         d="m 10.679453,-6.3746484 c 0,-0.234375 0,-0.2578125 -0.234375,-0.2578125 -0.6093749,0.6328125 -1.4882811,0.6328125 -1.8046874,0.6328125 v 0.3164062 c 0.1992188,0 0.7851563,0 1.3007813,-0.2578125 v 5.15625001 c 0,0.3515625 -0.035156,0.48046875 -0.9257813,0.48046875 H 8.6989844 V 3.515625e-4 C 9.0505469,-0.03480469 9.9060156,-0.03480469 10.304453,-0.03480469 c 0.398438,0 1.265625,0 1.617188,0.0351562525 V -0.30433594 h -0.316407 c -0.902343,0 -0.925781,-0.1171875 -0.925781,-0.48046875 z m 0,0"
         style="fill:#000000;fill-opacity:1;fill-rule:nonzero;stroke:none" />
    </g>
    <path
       id="path12"
       d="M 0,0 H 12.73"
       style="fill:none;stroke:#000000;stroke-width:0.398;stroke-linecap:butt;stroke-linejoin:miter;stroke-miterlimit:10;stroke-dasharray:none;stroke-opacity:1"
       transform="matrix(1.3333333,0,0,-1.3333333,176.34667,240.72933)" />
    <g
       id="g12"
       aria-label="2n"
       transform="matrix(1.3333333,0,0,1.3333333,177.52533,252.10667)">
      <path
         id="path13"
         d="M 1.2642031,-0.76261719 2.3188906,-1.7938672 c 1.5585938,-1.3710937 2.15625,-1.9101562 2.15625,-2.90625 0,-1.1367187 -0.9023437,-1.9335937 -2.1210937,-1.9335937 -1.125,0 -1.85156252,0.9140625 -1.85156252,1.8046875 0,0.5507812 0.4921875,0.5507812 0.52734372,0.5507812 0.1640625,0 0.515625,-0.1171875 0.515625,-0.5273437 0,-0.2578125 -0.1875,-0.515625 -0.5273437,-0.515625 -0.0820313,0 -0.10546877,0 -0.12890627,0.011719 0.22265627,-0.6445312 0.76171877,-1.0195312 1.33593747,-1.0195312 0.9140625,0 1.3359375,0.8085937 1.3359375,1.6289062 0,0.796875 -0.4921875,1.5820313 -1.0429687,2.203125 L 0.60795313,-0.36417969 C 0.50248438,-0.25871094 0.50248438,-0.23527344 0.50248438,-8.984375e-4 H 4.1938906 L 4.4751406,-1.7352734 H 4.2173281 c -0.046875,0.3046875 -0.1171875,0.73828121 -0.2109375,0.89062496 -0.070312,0.0820313 -0.7265625,0.0820313 -0.9492187,0.0820313 z m 0,0"
         style="fill:#000000;fill-opacity:1;fill-rule:nonzero;stroke:none" />
      <path
         id="path14"
         d="m 5.8608828,-0.58683594 c -0.035156,0.15234375 -0.09375,0.375 -0.09375,0.421875 0,0.1875 0.140625,0.26953125 0.2929688,0.26953125 0.1171875,0 0.2929687,-0.0703125 0.3632812,-0.26953125 0.011719,-0.0234375 0.1289063,-0.4921875 0.1875,-0.73828125 L 6.8335391,-1.8055859 c 0.058594,-0.2226563 0.1171875,-0.4335938 0.1757812,-0.6679688 0.035156,-0.1640625 0.1171875,-0.4570312 0.1289063,-0.4921875 0.140625,-0.3164062 0.6679687,-1.21875 1.6171875,-1.21875 0.4453125,0 0.5390625,0.3632813 0.5390625,0.6914063 0,0.6210937 -0.4921875,1.8984375 -0.6445313,2.3320312 -0.09375,0.22265626 -0.1054687,0.33984376 -0.1054687,0.45703126 0,0.46875 0.3515625,0.80859375 0.8203125,0.80859375 0.9374999,0 1.3007809,-1.45312501 1.3007809,-1.53515621 0,-0.09375 -0.08203,-0.09375 -0.117187,-0.09375 -0.09375,0 -0.09375,0.023437 -0.152344,0.1757812 -0.199219,0.67968751 -0.5273437,1.24218751 -1.0078124,1.24218751 -0.1757813,0 -0.2460938,-0.10546875 -0.2460938,-0.328125 0,-0.2578125 0.09375,-0.4921875 0.1875,-0.71484371 0.1875,-0.5273438 0.5976563,-1.6171875 0.5976563,-2.1914063 0,-0.6679687 -0.421875,-1.0664062 -1.1367188,-1.0664062 -0.9023437,0 -1.3828125,0.6445312 -1.5585937,0.8671875 -0.046875,-0.5507813 -0.4570313,-0.8671875 -0.9140625,-0.8671875 -0.4570313,0 -0.6445313,0.3867187 -0.75,0.5742187 -0.1523438,0.3398438 -0.2929688,0.9257813 -0.2929688,0.9609375 0,0.1054688 0.09375,0.1054688 0.1171875,0.1054688 0.09375,0 0.1054688,-0.011719 0.1640625,-0.234375 0.1757813,-0.703125 0.375,-1.1835938 0.7265625,-1.1835938 0.1992188,0 0.3164063,0.1289063 0.3164063,0.4570313 0,0.2109375 -0.035156,0.3164062 -0.1640625,0.8320312 z m 0,0"
         style="fill:#000000;fill-opacity:1;fill-rule:nonzero;stroke:none" />
    </g>
    <path
       id="path15"
       d="m 2.92925,-6.3746484 c 0,-0.234375 0,-0.2578125 -0.234375,-0.2578125 -0.609375,0.6328125 -1.4882812,0.6328125 -1.8046875,0.6328125 v 0.3164062 c 0.1992188,0 0.7851563,0 1.3007813,-0.2578125 v 5.15625001 c 0,0.3515625 -0.035156,0.48046875 -0.9257813,0.48046875 H 0.94878125 V 3.515625e-4 C 1.3003438,-0.03480469 2.1558125,-0.03480469 2.55425,-0.03480469 c 0.3984375,0 1.265625,0 1.6171875,0.0351562525 V -0.30433594 H 3.8550313 c -0.9023438,0 -0.9257813,-0.1171875 -0.9257813,-0.48046875 z m 0,0"
       style="fill:#000000;fill-opacity:1;fill-rule:nonzero;stroke:none"
       aria-label="1"
       transform="matrix(1.3333333,0,0,1.3333333,207.96933,237.98)" />
    <path
       id="path16"
       d="M 0,0 H 10.961"
       style="fill:none;stroke:#000000;stroke-width:0.398;stroke-linecap:butt;stroke-linejoin:miter;stroke-miterlimit:10;stroke-dasharray:none;stroke-opacity:1"
       transform="matrix(1.3333333,0,0,-1.3333333,203.98267,240.72933)" />
    <g
       id="g16"
       aria-label="2n"
       transform="matrix(1.3333333,0,0,1.3333333,203.98267,252.10667)">
      <path
         id="path17"
         d="M 1.2669063,-0.76261719 2.3215938,-1.7938672 c 1.5585937,-1.3710937 2.15625,-1.9101562 2.15625,-2.90625 0,-1.1367187 -0.9023438,-1.9335937 -2.1210938,-1.9335937 -1.125,0 -1.8515625,0.9140625 -1.8515625,1.8046875 0,0.5507812 0.4921875,0.5507812 0.5273438,0.5507812 0.1640625,0 0.515625,-0.1171875 0.515625,-0.5273437 0,-0.2578125 -0.1875,-0.515625 -0.5273438,-0.515625 -0.0820312,0 -0.10546875,0 -0.12890625,0.011719 0.22265625,-0.6445312 0.76171875,-1.0195312 1.33593755,-1.0195312 0.9140625,0 1.3359375,0.8085937 1.3359375,1.6289062 0,0.796875 -0.4921875,1.5820313 -1.0429688,2.203125 L 0.61065625,-0.36417969 C 0.5051875,-0.25871094 0.5051875,-0.23527344 0.5051875,-8.984375e-4 H 4.1965938 L 4.4778438,-1.7352734 H 4.2200313 c -0.046875,0.3046875 -0.1171875,0.73828121 -0.2109375,0.89062496 -0.070312,0.0820313 -0.7265625,0.0820313 -0.9492188,0.0820313 z m 0,0"
         style="fill:#000000;fill-opacity:1;fill-rule:nonzero;stroke:none" />
      <path
         id="path18"
         d="m 5.8606563,-0.58683594 c -0.035156,0.15234375 -0.09375,0.375 -0.09375,0.421875 0,0.1875 0.140625,0.26953125 0.2929687,0.26953125 0.1171875,0 0.2929688,-0.0703125 0.3632813,-0.26953125 0.011719,-0.0234375 0.1289062,-0.4921875 0.1875,-0.73828125 L 6.8333125,-1.8055859 C 6.8919063,-2.0282422 6.9505,-2.2391797 7.0090938,-2.4735547 7.04425,-2.6376172 7.1262813,-2.9305859 7.138,-2.9657422 c 0.140625,-0.3164062 0.6679688,-1.21875 1.6171875,-1.21875 0.4453125,0 0.5390625,0.3632813 0.5390625,0.6914063 0,0.6210937 -0.4921875,1.8984375 -0.6445312,2.3320312 -0.09375,0.22265626 -0.1054688,0.33984376 -0.1054688,0.45703126 0,0.46875 0.3515625,0.80859375 0.8203125,0.80859375 0.9375005,0 1.3007815,-1.45312501 1.3007815,-1.53515621 0,-0.09375 -0.08203,-0.09375 -0.117188,-0.09375 -0.09375,0 -0.09375,0.023437 -0.152343,0.1757812 -0.199219,0.67968751 -0.5273442,1.24218751 -1.007813,1.24218751 -0.1757812,0 -0.2460937,-0.10546875 -0.2460937,-0.328125 0,-0.2578125 0.09375,-0.4921875 0.1875,-0.71484371 0.1875,-0.5273438 0.5976562,-1.6171875 0.5976562,-2.1914063 0,-0.6679687 -0.421875,-1.0664062 -1.1367187,-1.0664062 -0.9023438,0 -1.3828125,0.6445312 -1.5585938,0.8671875 -0.046875,-0.5507813 -0.4570312,-0.8671875 -0.9140625,-0.8671875 -0.4570312,0 -0.6445312,0.3867187 -0.75,0.5742187 -0.1523437,0.3398438 -0.2929687,0.9257813 -0.2929687,0.9609375 0,0.1054688 0.09375,0.1054688 0.1171875,0.1054688 0.09375,0 0.1054687,-0.011719 0.1640625,-0.234375 0.1757812,-0.703125 0.375,-1.1835938 0.7265625,-1.1835938 0.1992187,0 0.3164062,0.1289063 0.3164062,0.4570313 0,0.2109375 -0.035156,0.3164062 -0.1640625,0.8320312 z m 0,0"
         style="fill:#000000;fill-opacity:1;fill-rule:nonzero;stroke:none" />
    </g>
    <path
       id="path19"
       d="m 3.4464688,-7.6652344 c 0,-0.2695312 0,-0.28125 -0.2460938,-0.28125 -0.28125,0.3164063 -0.8789062,0.7617188 -2.109375,0.7617188 v 0.3515625 c 0.2695313,0 0.8671875,0 1.5234375,-0.3164063 v 6.22265627 c 0,0.43359375 -0.035156,0.57421875 -1.078125,0.57421875 h -0.375 v 0.3515625 c 0.3164063,-0.0234375 1.4765625,-0.0234375 1.875,-0.0234375 0.3984375,0 1.546875,0 1.8632813,0.0234375 v -0.3515625 H 4.5363125 c -1.0546875,0 -1.0898437,-0.140625 -1.0898437,-0.57421875 z m 0,0"
       style="fill:#000000;fill-opacity:1;fill-rule:nonzero;stroke:none"
       aria-label="1"
       transform="matrix(1.3333333,0,0,1.3333333,307.54533,245.9)" />
    <path
       id="path20"
       d="m -131.10399,0 h 7.08672"
       style="fill:none;stroke:#000000;stroke-width:0.79701;stroke-linecap:butt;stroke-linejoin:miter;stroke-miterlimit:10;stroke-dasharray:none;stroke-opacity:1"
       transform="matrix(1.3333333,0,0,-1.3333333,198.06267,221.86533)" />
    <path
       id="path21"
       d="m -131.10399,113.38724 h 7.08672"
       style="fill:none;stroke:#000000;stroke-width:0.79701;stroke-linecap:butt;stroke-linejoin:miter;stroke-miterlimit:10;stroke-dasharray:none;stroke-opacity:1"
       transform="matrix(1.3333333,0,0,-1.3333333,198.06267,221.86533)" />
    <path
       id="path22"
       d="m 5.3551641,-3.8213125 c 0,-0.9960938 -0.058594,-1.96875 -0.4921875,-2.8710938 C 4.3707891,-7.6885 3.5153203,-7.9463125 2.9293828,-7.9463125 c -0.6914062,0 -1.546875,0.3398437 -1.98046874,1.3359375 -0.33984375,0.75 -0.45703125,1.4882812 -0.45703125,2.7890625 0,1.1601562 0.0820313,2.0273437 0.51562499,2.87109375 0.4570313,0.9140625 1.2890625,1.1953125 1.9101563,1.1953125 1.0429687,0 1.640625,-0.62109375 1.9804687,-1.31250005 0.4335938,-0.890625 0.4570313,-2.0625 0.4570313,-2.7539062 z m -2.4375,3.83203125 c -0.3867188,0 -1.1601563,-0.2109375 -1.3828125,-1.52343755 -0.140625,-0.7148437 -0.140625,-1.6171875 -0.140625,-2.4609375 0,-0.9726562 0,-1.8632812 0.1992187,-2.5664062 0.1992188,-0.796875 0.8085938,-1.171875 1.3242188,-1.171875 0.4570312,0 1.1484375,0.28125 1.3710937,1.3007812 0.1523438,0.6796875 0.1523438,1.6289063 0.1523438,2.4375 0,0.8085938 0,1.7109375 -0.1289063,2.4375 -0.2226562,1.3242188 -0.9726562,1.54687505 -1.3945312,1.54687505 z m 0,0"
       style="fill:#000000;fill-opacity:1;fill-rule:nonzero;stroke:none"
       aria-label="0"
       transform="matrix(1.3333333,0,0,1.3333333,5.184,227.00133)" />
    <path
       id="path23"
       d="m 2.4622031,-3.5030156 c 0.023437,-0.070312 0.328125,-0.6679688 0.7617188,-1.0546875 0.3164062,-0.28125 0.7265625,-0.46875 1.1835937,-0.46875 0.4804688,0 0.6445313,0.3515625 0.6445313,0.8320312 0,0.6796875 -0.4804688,2.0390625 -0.7265625,2.6835938 -0.1054688,0.2929687 -0.1640625,0.4453125 -0.1640625,0.66796872 0,0.52734375 0.375,0.9609375 0.9492187,0.9609375 1.1015625,0 1.5234375,-1.75781252 1.5234375,-1.82812502 0,-0.058594 -0.046875,-0.1054687 -0.1171875,-0.1054687 -0.1054687,0 -0.1171875,0.035156 -0.1757812,0.234375 -0.28125,0.98437497 -0.7382813,1.46484372 -1.1953125,1.46484372 -0.1289063,0 -0.3164063,-0.0117187 -0.3164063,-0.3984375 0,-0.29296875 0.1289063,-0.65625002 0.1992188,-0.82031252 0.2460937,-0.65625 0.75,-2.0039062 0.75,-2.6835937 0,-0.7148438 -0.421875,-1.2539063 -1.3359375,-1.2539063 -1.0546875,0 -1.6171875,0.75 -1.8398438,1.0546875 -0.035156,-0.6796875 -0.5273437,-1.0546875 -1.0429687,-1.0546875 -0.3867188,0 -0.64453127,0.234375 -0.85546877,0.6328125 -0.2109375,0.4335938 -0.375,1.1484375 -0.375,1.1953125 0,0.046875 0.046875,0.1054688 0.12890625,0.1054688 0.09375,0 0.10546875,-0.011719 0.17578125,-0.28125 0.1875,-0.7265625 0.41015627,-1.40625 0.89062497,-1.40625 0.2695313,0 0.3632813,0.1875 0.3632813,0.5390625 0,0.2695312 -0.1171875,0.7382812 -0.1992188,1.1015625 l -0.3398437,1.2890625 c -0.046875,0.234375 -0.1757813,0.7734375 -0.234375,0.984375 -0.082031,0.31640622 -0.21093752,0.87890622 -0.21093752,0.93749997 0,0.1640625 0.12890622,0.29296875 0.30468752,0.29296875 0.140625,0 0.3164062,-0.0703125 0.4101562,-0.24609375 0.023437,-0.0585938 0.1289063,-0.48046875 0.1875,-0.71484375 L 2.0637656,-1.9209844 Z m 0,0"
       style="fill:#000000;fill-opacity:1;fill-rule:nonzero;stroke:none"
       aria-label="n"
       transform="matrix(1.3333333,0,0,1.3333333,4.428,74.116)" />
    <path
       id="path24"
       d="M -1.77167,0 V 113.38724 H 1.77167 V 0"
       style="fill:none;stroke:#000000;stroke-width:1.19553;stroke-linecap:butt;stroke-linejoin:miter;stroke-miterlimit:10;stroke-dasharray:none;stroke-opacity:1"
       transform="matrix(1.3333333,0,0,-1.3333333,198.06267,221.86533)" />
    <path
       id="path25"
       d="m 2.8842734,-5.7670547 h 1.3242188 c 0.2695312,0 0.4101562,0 0.4101562,-0.2578125 0,-0.1640625 -0.082031,-0.1640625 -0.375,-0.1640625 H 2.9897422 l 0.5273437,-2.0859375 c 0.058594,-0.1992187 0.058594,-0.234375 0.058594,-0.328125 0,-0.234375 -0.1875,-0.3632812 -0.375,-0.3632812 -0.1171875,0 -0.4453125,0.046875 -0.5625,0.5039062 l -0.5625,2.2734375 H 0.72802344 c -0.28125,0 -0.41015625,0 -0.41015625,0.28125 0,0.140625 0.09375,0.140625 0.375,0.140625 H 1.9702109 l -0.9492187,3.7851563 c -0.11718751,0.5039062 -0.16406251,0.6445312 -0.16406251,0.8320312 0,0.67968751 0.48046871,1.28906251 1.27734371,1.28906251 1.453125,0 2.2265625,-2.08593751 2.2265625,-2.19140621 0,-0.082031 -0.058594,-0.1289063 -0.140625,-0.1289063 -0.035156,0 -0.082031,0 -0.1171875,0.058594 -0.011719,0.011719 -0.023437,0.023437 -0.1289062,0.2578125 -0.3046875,0.7148437 -0.9609375,1.72265621 -1.7929688,1.72265621 -0.4335937,0 -0.4570312,-0.36328125 -0.4570312,-0.6796875 0,-0.0117188 0,-0.28125001 0.046875,-0.45703121 z m 0,0"
       style="fill:#000000;fill-opacity:1;fill-rule:nonzero;stroke:none"
       aria-label="t"
       transform="matrix(1.3333333,0,0,1.3333333,345.86133,227.748)" />
    <g
       id="g25"
       aria-label="B(t)"
       transform="matrix(1.3333333,0,0,1.3333333,9.7213333,18.773333)">
      <path
         id="path26"
         d="m 5.2509922,-8.8241406 c 0.1289062,-0.5273438 0.1875,-0.5507813 0.75,-0.5507813 h 1.8632812 c 1.6171875,0 1.6171875,1.3710938 1.6171875,1.5 0,1.1601563 -1.1601562,2.6367188 -3.0585937,2.6367188 h -2.0625 z m 2.4257812,3.703125 c 1.5585938,-0.28125 2.9765626,-1.3710938 2.9765626,-2.6953125 0,-1.125 -0.9843751,-1.9804688 -2.6015626,-1.9804688 H 3.4463047 c -0.2695313,0 -0.4101563,0 -0.4101563,0.2695313 0,0.1523437 0.140625,0.1523437 0.3515625,0.1523437 0.8789063,0 0.8789063,0.1054688 0.8789063,0.2695313 0,0.023437 0,0.1171875 -0.058594,0.328125 l -1.9453125,7.7109375 c -0.1289062,0.50390622 -0.1523437,0.65624997 -1.1601562,0.65624997 -0.26953126,0 -0.41015626,0 -0.41015626,0.2578125 0,0.152343755 0.0820313,0.152343755 0.37499996,0.152343755 h 4.9101563 c 2.203125,0 3.890625,-1.664062525 3.890625,-3.117187525 0,-1.171875 -1.03125,-1.8867187 -2.1914061,-2.0039062 z M 5.6377109,-0.41007813 H 3.7041172 c -0.1992188,0 -0.234375,0 -0.3164063,-0.0234375 -0.1640625,-0.0117188 -0.1757812,-0.0351563 -0.1757812,-0.15234375 0,-0.10546875 0.035156,-0.1875 0.058594,-0.31640625 L 4.2783359,-4.9452344 h 2.6953125 c 1.6875,0 1.6875,1.5703125 1.6875,1.6875 0,1.3828125 -1.2421875,2.84765627 -3.0234375,2.84765627 z m 0,0"
         style="fill:#000000;fill-opacity:1;fill-rule:nonzero;stroke:none" />
      <path
         id="path27"
         d="m 16.058609,3.4805469 c 0,-0.035156 0,-0.070312 -0.246093,-0.3046875 -1.429688,-1.453125 -2.238282,-3.82031253 -2.238282,-6.75 0,-2.7773438 0.679688,-5.1796875 2.34375,-6.8671874 0.140625,-0.128906 0.140625,-0.164063 0.140625,-0.199219 0,-0.09375 -0.07031,-0.117187 -0.128906,-0.117187 -0.1875,0 -1.359375,1.0312496 -2.0625,2.4374996 -0.738281,1.453125 -1.066406,2.9882813 -1.066406,4.7460938 0,1.2773437 0.199219,2.98828122 0.949219,4.52343747 0.84375,1.72265623 2.015625,2.64843753 2.179687,2.64843753 0.05859,0 0.128906,-0.023437 0.128906,-0.1171875 z m 0,0"
         style="fill:#000000;fill-opacity:1;fill-rule:nonzero;stroke:none" />
      <path
         id="path28"
         d="m 19.741227,-5.7655469 h 1.324218 c 0.269532,0 0.410157,0 0.410157,-0.2578125 0,-0.1640625 -0.08203,-0.1640625 -0.375,-0.1640625 h -1.253907 l 0.527344,-2.0859375 c 0.05859,-0.1992187 0.05859,-0.234375 0.05859,-0.328125 0,-0.234375 -0.1875,-0.3632812 -0.375,-0.3632812 -0.117188,0 -0.445313,0.046875 -0.5625,0.5039062 l -0.5625,2.2734375 h -1.347656 c -0.28125,0 -0.410157,0 -0.410157,0.28125 0,0.140625 0.09375,0.140625 0.375,0.140625 h 1.277344 l -0.949219,3.7851563 c -0.117187,0.5039062 -0.164062,0.6445312 -0.164062,0.8320312 0,0.67968752 0.480469,1.28906252 1.277344,1.28906252 1.453125,0 2.226562,-2.08593752 2.226562,-2.19140622 0,-0.082031 -0.05859,-0.1289063 -0.140625,-0.1289063 -0.03516,0 -0.08203,0 -0.117187,0.058594 -0.01172,0.011719 -0.02344,0.023437 -0.128907,0.2578125 -0.304687,0.7148437 -0.960937,1.72265622 -1.792968,1.72265622 -0.433594,0 -0.457032,-0.36328125 -0.457032,-0.6796875 0,-0.0117188 0,-0.28125002 0.04687,-0.45703122 z m 0,0"
         style="fill:#000000;fill-opacity:1;fill-rule:nonzero;stroke:none" />
      <path
         id="path29"
         d="m 25.972672,-3.5741406 c 0,-1.0898438 -0.140625,-2.8710938 -0.949219,-4.5351563 -0.84375,-1.7109375 -2.015625,-2.6484371 -2.179687,-2.6484371 -0.05859,0 -0.128907,0.02344 -0.128907,0.117187 0,0.03516 0,0.07031 0.246094,0.316406 1.441406,1.4414066 2.238281,3.8085941 2.238281,6.7382816 0,2.77734377 -0.667968,5.1796875 -2.332031,6.8671875 -0.152344,0.1289063 -0.152344,0.1640625 -0.152344,0.1992188 0,0.09375 0.07031,0.1171875 0.128907,0.1171875 0.1875,0 1.371093,-1.03125 2.074218,-2.4375 0.726563,-1.46484378 1.054688,-3.0117188 1.054688,-4.734375 z m 0,0"
         style="fill:#000000;fill-opacity:1;fill-rule:nonzero;stroke:none" />
    </g>
    <g
       id="g29"
       aria-label="f(t)"
       transform="matrix(1.3333333,0,0,1.3333333,257.35067,56.569333)">
      <path
         id="path30"
         d="m 6.3991094,-5.7648906 c 0.28125,0 0.3984375,0 0.3984375,-0.2695313 0,-0.1523437 -0.1171875,-0.1523437 -0.375,-0.1523437 H 5.2623906 c 0.2695313,-1.4765625 0.4804688,-2.4960938 0.5859375,-2.953125 0.09375,-0.3398438 0.3867188,-0.6679688 0.7617188,-0.6679688 0.3046875,0 0.609375,0.1289063 0.75,0.2578125 -0.5625,0.058594 -0.7382813,0.46875 -0.7382813,0.7148438 0,0.28125 0.2226563,0.4570312 0.4921875,0.4570312 0.2929688,0 0.7148438,-0.2460937 0.7148438,-0.7851562 0,-0.609375 -0.5976563,-0.9374999 -1.2304688,-0.9374999 -0.6210937,0 -1.21875,0.4570311 -1.5,1.0195311 -0.2695312,0.5039063 -0.4101562,1.0195313 -0.7382812,2.8945313 H 3.3991094 c -0.2695313,0 -0.4101563,0 -0.4101563,0.2578125 0,0.1640625 0.082031,0.1640625 0.3632813,0.1640625 H 4.2780156 C 4.0202031,-4.4289531 3.4342656,-1.1945781 3.0944219,0.34057812 2.8600469,1.5944844 2.6373906,2.6374531 1.9225469,2.6374531 c -0.046875,0 -0.4570313,0 -0.7148438,-0.2695312 0.7265625,-0.058594 0.7265625,-0.6914063 0.7265625,-0.703125 0,-0.28125 -0.2109375,-0.4570313 -0.4804687,-0.4570313 -0.2929688,0 -0.72656252,0.2460938 -0.72656252,0.7851563 0,0.6210937 0.63281252,0.9375 1.19531252,0.9375 1.4648437,0 2.0625,-2.62500003 2.2265625,-3.33984378 0.2578125,-1.11328122 0.9609375,-4.92187502 1.03125,-5.35546872 z m 0,0"
         style="fill:#000000;fill-opacity:1;fill-rule:nonzero;stroke:none" />
      <path
         id="path31"
         d="m 13.119813,3.4812031 c 0,-0.035156 0,-0.070312 -0.246094,-0.3046875 -1.429688,-1.453125 -2.238281,-3.82031248 -2.238281,-6.75 0,-2.7773437 0.679687,-5.1796875 2.34375,-6.8671876 0.140625,-0.128906 0.140625,-0.164062 0.140625,-0.199219 0,-0.09375 -0.07031,-0.117187 -0.128907,-0.117187 -0.1875,0 -1.359375,1.0312499 -2.0625,2.4374999 -0.738281,1.453125 -1.066406,2.9882812 -1.066406,4.7460937 0,1.2773438 0.199219,2.98828127 0.949219,4.52343752 0.84375,1.72265628 2.015625,2.64843748 2.179687,2.64843748 0.05859,0 0.128907,-0.023437 0.128907,-0.1171875 z m 0,0"
         style="fill:#000000;fill-opacity:1;fill-rule:nonzero;stroke:none" />
      <path
         id="path32"
         d="m 16.7995,-5.7648906 h 1.324219 c 0.269531,0 0.410156,0 0.410156,-0.2578125 0,-0.1640625 -0.08203,-0.1640625 -0.375,-0.1640625 h -1.253906 l 0.527344,-2.0859375 c 0.05859,-0.1992188 0.05859,-0.234375 0.05859,-0.328125 0,-0.234375 -0.1875,-0.3632813 -0.375,-0.3632813 -0.117187,0 -0.445312,0.046875 -0.5625,0.5039063 l -0.5625,2.2734375 H 14.64325 c -0.28125,0 -0.410156,0 -0.410156,0.28125 0,0.140625 0.09375,0.140625 0.375,0.140625 h 1.277344 l -0.949219,3.7851562 c -0.117188,0.5039063 -0.164063,0.6445313 -0.164063,0.8320313 0,0.67968747 0.480469,1.28906247 1.277344,1.28906247 1.453125,0 2.226563,-2.08593747 2.226563,-2.19140627 0,-0.082031 -0.05859,-0.1289062 -0.140625,-0.1289062 -0.03516,0 -0.08203,0 -0.117188,0.058594 -0.01172,0.011719 -0.02344,0.023437 -0.128906,0.2578125 -0.304688,0.7148438 -0.960938,1.72265627 -1.792969,1.72265627 -0.433594,0 -0.457031,-0.36328125 -0.457031,-0.6796875 0,-0.0117188 0,-0.28124997 0.04687,-0.45703127 z m 0,0"
         style="fill:#000000;fill-opacity:1;fill-rule:nonzero;stroke:none" />
      <path
         id="path33"
         d="m 23.033875,-3.5734844 c 0,-1.0898437 -0.140625,-2.8710937 -0.949219,-4.5351562 -0.84375,-1.7109375 -2.015625,-2.6484374 -2.179687,-2.6484374 -0.05859,0 -0.128906,0.02344 -0.128906,0.117187 0,0.03516 0,0.07031 0.246093,0.316407 1.441407,1.4414059 2.238282,3.8085934 2.238282,6.7382809 0,2.77734372 -0.667969,5.1796875 -2.332032,6.8671875 -0.152343,0.1289062 -0.152343,0.1640625 -0.152343,0.1992187 0,0.09375 0.07031,0.1171875 0.128906,0.1171875 0.1875,0 1.371094,-1.03125 2.074219,-2.4375 0.726562,-1.46484373 1.054687,-3.0117187 1.054687,-4.734375 z m 0,0"
         style="fill:#000000;fill-opacity:1;fill-rule:nonzero;stroke:none" />
    </g>
    <path
       id="path34"
       d="m -70.867,31.891 c 0,0 3.41323,1.74172 4.72418,2.44082 1.31094,0.69909 3.41324,1.85504 4.72418,2.59782 1.31094,0.74278 3.41325,1.96918 4.72418,2.75571 1.31093,0.78653 3.41324,2.08291 4.72417,2.91315 1.31093,0.83021 3.41324,2.19667 4.72418,3.07058 1.31094,0.87392 3.41324,2.31042 4.72418,3.22803 1.31095,0.9176 3.41324,2.42416 4.72419,3.38547 1.31094,0.96129 3.41324,2.53787 4.72418,3.54292 1.31094,1.00505 3.41324,2.65207 4.72418,3.7008 1.31094,1.04874 3.41324,2.76545 4.72418,3.85781 1.31095,1.09236 3.41326,2.87912 4.72418,4.01524 1.31093,1.13611 3.41324,2.99332 4.72417,4.17313 1.31093,1.17981 3.41324,3.10664 4.72418,4.33014 1.31095,1.22349 3.41324,3.22076 4.72418,4.48802 1.31095,1.26726 3.41326,3.33456 4.72419,4.64545 1.3109,1.31088 3.41322,3.44791 4.72415,4.80247 1.31091,1.35457 3.41324,3.56211 4.72418,4.96034 1.31093,1.39826 3.41325,3.67536 4.72418,5.11736 1.31092,1.442 3.41324,3.78998 4.72417,5.27567 1.31092,1.48568 3.41324,3.9029 4.72418,5.43223 1.31093,1.52934 3.41324,4.01708 4.72418,5.59014 1.31093,1.57307 3.41324,4.13075 4.72419,5.74757 1.31092,1.61682 3.41323,4.24492 4.72417,5.90543 1.31094,1.66052 4.72418,6.06246 4.72418,6.06246"
       style="fill:none;stroke:#000000;stroke-width:1.19553;stroke-linecap:round;stroke-linejoin:miter;stroke-miterlimit:10;stroke-dasharray:none;stroke-opacity:1"
       transform="matrix(1.3333333,0,0,-1.3333333,198.06267,221.86533)" />
  </g>
</svg>
