<?xml version="1.0" encoding="UTF-8" standalone="no"?>
<!-- Created with Inkscape (http://www.inkscape.org/) -->

<svg
   version="1.1"
   id="svg1"
   width="379.664"
   height="249.92799"
   viewBox="0 0 379.664 249.92799"
   xmlns="http://www.w3.org/2000/svg"
   xmlns:svg="http://www.w3.org/2000/svg">
  <defs
     id="defs1" />
  <g
     id="g1">
    <path
       id="path1"
       d="M -127.56062,-14.17339 V 141.02667"
       style="fill:none;stroke:#000000;stroke-width:0.79701;stroke-linecap:butt;stroke-linejoin:miter;stroke-miterlimit:10;stroke-dasharray:none;stroke-opacity:1"
       transform="matrix(1.3333333,0,0,-1.3333333,220.67467,220.80267)" />
    <path
       id="path2"
       d="M -1.55415,2.0722 C -1.42464,1.29512 0,0.1295 0.38852,0 0,-0.1295 -1.42464,-1.29512 -1.55415,-2.0722"
       style="fill:none;stroke:#000000;stroke-width:0.6376;stroke-linecap:round;stroke-linejoin:round;stroke-miterlimit:10;stroke-dasharray:none;stroke-opacity:1"
       transform="matrix(0,-1.3333333,-1.3333333,0,50.59384,32.767107)" />
    <path
       id="path3"
       d="M -99.21382,0 H 98.50645"
       style="fill:none;stroke:#000000;stroke-width:0.79701;stroke-linecap:butt;stroke-linejoin:miter;stroke-miterlimit:10;stroke-dasharray:none;stroke-opacity:1"
       transform="matrix(1.3333333,0,0,-1.3333333,220.67467,220.80267)" />
    <path
       id="path4"
       d="M -1.55415,2.0722 C -1.42464,1.29512 0,0.1295 0.38852,0 0,-0.1295 -1.42464,-1.29512 -1.55415,-2.0722"
       style="fill:none;stroke:#000000;stroke-width:0.6376;stroke-linecap:round;stroke-linejoin:round;stroke-miterlimit:10;stroke-dasharray:none;stroke-opacity:1"
       transform="matrix(1.3333333,0,0,-1.3333333,352.0166,220.80267)" />
    <path
       id="path5"
       d="M -85.04042,-3.54333 V 3.54333"
       style="fill:none;stroke:#000000;stroke-width:0.79701;stroke-linecap:butt;stroke-linejoin:miter;stroke-miterlimit:10;stroke-dasharray:none;stroke-opacity:1"
       transform="matrix(1.3333333,0,0,-1.3333333,220.67467,220.80267)" />
    <path
       id="path6"
       d="M -56.69362,-3.54333 V 3.54333"
       style="fill:none;stroke:#000000;stroke-width:0.79701;stroke-linecap:butt;stroke-linejoin:miter;stroke-miterlimit:10;stroke-dasharray:none;stroke-opacity:1"
       transform="matrix(1.3333333,0,0,-1.3333333,220.67467,220.80267)" />
    <path
       id="path7"
       d="M -28.3468,-3.54333 V 3.54333"
       style="fill:none;stroke:#000000;stroke-width:0.79701;stroke-linecap:butt;stroke-linejoin:miter;stroke-miterlimit:10;stroke-dasharray:none;stroke-opacity:1"
       transform="matrix(1.3333333,0,0,-1.3333333,220.67467,220.80267)" />
    <path
       id="path8"
       d="M 0,-3.54333 V 3.54333"
       style="fill:none;stroke:#000000;stroke-width:0.79701;stroke-linecap:butt;stroke-linejoin:miter;stroke-miterlimit:10;stroke-dasharray:none;stroke-opacity:1"
       transform="matrix(1.3333333,0,0,-1.3333333,220.67467,220.80267)" />
    <path
       id="path9"
       d="M 28.3468,-3.54333 V 3.54333"
       style="fill:none;stroke:#000000;stroke-width:0.79701;stroke-linecap:butt;stroke-linejoin:miter;stroke-miterlimit:10;stroke-dasharray:none;stroke-opacity:1"
       transform="matrix(1.3333333,0,0,-1.3333333,220.67467,220.80267)" />
    <path
       id="path10"
       d="M 56.69362,-3.54333 V 3.54333"
       style="fill:none;stroke:#000000;stroke-width:0.79701;stroke-linecap:butt;stroke-linejoin:miter;stroke-miterlimit:10;stroke-dasharray:none;stroke-opacity:1"
       transform="matrix(1.3333333,0,0,-1.3333333,220.67467,220.80267)" />
    <path
       id="path11"
       d="M 85.04042,-3.54333 V 3.54333"
       style="fill:none;stroke:#000000;stroke-width:0.79701;stroke-linecap:butt;stroke-linejoin:miter;stroke-miterlimit:10;stroke-dasharray:none;stroke-opacity:1"
       transform="matrix(1.3333333,0,0,-1.3333333,220.67467,220.80267)" />
    <g
       id="g11"
       aria-label="−3"
       transform="matrix(1.3333333,0,0,1.3333333,97.188,244.172)">
      <path
         id="path12"
         d="m 7.874625,-2.754 c 0.2109375,0 0.421875,0 0.421875,-0.234375 0,-0.234375 -0.2109375,-0.234375 -0.421875,-0.234375 h -6.46875 c -0.1992188,0 -0.41015625,0 -0.41015625,0.234375 0,0.234375 0.21093745,0.234375 0.41015625,0.234375 z m 0,0"
         style="fill:#000000;fill-opacity:1;fill-rule:nonzero;stroke:none" />
      <path
         id="path13"
         d="m 11.501578,-4.2891562 c -0.210937,0.011719 -0.257812,0.023437 -0.257812,0.1289062 0,0.1171875 0.05859,0.1171875 0.28125,0.1171875 h 0.550781 c 1.007812,0 1.464844,0.84375 1.464844,1.9921875 0,1.55859375 -0.808594,1.98046875 -1.394532,1.98046875 -0.574218,0 -1.558593,-0.28125 -1.898437,-1.06640625 0.375,0.058594 0.726562,-0.1523437 0.726562,-0.5859375 0,-0.3398437 -0.257812,-0.5859375 -0.585937,-0.5859375 -0.292969,0 -0.5976564,0.1640625 -0.5976564,0.6210938 0,1.0664062 1.0664064,1.9335937 2.3906254,1.9335937 1.417968,0 2.472656,-1.078125 2.472656,-2.2851562 0,-1.1015625 -0.890625,-1.96875 -2.027344,-2.1679688 1.03125,-0.3046875 1.699219,-1.171875 1.699219,-2.109375 0,-0.9375 -0.972656,-1.6289062 -2.132813,-1.6289062 -1.195312,0 -2.085937,0.7265625 -2.085937,1.59375 0,0.4804687 0.375,0.5742187 0.550781,0.5742187 0.257813,0 0.539063,-0.1757812 0.539063,-0.5390625 0,-0.375 -0.28125,-0.5390625 -0.550782,-0.5390625 -0.07031,0 -0.09375,0 -0.128906,0.011719 0.457031,-0.8203125 1.582031,-0.8203125 1.640625,-0.8203125 0.386719,0 1.171875,0.1757812 1.171875,1.3476562 0,0.234375 -0.03516,0.9023438 -0.386719,1.4179688 -0.351562,0.5273437 -0.761718,0.5625 -1.089843,0.5742187 z m 0,0"
         style="fill:#000000;fill-opacity:1;fill-rule:nonzero;stroke:none" />
    </g>
    <g
       id="g13"
       aria-label="−2"
       transform="matrix(1.3333333,0,0,1.3333333,134.98267,244.172)">
      <path
         id="path14"
         d="m 7.8762813,-2.754 c 0.2109375,0 0.421875,0 0.421875,-0.234375 0,-0.234375 -0.2109375,-0.234375 -0.421875,-0.234375 h -6.46875 c -0.1992188,0 -0.4101563,0 -0.4101563,0.234375 0,0.234375 0.2109375,0.234375 0.4101563,0.234375 z m 0,0"
         style="fill:#000000;fill-opacity:1;fill-rule:nonzero;stroke:none" />
      <path
         id="path15"
         d="m 14.561828,-2.004 h -0.269531 c -0.03516,0.1992188 -0.128906,0.8554688 -0.246094,1.04296875 -0.08203,0.1171875 -0.761719,0.1171875 -1.125,0.1171875 h -2.214844 c 0.328125,-0.28124995 1.054688,-1.04296875 1.371094,-1.33593745 1.816406,-1.6640625 2.484375,-2.2851563 2.484375,-3.46875 0,-1.3828125 -1.089844,-2.296875 -2.472656,-2.296875 -1.394531,0 -2.2031251,1.1835937 -2.2031251,2.203125 0,0.609375 0.5273441,0.609375 0.5625001,0.609375 0.246094,0 0.5625,-0.1757813 0.5625,-0.5625 0,-0.328125 -0.234375,-0.5507813 -0.5625,-0.5507813 -0.105469,0 -0.128906,0 -0.164063,0.011719 0.222657,-0.8203125 0.867188,-1.3710938 1.640625,-1.3710938 1.019532,0 1.640625,0.8554688 1.640625,1.9570313 0,1.0078125 -0.585937,1.8984375 -1.265625,2.6601562 l -2.4140621,2.70703125 v 0.28125 h 4.3593751 z m 0,0"
         style="fill:#000000;fill-opacity:1;fill-rule:nonzero;stroke:none" />
    </g>
    <g
       id="g15"
       aria-label="−1"
       transform="matrix(1.3333333,0,0,1.3333333,172.77867,244.172)">
      <path
         id="path16"
         d="m 7.8740078,-2.754 c 0.2109375,0 0.421875,0 0.421875,-0.234375 0,-0.234375 -0.2109375,-0.234375 -0.421875,-0.234375 h -6.46875 c -0.1992187,0 -0.41015624,0 -0.41015624,0.234375 0,0.234375 0.21093754,0.234375 0.41015624,0.234375 z m 0,0"
         style="fill:#000000;fill-opacity:1;fill-rule:nonzero;stroke:none" />
      <path
         id="path17"
         d="m 12.743148,-7.6641562 c 0,-0.2695313 0,-0.28125 -0.246093,-0.28125 -0.28125,0.3164062 -0.878907,0.7617187 -2.109375,0.7617187 v 0.3515625 c 0.269531,0 0.867187,0 1.523437,-0.3164062 v 6.2226562 c 0,0.43359375 -0.03516,0.57421875 -1.078125,0.57421875 h -0.375 v 0.3515625 c 0.316406,-0.0234375 1.476563,-0.0234375 1.875,-0.0234375 0.398438,0 1.546875,0 1.863281,0.0234375 v -0.3515625 h -0.363281 c -1.054687,0 -1.089844,-0.140625 -1.089844,-0.57421875 z m 0,0"
         style="fill:#000000;fill-opacity:1;fill-rule:nonzero;stroke:none" />
    </g>
    <path
       id="path18"
       d="m 5.3565469,-3.8203594 c 0,-0.9960937 -0.058594,-1.96875 -0.4921875,-2.8710937 -0.4921875,-0.9960938 -1.3476563,-1.2539063 -1.9335938,-1.2539063 -0.6914062,0 -1.546875,0.3398438 -1.98046873,1.3359375 -0.33984375,0.75 -0.45703125,1.4882813 -0.45703125,2.7890625 0,1.1601563 0.0820312,2.0273438 0.51562498,2.87109377 0.4570313,0.9140625 1.2890625,1.1953125 1.9101563,1.1953125 1.0429687,0 1.640625,-0.62109375 1.9804687,-1.31249997 0.4335938,-0.890625 0.4570313,-2.0625 0.4570313,-2.7539063 z m -2.4375,3.83203127 c -0.3867188,0 -1.1601563,-0.2109375 -1.3828125,-1.52343747 -0.140625,-0.7148438 -0.140625,-1.6171875 -0.140625,-2.4609375 0,-0.9726563 0,-1.8632813 0.1992187,-2.5664063 0.1992188,-0.796875 0.8085938,-1.171875 1.3242188,-1.171875 0.4570312,0 1.1484375,0.28125 1.3710937,1.3007813 0.1523438,0.6796875 0.1523438,1.6289062 0.1523438,2.4375 0,0.8085937 0,1.7109375 -0.1289063,2.4375 -0.2226562,1.32421872 -0.9726562,1.54687497 -1.3945312,1.54687497 z m 0,0"
       style="fill:#000000;fill-opacity:1;fill-rule:nonzero;stroke:none"
       aria-label="0"
       transform="matrix(1.3333333,0,0,1.3333333,216.772,244.836)" />
    <path
       id="path19"
       d="m 3.4441172,-7.6641094 c 0,-0.2695312 0,-0.28125 -0.2460938,-0.28125 -0.28125,0.3164063 -0.8789062,0.7617188 -2.109375,0.7617188 v 0.3515625 c 0.2695313,0 0.8671875,0 1.5234375,-0.3164063 v 6.22265627 c 0,0.43359375 -0.035156,0.57421875 -1.078125,0.57421875 h -0.375 V -4.6875e-5 c 0.3164063,-0.023437505 1.4765625,-0.023437505 1.875,-0.023437505 0.3984375,0 1.546875,0 1.8632813,0.023437505 V -0.35160938 H 4.5339609 c -1.0546875,0 -1.0898437,-0.140625 -1.0898437,-0.57421875 z m 0,0"
       style="fill:#000000;fill-opacity:1;fill-rule:nonzero;stroke:none"
       aria-label="1"
       transform="matrix(1.3333333,0,0,1.3333333,254.568,244.836)" />
    <path
       id="path20"
       d="M 5.2621797,-2.0039531 H 4.9926484 c -0.035156,0.1992187 -0.1289062,0.8554687 -0.2460937,1.04296872 -0.082031,0.1171875 -0.7617188,0.1171875 -1.125,0.1171875 H 1.4067109 c 0.328125,-0.28125002 1.0546875,-1.04296872 1.3710938,-1.33593752 1.8164062,-1.6640625 2.484375,-2.2851562 2.484375,-3.46875 0,-1.3828125 -1.0898438,-2.296875 -2.4726563,-2.296875 -1.3945312,0 -2.20312496,1.1835938 -2.20312496,2.203125 0,0.609375 0.52734376,0.609375 0.56249996,0.609375 0.2460938,0 0.5625,-0.1757812 0.5625,-0.5625 0,-0.328125 -0.234375,-0.5507812 -0.5625,-0.5507812 -0.1054687,0 -0.1289062,0 -0.16406246,0.011719 0.22265626,-0.8203125 0.86718746,-1.3710937 1.64062496,-1.3710937 1.0195313,0 1.640625,0.8554687 1.640625,1.9570312 0,1.0078125 -0.5859375,1.8984375 -1.265625,2.6601563 L 0.58639844,-0.28129688 V -4.6875e-5 H 4.9457734 Z m 0,0"
       style="fill:#000000;fill-opacity:1;fill-rule:nonzero;stroke:none"
       aria-label="2"
       transform="matrix(1.3333333,0,0,1.3333333,292.36267,244.836)" />
    <path
       id="path21"
       d="m 2.2042422,-4.2891094 c -0.2109375,0.011719 -0.2578125,0.023437 -0.2578125,0.1289063 0,0.1171875 0.058594,0.1171875 0.28125,0.1171875 h 0.5507812 c 1.0078125,0 1.4648438,0.84375 1.4648438,1.9921875 0,1.55859372 -0.8085938,1.98046872 -1.3945313,1.98046872 -0.5742187,0 -1.5585937,-0.28125 -1.89843746,-1.06640622 0.37499996,0.058594 0.72656246,-0.1523438 0.72656246,-0.5859375 0,-0.3398438 -0.2578125,-0.5859375 -0.5859375,-0.5859375 -0.29296871,0 -0.59765621,0.1640625 -0.59765621,0.6210937 0,1.06640627 1.06640621,1.93359377 2.39062501,1.93359377 1.4179687,0 2.4726562,-1.078125 2.4726562,-2.28515627 0,-1.1015625 -0.890625,-1.96875 -2.0273437,-2.1679687 1.03125,-0.3046875 1.6992187,-1.171875 1.6992187,-2.109375 0,-0.9375 -0.9726562,-1.6289063 -2.1328125,-1.6289063 -1.1953125,0 -2.08593746,0.7265625 -2.08593746,1.59375 0,0.4804688 0.37499996,0.5742188 0.55078126,0.5742188 0.2578125,0 0.5390625,-0.1757813 0.5390625,-0.5390625 0,-0.375 -0.28125,-0.5390625 -0.5507813,-0.5390625 -0.070312,0 -0.09375,0 -0.1289062,0.011719 0.4570312,-0.8203125 1.5820312,-0.8203125 1.640625,-0.8203125 0.3867187,0 1.171875,0.1757813 1.171875,1.3476563 0,0.234375 -0.035156,0.9023437 -0.3867188,1.4179687 -0.3515625,0.5273438 -0.7617187,0.5625 -1.0898437,0.5742188 z m 0,0"
       style="fill:#000000;fill-opacity:1;fill-rule:nonzero;stroke:none"
       aria-label="3"
       transform="matrix(1.3333333,0,0,1.3333333,330.15867,244.836)" />
    <path
       id="path22"
       d="m -131.10399,0 h 7.08672"
       style="fill:none;stroke:#000000;stroke-width:0.79701;stroke-linecap:butt;stroke-linejoin:miter;stroke-miterlimit:10;stroke-dasharray:none;stroke-opacity:1"
       transform="matrix(1.3333333,0,0,-1.3333333,220.67467,220.80267)" />
    <path
       id="path23"
       d="m -131.10399,14.17339 h 7.08672"
       style="fill:none;stroke:#000000;stroke-width:0.79701;stroke-linecap:butt;stroke-linejoin:miter;stroke-miterlimit:10;stroke-dasharray:none;stroke-opacity:1"
       transform="matrix(1.3333333,0,0,-1.3333333,220.67467,220.80267)" />
    <path
       id="path24"
       d="m -131.10399,28.3468 h 7.08672"
       style="fill:none;stroke:#000000;stroke-width:0.79701;stroke-linecap:butt;stroke-linejoin:miter;stroke-miterlimit:10;stroke-dasharray:none;stroke-opacity:1"
       transform="matrix(1.3333333,0,0,-1.3333333,220.67467,220.80267)" />
    <path
       id="path25"
       d="m -131.10399,56.69362 h 7.08672"
       style="fill:none;stroke:#000000;stroke-width:0.79701;stroke-linecap:butt;stroke-linejoin:miter;stroke-miterlimit:10;stroke-dasharray:none;stroke-opacity:1"
       transform="matrix(1.3333333,0,0,-1.3333333,220.67467,220.80267)" />
    <path
       id="path26"
       d="m -131.10399,113.38724 h 7.08672"
       style="fill:none;stroke:#000000;stroke-width:0.79701;stroke-linecap:butt;stroke-linejoin:miter;stroke-miterlimit:10;stroke-dasharray:none;stroke-opacity:1"
       transform="matrix(1.3333333,0,0,-1.3333333,220.67467,220.80267)" />
    <path
       id="path27"
       d="m 5.356125,-3.8211875 c 0,-0.9960937 -0.058594,-1.96875 -0.4921875,-2.8710937 C 4.37175,-7.688375 3.5162812,-7.9461875 2.9303437,-7.9461875 c -0.6914062,0 -1.546875,0.3398438 -1.9804687,1.3359375 -0.33984375,0.75 -0.45703125,1.4882813 -0.45703125,2.7890625 0,1.1601563 0.0820313,2.0273438 0.51562495,2.87109375 0.4570313,0.9140625 1.2890625,1.1953125 1.9101563,1.1953125 1.0429687,0 1.640625,-0.62109375 1.9804687,-1.31249995 0.4335938,-0.890625 0.4570313,-2.0625 0.4570313,-2.7539063 z m -2.4375,3.83203125 c -0.3867188,0 -1.1601563,-0.2109375 -1.3828125,-1.52343745 -0.140625,-0.7148438 -0.140625,-1.6171875 -0.140625,-2.4609375 0,-0.9726563 0,-1.8632813 0.1992187,-2.5664063 0.1992188,-0.796875 0.8085938,-1.171875 1.3242188,-1.171875 0.4570312,0 1.1484375,0.28125 1.3710937,1.3007813 0.1523438,0.6796875 0.1523438,1.6289062 0.1523438,2.4375 0,0.8085937 0,1.7109375 -0.1289063,2.4375 C 4.0905,-0.2118125 3.3405,0.01084375 2.918625,0.01084375 Z m 0,0"
       style="fill:#000000;fill-opacity:1;fill-rule:nonzero;stroke:none"
       aria-label="0"
       transform="matrix(1.3333333,0,0,1.3333333,27.796,225.93867)" />
    <g
       id="g27"
       aria-label="0.5"
       transform="matrix(1.3333333,0,0,1.3333333,21.726667,207.04133)">
      <path
         id="path28"
         d="m 5.3553906,-3.8190859 c 0,-0.9960938 -0.058594,-1.96875 -0.4921875,-2.8710938 -0.4921875,-0.9960937 -1.3476562,-1.2539062 -1.9335937,-1.2539062 -0.6914063,0 -1.546875,0.3398437 -1.98046878,1.3359375 -0.33984375,0.75 -0.45703125,1.4882812 -0.45703125,2.7890625 0,1.1601562 0.0820313,2.0273437 0.51562503,2.87109371 0.4570312,0.9140625 1.2890625,1.1953125 1.9101562,1.1953125 1.0429688,0 1.640625,-0.62109375 1.9804688,-1.31250001 0.4335937,-0.890625 0.4570312,-2.0625 0.4570312,-2.7539062 z m -2.4375,3.83203121 c -0.3867187,0 -1.1601562,-0.2109375 -1.3828125,-1.52343751 -0.140625,-0.7148437 -0.140625,-1.6171875 -0.140625,-2.4609375 0,-0.9726562 0,-1.8632812 0.1992188,-2.5664062 0.1992187,-0.796875 0.8085937,-1.171875 1.3242187,-1.171875 0.4570313,0 1.1484375,0.28125 1.3710938,1.3007812 0.1523437,0.6796875 0.1523437,1.6289063 0.1523437,2.4375 0,0.8085938 0,1.7109375 -0.1289062,2.4375 -0.2226563,1.32421876 -0.9726563,1.54687501 -1.3945313,1.54687501 z m 0,0"
         style="fill:#000000;fill-opacity:1;fill-rule:nonzero;stroke:none" />
      <path
         id="path29"
         d="m 8.0565625,-0.57299219 c 0,-0.3515625 -0.2929688,-0.58593751 -0.5742188,-0.58593751 -0.3515625,0 -0.5859375,0.29296876 -0.5859375,0.57421876 0,0.3515625 0.28125,0.5859375 0.5742188,0.5859375 0.3398437,0 0.5859375,-0.28125 0.5859375,-0.57421875 z m 0,0"
         style="fill:#000000;fill-opacity:1;fill-rule:nonzero;stroke:none" />
      <path
         id="path30"
         d="m 10.640547,-6.8425234 c 0.503906,0.1640625 0.925781,0.1757812 1.054687,0.1757812 1.359375,0 2.214844,-0.9960937 2.214844,-1.1601562 0,-0.046875 -0.02344,-0.1054688 -0.09375,-0.1054688 -0.02344,0 -0.04687,0 -0.152344,0.046875 -0.667968,0.28125 -1.242187,0.3164063 -1.558593,0.3164063 -0.785157,0 -1.347657,-0.234375 -1.582032,-0.328125 -0.08203,-0.035156 -0.105468,-0.035156 -0.117187,-0.035156 -0.09375,0 -0.09375,0.070312 -0.09375,0.2578125 v 3.5507813 c 0,0.2109375 0,0.2929687 0.140625,0.2929687 0.05859,0 0.07031,-0.011719 0.199219,-0.1640625 0.328125,-0.4921875 0.890625,-0.7734375 1.488281,-0.7734375 0.632812,0 0.949219,0.5859375 1.042969,0.7851563 0.199218,0.46875 0.210937,1.0546875 0.210937,1.5117187 0,0.4570313 0,1.1367188 -0.328125,1.67578126 -0.269531,0.421875 -0.738281,0.7265625 -1.253906,0.7265625 -0.796875,0 -1.570313,-0.5390625 -1.78125,-1.40624996 0.05859,0.023437 0.128906,0.035156 0.1875,0.035156 0.199219,0 0.527344,-0.1289062 0.527344,-0.5273437 0,-0.3398438 -0.234375,-0.5273438 -0.527344,-0.5273438 -0.210938,0 -0.5273439,0.1054688 -0.5273439,0.5742188 0,1.00781246 0.8085939,2.16796871 2.1445309,2.16796871 1.347657,0 2.53125,-1.125 2.53125,-2.64843751 0,-1.4179687 -0.960937,-2.6015625 -2.214843,-2.6015625 -0.679688,0 -1.207032,0.2929688 -1.511719,0.6328125 z m 0,0"
         style="fill:#000000;fill-opacity:1;fill-rule:nonzero;stroke:none" />
    </g>
    <path
       id="path31"
       d="m 3.4459687,-7.6636641 c 0,-0.2695312 0,-0.28125 -0.2460937,-0.28125 -0.28125,0.3164063 -0.8789063,0.7617188 -2.109375,0.7617188 v 0.3515625 c 0.2695312,0 0.8671875,0 1.5234375,-0.3164063 v 6.22265629 c 0,0.43359375 -0.035156,0.57421875 -1.078125,0.57421875 h -0.375 V 3.984375e-4 C 1.4772187,-0.02303906 2.637375,-0.02303906 3.0358125,-0.02303906 c 0.3984375,0 1.546875,0 1.8632812,0.0234374975 V -0.35116406 H 4.5358125 c -1.0546875,0 -1.0898438,-0.140625 -1.0898438,-0.57421875 z m 0,0"
       style="fill:#000000;fill-opacity:1;fill-rule:nonzero;stroke:none"
       aria-label="1"
       transform="matrix(1.3333333,0,0,1.3333333,27.796,188.144)" />
    <path
       id="path32"
       d="M 5.262375,-2.0041641 H 4.9928437 c -0.035156,0.1992188 -0.1289062,0.8554688 -0.2460937,1.04296879 -0.082031,0.1171875 -0.7617188,0.1171875 -1.125,0.1171875 H 1.4069062 C 1.7350312,-1.1252578 2.4615937,-1.8869766 2.778,-2.1799453 c 1.8164062,-1.6640625 2.484375,-2.2851563 2.484375,-3.46875 0,-1.3828125 -1.0898438,-2.296875 -2.4726563,-2.296875 -1.3945312,0 -2.20312495,1.1835937 -2.20312495,2.203125 0,0.609375 0.52734375,0.609375 0.56249995,0.609375 0.2460938,0 0.5625,-0.1757813 0.5625,-0.5625 0,-0.328125 -0.234375,-0.5507813 -0.5625,-0.5507813 -0.1054687,0 -0.1289062,0 -0.16406245,0.011719 0.22265625,-0.8203125 0.86718745,-1.3710938 1.64062495,-1.3710938 1.0195313,0 1.640625,0.8554688 1.640625,1.9570313 0,1.0078125 -0.5859375,1.8984375 -1.265625,2.6601562 L 0.58659375,-0.28150781 V -2.578125e-4 H 4.9459687 Z m 0,0"
       style="fill:#000000;fill-opacity:1;fill-rule:nonzero;stroke:none"
       aria-label="2"
       transform="matrix(1.3333333,0,0,1.3333333,27.796,150.348)" />
    <path
       id="path33"
       d="m 4.3131562,-7.7808906 c 0,-0.2226563 0,-0.2929688 -0.1640625,-0.2929688 -0.09375,0 -0.1289062,0 -0.2226562,0.1523438 l -3.59765625,5.578125 v 0.3515625 H 3.4694062 v 1.07812498 c 0,0.4453125 -0.023437,0.5625 -0.9023437,0.5625 H 2.3326875 V 3.59375e-4 c 0.2695312,-0.023437495 1.21875,-0.023437495 1.5585937,-0.023437495 0.328125,0 1.2890625,0 1.5585938,0.023437495 V -0.35120312 H 5.2155 c -0.8671875,0 -0.9023438,-0.1171875 -0.9023438,-0.5625 V -1.9918281 H 5.5201875 V -2.3433906 H 4.3131562 Z M 3.528,-6.8433906 v 4.5 H 0.62175 Z m 0,0"
       style="fill:#000000;fill-opacity:1;fill-rule:nonzero;stroke:none"
       aria-label="4"
       transform="matrix(1.3333333,0,0,1.3333333,27.796,74.757333)" />
    <path
       id="path34"
       d="M -28.3468,0 V 14.17339 H 28.3468 V 0"
       style="fill:none;stroke:#000000;stroke-width:1.19553;stroke-linecap:butt;stroke-linejoin:miter;stroke-miterlimit:10;stroke-dasharray:none;stroke-opacity:1"
       transform="matrix(1.3333333,0,0,-1.3333333,220.67467,220.80267)" />
    <path
       id="path35"
       d="M -14.17339,0 V 28.3468 H 14.17339 V 0"
       style="fill:none;stroke:#0000ff;stroke-width:1.19553;stroke-linecap:butt;stroke-linejoin:miter;stroke-miterlimit:10;stroke-dasharray:none;stroke-opacity:1"
       transform="matrix(1.3333333,0,0,-1.3333333,220.67467,220.80267)" />
    <path
       id="path36"
       d="M -7.08669,0 V 56.69362 H 7.08669 V 0"
       style="fill:none;stroke:#00ff00;stroke-width:1.19553;stroke-linecap:butt;stroke-linejoin:miter;stroke-miterlimit:10;stroke-dasharray:none;stroke-opacity:1"
       transform="matrix(1.3333333,0,0,-1.3333333,220.67467,220.80267)" />
    <path
       id="path37"
       d="M -3.54333,0 V 113.38724 H 3.54333 V 0"
       style="fill:none;stroke:#ff0000;stroke-width:1.19553;stroke-linecap:butt;stroke-linejoin:miter;stroke-miterlimit:10;stroke-dasharray:none;stroke-opacity:1"
       transform="matrix(1.3333333,0,0,-1.3333333,220.67467,220.80267)" />
    <path
       id="path38"
       d="m 2.8823047,-5.7669297 h 1.3242187 c 0.2695313,0 0.4101563,0 0.4101563,-0.2578125 0,-0.1640625 -0.082031,-0.1640625 -0.375,-0.1640625 H 2.9877734 l 0.5273438,-2.0859375 c 0.058594,-0.1992187 0.058594,-0.234375 0.058594,-0.328125 0,-0.234375 -0.1875,-0.3632812 -0.375,-0.3632812 -0.1171875,0 -0.4453125,0.046875 -0.5625,0.5039062 l -0.5625,2.2734375 H 0.72605469 c -0.28125,0 -0.41015625,0 -0.41015625,0.28125 0,0.140625 0.09375,0.140625 0.375,0.140625 H 1.9682422 l -0.9492188,3.7851563 c -0.11718746,0.5039062 -0.16406246,0.6445312 -0.16406246,0.8320312 0,0.67968751 0.48046876,1.28906251 1.27734376,1.28906251 1.453125,0 2.2265625,-2.08593751 2.2265625,-2.19140621 0,-0.082031 -0.058594,-0.1289063 -0.140625,-0.1289063 -0.035156,0 -0.082031,0 -0.1171875,0.058594 -0.011719,0.011719 -0.023437,0.023437 -0.1289063,0.2578125 -0.3046875,0.7148437 -0.9609375,1.72265621 -1.7929687,1.72265621 -0.4335938,0 -0.4570313,-0.36328125 -0.4570313,-0.6796875 0,-0.0117188 0,-0.28125001 0.046875,-0.45703121 z m 0,0"
       style="fill:#000000;fill-opacity:1;fill-rule:nonzero;stroke:none"
       aria-label="t"
       transform="matrix(1.3333333,0,0,1.3333333,368.47333,226.68533)" />
    <path
       id="path39"
       d="m 0.62235938,-9.7966719 v 0.421875 h 0.28125 c 1.03125002,0 1.07812502,0.140625 1.07812502,0.6679688 v 7.6171875 c 0,0.52734372 -0.046875,0.67968747 -1.07812502,0.67968747 h -0.28125 V 2.03125e-4 H 6.0129844 c 1.8515625,0 3.140625,-1.242187525 3.140625,-2.625000025 0,-1.1601562 -1.0429688,-2.3085937 -2.7539063,-2.4960937 1.359375,-0.2578125 2.3554688,-1.171875 2.3554688,-2.25 0,-1.2304688 -1.2539063,-2.4257813 -3.1289063,-2.4257813 z m 2.44921872,4.5585938 v -3.5742188 c 0,-0.46875 0.023437,-0.5625 0.65625,-0.5625 h 1.8046875 c 1.4414063,0 1.9570313,1.2304688 1.9570313,2.0039063 0,0.9492187 -0.75,2.1328125 -2.34375,2.1328125 z m 0.65625,4.82812497 c -0.6328125,0 -0.65625,-0.10546875 -0.65625,-0.57421875 V -4.9451094 h 2.6835938 c 1.3710937,0 2.0976562,1.2070313 2.0976562,2.3085938 0,1.1601562 -0.8789062,2.22656247 -2.2851562,2.22656247 z M 16.533492,-3.0701094 c 0,-1.8515625 -1.40625,-3.328125 -3.070312,-3.328125 -1.722657,0 -3.082032,1.5234375 -3.082032,3.328125 0,1.8398438 1.429688,3.21093752 3.070313,3.21093752 1.6875,0 3.082031,-1.40625002 3.082031,-3.21093752 z m -3.070312,2.89453127 c -0.527344,0 -1.171875,-0.22265625 -1.59375,-0.92578127 -0.386719,-0.6445312 -0.398438,-1.5 -0.398438,-2.0976562 0,-0.5390625 0,-1.4179688 0.445313,-2.0625 0.398437,-0.6210938 1.03125,-0.84375 1.535156,-0.84375 0.550781,0 1.160156,0.2578125 1.546875,0.8085937 0.445312,0.6679688 0.445312,1.5703125 0.445312,2.0976563 0,0.5039062 0,1.3945312 -0.375,2.0625 -0.398437,0.69140622 -1.066406,0.96093747 -1.605468,0.96093747 z m 7.139648,-3.21093747 c 0.410156,-0.5390625 1.019531,-1.3125 1.289063,-1.6171875 0.585937,-0.65625 1.265625,-0.7617188 1.722656,-0.7617188 v -0.421875 c -0.621094,0.035156 -0.644531,0.035156 -1.207031,0.035156 -0.550782,0 -0.574219,0 -1.289063,-0.035156 v 0.421875 c 0.1875,0.023437 0.410156,0.1171875 0.410156,0.4453125 0,0.2460938 -0.128906,0.3984375 -0.210937,0.515625 l -0.914063,1.1601563 -1.125,-1.4765625 c -0.04687,-0.058594 -0.128906,-0.1875 -0.128906,-0.28125 0,-0.09375 0.07031,-0.3515625 0.503906,-0.3632813 v -0.421875 c -0.363281,0.035156 -1.089843,0.035156 -1.476562,0.035156 -0.480469,0 -0.503906,0 -1.382813,-0.035156 v 0.421875 c 0.738282,0 1.007813,0.023437 1.3125,0.4101563 l 1.675782,2.203125 c 0.02344,0.023437 0.08203,0.1171875 0.08203,0.1523437 0,0.046875 -1.113281,1.453125 -1.253906,1.640625 -0.632813,0.77343752 -1.265625,0.92578127 -1.886719,0.94921877 V 2.03125e-4 c 0.550781,-0.023437505 0.574219,-0.023437505 1.195312,-0.023437505 0.539063,0 0.574219,0 1.289063,0.023437505 V -0.40995313 c -0.339844,-0.046875 -0.398438,-0.26953125 -0.398438,-0.46875 0,-0.22265627 0.09375,-0.33984377 0.246094,-0.52734377 0.210938,-0.3046875 0.679688,-0.890625 1.03125,-1.3359375 l 1.171875,1.5351563 c 0.246094,0.31640622 0.246094,0.35156247 0.246094,0.43359372 0,0.1171875 -0.117188,0.33984375 -0.503906,0.36328125 V 2.03125e-4 c 0.375,-0.023437505 1.078125,-0.023437505 1.476562,-0.023437505 0.46875,0 0.503906,0 1.359375,0.023437505 V -0.40995313 c -0.761719,0 -1.019531,-0.0351563 -1.359375,-0.4921875 z m 16.637695,-5.3203125 c 0,-0.5273438 0.03516,-0.6679688 1.078125,-0.6679688 h 0.28125 v -0.421875 c -0.339843,0.023437 -1.523437,0.023437 -1.933593,0.023437 -0.433594,0 -1.605469,0 -1.957032,-0.023437 v 0.421875 h 0.292969 c 1.03125,0 1.078125,0.140625 1.078125,0.6679688 v 3.3984375 h -4.289062 v -3.3984375 c 0,-0.5273438 0.03516,-0.6679688 1.066406,-0.6679688 h 0.292969 v -0.421875 c -0.339844,0.023437 -1.523438,0.023437 -1.933594,0.023437 -0.433594,0 -1.605469,0 -1.957031,-0.023437 v 0.421875 h 0.292968 c 1.03125,0 1.066407,0.140625 1.066407,0.6679688 v 7.6171875 c 0,0.52734372 -0.03516,0.67968747 -1.066407,0.67968747 H 29.260055 V 2.03125e-4 c 0.351562,-0.023437505 1.523437,-0.023437505 1.933593,-0.023437505 0.433594,0 1.617188,0 1.957032,0.023437505 V -0.40995313 h -0.292969 c -1.03125,0 -1.066406,-0.15234375 -1.066406,-0.67968747 v -3.796875 h 4.289062 v 3.796875 c 0,0.52734372 -0.04687,0.67968747 -1.078125,0.67968747 H 34.709273 V 2.03125e-4 c 0.351563,-0.023437505 1.523438,-0.023437505 1.945313,-0.023437505 0.421875,0 1.605469,0 1.945312,0.023437505 V -0.40995313 h -0.28125 c -1.042968,0 -1.078125,-0.15234375 -1.078125,-0.67968747 z m 7.461915,5.3789062 c 0.316406,0 0.339843,0 0.339843,-0.2695312 0,-1.453125 -0.773437,-2.8007813 -2.507812,-2.8007813 -1.640625,0 -2.894531,1.4765625 -2.894531,3.2578125 0,1.8984375 1.464843,3.28125002 3.046875,3.28125002 1.710937,0 2.355468,-1.54687502 2.355468,-1.85156252 0,-0.082031 -0.07031,-0.140625 -0.152343,-0.140625 -0.117188,0 -0.152344,0.070312 -0.175782,0.140625 -0.375,1.20703127 -1.335937,1.53515627 -1.933593,1.53515627 -0.609375,0 -2.050782,-0.3984375 -2.050782,-2.88281247 V -3.3279219 Z M 40.7415,-3.5974531 c 0.117188,-2.25 1.371094,-2.5078125 1.78125,-2.5078125 1.535156,0 1.617188,2.015625 1.628906,2.5078125 z m 7.204102,-5.2382813 c 0,-0.375 -0.304688,-0.703125 -0.703125,-0.703125 -0.375,0 -0.691407,0.3046875 -0.691407,0.6914063 0,0.4335937 0.351563,0.703125 0.691407,0.703125 0.445312,0 0.703125,-0.375 0.703125,-0.6914063 z m -1.980469,2.671875 v 0.4101563 c 0.914062,0 1.042969,0.09375 1.042969,0.7851562 v 3.9023438 c 0,0.65624997 -0.152344,0.65624997 -1.089844,0.65624997 V 2.03125e-4 c 0.410156,-0.023437505 1.089844,-0.023437505 1.511719,-0.023437505 0.152343,0 0.984375,0 1.476562,0.023437505 V -0.40995313 c -0.9375,0 -0.984375,-0.0820313 -0.984375,-0.63281247 v -5.2851563 z m 5.097656,3.5625 c 0.667969,0.4453125 1.242188,0.4453125 1.40625,0.4453125 1.289063,0 2.25,-0.9726562 2.25,-2.0742187 0,-0.3867188 -0.117187,-0.9375 -0.574219,-1.3945313 0.5625,-0.5742187 1.230469,-0.5742187 1.300782,-0.5742187 0.05859,0 0.128906,0 0.1875,0.035156 -0.140625,0.058594 -0.210938,0.1992188 -0.210938,0.3515625 0,0.1992188 0.140625,0.375 0.375,0.375 0.105469,0 0.363281,-0.070312 0.363281,-0.3867187 0,-0.2578125 -0.199218,-0.65625 -0.703125,-0.65625 -0.738281,0 -1.300781,0.4570312 -1.5,0.6679687 -0.433593,-0.328125 -0.9375,-0.515625 -1.476562,-0.515625 -1.289063,0 -2.25,0.9726563 -2.25,2.0859375 0,0.8085938 0.503906,1.3476563 0.644531,1.4765625 -0.175781,0.2109375 -0.433594,0.6328125 -0.433594,1.1835938 0,0.83203122 0.503907,1.19531247 0.621094,1.26562497 -0.667969,0.1875 -1.324219,0.703125 -1.324219,1.45312503 0,0.984375 1.347657,1.8046875 3.117188,1.8046875 1.699219,0 3.117187,-0.7617188 3.117187,-1.8398438 0,-0.35156248 -0.09375,-1.20703123 -0.960937,-1.65234373 -0.726563,-0.36328125 -1.441406,-0.36328125 -2.671875,-0.36328125 -0.878906,0 -0.984375,0 -1.242188,-0.28125002 -0.140625,-0.140625 -0.269531,-0.4101562 -0.269531,-0.7148437 0,-0.2460938 0.08203,-0.4804688 0.234375,-0.6914061 z m 1.417969,0.1523438 c -1.265625,0 -1.265625,-1.453125 -1.265625,-1.78125 0,-0.2578125 0,-0.84375 0.246094,-1.2304688 0.269531,-0.421875 0.703125,-0.5625 1.007812,-0.5625 1.253906,0 1.253906,1.453125 1.253906,1.78125 0,0.2578125 0,0.84375 -0.234375,1.2304688 -0.28125,0.4101562 -0.703125,0.5625 -1.007812,0.5625 z m 0.386719,5.0859375 c -1.382813,0 -2.425782,-0.703125 -2.425782,-1.5234375 0,-0.1054688 0.02344,-0.66796878 0.574219,-1.04296878 0.316406,-0.19921875 0.445313,-0.19921875 1.453125,-0.19921875 1.183594,0 2.8125,0 2.8125,1.24218753 0,0.8554687 -1.101562,1.5234375 -2.414062,1.5234375 z m 9.893554,-6.1171875 c 0,-1.3359375 0,-1.7460938 -0.328125,-2.203125 -0.421875,-0.5507813 -1.089843,-0.6445313 -1.582031,-0.6445313 -1.230469,0 -1.804687,0.9375 -2.003906,1.3828125 h -0.02344 v -5.0039062 l -1.992187,0.1523437 v 0.421875 c 0.972656,0 1.089844,0.09375 1.089844,0.796875 v 7.5117188 c 0,0.65624997 -0.152344,0.65624997 -1.089844,0.65624997 V 2.03125e-4 c 0.375,-0.023437505 1.148437,-0.023437505 1.546875,-0.023437505 0.421875,0 1.195312,0 1.570312,0.023437505 V -0.40995313 c -0.925781,0 -1.089843,0 -1.089843,-0.65624997 v -2.6601563 c 0,-1.5117187 0.984375,-2.3085937 1.875,-2.3085937 0.890625,0 1.089843,0.7265625 1.089843,1.6054687 v 3.3632813 c 0,0.65624997 -0.152343,0.65624997 -1.089843,0.65624997 V 2.03125e-4 c 0.375,-0.023437505 1.148437,-0.023437505 1.546875,-0.023437505 0.421875,0 1.195312,0 1.570312,0.023437505 V -0.40995313 c -0.714844,0 -1.078125,0 -1.089844,-0.43359375 z m 3.445313,-2.2851563 h 2.015625 v -0.421875 h -2.015625 v -2.6367187 h -0.316406 c -0.02344,1.3476562 -0.539063,2.7304687 -1.839844,2.765625 v 0.2929687 h 1.21875 v 3.984375 c 0,1.59375002 1.066406,1.92187502 1.828125,1.92187502 0.902344,0 1.371094,-0.890625 1.371094,-1.92187502 v -0.8203125 h -0.316407 v 0.796875 c 0,1.03125002 -0.410156,1.62890627 -0.972656,1.62890627 -0.972656,0 -0.972656,-1.33593747 -0.972656,-1.57031247 z m 0,0"
       style="fill:#000000;fill-opacity:1;fill-rule:nonzero;stroke:none"
       aria-label="BoxHeight"
       transform="matrix(1.3333333,0,0,1.3333333,4.428,17.710667)" />
  </g>
</svg>
