<?xml version="1.0" encoding="UTF-8" standalone="no"?>
<!-- Created with Inkscape (http://www.inkscape.org/) -->

<svg
   version="1.1"
   id="svg1"
   width="442.98532"
   height="205.84399"
   viewBox="0 0 442.98532 205.84399"
   xmlns="http://www.w3.org/2000/svg"
   xmlns:svg="http://www.w3.org/2000/svg">
  <defs
     id="defs1" />
  <g
     id="g1">
    <path
       id="path1"
       d="M -70.867,-3.40146 V 112.67987"
       style="fill:none;stroke:#000000;stroke-width:0.79701;stroke-linecap:butt;stroke-linejoin:miter;stroke-miterlimit:10;stroke-dasharray:none;stroke-opacity:1"
       transform="matrix(1.3333333,0,0,-1.3333333,208.40533,184.07067)" />
    <path
       id="path2"
       d="M -1.55415,2.0722 C -1.42464,1.29512 0,0.1295 0.38852,0 0,-0.1295 -1.42464,-1.29512 -1.55415,-2.0722"
       style="fill:none;stroke:#000000;stroke-width:0.6376;stroke-linecap:round;stroke-linejoin:round;stroke-miterlimit:10;stroke-dasharray:none;stroke-opacity:1"
       transform="matrix(0,-1.3333333,-1.3333333,0,113.916,33.83084)" />
    <path
       id="path3"
       d="M -155.90744,0 H -3.40146"
       style="fill:none;stroke:#000000;stroke-width:0.79701;stroke-linecap:butt;stroke-linejoin:miter;stroke-miterlimit:10;stroke-dasharray:none;stroke-opacity:1"
       transform="matrix(1.3333333,0,0,-1.3333333,208.40533,184.07067)" />
    <path
       id="path4"
       d="M 3.40146,0 H 155.20007"
       style="fill:none;stroke:#000000;stroke-width:0.79701;stroke-linecap:butt;stroke-linejoin:miter;stroke-miterlimit:10;stroke-dasharray:none;stroke-opacity:1"
       transform="matrix(1.3333333,0,0,-1.3333333,208.40533,184.07067)" />
    <path
       id="path5"
       d="M -1.55415,2.0722 C -1.42464,1.29512 0,0.1295 0.38852,0 0,-0.1295 -1.42464,-1.29512 -1.55415,-2.0722"
       style="fill:none;stroke:#000000;stroke-width:0.6376;stroke-linecap:round;stroke-linejoin:round;stroke-miterlimit:10;stroke-dasharray:none;stroke-opacity:1"
       transform="matrix(1.3333333,0,0,-1.3333333,415.33876,184.07067)" />
    <path
       id="path6"
       d="m 2.8815391,-5.7657812 h 1.3242187 c 0.2695313,0 0.4101563,0 0.4101563,-0.2578125 0,-0.1640625 -0.082031,-0.1640625 -0.375,-0.1640625 H 2.9870078 l 0.5273438,-2.0859375 c 0.058594,-0.1992188 0.058594,-0.234375 0.058594,-0.328125 0,-0.234375 -0.1875,-0.3632813 -0.375,-0.3632813 -0.1171875,0 -0.4453125,0.046875 -0.5625,0.5039063 l -0.5625,2.2734375 H 0.72528906 c -0.28125,0 -0.41015625,0 -0.41015625,0.28125 0,0.140625 0.09375,0.140625 0.375,0.140625 H 1.9674766 L 1.0182578,-1.980625 c -0.11718749,0.5039063 -0.16406249,0.6445313 -0.16406249,0.8320313 0,0.67968745 0.48046879,1.28906245 1.27734379,1.28906245 1.453125,0 2.2265625,-2.08593745 2.2265625,-2.19140625 0,-0.082031 -0.058594,-0.1289062 -0.140625,-0.1289062 -0.035156,0 -0.082031,0 -0.1171875,0.058594 -0.011719,0.011719 -0.023437,0.023437 -0.1289063,0.2578125 -0.3046875,0.7148438 -0.9609375,1.72265625 -1.7929687,1.72265625 -0.4335938,0 -0.4570313,-0.36328125 -0.4570313,-0.6796875 0,-0.0117188 0,-0.28124995 0.046875,-0.45703125 z m 0,0"
       style="fill:#000000;fill-opacity:1;fill-rule:nonzero;stroke:none"
       aria-label="t"
       transform="matrix(1.3333333,0,0,1.3333333,431.79467,189.95333)" />
    <g
       id="g6"
       aria-label="H(t−c)"
       transform="matrix(1.3333333,0,0,1.3333333,79.033333,18.773333)">
      <path
         id="path7"
         d="m 10.735742,-8.7538281 c 0.128906,-0.4804688 0.152344,-0.6210938 1.171875,-0.6210938 0.257813,0 0.398438,0 0.398438,-0.2695312 0,-0.1523438 -0.128907,-0.1523438 -0.210938,-0.1523438 -0.257812,0 -0.5625,0.023437 -0.832031,0.023437 H 9.5638672 c -0.2695313,0 -0.5742188,-0.023437 -0.84375,-0.023437 -0.09375,0 -0.2695313,0 -0.2695313,0.2695313 0,0.1523437 0.1054688,0.1523437 0.375,0.1523437 0.8554688,0 0.8554688,0.1054688 0.8554688,0.2695313 0,0.023437 0,0.1171875 -0.058594,0.328125 l -0.8671875,3.46875 H 4.4193359 l 0.8554688,-3.4453125 c 0.1289062,-0.4804688 0.1640625,-0.6210938 1.1835937,-0.6210938 0.2578125,0 0.3984375,0 0.3984375,-0.2695312 0,-0.1523438 -0.1289062,-0.1523438 -0.2109375,-0.1523438 -0.2578125,0 -0.5625,0.023437 -0.8320312,0.023437 H 4.1146484 c -0.2695312,0 -0.5742187,-0.023437 -0.84375,-0.023437 -0.09375,0 -0.2695312,0 -0.2695312,0.2695313 0,0.1523437 0.09375,0.1523437 0.375,0.1523437 0.8554687,0 0.8554687,0.1054688 0.8554687,0.2695313 0,0.023437 0,0.1171875 -0.058594,0.328125 l -1.9335938,7.7109375 c -0.1289062,0.50390622 -0.1640625,0.65624997 -1.1484375,0.65624997 -0.32812496,0 -0.43359371,0 -0.43359371,0.26953125 0,0.140625005 0.1640625,0.140625005 0.19921875,0.140625005 0.25781246,0 0.56249996,-0.023437505 0.83203126,-0.023437505 h 1.6992187 c 0.2695313,0 0.5742188,0.023437505 0.84375,0.023437505 0.1171875,0 0.2695313,0 0.2695313,-0.269531255 0,-0.140625 -0.1289063,-0.140625 -0.3398438,-0.140625 -0.8789062,0 -0.8789062,-0.1171875 -0.8789062,-0.26953125 0,-0.0117188 0,-0.10546875 0.035156,-0.22265625 l 0.984375,-3.98437497 h 4.3476563 c -0.2460938,0.9375 -0.9726563,3.93749997 -1.0078125,4.03124997 -0.1523438,0.421875 -0.3867188,0.421875 -1.2304688,0.4453125 -0.1757812,0 -0.3046875,0 -0.3046875,0.26953125 0,0.140625005 0.1640625,0.140625005 0.2109375,0.140625005 0.2578125,0 0.5507813,-0.023437505 0.8320313,-0.023437505 h 1.6875 c 0.2695312,0 0.5742187,0.023437505 0.84375,0.023437505 0.1171875,0 0.2695312,0 0.2695312,-0.269531255 0,-0.140625 -0.1289062,-0.140625 -0.3398437,-0.140625 -0.8789063,0 -0.8789063,-0.1171875 -0.8789063,-0.26953125 0,-0.0117188 0,-0.10546875 0.035156,-0.22265625 z m 0,0"
         style="fill:#000000;fill-opacity:1;fill-rule:nonzero;stroke:none" />
      <path
         id="path8"
         d="m 17.4125,3.4805469 c 0,-0.035156 0,-0.070312 -0.246094,-0.3046875 -1.429687,-1.453125 -2.238281,-3.82031253 -2.238281,-6.75 0,-2.7773438 0.679688,-5.1796875 2.34375,-6.8671874 0.140625,-0.128906 0.140625,-0.164063 0.140625,-0.199219 0,-0.09375 -0.07031,-0.117187 -0.128906,-0.117187 -0.1875,0 -1.359375,1.0312496 -2.0625,2.4374996 -0.738281,1.453125 -1.066406,2.9882813 -1.066406,4.7460938 0,1.2773437 0.199218,2.98828122 0.949218,4.52343747 0.84375,1.72265623 2.015625,2.64843753 2.179688,2.64843753 0.05859,0 0.128906,-0.023437 0.128906,-0.1171875 z m 0,0"
         style="fill:#000000;fill-opacity:1;fill-rule:nonzero;stroke:none" />
      <path
         id="path9"
         d="m 21.092188,-5.7655469 h 1.324218 c 0.269532,0 0.410157,0 0.410157,-0.2578125 0,-0.1640625 -0.08203,-0.1640625 -0.375,-0.1640625 H 21.197656 L 21.725,-8.2733594 c 0.05859,-0.1992187 0.05859,-0.234375 0.05859,-0.328125 0,-0.234375 -0.1875,-0.3632812 -0.375,-0.3632812 -0.117188,0 -0.445313,0.046875 -0.5625,0.5039062 l -0.5625,2.2734375 h -1.347656 c -0.28125,0 -0.410157,0 -0.410157,0.28125 0,0.140625 0.09375,0.140625 0.375,0.140625 h 1.277344 l -0.949219,3.7851563 c -0.117187,0.5039062 -0.164062,0.6445312 -0.164062,0.8320312 0,0.67968752 0.480469,1.28906252 1.277344,1.28906252 1.453125,0 2.226562,-2.08593752 2.226562,-2.19140622 0,-0.082031 -0.05859,-0.1289063 -0.140625,-0.1289063 -0.03516,0 -0.08203,0 -0.117187,0.058594 -0.01172,0.011719 -0.02344,0.023437 -0.128907,0.2578125 -0.304687,0.7148437 -0.960937,1.72265622 -1.792968,1.72265622 -0.433594,0 -0.457032,-0.36328125 -0.457032,-0.6796875 0,-0.0117188 0,-0.28125002 0.04687,-0.45703122 z m 0,0"
         style="fill:#000000;fill-opacity:1;fill-rule:nonzero;stroke:none" />
      <path
         id="path10"
         d="m 35.928125,-3.3046094 c 0.234375,0 0.492188,0 0.492188,-0.28125 0,-0.28125 -0.257813,-0.28125 -0.492188,-0.28125 h -7.769531 c -0.234375,0 -0.492188,0 -0.492188,0.28125 0,0.28125 0.257813,0.28125 0.492188,0.28125 z m 0,0"
         style="fill:#000000;fill-opacity:1;fill-rule:nonzero;stroke:none" />
      <path
         id="path11"
         d="m 46.431055,-5.3905469 c -0.28125,0 -0.410157,0 -0.609375,0.1640625 -0.08203,0.082031 -0.246094,0.2929688 -0.246094,0.5273438 0,0.28125 0.222656,0.4570312 0.492187,0.4570312 0.339844,0 0.726563,-0.2929687 0.726563,-0.8671875 0,-0.6796875 -0.65625,-1.21875 -1.640625,-1.21875 -1.886719,0 -3.761719,2.0507813 -3.761719,4.0898438 0,1.25390622 0.773438,2.37890622 2.238281,2.37890622 1.945313,0 3.1875,-1.52343752 3.1875,-1.69921872 0,-0.09375 -0.09375,-0.1640625 -0.152343,-0.1640625 -0.03516,0 -0.05859,0.011719 -0.1875,0.140625 -0.914063,1.21874997 -2.273438,1.44140622 -2.824219,1.44140622 -0.984375,0 -1.300781,-0.86718752 -1.300781,-1.58203122 0,-0.5039063 0.246093,-1.8867188 0.761718,-2.8710938 0.375,-0.6679687 1.148438,-1.4414062 2.050782,-1.4414062 0.1875,0 0.972656,0.023437 1.265625,0.6445312 z m 0,0"
         style="fill:#000000;fill-opacity:1;fill-rule:nonzero;stroke:none" />
      <path
         id="path12"
         d="m 50.904688,-3.5741406 c 0,-1.0898438 -0.140625,-2.8710938 -0.949219,-4.5351563 -0.84375,-1.7109375 -2.015625,-2.6484371 -2.179688,-2.6484371 -0.05859,0 -0.128906,0.02344 -0.128906,0.117187 0,0.03516 0,0.07031 0.246094,0.316406 1.441406,1.4414066 2.238281,3.8085941 2.238281,6.7382816 0,2.77734377 -0.667969,5.1796875 -2.332031,6.8671875 -0.152344,0.1289063 -0.152344,0.1640625 -0.152344,0.1992188 0,0.09375 0.07031,0.1171875 0.128906,0.1171875 0.1875,0 1.371094,-1.03125 2.074219,-2.4375 0.726563,-1.46484378 1.054688,-3.0117188 1.054688,-4.734375 z m 0,0"
         style="fill:#000000;fill-opacity:1;fill-rule:nonzero;stroke:none" />
    </g>
    <path
       id="path13"
       d="M -141.73404,0 H -3.40146"
       style="fill:none;stroke:#000000;stroke-width:1.19553;stroke-linecap:butt;stroke-linejoin:miter;stroke-miterlimit:10;stroke-dasharray:none;stroke-opacity:1"
       transform="matrix(1.3333333,0,0,-1.3333333,208.40533,184.07067)" />
    <path
       id="path14"
       d="M 0,85.04042 H 141.73404"
       style="fill:none;stroke:#000000;stroke-width:1.19553;stroke-linecap:butt;stroke-linejoin:miter;stroke-miterlimit:10;stroke-dasharray:none;stroke-opacity:1"
       transform="matrix(1.3333333,0,0,-1.3333333,208.40533,184.07067)" />
    <path
       id="path15"
       d="M 3.40146,0 C 3.40146,1.87859 1.87859,3.40146 0,3.40146 -1.87859,3.40146 -3.40146,1.87859 -3.40146,0 c 0,-1.87859 1.52287,-3.40146 3.40146,-3.40146 1.87859,0 3.40146,1.52287 3.40146,3.40146 z"
       style="fill:none;stroke:#000000;stroke-width:0.79701;stroke-linecap:butt;stroke-linejoin:miter;stroke-miterlimit:10;stroke-dasharray:none;stroke-opacity:1"
       transform="matrix(1.3333333,0,0,-1.3333333,208.40533,184.07067)" />
    <path
       id="path16"
       d="m 3.40146,85.04042 c 0,1.8786 -1.52287,3.40148 -3.40146,3.40148 -1.87859,0 -3.40146,-1.52288 -3.40146,-3.40148 0,-1.8786 1.52287,-3.40147 3.40146,-3.40147 1.87859,0 3.40146,1.52287 3.40146,3.40147 z"
       style="fill:#000000;fill-opacity:1;fill-rule:nonzero;stroke:#000000;stroke-width:0.3985;stroke-linecap:butt;stroke-linejoin:miter;stroke-miterlimit:10;stroke-dasharray:none;stroke-opacity:1"
       transform="matrix(1.3333333,0,0,-1.3333333,208.40533,184.07067)" />
    <path
       id="path17"
       d="m -75.11885,85.04042 h 8.50368"
       style="fill:none;stroke:#000000;stroke-width:0.79701;stroke-linecap:butt;stroke-linejoin:miter;stroke-miterlimit:10;stroke-dasharray:none;stroke-opacity:1"
       transform="matrix(1.3333333,0,0,-1.3333333,208.40533,184.07067)" />
    <path
       id="path18"
       d="m 4.1366094,-9.1994766 c 0,-0.328125 0,-0.3398437 -0.2929688,-0.3398437 -0.3398437,0.3867187 -1.0664062,0.9140625 -2.5429687,0.9140625 v 0.421875 c 0.3398437,0 1.0546875,0 1.8398437,-0.375 v 7.4765625 c 0,0.51562499 -0.046875,0.69140624 -1.3007812,0.69140624 H 1.3944219 v 0.4101562475 c 0.3867187,-0.0234374975 1.78125,-0.0234374975 2.25,-0.0234374975 0.46875,0 1.8515625,0 2.2382812,0.0234374975 V -0.41041406 H 5.4373906 c -1.265625,0 -1.3007812,-0.17578125 -1.3007812,-0.69140624 z m 0,0"
       style="fill:#000000;fill-opacity:1;fill-rule:nonzero;stroke:none"
       aria-label="1"
       transform="matrix(1.3333333,0,0,1.3333333,94.117333,76.848)" />
    <path
       id="path19"
       d="m 5.6135312,-5.3920781 c -0.28125,0 -0.4101562,0 -0.609375,0.1640625 -0.082031,0.082031 -0.2460937,0.2929687 -0.2460937,0.5273437 0,0.28125 0.2226562,0.4570313 0.4921875,0.4570313 0.3398437,0 0.7265625,-0.2929688 0.7265625,-0.8671875 0,-0.6796875 -0.65625,-1.21875 -1.640625,-1.21875 -1.8867188,0 -3.76171875,2.0507812 -3.76171875,4.0898437 0,1.25390627 0.77343745,2.37890627 2.23828125,2.37890627 1.9453125,0 3.1875,-1.52343747 3.1875,-1.69921877 0,-0.09375 -0.09375,-0.1640625 -0.1523438,-0.1640625 -0.035156,0 -0.058594,0.011719 -0.1875,0.140625 -0.9140625,1.21875002 -2.2734375,1.44140627 -2.8242187,1.44140627 -0.984375,0 -1.3007813,-0.86718747 -1.3007813,-1.58203127 0,-0.5039062 0.2460938,-1.8867187 0.7617188,-2.8710937 0.375,-0.6679688 1.1484375,-1.4414063 2.0507812,-1.4414063 0.1875,0 0.9726563,0.023437 1.265625,0.6445313 z m 0,0"
       style="fill:#000000;fill-opacity:1;fill-rule:nonzero;stroke:none"
       aria-label="c"
       transform="matrix(1.3333333,0,0,1.3333333,204.37467,201.416)" />
  </g>
</svg>
