<?xml version="1.0" encoding="UTF-8" standalone="no"?>
<!-- Created with Inkscape (http://www.inkscape.org/) -->

<svg
   version="1.1"
   id="svg1"
   width="442.98532"
   height="194.38"
   viewBox="0 0 442.98532 194.38"
   xmlns="http://www.w3.org/2000/svg"
   xmlns:svg="http://www.w3.org/2000/svg">
  <defs
     id="defs1" />
  <g
     id="g1">
    <path
       id="path1"
       d="m 0,-7.08669 v 3.68523"
       style="fill:none;stroke:#000000;stroke-width:0.79701;stroke-linecap:butt;stroke-linejoin:miter;stroke-miterlimit:10;stroke-dasharray:none;stroke-opacity:1"
       transform="matrix(1.3333333,0,0,-1.3333333,208.40533,184.06933)" />
    <path
       id="path2"
       d="M 0,3.40146 V 112.67987"
       style="fill:none;stroke:#000000;stroke-width:0.79701;stroke-linecap:butt;stroke-linejoin:miter;stroke-miterlimit:10;stroke-dasharray:none;stroke-opacity:1"
       transform="matrix(1.3333333,0,0,-1.3333333,208.40533,184.06933)" />
    <path
       id="path3"
       d="M -1.55415,2.0722 C -1.42464,1.29512 0,0.1295 0.38852,0 0,-0.1295 -1.42464,-1.29512 -1.55415,-2.0722"
       style="fill:none;stroke:#000000;stroke-width:0.6376;stroke-linecap:round;stroke-linejoin:round;stroke-miterlimit:10;stroke-dasharray:none;stroke-opacity:1"
       transform="matrix(0,-1.3333333,-1.3333333,0,208.40533,33.829507)" />
    <path
       id="path4"
       d="M -155.90744,0 H -3.40146"
       style="fill:none;stroke:#000000;stroke-width:0.79701;stroke-linecap:butt;stroke-linejoin:miter;stroke-miterlimit:10;stroke-dasharray:none;stroke-opacity:1"
       transform="matrix(1.3333333,0,0,-1.3333333,208.40533,184.06933)" />
    <path
       id="path5"
       d="M 3.40146,0 H 155.20007"
       style="fill:none;stroke:#000000;stroke-width:0.79701;stroke-linecap:butt;stroke-linejoin:miter;stroke-miterlimit:10;stroke-dasharray:none;stroke-opacity:1"
       transform="matrix(1.3333333,0,0,-1.3333333,208.40533,184.06933)" />
    <path
       id="path6"
       d="M -1.55415,2.0722 C -1.42464,1.29512 0,0.1295 0.38852,0 0,-0.1295 -1.42464,-1.29512 -1.55415,-2.0722"
       style="fill:none;stroke:#000000;stroke-width:0.6376;stroke-linecap:round;stroke-linejoin:round;stroke-miterlimit:10;stroke-dasharray:none;stroke-opacity:1"
       transform="matrix(1.3333333,0,0,-1.3333333,415.33876,184.06933)" />
    <path
       id="path7"
       d="m 2.8815391,-5.7647812 h 1.3242187 c 0.2695313,0 0.4101563,0 0.4101563,-0.2578125 0,-0.1640625 -0.082031,-0.1640625 -0.375,-0.1640625 H 2.9870078 l 0.5273438,-2.0859375 c 0.058594,-0.1992188 0.058594,-0.234375 0.058594,-0.328125 0,-0.234375 -0.1875,-0.3632813 -0.375,-0.3632813 -0.1171875,0 -0.4453125,0.046875 -0.5625,0.5039063 l -0.5625,2.2734375 H 0.72528906 c -0.28125,0 -0.41015625,0 -0.41015625,0.28125 0,0.140625 0.09375,0.140625 0.375,0.140625 H 1.9674766 L 1.0182578,-1.979625 c -0.11718749,0.5039063 -0.16406249,0.6445313 -0.16406249,0.8320313 0,0.67968745 0.48046879,1.28906245 1.27734379,1.28906245 1.453125,0 2.2265625,-2.08593745 2.2265625,-2.19140625 0,-0.082031 -0.058594,-0.1289062 -0.140625,-0.1289062 -0.035156,0 -0.082031,0 -0.1171875,0.058594 -0.011719,0.011719 -0.023437,0.023437 -0.1289063,0.2578125 -0.3046875,0.7148438 -0.9609375,1.72265625 -1.7929687,1.72265625 -0.4335938,0 -0.4570313,-0.36328125 -0.4570313,-0.6796875 0,-0.0117188 0,-0.28124995 0.046875,-0.45703125 z m 0,0"
       style="fill:#000000;fill-opacity:1;fill-rule:nonzero;stroke:none"
       aria-label="t"
       transform="matrix(1.3333333,0,0,1.3333333,431.79467,189.952)" />
    <g
       id="g7"
       aria-label="H(t)"
       transform="matrix(1.3333333,0,0,1.3333333,189.24133,18.773333)">
      <path
         id="path8"
         d="m 10.735016,-8.7538281 c 0.128906,-0.4804688 0.152343,-0.6210938 1.171875,-0.6210938 0.257812,0 0.398437,0 0.398437,-0.2695312 0,-0.1523438 -0.128906,-0.1523438 -0.210937,-0.1523438 -0.257813,0 -0.5625,0.023437 -0.832032,0.023437 H 9.5631406 c -0.2695312,0 -0.5742187,-0.023437 -0.84375,-0.023437 -0.09375,0 -0.2695312,0 -0.2695312,0.2695313 0,0.1523437 0.1054687,0.1523437 0.375,0.1523437 0.8554687,0 0.8554687,0.1054688 0.8554687,0.2695313 0,0.023437 0,0.1171875 -0.058594,0.328125 l -0.8671875,3.46875 H 4.4186094 l 0.8554687,-3.4453125 c 0.1289063,-0.4804688 0.1640625,-0.6210938 1.1835938,-0.6210938 0.2578125,0 0.3984375,0 0.3984375,-0.2695312 0,-0.1523438 -0.1289063,-0.1523438 -0.2109375,-0.1523438 -0.2578125,0 -0.5625,0.023437 -0.8320313,0.023437 H 4.1139219 c -0.2695313,0 -0.5742188,-0.023437 -0.84375,-0.023437 -0.09375,0 -0.2695313,0 -0.2695313,0.2695313 0,0.1523437 0.09375,0.1523437 0.375,0.1523437 0.8554688,0 0.8554688,0.1054688 0.8554688,0.2695313 0,0.023437 0,0.1171875 -0.058594,0.328125 l -1.9335937,7.7109375 c -0.1289063,0.50390622 -0.1640625,0.65624997 -1.1484375,0.65624997 -0.32812502,0 -0.43359377,0 -0.43359377,0.26953125 0,0.140625005 0.1640625,0.140625005 0.19921875,0.140625005 0.25781252,0 0.56250002,-0.023437505 0.83203122,-0.023437505 h 1.6992188 c 0.2695312,0 0.5742187,0.023437505 0.84375,0.023437505 0.1171875,0 0.2695312,0 0.2695312,-0.269531255 0,-0.140625 -0.1289062,-0.140625 -0.3398437,-0.140625 -0.8789063,0 -0.8789063,-0.1171875 -0.8789063,-0.26953125 0,-0.0117188 0,-0.10546875 0.035156,-0.22265625 l 0.984375,-3.98437497 h 4.3476562 c -0.2460937,0.9375 -0.9726562,3.93749997 -1.0078125,4.03124997 -0.1523437,0.421875 -0.3867187,0.421875 -1.2304687,0.4453125 -0.1757813,0 -0.3046875,0 -0.3046875,0.26953125 0,0.140625005 0.1640625,0.140625005 0.2109375,0.140625005 0.2578125,0 0.5507812,-0.023437505 0.8320312,-0.023437505 h 1.6875 c 0.2695313,0 0.5742188,0.023437505 0.84375,0.023437505 0.1171875,0 0.2695313,0 0.2695313,-0.269531255 0,-0.140625 -0.1289063,-0.140625 -0.3398438,-0.140625 -0.8789062,0 -0.8789062,-0.1171875 -0.8789062,-0.26953125 0,-0.0117188 0,-0.10546875 0.035156,-0.22265625 z m 0,0"
         style="fill:#000000;fill-opacity:1;fill-rule:nonzero;stroke:none" />
      <path
         id="path9"
         d="m 17.411773,3.4805469 c 0,-0.035156 0,-0.070312 -0.246093,-0.3046875 -1.429688,-1.453125 -2.238282,-3.82031253 -2.238282,-6.75 0,-2.7773438 0.679688,-5.1796875 2.34375,-6.8671874 0.140625,-0.128906 0.140625,-0.164063 0.140625,-0.199219 0,-0.09375 -0.07031,-0.117187 -0.128906,-0.117187 -0.1875,0 -1.359375,1.0312496 -2.0625,2.4374996 -0.738281,1.453125 -1.066406,2.9882813 -1.066406,4.7460938 0,1.2773437 0.199219,2.98828122 0.949219,4.52343747 0.84375,1.72265623 2.015625,2.64843753 2.179687,2.64843753 0.05859,0 0.128906,-0.023437 0.128906,-0.1171875 z m 0,0"
         style="fill:#000000;fill-opacity:1;fill-rule:nonzero;stroke:none" />
      <path
         id="path10"
         d="m 21.091461,-5.7655469 h 1.324219 c 0.269531,0 0.410156,0 0.410156,-0.2578125 0,-0.1640625 -0.08203,-0.1640625 -0.375,-0.1640625 H 21.19693 l 0.527343,-2.0859375 c 0.05859,-0.1992187 0.05859,-0.234375 0.05859,-0.328125 0,-0.234375 -0.1875,-0.3632812 -0.375,-0.3632812 -0.117187,0 -0.445312,0.046875 -0.5625,0.5039062 l -0.5625,2.2734375 h -1.347656 c -0.28125,0 -0.410156,0 -0.410156,0.28125 0,0.140625 0.09375,0.140625 0.375,0.140625 h 1.277343 l -0.949218,3.7851563 c -0.117188,0.5039062 -0.164063,0.6445312 -0.164063,0.8320312 0,0.67968752 0.480469,1.28906252 1.277344,1.28906252 1.453125,0 2.226562,-2.08593752 2.226562,-2.19140622 0,-0.082031 -0.05859,-0.1289063 -0.140625,-0.1289063 -0.03516,0 -0.08203,0 -0.117187,0.058594 -0.01172,0.011719 -0.02344,0.023437 -0.128906,0.2578125 -0.304688,0.7148437 -0.960938,1.72265622 -1.792969,1.72265622 -0.433594,0 -0.457031,-0.36328125 -0.457031,-0.6796875 0,-0.0117188 0,-0.28125002 0.04687,-0.45703122 z m 0,0"
         style="fill:#000000;fill-opacity:1;fill-rule:nonzero;stroke:none" />
      <path
         id="path11"
         d="m 27.325836,-3.5741406 c 0,-1.0898438 -0.140625,-2.8710938 -0.949219,-4.5351563 -0.84375,-1.7109375 -2.015625,-2.6484371 -2.179687,-2.6484371 -0.05859,0 -0.128907,0.02344 -0.128907,0.117187 0,0.03516 0,0.07031 0.246094,0.316406 1.441406,1.4414066 2.238281,3.8085941 2.238281,6.7382816 0,2.77734377 -0.667968,5.1796875 -2.332031,6.8671875 -0.152344,0.1289063 -0.152344,0.1640625 -0.152344,0.1992188 0,0.09375 0.07031,0.1171875 0.128907,0.1171875 0.1875,0 1.371093,-1.03125 2.074218,-2.4375 0.726563,-1.46484378 1.054688,-3.0117188 1.054688,-4.734375 z m 0,0"
         style="fill:#000000;fill-opacity:1;fill-rule:nonzero;stroke:none" />
    </g>
    <path
       id="path12"
       d="M -141.73404,0 H -3.40146"
       style="fill:none;stroke:#000000;stroke-width:1.19553;stroke-linecap:butt;stroke-linejoin:miter;stroke-miterlimit:10;stroke-dasharray:none;stroke-opacity:1"
       transform="matrix(1.3333333,0,0,-1.3333333,208.40533,184.06933)" />
    <path
       id="path13"
       d="M 0,85.04042 H 141.73404"
       style="fill:none;stroke:#000000;stroke-width:1.19553;stroke-linecap:butt;stroke-linejoin:miter;stroke-miterlimit:10;stroke-dasharray:none;stroke-opacity:1"
       transform="matrix(1.3333333,0,0,-1.3333333,208.40533,184.06933)" />
    <path
       id="path14"
       d="M 3.40146,0 C 3.40146,1.87859 1.87859,3.40146 0,3.40146 -1.87859,3.40146 -3.40146,1.87859 -3.40146,0 c 0,-1.87859 1.52287,-3.40146 3.40146,-3.40146 1.87859,0 3.40146,1.52287 3.40146,3.40146 z"
       style="fill:none;stroke:#000000;stroke-width:0.79701;stroke-linecap:butt;stroke-linejoin:miter;stroke-miterlimit:10;stroke-dasharray:none;stroke-opacity:1"
       transform="matrix(1.3333333,0,0,-1.3333333,208.40533,184.06933)" />
    <path
       id="path15"
       d="m 3.40146,85.04042 c 0,1.8786 -1.52287,3.40148 -3.40146,3.40148 -1.87859,0 -3.40146,-1.52288 -3.40146,-3.40148 0,-1.8786 1.52287,-3.40147 3.40146,-3.40147 1.87859,0 3.40146,1.52287 3.40146,3.40147 z"
       style="fill:#000000;fill-opacity:1;fill-rule:nonzero;stroke:#000000;stroke-width:0.3985;stroke-linecap:butt;stroke-linejoin:miter;stroke-miterlimit:10;stroke-dasharray:none;stroke-opacity:1"
       transform="matrix(1.3333333,0,0,-1.3333333,208.40533,184.06933)" />
    <path
       id="path16"
       d="m 4.1368203,-9.1994766 c 0,-0.328125 0,-0.3398437 -0.2929687,-0.3398437 -0.3398438,0.3867187 -1.0664063,0.9140625 -2.5429688,0.9140625 v 0.421875 c 0.3398438,0 1.0546875,0 1.8398438,-0.375 v 7.4765625 c 0,0.51562499 -0.046875,0.69140624 -1.3007813,0.69140624 H 1.3946328 v 0.4101562475 c 0.3867188,-0.0234374975 1.78125,-0.0234374975 2.25,-0.0234374975 0.46875,0 1.8515625,0 2.2382813,0.0234374975 V -0.41041406 H 5.4376016 c -1.265625,0 -1.3007813,-0.17578125 -1.3007813,-0.69140624 z m 0,0"
       style="fill:#000000;fill-opacity:1;fill-rule:nonzero;stroke:none"
       aria-label="1"
       transform="matrix(1.3333333,0,0,1.3333333,188.60533,76.848)" />
  </g>
</svg>
