<?xml version="1.0" encoding="UTF-8" standalone="no"?>
<!-- Created with Inkscape (http://www.inkscape.org/) -->

<svg
   version="1.1"
   id="svg1"
   width="442.98532"
   height="212.14667"
   viewBox="0 0 442.98532 212.14667"
   xmlns="http://www.w3.org/2000/svg"
   xmlns:svg="http://www.w3.org/2000/svg">
  <defs
     id="defs1" />
  <g
     id="g1">
    <path
       id="path1"
       d="M -70.867,-3.40146 V 112.67987"
       style="fill:none;stroke:#000000;stroke-width:0.79701;stroke-linecap:butt;stroke-linejoin:miter;stroke-miterlimit:10;stroke-dasharray:none;stroke-opacity:1"
       transform="matrix(1.3333333,0,0,-1.3333333,208.40533,184.06933)" />
    <path
       id="path2"
       d="M -1.55415,2.0722 C -1.42464,1.29512 0,0.1295 0.38852,0 0,-0.1295 -1.42464,-1.29512 -1.55415,-2.0722"
       style="fill:none;stroke:#000000;stroke-width:0.6376;stroke-linecap:round;stroke-linejoin:round;stroke-miterlimit:10;stroke-dasharray:none;stroke-opacity:1"
       transform="matrix(0,-1.3333333,-1.3333333,0,113.916,33.829507)" />
    <path
       id="path3"
       d="M -155.90744,0 H -3.40146"
       style="fill:none;stroke:#000000;stroke-width:0.79701;stroke-linecap:butt;stroke-linejoin:miter;stroke-miterlimit:10;stroke-dasharray:none;stroke-opacity:1"
       transform="matrix(1.3333333,0,0,-1.3333333,208.40533,184.06933)" />
    <path
       id="path4"
       d="M 3.40146,0 H 155.20007"
       style="fill:none;stroke:#000000;stroke-width:0.79701;stroke-linecap:butt;stroke-linejoin:miter;stroke-miterlimit:10;stroke-dasharray:none;stroke-opacity:1"
       transform="matrix(1.3333333,0,0,-1.3333333,208.40533,184.06933)" />
    <path
       id="path5"
       d="M -1.55415,2.0722 C -1.42464,1.29512 0,0.1295 0.38852,0 0,-0.1295 -1.42464,-1.29512 -1.55415,-2.0722"
       style="fill:none;stroke:#000000;stroke-width:0.6376;stroke-linecap:round;stroke-linejoin:round;stroke-miterlimit:10;stroke-dasharray:none;stroke-opacity:1"
       transform="matrix(1.3333333,0,0,-1.3333333,415.33876,184.06933)" />
    <path
       id="path6"
       d="m 2.8815391,-5.7647812 h 1.3242187 c 0.2695313,0 0.4101563,0 0.4101563,-0.2578125 0,-0.1640625 -0.082031,-0.1640625 -0.375,-0.1640625 H 2.9870078 l 0.5273438,-2.0859375 c 0.058594,-0.1992188 0.058594,-0.234375 0.058594,-0.328125 0,-0.234375 -0.1875,-0.3632813 -0.375,-0.3632813 -0.1171875,0 -0.4453125,0.046875 -0.5625,0.5039063 l -0.5625,2.2734375 H 0.72528906 c -0.28125,0 -0.41015625,0 -0.41015625,0.28125 0,0.140625 0.09375,0.140625 0.375,0.140625 H 1.9674766 L 1.0182578,-1.979625 c -0.11718749,0.5039063 -0.16406249,0.6445313 -0.16406249,0.8320313 0,0.67968745 0.48046879,1.28906245 1.27734379,1.28906245 1.453125,0 2.2265625,-2.08593745 2.2265625,-2.19140625 0,-0.082031 -0.058594,-0.1289062 -0.140625,-0.1289062 -0.035156,0 -0.082031,0 -0.1171875,0.058594 -0.011719,0.011719 -0.023437,0.023437 -0.1289063,0.2578125 -0.3046875,0.7148438 -0.9609375,1.72265625 -1.7929687,1.72265625 -0.4335938,0 -0.4570313,-0.36328125 -0.4570313,-0.6796875 0,-0.0117188 0,-0.28124995 0.046875,-0.45703125 z m 0,0"
       style="fill:#000000;fill-opacity:1;fill-rule:nonzero;stroke:none"
       aria-label="t"
       transform="matrix(1.3333333,0,0,1.3333333,431.79467,189.952)" />
    <g
       id="g6"
       aria-label="H(t−c)−H(t−d)"
       transform="matrix(1.3333333,0,0,1.3333333,31.625333,18.773333)">
      <path
         id="path7"
         d="m 10.734125,-8.7538281 c 0.128906,-0.4804688 0.152344,-0.6210938 1.171875,-0.6210938 0.257813,0 0.398438,0 0.398438,-0.2695312 0,-0.1523438 -0.128907,-0.1523438 -0.210938,-0.1523438 -0.257812,0 -0.5625,0.023437 -0.832031,0.023437 H 9.56225 c -0.2695312,0 -0.5742187,-0.023437 -0.84375,-0.023437 -0.09375,0 -0.2695312,0 -0.2695312,0.2695313 0,0.1523437 0.1054687,0.1523437 0.375,0.1523437 0.8554687,0 0.8554687,0.1054688 0.8554687,0.2695313 0,0.023437 0,0.1171875 -0.058594,0.328125 l -0.8671875,3.46875 H 4.4177188 l 0.8554687,-3.4453125 c 0.1289063,-0.4804688 0.1640625,-0.6210938 1.1835938,-0.6210938 0.2578125,0 0.3984375,0 0.3984375,-0.2695312 0,-0.1523438 -0.1289063,-0.1523438 -0.2109375,-0.1523438 -0.2578125,0 -0.5625,0.023437 -0.8320313,0.023437 H 4.1130313 c -0.2695313,0 -0.5742188,-0.023437 -0.84375,-0.023437 -0.09375,0 -0.2695313,0 -0.2695313,0.2695313 0,0.1523437 0.09375,0.1523437 0.375,0.1523437 0.8554688,0 0.8554688,0.1054688 0.8554688,0.2695313 0,0.023437 0,0.1171875 -0.058594,0.328125 l -1.9335937,7.7109375 c -0.1289063,0.50390623 -0.1640625,0.65624998 -1.1484375,0.65624998 -0.32812505,0 -0.4335938,0 -0.4335938,0.26953125 0,0.140624995 0.1640625,0.140624995 0.19921875,0.140624995 0.25781255,0 0.56250005,-0.023437495 0.83203125,-0.023437495 h 1.6992188 c 0.2695312,0 0.5742187,0.023437495 0.84375,0.023437495 0.1171875,0 0.2695312,0 0.2695312,-0.269531245 0,-0.140625 -0.1289062,-0.140625 -0.3398437,-0.140625 -0.8789063,0 -0.8789063,-0.1171875 -0.8789063,-0.26953125 0,-0.0117188 0,-0.10546875 0.035156,-0.22265625 L 4.3005308,-4.8866406 H 8.648187 c -0.2460937,0.9375 -0.9726562,3.93749998 -1.0078125,4.03124998 -0.1523437,0.421875 -0.3867187,0.421875 -1.2304687,0.4453125 -0.1757813,0 -0.3046875,0 -0.3046875,0.26953125 0,0.140624995 0.1640625,0.140624995 0.2109375,0.140624995 0.2578125,0 0.5507812,-0.023437495 0.8320312,-0.023437495 h 1.6875 c 0.2695313,0 0.5742188,0.023437495 0.84375,0.023437495 0.1171875,0 0.2695313,0 0.2695313,-0.269531245 0,-0.140625 -0.1289063,-0.140625 -0.3398438,-0.140625 -0.8789062,0 -0.8789062,-0.1171875 -0.8789062,-0.26953125 0,-0.0117188 0,-0.10546875 0.035156,-0.22265625 z m 0,0"
         style="fill:#000000;fill-opacity:1;fill-rule:nonzero;stroke:none" />
      <path
         id="path8"
         d="m 17.410883,3.4805469 c 0,-0.035156 0,-0.070312 -0.246094,-0.3046875 -1.429687,-1.453125 -2.238281,-3.82031252 -2.238281,-6.75 0,-2.7773438 0.679687,-5.1796875 2.34375,-6.8671874 0.140625,-0.128906 0.140625,-0.164063 0.140625,-0.199219 0,-0.09375 -0.07031,-0.117187 -0.128906,-0.117187 -0.1875,0 -1.359375,1.0312496 -2.0625,2.4374996 -0.738282,1.453125 -1.066407,2.9882813 -1.066407,4.7460938 0,1.2773437 0.199219,2.98828123 0.949219,4.52343748 0.84375,1.72265622 2.015625,2.64843752 2.179688,2.64843752 0.05859,0 0.128906,-0.023437 0.128906,-0.1171875 z m 0,0"
         style="fill:#000000;fill-opacity:1;fill-rule:nonzero;stroke:none" />
      <path
         id="path9"
         d="m 21.0935,-5.7655469 h 1.324219 c 0.269531,0 0.410156,0 0.410156,-0.2578125 0,-0.1640625 -0.08203,-0.1640625 -0.375,-0.1640625 h -1.253906 l 0.527344,-2.0859375 c 0.05859,-0.1992187 0.05859,-0.234375 0.05859,-0.328125 0,-0.234375 -0.1875,-0.3632812 -0.375,-0.3632812 -0.117187,0 -0.445312,0.046875 -0.5625,0.5039062 l -0.5625,2.2734375 H 18.93725 c -0.28125,0 -0.410156,0 -0.410156,0.28125 0,0.140625 0.09375,0.140625 0.375,0.140625 h 1.277344 l -0.949219,3.7851563 c -0.117188,0.5039062 -0.164063,0.6445312 -0.164063,0.8320312 0,0.67968753 0.480469,1.28906253 1.277344,1.28906253 1.453125,0 2.226563,-2.08593753 2.226563,-2.19140623 0,-0.082031 -0.05859,-0.1289063 -0.140625,-0.1289063 -0.03516,0 -0.08203,0 -0.117188,0.058594 -0.01172,0.011719 -0.02344,0.023437 -0.128906,0.2578125 -0.304688,0.7148437 -0.960938,1.72265623 -1.792969,1.72265623 -0.433594,0 -0.457031,-0.36328125 -0.457031,-0.6796875 0,-0.0117188 0,-0.28125003 0.04687,-0.45703123 z m 0,0"
         style="fill:#000000;fill-opacity:1;fill-rule:nonzero;stroke:none" />
      <path
         id="path10"
         d="m 35.926508,-3.3046094 c 0.234375,0 0.492187,0 0.492187,-0.28125 0,-0.28125 -0.257812,-0.28125 -0.492187,-0.28125 h -7.769531 c -0.234375,0 -0.492188,0 -0.492188,0.28125 0,0.28125 0.257813,0.28125 0.492188,0.28125 z m 0,0"
         style="fill:#000000;fill-opacity:1;fill-rule:nonzero;stroke:none" />
      <path
         id="path11"
         d="m 46.429438,-5.3905469 c -0.28125,0 -0.410157,0 -0.609375,0.1640625 -0.08203,0.082031 -0.246094,0.2929688 -0.246094,0.5273438 0,0.28125 0.222656,0.4570312 0.492187,0.4570312 0.339844,0 0.726563,-0.2929687 0.726563,-0.8671875 0,-0.6796875 -0.65625,-1.21875 -1.640625,-1.21875 -1.886719,0 -3.761719,2.0507813 -3.761719,4.0898438 0,1.25390623 0.773438,2.37890623 2.238281,2.37890623 1.945313,0 3.1875,-1.52343753 3.1875,-1.69921873 0,-0.09375 -0.09375,-0.1640625 -0.152343,-0.1640625 -0.03516,0 -0.05859,0.011719 -0.1875,0.140625 -0.914063,1.21874998 -2.273438,1.44140623 -2.824219,1.44140623 -0.984375,0 -1.300781,-0.86718753 -1.300781,-1.58203123 0,-0.5039063 0.246093,-1.8867188 0.761718,-2.8710938 0.375,-0.6679687 1.148438,-1.4414062 2.050782,-1.4414062 0.1875,0 0.972656,0.023437 1.265625,0.6445312 z m 0,0"
         style="fill:#000000;fill-opacity:1;fill-rule:nonzero;stroke:none" />
      <path
         id="path12"
         d="m 50.906,-3.5741406 c 0,-1.0898438 -0.140625,-2.8710938 -0.949219,-4.5351563 -0.84375,-1.7109375 -2.015625,-2.6484371 -2.179687,-2.6484371 -0.05859,0 -0.128906,0.02344 -0.128906,0.117187 0,0.03516 0,0.07031 0.246093,0.316406 1.441407,1.4414066 2.238282,3.8085941 2.238282,6.7382816 0,2.77734378 -0.667969,5.1796875 -2.332032,6.8671875 -0.152343,0.1289063 -0.152343,0.1640625 -0.152343,0.1992188 0,0.09375 0.07031,0.1171875 0.128906,0.1171875 0.1875,0 1.371094,-1.03125 2.074219,-2.4375 0.726562,-1.46484377 1.054687,-3.0117188 1.054687,-4.734375 z m 0,0"
         style="fill:#000000;fill-opacity:1;fill-rule:nonzero;stroke:none" />
      <path
         id="path13"
         d="m 64.97143,-3.3046094 c 0.234375,0 0.492187,0 0.492187,-0.28125 0,-0.28125 -0.257812,-0.28125 -0.492187,-0.28125 h -7.769532 c -0.234375,0 -0.492187,0 -0.492187,0.28125 0,0.28125 0.257812,0.28125 0.492187,0.28125 z m 0,0"
         style="fill:#000000;fill-opacity:1;fill-rule:nonzero;stroke:none" />
      <path
         id="path14"
         d="m 80.592523,-8.7538281 c 0.128907,-0.4804688 0.152344,-0.6210938 1.171875,-0.6210938 0.257813,0 0.398438,0 0.398438,-0.2695312 0,-0.1523438 -0.128906,-0.1523438 -0.210938,-0.1523438 -0.257812,0 -0.5625,0.023437 -0.832031,0.023437 h -1.699219 c -0.269531,0 -0.574218,-0.023437 -0.84375,-0.023437 -0.09375,0 -0.269531,0 -0.269531,0.2695313 0,0.1523437 0.105469,0.1523437 0.375,0.1523437 0.855469,0 0.855469,0.1054688 0.855469,0.2695313 0,0.023437 0,0.1171875 -0.05859,0.328125 l -0.867187,3.46875 h -4.335938 l 0.855469,-3.4453125 c 0.128906,-0.4804688 0.164062,-0.6210938 1.183594,-0.6210938 0.257812,0 0.398437,0 0.398437,-0.2695312 0,-0.1523438 -0.128906,-0.1523438 -0.210937,-0.1523438 -0.257813,0 -0.5625,0.023437 -0.832032,0.023437 H 73.97143 c -0.269532,0 -0.574219,-0.023437 -0.84375,-0.023437 -0.09375,0 -0.269532,0 -0.269532,0.2695313 0,0.1523437 0.09375,0.1523437 0.375,0.1523437 0.855469,0 0.855469,0.1054688 0.855469,0.2695313 0,0.023437 0,0.1171875 -0.05859,0.328125 l -1.933593,7.7109375 c -0.128907,0.50390623 -0.164063,0.65624998 -1.148438,0.65624998 -0.328125,0 -0.433594,0 -0.433594,0.26953125 0,0.140624995 0.164063,0.140624995 0.199219,0.140624995 0.257813,0 0.5625,-0.023437495 0.832031,-0.023437495 h 1.699219 c 0.269531,0 0.574219,0.023437495 0.84375,0.023437495 0.117188,0 0.269531,0 0.269531,-0.269531245 0,-0.140625 -0.128906,-0.140625 -0.339843,-0.140625 -0.878907,0 -0.878907,-0.1171875 -0.878907,-0.26953125 0,-0.0117188 0,-0.10546875 0.03516,-0.22265625 L 74.15893,-4.8866406 h 4.347656 c -0.246094,0.9375 -0.972656,3.93749998 -1.007813,4.03124998 -0.152343,0.421875 -0.386718,0.421875 -1.230468,0.4453125 -0.175782,0 -0.304688,0 -0.304688,0.26953125 0,0.140624995 0.164063,0.140624995 0.210938,0.140624995 0.257812,0 0.550781,-0.023437495 0.832031,-0.023437495 h 1.6875 c 0.269531,0 0.574219,0.023437495 0.84375,0.023437495 0.117187,0 0.269531,0 0.269531,-0.269531245 0,-0.140625 -0.128906,-0.140625 -0.339844,-0.140625 -0.878906,0 -0.878906,-0.1171875 -0.878906,-0.26953125 0,-0.0117188 0,-0.10546875 0.03516,-0.22265625 z m 0,0"
         style="fill:#000000;fill-opacity:1;fill-rule:nonzero;stroke:none" />
      <path
         id="path15"
         d="m 87.269281,3.4805469 c 0,-0.035156 0,-0.070312 -0.246093,-0.3046875 -1.429688,-1.453125 -2.238282,-3.82031252 -2.238282,-6.75 0,-2.7773438 0.679688,-5.1796875 2.34375,-6.8671874 0.140625,-0.128906 0.140625,-0.164063 0.140625,-0.199219 0,-0.09375 -0.07031,-0.117187 -0.128906,-0.117187 -0.1875,0 -1.359375,1.0312496 -2.0625,2.4374996 -0.738281,1.453125 -1.066406,2.9882813 -1.066406,4.7460938 0,1.2773437 0.199219,2.98828123 0.949219,4.52343748 0.84375,1.72265622 2.015625,2.64843752 2.179687,2.64843752 0.05859,0 0.128906,-0.023437 0.128906,-0.1171875 z m 0,0"
         style="fill:#000000;fill-opacity:1;fill-rule:nonzero;stroke:none" />
      <path
         id="path16"
         d="m 90.951898,-5.7655469 h 1.324219 c 0.269531,0 0.410156,0 0.410156,-0.2578125 0,-0.1640625 -0.08203,-0.1640625 -0.375,-0.1640625 h -1.253906 l 0.527344,-2.0859375 c 0.05859,-0.1992187 0.05859,-0.234375 0.05859,-0.328125 0,-0.234375 -0.1875,-0.3632812 -0.375,-0.3632812 -0.117188,0 -0.445313,0.046875 -0.5625,0.5039062 l -0.5625,2.2734375 h -1.347657 c -0.28125,0 -0.410156,0 -0.410156,0.28125 0,0.140625 0.09375,0.140625 0.375,0.140625 h 1.277344 l -0.949219,3.7851563 c -0.117187,0.5039062 -0.164062,0.6445312 -0.164062,0.8320312 0,0.67968753 0.480468,1.28906253 1.277343,1.28906253 1.453125,0 2.226563,-2.08593753 2.226563,-2.19140623 0,-0.082031 -0.05859,-0.1289063 -0.140625,-0.1289063 -0.03516,0 -0.08203,0 -0.117188,0.058594 -0.01172,0.011719 -0.02344,0.023437 -0.128906,0.2578125 -0.304687,0.7148437 -0.960937,1.72265623 -1.792969,1.72265623 -0.433593,0 -0.457031,-0.36328125 -0.457031,-0.6796875 0,-0.0117188 0,-0.28125003 0.04687,-0.45703123 z m 0,0"
         style="fill:#000000;fill-opacity:1;fill-rule:nonzero;stroke:none" />
      <path
         id="path17"
         d="m 105.78784,-3.3046094 c 0.23437,0 0.49218,0 0.49218,-0.28125 0,-0.28125 -0.25781,-0.28125 -0.49218,-0.28125 h -7.769535 c -0.234375,0 -0.492188,0 -0.492188,0.28125 0,0.28125 0.257813,0.28125 0.492188,0.28125 z m 0,0"
         style="fill:#000000;fill-opacity:1;fill-rule:nonzero;stroke:none" />
      <path
         id="path18"
         d="m 117.8933,-9.5975781 c 0.0117,-0.058594 0.0352,-0.140625 0.0352,-0.2109375 0,-0.140625 -0.14062,-0.140625 -0.16406,-0.140625 -0.0234,0 -0.72656,0.046875 -0.79688,0.070312 -0.23437,0.011719 -0.45703,0.035156 -0.71484,0.058594 -0.35156,0.023437 -0.45703,0.035156 -0.45703,0.2929688 0,0.1523437 0.11719,0.1523437 0.3164,0.1523437 0.70313,0 0.71485,0.1289063 0.71485,0.2695313 0,0.082031 -0.0234,0.1992187 -0.0469,0.2460937 l -0.86718,3.4804688 c -0.16407,-0.375 -0.55079,-0.9492188 -1.28907,-0.9492188 -1.6289,0 -3.375,2.0976563 -3.375,4.21875 0,1.41796878 0.83203,2.25000003 1.80469,2.25000003 0.79688,0 1.46484,-0.609375 1.86328,-1.08984375 0.15235,0.84375 0.82031,1.08984375 1.25391,1.08984375 0.43359,0 0.77344,-0.2578125 1.03125,-0.7734375 0.23437,-0.48046873 0.43359,-1.35937503 0.43359,-1.41796873 0,-0.070312 -0.0586,-0.1289063 -0.15234,-0.1289063 -0.12891,0 -0.14063,0.070312 -0.19922,0.28125 -0.21094,0.8554688 -0.48047,1.75781253 -1.07813,1.75781253 -0.41015,0 -0.43359,-0.375 -0.43359,-0.66796875 0,-0.046875 0,-0.35156248 0.0937,-0.74999998 z m -2.90625,7.8867187 c -0.0703,0.2460938 -0.0703,0.28125 -0.26953,0.5507813 -0.3164,0.39843748 -0.94922,1.01953123 -1.61718,1.01953123 -0.58594,0 -0.91407,-0.5390625 -0.91407,-1.38281253 0,-0.7851562 0.4336,-2.390625 0.71485,-3 0.48047,-0.9960937 1.16015,-1.5117187 1.72265,-1.5117187 0.9375,0 1.125,1.171875 1.125,1.2890625 0,0.011719 -0.0351,0.1992187 -0.0586,0.2226562 z m 0,0"
         style="fill:#000000;fill-opacity:1;fill-rule:nonzero;stroke:none" />
      <path
         id="path19"
         d="m 122.0183,-3.5741406 c 0,-1.0898438 -0.14062,-2.8710938 -0.94921,-4.5351563 -0.84375,-1.7109375 -2.01563,-2.6484371 -2.17969,-2.6484371 -0.0586,0 -0.12891,0.02344 -0.12891,0.117187 0,0.03516 0,0.07031 0.2461,0.316406 1.4414,1.4414066 2.23828,3.8085941 2.23828,6.7382816 0,2.77734378 -0.66797,5.1796875 -2.33203,6.8671875 -0.15235,0.1289063 -0.15235,0.1640625 -0.15235,0.1992188 0,0.09375 0.0703,0.1171875 0.12891,0.1171875 0.1875,0 1.37109,-1.03125 2.07422,-2.4375 0.72656,-1.46484377 1.05468,-3.0117188 1.05468,-4.734375 z m 0,0"
         style="fill:#000000;fill-opacity:1;fill-rule:nonzero;stroke:none" />
    </g>
    <path
       id="path20"
       d="M -141.73404,0 H -3.40146"
       style="fill:none;stroke:#000000;stroke-width:1.19553;stroke-linecap:butt;stroke-linejoin:miter;stroke-miterlimit:10;stroke-dasharray:none;stroke-opacity:1"
       transform="matrix(1.3333333,0,0,-1.3333333,208.40533,184.06933)" />
    <path
       id="path21"
       d="M 0,85.04042 H 53.29213"
       style="fill:none;stroke:#000000;stroke-width:1.19553;stroke-linecap:butt;stroke-linejoin:miter;stroke-miterlimit:10;stroke-dasharray:none;stroke-opacity:1"
       transform="matrix(1.3333333,0,0,-1.3333333,208.40533,184.06933)" />
    <path
       id="path22"
       d="M 3.40146,0 C 3.40146,1.87859 1.87859,3.40146 0,3.40146 -1.87859,3.40146 -3.40146,1.87859 -3.40146,0 c 0,-1.87859 1.52287,-3.40146 3.40146,-3.40146 1.87859,0 3.40146,1.52287 3.40146,3.40146 z"
       style="fill:none;stroke:#000000;stroke-width:0.79701;stroke-linecap:butt;stroke-linejoin:miter;stroke-miterlimit:10;stroke-dasharray:none;stroke-opacity:1"
       transform="matrix(1.3333333,0,0,-1.3333333,208.40533,184.06933)" />
    <path
       id="path23"
       d="m 3.40146,85.04042 c 0,1.8786 -1.52287,3.40148 -3.40146,3.40148 -1.87859,0 -3.40146,-1.52288 -3.40146,-3.40148 0,-1.8786 1.52287,-3.40147 3.40146,-3.40147 1.87859,0 3.40146,1.52287 3.40146,3.40147 z"
       style="fill:#000000;fill-opacity:1;fill-rule:nonzero;stroke:#000000;stroke-width:0.3985;stroke-linecap:butt;stroke-linejoin:miter;stroke-miterlimit:10;stroke-dasharray:none;stroke-opacity:1"
       transform="matrix(1.3333333,0,0,-1.3333333,208.40533,184.06933)" />
    <path
       id="path24"
       d="m -75.11885,85.04042 h 8.50368"
       style="fill:none;stroke:#000000;stroke-width:0.79701;stroke-linecap:butt;stroke-linejoin:miter;stroke-miterlimit:10;stroke-dasharray:none;stroke-opacity:1"
       transform="matrix(1.3333333,0,0,-1.3333333,208.40533,184.06933)" />
    <path
       id="path25"
       d="m 4.1366094,-9.1994766 c 0,-0.328125 0,-0.3398437 -0.2929688,-0.3398437 -0.3398437,0.3867187 -1.0664062,0.9140625 -2.5429687,0.9140625 v 0.421875 c 0.3398437,0 1.0546875,0 1.8398437,-0.375 v 7.4765625 c 0,0.51562499 -0.046875,0.69140624 -1.3007812,0.69140624 H 1.3944219 v 0.4101562475 c 0.3867187,-0.0234374975 1.78125,-0.0234374975 2.25,-0.0234374975 0.46875,0 1.8515625,0 2.2382812,0.0234374975 V -0.41041406 H 5.4373906 c -1.265625,0 -1.3007812,-0.17578125 -1.3007812,-0.69140624 z m 0,0"
       style="fill:#000000;fill-opacity:1;fill-rule:nonzero;stroke:none"
       aria-label="1"
       transform="matrix(1.3333333,0,0,1.3333333,94.117333,76.848)" />
    <path
       id="path26"
       d="m 5.6135312,-5.3911406 c -0.28125,0 -0.4101562,0 -0.609375,0.1640625 -0.082031,0.082031 -0.2460937,0.2929687 -0.2460937,0.5273437 0,0.28125 0.2226562,0.4570313 0.4921875,0.4570313 0.3398437,0 0.7265625,-0.2929688 0.7265625,-0.8671875 0,-0.6796875 -0.65625,-1.21875 -1.640625,-1.21875 -1.8867188,0 -3.76171875,2.0507812 -3.76171875,4.0898437 0,1.25390628 0.77343745,2.37890628 2.23828125,2.37890628 1.9453125,0 3.1875,-1.52343748 3.1875,-1.69921878 0,-0.09375 -0.09375,-0.1640625 -0.1523438,-0.1640625 -0.035156,0 -0.058594,0.011719 -0.1875,0.140625 -0.9140625,1.21875003 -2.2734375,1.44140628 -2.8242187,1.44140628 -0.984375,0 -1.3007813,-0.86718748 -1.3007813,-1.58203128 0,-0.5039062 0.2460938,-1.8867187 0.7617188,-2.8710937 0.375,-0.6679688 1.1484375,-1.4414063 2.0507812,-1.4414063 0.1875,0 0.9726563,0.023437 1.265625,0.6445313 z m 0,0"
       style="fill:#000000;fill-opacity:1;fill-rule:nonzero;stroke:none"
       aria-label="c"
       transform="matrix(1.3333333,0,0,1.3333333,204.37467,205.196)" />
    <path
       id="path27"
       d="m 60.0951,85.04042 c 0,1.8786 -1.5229,3.40148 -3.40148,3.40148 -1.8786,0 -3.40148,-1.52288 -3.40148,-3.40148 0,-1.8786 1.52288,-3.40147 3.40148,-3.40147 1.87858,0 3.40148,1.52287 3.40148,3.40147 z"
       style="fill:none;stroke:#000000;stroke-width:0.79701;stroke-linecap:butt;stroke-linejoin:miter;stroke-miterlimit:10;stroke-dasharray:none;stroke-opacity:1"
       transform="matrix(1.3333333,0,0,-1.3333333,208.40533,184.06933)" />
    <path
       id="path28"
       d="m 56.69362,0 h 85.04042"
       style="fill:none;stroke:#000000;stroke-width:1.19553;stroke-linecap:butt;stroke-linejoin:miter;stroke-miterlimit:10;stroke-dasharray:none;stroke-opacity:1"
       transform="matrix(1.3333333,0,0,-1.3333333,208.40533,184.06933)" />
    <path
       id="path29"
       d="m 60.0951,0 c 0,1.87859 -1.5229,3.40146 -3.40148,3.40146 -1.8786,0 -3.40148,-1.52287 -3.40148,-3.40146 0,-1.87859 1.52288,-3.40146 3.40148,-3.40146 1.87858,0 3.40148,1.52287 3.40148,3.40146 z"
       style="fill:#000000;fill-opacity:1;fill-rule:nonzero;stroke:#000000;stroke-width:0.3985;stroke-linecap:butt;stroke-linejoin:miter;stroke-miterlimit:10;stroke-dasharray:none;stroke-opacity:1"
       transform="matrix(1.3333333,0,0,-1.3333333,208.40533,184.06933)" />
    <path
       id="path30"
       d="m 7.2184297,-9.5975937 c 0.011719,-0.058594 0.035156,-0.140625 0.035156,-0.2109375 0,-0.140625 -0.140625,-0.140625 -0.1640625,-0.140625 -0.023437,0 -0.7265625,0.046875 -0.796875,0.070312 -0.234375,0.011719 -0.4570312,0.035156 -0.7148437,0.058594 -0.3515625,0.023437 -0.4570313,0.035156 -0.4570313,0.2929688 0,0.1523437 0.1171875,0.1523437 0.3164063,0.1523437 0.703125,0 0.7148437,0.1289063 0.7148437,0.2695313 0,0.082031 -0.023437,0.1992187 -0.046875,0.2460937 l -0.8671875,3.4804688 c -0.1640625,-0.375 -0.5507812,-0.9492188 -1.2890625,-0.9492188 -1.6289062,0 -3.37499996,2.0976563 -3.37499996,4.21875 0,1.41796875 0.83203126,2.25 1.80468746,2.25 0.796875,0 1.4648438,-0.609375 1.8632813,-1.08984375 0.1523437,0.84375 0.8203125,1.08984375 1.2539062,1.08984375 0.4335938,0 0.7734375,-0.2578125 1.03125,-0.7734375 0.234375,-0.4804687 0.4335938,-1.359375 0.4335938,-1.4179687 0,-0.070312 -0.058594,-0.1289063 -0.1523438,-0.1289063 -0.1289062,0 -0.140625,0.070312 -0.1992187,0.28125 -0.2109375,0.8554688 -0.4804688,1.7578125 -1.078125,1.7578125 -0.4101563,0 -0.4335938,-0.375 -0.4335938,-0.66796875 0,-0.046875 0,-0.35156245 0.09375,-0.74999995 z m -2.90625,7.8867187 c -0.070312,0.2460938 -0.070312,0.28125 -0.2695313,0.5507813 -0.3164062,0.39843745 -0.9492187,1.0195312 -1.6171875,1.0195312 -0.5859375,0 -0.9140625,-0.5390625 -0.9140625,-1.3828125 0,-0.7851562 0.4335938,-2.390625 0.7148438,-3 0.4804687,-0.9960937 1.1601562,-1.5117187 1.7226562,-1.5117187 0.9375,0 1.125,1.171875 1.125,1.2890625 0,0.011719 -0.035156,0.1992187 -0.058594,0.2226562 z m 0,0"
       style="fill:#000000;fill-opacity:1;fill-rule:nonzero;stroke:none"
       aria-label="d"
       transform="matrix(1.3333333,0,0,1.3333333,279.12933,207.71867)" />
  </g>
</svg>
