<?xml version="1.0" encoding="UTF-8" standalone="no"?>
<!-- Created with Inkscape (http://www.inkscape.org/) -->

<svg
   version="1.1"
   id="svg1"
   width="409.54666"
   height="286.20267"
   viewBox="0 0 409.54666 286.20267"
   xmlns="http://www.w3.org/2000/svg"
   xmlns:svg="http://www.w3.org/2000/svg">
  <defs
     id="defs1" />
  <g
     id="g1">
    <path
       id="path1"
       d="M -127.56062,0 V 141.73404"
       style="fill:none;stroke:#000000;stroke-width:1.19553;stroke-linecap:butt;stroke-linejoin:miter;stroke-miterlimit:10;stroke-dasharray:none;stroke-opacity:1"
       transform="matrix(1.3333333,0,0,-1.3333333,192.336,223.64533)" />
    <path
       id="path2"
       d="M -113.38724,0 H 141.73404"
       style="fill:none;stroke:#000000;stroke-width:1.19553;stroke-linecap:butt;stroke-linejoin:miter;stroke-miterlimit:10;stroke-dasharray:none;stroke-opacity:1"
       transform="matrix(1.3333333,0,0,-1.3333333,192.336,223.64533)" />
    <g
       id="g2"
       aria-label="y&#10;′&#10;=f(y)=&#10;1"
       transform="matrix(1.3333333,0,0,1.3333333,87.369333,20.518667)">
      <path
         id="path3"
         d="m 3.7747578,1.6061172 c -0.3867187,0.5507812 -0.9492187,1.03125 -1.6523437,1.03125 -0.1757813,0 -0.8554688,-0.023437 -1.078125,-0.6914063 0.046875,0.023437 0.1171875,0.023437 0.1523437,0.023437 0.421875,0 0.7148438,-0.375 0.7148438,-0.703125 0,-0.32812496 -0.2695313,-0.44531246 -0.4921875,-0.44531246 -0.2226563,0 -0.72656254,0.1640625 -0.72656254,0.86718746 0,0.7382813 0.60937504,1.2421875 1.42968754,1.2421875 1.4414062,0 2.8828125,-1.3242187 3.28125,-2.91796871 l 1.40625,-5.58984379 c 0.023437,-0.070312 0.046875,-0.1640625 0.046875,-0.2460937 0,-0.2109375 -0.1757813,-0.3632813 -0.3867188,-0.3632813 -0.1289062,0 -0.4335937,0.058594 -0.5390625,0.4921875 l -1.0664062,4.21875 c -0.070312,0.2578125 -0.070312,0.28125 -0.1875,0.4453125 -0.28125,0.39843754 -0.7617188,0.89062504 -1.453125,0.89062504 -0.796875,0 -0.8671875,-0.796875 -0.8671875,-1.18359374 0,-0.8085938 0.3867187,-1.921875 0.7734375,-2.953125 0.1523437,-0.4101563 0.2460937,-0.609375 0.2460937,-0.9023438 0,-0.5976562 -0.4335937,-1.1484375 -1.1367187,-1.1484375 -1.32421879,0 -1.85156254,2.0859375 -1.85156254,2.1914063 0,0.058594 0.0585938,0.140625 0.1640625,0.140625 0.12890625,0 0.140625,-0.058594 0.19921875,-0.2695313 0.33984379,-1.1953125 0.89062499,-1.7695312 1.44140629,-1.7695312 0.1289062,0 0.375,0 0.375,0.46875 0,0.375 -0.1523438,0.7851562 -0.375,1.3359375 -0.703125,1.875 -0.703125,2.3554687 -0.703125,2.6953125 0,1.35937499 0.984375,1.67578124 1.6992187,1.67578124 0.4101563,0 0.9257813,-0.12890625 1.4296875,-0.65625 l 0.011719,0.0117188 c -0.2109375,0.84375 -0.3515625,1.40625 -0.855469,2.10937546 z m 0,0"
         style="fill:#000000;fill-opacity:1;fill-rule:nonzero;stroke:none" />
      <path
         id="path4"
         d="m 9.8831562,-9.9397813 c 0.046875,-0.1171877 0.09375,-0.2109377 0.09375,-0.3046877 0,-0.292969 -0.2578125,-0.527344 -0.5742187,-0.527344 -0.28125,0 -0.4570313,0.1875 -0.5273438,0.445313 L 7.69175,-5.967125 c 0,0.011719 -0.035156,0.1289062 -0.035156,0.1289062 0,0.1171875 0.2578125,0.1875 0.3398438,0.1875 0.058594,0 0.070313,-0.035156 0.1289062,-0.1640625 z m 0,0"
         style="fill:#000000;fill-opacity:1;fill-rule:nonzero;stroke:none" />
      <path
         id="path5"
         d="m 24.267922,-4.6516953 c 0.199219,0 0.457031,0 0.457031,-0.2578125 0,-0.2695313 -0.234375,-0.2695313 -0.457031,-0.2695313 h -8.449219 c -0.199219,0 -0.457031,0 -0.457031,0.2578125 0,0.2695313 0.246094,0.2695313 0.457031,0.2695313 z m 0,2.671875 c 0.199219,0 0.457031,0 0.457031,-0.2578125 0,-0.2695313 -0.234375,-0.2695313 -0.457031,-0.2695313 h -8.449219 c -0.199219,0 -0.457031,0 -0.457031,0.2578125 0,0.2695313 0.246094,0.2695313 0.457031,0.2695313 z m 0,0"
         style="fill:#000000;fill-opacity:1;fill-rule:nonzero;stroke:none" />
      <path
         id="path6"
         d="m 35.895852,-5.7649766 c 0.28125,0 0.398437,0 0.398437,-0.2695312 0,-0.1523438 -0.117187,-0.1523438 -0.375,-0.1523438 h -1.160156 c 0.269531,-1.4765625 0.480469,-2.4960937 0.585937,-2.953125 0.09375,-0.3398437 0.386719,-0.6679687 0.761719,-0.6679687 0.304688,0 0.609375,0.1289062 0.75,0.2578125 -0.5625,0.058594 -0.738281,0.46875 -0.738281,0.7148437 0,0.28125 0.222656,0.4570313 0.492187,0.4570313 0.292969,0 0.714844,-0.2460938 0.714844,-0.7851563 0,-0.609375 -0.597656,-0.9374999 -1.230469,-0.9374999 -0.621093,0 -1.21875,0.4570312 -1.5,1.0195312 -0.269531,0.5039062 -0.410156,1.0195312 -0.738281,2.8945312 h -0.960937 c -0.269532,0 -0.410157,0 -0.410157,0.2578125 0,0.1640625 0.08203,0.1640625 0.363282,0.1640625 h 0.925781 c -0.257813,1.3359375 -0.84375,4.5703125 -1.183594,6.10546879 -0.234375,1.25390621 -0.457031,2.29687501 -1.171875,2.29687501 -0.04687,0 -0.457031,0 -0.714844,-0.2695313 0.726563,-0.058594 0.726563,-0.6914062 0.726563,-0.703125 0,-0.28125 -0.210938,-0.4570312 -0.480469,-0.4570312 -0.292969,0 -0.726562,0.2460937 -0.726562,0.7851562 0,0.6210938 0.632812,0.9375 1.195312,0.9375 1.464844,0 2.0625,-2.62499996 2.226563,-3.33984371 0.257812,-1.11328129 0.960937,-4.92187499 1.03125,-5.35546879 z m 0,0"
         style="fill:#000000;fill-opacity:1;fill-rule:nonzero;stroke:none" />
      <path
         id="path7"
         d="m 42.616555,3.4811172 c 0,-0.035156 0,-0.070312 -0.246094,-0.3046875 -1.429688,-1.453125 -2.238281,-3.82031251 -2.238281,-6.75 0,-2.7773438 0.679687,-5.1796875 2.34375,-6.8671877 0.140625,-0.128906 0.140625,-0.164062 0.140625,-0.199219 0,-0.09375 -0.07031,-0.117187 -0.128907,-0.117187 -0.1875,0 -1.359375,1.0312499 -2.0625,2.4374999 -0.738281,1.453125 -1.066406,2.9882813 -1.066406,4.7460938 0,1.2773437 0.199219,2.98828124 0.949219,4.52343749 0.84375,1.72265621 2.015625,2.64843751 2.179687,2.64843751 0.05859,0 0.128907,-0.023437 0.128907,-0.1171875 z m 0,0"
         style="fill:#000000;fill-opacity:1;fill-rule:nonzero;stroke:none" />
      <path
         id="path8"
         d="m 47.189797,1.6061172 c -0.386719,0.5507812 -0.949219,1.03125 -1.652344,1.03125 -0.175781,0 -0.855469,-0.023437 -1.078125,-0.6914063 0.04687,0.023437 0.117188,0.023437 0.152344,0.023437 0.421875,0 0.714844,-0.375 0.714844,-0.703125 0,-0.32812496 -0.269532,-0.44531246 -0.492188,-0.44531246 -0.222656,0 -0.726562,0.1640625 -0.726562,0.86718746 0,0.7382813 0.609375,1.2421875 1.429687,1.2421875 1.441406,0 2.882813,-1.3242187 3.28125,-2.91796871 l 1.40625,-5.58984379 c 0.02344,-0.070312 0.04687,-0.1640625 0.04687,-0.2460937 0,-0.2109375 -0.175781,-0.3632813 -0.386719,-0.3632813 -0.128906,0 -0.433593,0.058594 -0.539062,0.4921875 l -1.066406,4.21875 c -0.07031,0.2578125 -0.07031,0.28125 -0.1875,0.4453125 -0.28125,0.39843754 -0.761719,0.89062504 -1.453125,0.89062504 -0.796875,0 -0.867188,-0.796875 -0.867188,-1.18359374 0,-0.8085938 0.386719,-1.921875 0.773438,-2.953125 0.152343,-0.4101563 0.246093,-0.609375 0.246093,-0.9023438 0,-0.5976562 -0.433593,-1.1484375 -1.136718,-1.1484375 -1.324219,0 -1.851563,2.0859375 -1.851563,2.1914063 0,0.058594 0.05859,0.140625 0.164063,0.140625 0.128906,0 0.140625,-0.058594 0.199218,-0.2695313 0.339844,-1.1953125 0.890625,-1.7695312 1.441407,-1.7695312 0.128906,0 0.375,0 0.375,0.46875 0,0.375 -0.152344,0.7851562 -0.375,1.3359375 -0.703125,1.875 -0.703125,2.3554687 -0.703125,2.6953125 0,1.35937499 0.984375,1.67578124 1.699218,1.67578124 0.410157,0 0.925782,-0.12890625 1.429688,-0.65625 l 0.01172,0.0117188 c -0.210938,0.84375 -0.351563,1.40625 -0.855469,2.10937506 z m 0,0"
         style="fill:#000000;fill-opacity:1;fill-rule:nonzero;stroke:none" />
      <path
         id="path9"
         d="m 54.821633,-3.5735703 c 0,-1.0898438 -0.140625,-2.8710938 -0.949219,-4.5351563 -0.84375,-1.7109375 -2.015625,-2.6484374 -2.179687,-2.6484374 -0.05859,0 -0.128907,0.02344 -0.128907,0.117187 0,0.03516 0,0.07031 0.246094,0.316407 1.441406,1.4414059 2.238281,3.8085934 2.238281,6.7382809 0,2.77734379 -0.667968,5.1796875 -2.332031,6.8671875 -0.152344,0.1289063 -0.152344,0.1640625 -0.152344,0.1992188 0,0.09375 0.07031,0.1171875 0.128907,0.1171875 0.1875,0 1.371093,-1.03125 2.074218,-2.4375 0.726563,-1.46484376 1.054688,-3.0117188 1.054688,-4.734375 z m 15.08789,-1.078125 c 0.199219,0 0.457032,0 0.457032,-0.2578125 0,-0.2695313 -0.234375,-0.2695313 -0.457032,-0.2695313 h -8.449218 c -0.199219,0 -0.457032,0 -0.457032,0.2578125 0,0.2695313 0.246094,0.2695313 0.457032,0.2695313 z m 0,2.671875 c 0.199219,0 0.457032,0 0.457032,-0.2578125 0,-0.2695313 -0.234375,-0.2695313 -0.457032,-0.2695313 h -8.449218 c -0.199219,0 -0.457032,0 -0.457032,0.2578125 0,0.2695313 0.246094,0.2695313 0.457032,0.2695313 z m 0,0"
         style="fill:#000000;fill-opacity:1;fill-rule:nonzero;stroke:none" />
      <path
         id="path10"
         d="m 81.75425,-12.022789 c 0,-0.234375 0,-0.257813 -0.234375,-0.257813 -0.609375,0.632813 -1.488281,0.632813 -1.804688,0.632813 v 0.316406 c 0.199219,0 0.785157,0 1.300782,-0.257812 v 5.1562497 c 0,0.3515625 -0.03516,0.4804687 -0.925782,0.4804687 h -0.316406 v 0.3046875 c 0.351563,-0.035156 1.207031,-0.035156 1.605469,-0.035156 0.398437,0 1.265625,0 1.617187,0.035156 v -0.3046875 h -0.316406 c -0.902344,0 -0.925781,-0.1171875 -0.925781,-0.4804687 z m 0,0"
         style="fill:#000000;fill-opacity:1;fill-rule:nonzero;stroke:none" />
    </g>
    <path
       id="path11"
       d="M 0,0 H 9.963"
       style="fill:none;stroke:#000000;stroke-width:0.398;stroke-linecap:butt;stroke-linejoin:miter;stroke-miterlimit:10;stroke-dasharray:none;stroke-opacity:1"
       transform="matrix(1.3333333,0,0,-1.3333333,189.14667,15.736)" />
    <g
       id="g11"
       aria-label="10&#10;y&#10;2&#10;(y+2)(y−3)"
       transform="matrix(1.3333333,0,0,1.3333333,189.14667,27.114667)">
      <path
         id="path12"
         d="m 2.9310156,-6.3760391 c 0,-0.234375 0,-0.2578125 -0.234375,-0.2578125 -0.609375,0.6328125 -1.4882812,0.6328125 -1.80468748,0.6328125 v 0.3164063 c 0.19921878,0 0.78515628,0 1.30078128,-0.2578125 v 5.15624999 c 0,0.3515625 -0.035156,0.48046875 -0.9257813,0.48046875 H 0.95054687 v 0.3046875 C 1.3021094,-0.03619531 2.1575781,-0.03619531 2.5560156,-0.03619531 c 0.3984375,0 1.265625,0 1.6171875,0.03515625 v -0.3046875 H 3.8567969 c -0.9023438,0 -0.9257813,-0.1171875 -0.9257813,-0.48046875 z m 6.6328125,3.1875 c 0,-0.796875 -0.046875,-1.59375 -0.3984375,-2.3320312 -0.4570312,-0.9609375 -1.2773437,-1.1132813 -1.6875,-1.1132813 -0.5976562,0 -1.3359375,0.2578125 -1.734375,1.1835938 -0.328125,0.6914062 -0.375,1.4648437 -0.375,2.2617187 0,0.75 0.046875,1.640625 0.4453125,2.40234379 0.4335938,0.80859375 1.1601563,1.0078125 1.6523438,1.0078125 0.5390625,0 1.2890625,-0.2109375 1.734375,-1.16015625 C 9.5169531,-1.6299453 9.5638281,-2.4033828 9.5638281,-3.1885391 Z m -2.0976562,3.18750004 c -0.3867188,0 -0.984375,-0.24609375 -1.1601563,-1.20703124 -0.1054687,-0.5976563 -0.1054687,-1.5117188 -0.1054687,-2.0976563 0,-0.6445312 0,-1.3007812 0.082031,-1.8398437 0.1875,-1.1835938 0.9257813,-1.265625 1.1835938,-1.265625 0.328125,0 0.984375,0.1757812 1.171875,1.1601562 0.09375,0.5625 0.09375,1.3125 0.09375,1.9453125 0,0.75 0,1.4179688 -0.1054688,2.0625 -0.1523437,0.93750004 -0.7148437,1.24218754 -1.160156,1.24218754 z m 0,0"
         style="fill:#000000;fill-opacity:1;fill-rule:nonzero;stroke:none" />
      <path
         id="path13"
         d="m 14.931016,-3.3408828 c -0.386719,0.5507812 -0.949219,1.03125 -1.652344,1.03125 -0.175781,0 -0.855469,-0.023437 -1.078125,-0.6914063 0.04687,0.023437 0.117187,0.023437 0.152344,0.023437 0.421875,0 0.714843,-0.375 0.714843,-0.703125 0,-0.328125 -0.269531,-0.4453125 -0.492187,-0.4453125 -0.222656,0 -0.726563,0.1640625 -0.726563,0.8671875 0,0.7382813 0.609375,1.2421875 1.429688,1.2421875 1.441406,0 2.882812,-1.3242187 3.28125,-2.9179687 l 1.40625,-5.5898447 c 0.02344,-0.07031 0.04687,-0.164061 0.04687,-0.246093 0,-0.210938 -0.175781,-0.363282 -0.386719,-0.363282 -0.128906,0 -0.433594,0.05859 -0.539062,0.492189 l -1.066407,4.2187494 c -0.07031,0.2578125 -0.07031,0.28125 -0.1875,0.4453125 -0.28125,0.3984375 -0.761718,0.890625 -1.453125,0.890625 -0.796875,0 -0.867187,-0.796875 -0.867187,-1.1835937 0,-0.8085938 0.386719,-1.921875 0.773437,-2.953125 0.152344,-0.4101563 0.246094,-0.609375 0.246094,-0.9023432 0,-0.597657 -0.433594,-1.148439 -1.136719,-1.148439 -1.324218,0 -1.851562,2.0859384 -1.851562,2.1914072 0,0.058594 0.05859,0.140625 0.164062,0.140625 0.128907,0 0.140625,-0.058594 0.199219,-0.2695313 0.339844,-1.1953129 0.890625,-1.7695319 1.441406,-1.7695319 0.128907,0 0.375,0 0.375,0.46875 0,0.375 -0.152343,0.7851569 -0.375,1.3359382 -0.703125,1.875 -0.703125,2.3554687 -0.703125,2.6953125 0,1.359375 0.984375,1.6757812 1.699219,1.6757812 0.410156,0 0.925781,-0.1289062 1.429688,-0.65625 l 0.01172,0.011719 c -0.210937,0.84375 -0.351562,1.40625 -0.855468,2.109375 z m 0,0"
         style="fill:#000000;fill-opacity:1;fill-rule:nonzero;stroke:none" />
      <path
         id="path14"
         d="m 19.788437,-10.914125 1.054688,-1.03125 c 1.558594,-1.371094 2.15625,-1.910156 2.15625,-2.90625 0,-1.136719 -0.902344,-1.933594 -2.121094,-1.933594 -1.125,0 -1.851562,0.914063 -1.851562,1.804688 0,0.550781 0.492187,0.550781 0.527343,0.550781 0.164063,0 0.515625,-0.117188 0.515625,-0.527344 0,-0.257812 -0.1875,-0.515625 -0.527343,-0.515625 -0.08203,0 -0.105469,0 -0.128907,0.01172 0.222657,-0.644531 0.761719,-1.019531 1.335938,-1.019531 0.914062,0 1.335937,0.808593 1.335937,1.628906 0,0.796875 -0.492187,1.582031 -1.042968,2.203125 l -1.910157,2.132812 c -0.105468,0.105469 -0.105468,0.128907 -0.105468,0.363282 h 3.691406 l 0.28125,-1.734375 h -0.257813 c -0.04687,0.304687 -0.117187,0.738281 -0.210937,0.890625 -0.07031,0.08203 -0.726563,0.08203 -0.949219,0.08203 z m 0,0"
         style="fill:#000000;fill-opacity:1;fill-rule:nonzero;stroke:none" />
      <path
         id="path15"
         d="m 28.665391,-1.4658828 c 0,-0.035156 0,-0.070312 -0.246094,-0.3046875 -1.429688,-1.453125 -2.238281,-3.8203125 -2.238281,-6.75 0,-2.7773437 0.679687,-5.1796877 2.34375,-6.8671877 0.140625,-0.128906 0.140625,-0.164062 0.140625,-0.199219 0,-0.09375 -0.07031,-0.117187 -0.128907,-0.117187 -0.1875,0 -1.359375,1.03125 -2.0625,2.4375 -0.738281,1.453125 -1.066406,2.988281 -1.066406,4.7460937 0,1.2773437 0.199219,2.9882812 0.949219,4.5234375 0.84375,1.7226562 2.015625,2.6484375 2.179687,2.6484375 0.05859,0 0.128907,-0.023437 0.128907,-0.1171875 z m 0,0"
         style="fill:#000000;fill-opacity:1;fill-rule:nonzero;stroke:none" />
      <path
         id="path16"
         d="m 33.238633,-3.3408828 c -0.386719,0.5507812 -0.949219,1.03125 -1.652344,1.03125 -0.175781,0 -0.855469,-0.023437 -1.078125,-0.6914063 0.04687,0.023437 0.117188,0.023437 0.152344,0.023437 0.421875,0 0.714844,-0.375 0.714844,-0.703125 0,-0.328125 -0.269532,-0.4453125 -0.492188,-0.4453125 -0.222656,0 -0.726562,0.1640625 -0.726562,0.8671875 0,0.7382813 0.609375,1.2421875 1.429687,1.2421875 1.441406,0 2.882813,-1.3242187 3.28125,-2.9179687 l 1.40625,-5.5898447 c 0.02344,-0.07031 0.04687,-0.164061 0.04687,-0.246093 0,-0.210938 -0.175781,-0.363282 -0.386719,-0.363282 -0.128906,0 -0.433593,0.05859 -0.539062,0.492189 l -1.066406,4.2187494 c -0.07031,0.2578125 -0.07031,0.28125 -0.1875,0.4453125 -0.28125,0.3984375 -0.761719,0.890625 -1.453125,0.890625 -0.796875,0 -0.867188,-0.796875 -0.867188,-1.1835937 0,-0.8085938 0.386719,-1.921875 0.773438,-2.953125 0.152343,-0.4101563 0.246093,-0.609375 0.246093,-0.9023432 0,-0.597657 -0.433593,-1.148439 -1.136718,-1.148439 -1.324219,0 -1.851563,2.0859384 -1.851563,2.1914072 0,0.058594 0.05859,0.140625 0.164063,0.140625 0.128906,0 0.140625,-0.058594 0.199218,-0.2695313 0.339844,-1.1953129 0.890625,-1.7695319 1.441407,-1.7695319 0.128906,0 0.375,0 0.375,0.46875 0,0.375 -0.152344,0.7851569 -0.375,1.3359382 -0.703125,1.875 -0.703125,2.3554687 -0.703125,2.6953125 0,1.359375 0.984375,1.6757812 1.699218,1.6757812 0.410157,0 0.925782,-0.1289062 1.429688,-0.65625 l 0.01172,0.011719 c -0.210938,0.84375 -0.351563,1.40625 -0.855469,2.109375 z m 0,0"
         style="fill:#000000;fill-opacity:1;fill-rule:nonzero;stroke:none" />
      <path
         id="path17"
         d="m 45.73668,-8.2627578 h 3.960937 c 0.199219,0 0.457031,0 0.457031,-0.2578125 0,-0.2695313 -0.234375,-0.2695313 -0.457031,-0.2695313 H 45.73668 v -3.9609374 c 0,-0.199219 0,-0.457031 -0.257813,-0.457031 -0.269531,0 -0.269531,0.246093 -0.269531,0.457031 v 3.9609374 h -3.960938 c -0.199218,0 -0.457031,0 -0.457031,0.2578125 0,0.2695313 0.246094,0.2695313 0.457031,0.2695313 h 3.960938 v 3.9609375 c 0,0.1992187 0,0.4570312 0.257812,0.4570312 0.269532,0 0.269532,-0.2460937 0.269532,-0.4570312 z m 14.707031,0.9023437 h -0.316406 c -0.04687,0.2460938 -0.164063,1.03125 -0.304688,1.265625 -0.105469,0.1289063 -0.914062,0.1289063 -1.347656,0.1289063 h -2.660156 c 0.386718,-0.328125 1.265625,-1.2421875 1.640625,-1.59375 2.179687,-2.0039063 2.988281,-2.7539062 2.988281,-4.1718752 0,-1.652344 -1.3125,-2.753906 -2.976563,-2.753906 -1.664062,0 -2.636718,1.417969 -2.636718,2.648437 0,0.738282 0.632812,0.738282 0.679687,0.738282 0.292969,0 0.667969,-0.210938 0.667969,-0.679688 0,-0.398437 -0.269531,-0.667969 -0.667969,-0.667969 -0.140625,0 -0.164062,0 -0.210937,0.01172 0.28125,-0.972656 1.054687,-1.628906 1.980468,-1.628906 1.21875,0 1.96875,1.007812 1.96875,2.332031 0,1.21875 -0.703125,2.2851564 -1.523437,3.1992189 l -2.894531,3.2460938 v 0.3398437 h 5.238281 z m 4.751953,-1.1601562 c 0,-1.0898438 -0.140625,-2.8710937 -0.949219,-4.5351567 -0.84375,-1.710937 -2.015625,-2.648437 -2.179687,-2.648437 -0.05859,0 -0.128906,0.02344 -0.128906,0.117187 0,0.03516 0,0.07031 0.246093,0.316407 1.441407,1.441406 2.238282,3.808593 2.238282,6.7382809 0,2.7773438 -0.667969,5.1796875 -2.332032,6.8671875 -0.152343,0.1289063 -0.152343,0.1640625 -0.152343,0.1992188 0,0.09375 0.07031,0.1171875 0.128906,0.1171875 0.1875,0 1.371094,-1.03125 2.074219,-2.4375 0.726562,-1.4648438 1.054687,-3.0117188 1.054687,-4.734375 z m 6.082031,7.0546875 c 0,-0.035156 0,-0.070312 -0.246093,-0.3046875 -1.429688,-1.453125 -2.238282,-3.8203125 -2.238282,-6.75 0,-2.7773437 0.679688,-5.1796877 2.34375,-6.8671877 0.140625,-0.128906 0.140625,-0.164062 0.140625,-0.199219 0,-0.09375 -0.07031,-0.117187 -0.128906,-0.117187 -0.1875,0 -1.359375,1.03125 -2.0625,2.4375 -0.738281,1.453125 -1.066406,2.988281 -1.066406,4.7460937 0,1.2773437 0.199219,2.9882812 0.949219,4.5234375 0.84375,1.7226562 2.015625,2.6484375 2.179687,2.6484375 0.05859,0 0.128906,-0.023437 0.128906,-0.1171875 z m 0,0"
         style="fill:#000000;fill-opacity:1;fill-rule:nonzero;stroke:none" />
      <path
         id="path18"
         d="m 75.853867,-3.3408828 c -0.386719,0.5507812 -0.949219,1.03125 -1.652344,1.03125 -0.175781,0 -0.855468,-0.023437 -1.078125,-0.6914063 0.04687,0.023437 0.117188,0.023437 0.152344,0.023437 0.421875,0 0.714844,-0.375 0.714844,-0.703125 0,-0.328125 -0.269531,-0.4453125 -0.492188,-0.4453125 -0.222656,0 -0.726562,0.1640625 -0.726562,0.8671875 0,0.7382813 0.609375,1.2421875 1.429687,1.2421875 1.441407,0 2.882813,-1.3242187 3.28125,-2.9179687 l 1.40625,-5.5898447 c 0.02344,-0.07031 0.04687,-0.164061 0.04687,-0.246093 0,-0.210938 -0.175781,-0.363282 -0.386718,-0.363282 -0.128907,0 -0.433594,0.05859 -0.539063,0.492189 l -1.066406,4.2187494 c -0.07031,0.2578125 -0.07031,0.28125 -0.1875,0.4453125 -0.28125,0.3984375 -0.761719,0.890625 -1.453125,0.890625 -0.796875,0 -0.867188,-0.796875 -0.867188,-1.1835937 0,-0.8085938 0.386719,-1.921875 0.773438,-2.953125 0.152344,-0.4101563 0.246094,-0.609375 0.246094,-0.9023432 0,-0.597657 -0.433594,-1.148439 -1.136719,-1.148439 -1.324219,0 -1.851563,2.0859384 -1.851563,2.1914072 0,0.058594 0.05859,0.140625 0.164063,0.140625 0.128906,0 0.140625,-0.058594 0.199219,-0.2695313 0.339843,-1.1953129 0.890625,-1.7695319 1.441406,-1.7695319 0.128906,0 0.375,0 0.375,0.46875 0,0.375 -0.152344,0.7851569 -0.375,1.3359382 -0.703125,1.875 -0.703125,2.3554687 -0.703125,2.6953125 0,1.359375 0.984375,1.6757812 1.699219,1.6757812 0.410156,0 0.925781,-0.1289062 1.429687,-0.65625 l 0.01172,0.011719 c -0.210938,0.84375 -0.351563,1.40625 -0.855469,2.109375 z m 0,0"
         style="fill:#000000;fill-opacity:1;fill-rule:nonzero;stroke:none" />
      <path
         id="path19"
         d="m 92.087266,-8.2510391 c 0.234375,0 0.492187,0 0.492187,-0.28125 0,-0.28125 -0.257812,-0.28125 -0.492187,-0.28125 h -7.769532 c -0.234375,0 -0.492187,0 -0.492187,0.28125 0,0.28125 0.257812,0.28125 0.492187,0.28125 z m 0,0"
         style="fill:#000000;fill-opacity:1;fill-rule:nonzero;stroke:none" />
      <path
         id="path20"
         d="m 99.613633,-10.090883 c -0.246094,0.01172 -0.292969,0.02344 -0.292969,0.1523439 0,0.140625 0.07031,0.140625 0.328125,0.140625 h 0.656251 c 1.21875,0 1.76953,1.0078125 1.76953,2.3789063 0,1.8867187 -0.98437,2.390625 -1.6875,2.390625 -0.679687,0 -1.863281,-0.328125 -2.273437,-1.2773438 0.457031,0.070312 0.867187,-0.1875 0.867187,-0.703125 0,-0.421875 -0.292968,-0.703125 -0.703125,-0.703125 -0.339843,0 -0.714843,0.1992188 -0.714843,0.7382813 0,1.2773437 1.277343,2.3320312 2.871098,2.3320312 1.71093,0 2.96484,-1.3125 2.96484,-2.7539062 0,-1.3242188 -1.05469,-2.3554688 -2.4375,-2.6015625 1.25391,-0.3515622 2.05078,-1.4062502 2.05078,-2.5195312 0,-1.136719 -1.17187,-1.96875 -2.56641,-1.96875 -1.429683,0 -2.49609,0.878906 -2.49609,1.921875 0,0.574219 0.445313,0.691406 0.667969,0.691406 0.292969,0 0.644531,-0.222656 0.644531,-0.644531 0,-0.457031 -0.351562,-0.667969 -0.667968,-0.667969 -0.08203,0 -0.105469,0 -0.152344,0.02344 0.539062,-0.984375 1.886722,-0.984375 1.968752,-0.984375 0.46875,0 1.39453,0.222656 1.39453,1.628906 0,0.269531 -0.0352,1.078125 -0.45703,1.6875 -0.42188,0.632812 -0.91406,0.679687 -1.30078,0.691406 z m 8.431637,1.5703127 c 0,-1.0898438 -0.14062,-2.8710937 -0.94922,-4.5351567 -0.84375,-1.710937 -2.01562,-2.648437 -2.17968,-2.648437 -0.0586,0 -0.12891,0.02344 -0.12891,0.117187 0,0.03516 0,0.07031 0.24609,0.316407 1.44141,1.441406 2.23829,3.808593 2.23829,6.7382809 0,2.7773438 -0.66797,5.1796875 -2.33204,6.8671875 -0.15234,0.1289063 -0.15234,0.1640625 -0.15234,0.1992188 0,0.09375 0.0703,0.1171875 0.12891,0.1171875 0.1875,0 1.37109,-1.03125 2.07422,-2.4375 0.72656,-1.4648438 1.05468,-3.0117188 1.05468,-4.734375 z m 0,0"
         style="fill:#000000;fill-opacity:1;fill-rule:nonzero;stroke:none" />
    </g>
    <path
       id="path21"
       d="m 3.7730234,1.6052266 c -0.3867187,0.5507812 -0.9492187,1.03125 -1.6523437,1.03125 -0.1757813,0 -0.8554688,-0.023437 -1.078125,-0.6914063 0.046875,0.023437 0.1171875,0.023437 0.1523437,0.023437 0.421875,0 0.7148438,-0.375 0.7148438,-0.703125 0,-0.32812499 -0.2695313,-0.44531249 -0.4921875,-0.44531249 -0.2226563,0 -0.72656251,0.1640625 -0.72656251,0.86718749 0,0.7382813 0.60937501,1.2421875 1.42968751,1.2421875 1.4414062,0 2.8828125,-1.3242187 3.28125,-2.91796874 l 1.40625,-5.58984376 c 0.023437,-0.070312 0.046875,-0.1640625 0.046875,-0.2460937 0,-0.2109375 -0.1757813,-0.3632813 -0.3867188,-0.3632813 -0.1289062,0 -0.4335937,0.058594 -0.5390625,0.4921875 l -1.0664062,4.21875 c -0.070312,0.2578125 -0.070312,0.28125 -0.1875,0.4453125 -0.28125,0.39843751 -0.7617188,0.89062501 -1.453125,0.89062501 -0.796875,0 -0.8671875,-0.796875 -0.8671875,-1.18359371 0,-0.8085938 0.3867187,-1.921875 0.7734375,-2.953125 0.1523437,-0.4101563 0.2460937,-0.609375 0.2460937,-0.9023438 0,-0.5976562 -0.4335937,-1.1484375 -1.1367187,-1.1484375 -1.32421876,0 -1.85156251,2.0859375 -1.85156251,2.1914063 0,0.058594 0.0585938,0.140625 0.1640625,0.140625 0.12890625,0 0.140625,-0.058594 0.19921875,-0.2695313 0.33984376,-1.1953125 0.89062496,-1.7695312 1.44140626,-1.7695312 0.1289062,0 0.375,0 0.375,0.46875 0,0.375 -0.1523438,0.7851562 -0.375,1.3359375 -0.703125,1.875 -0.703125,2.3554687 -0.703125,2.6953125 0,1.35937496 0.984375,1.67578121 1.6992187,1.67578121 0.4101563,0 0.9257813,-0.12890625 1.4296875,-0.65625 l 0.011719,0.0117188 c -0.2109375,0.84375 -0.3515625,1.40625 -0.855469,2.10937549 z m 0,0"
       style="fill:#000000;fill-opacity:1;fill-rule:nonzero;stroke:none"
       aria-label="y"
       transform="matrix(1.3333333,0,0,1.3333333,395.30133,225.90267)" />
    <g
       id="g21"
       aria-label="f(y)"
       transform="matrix(1.3333333,0,0,1.3333333,4.428,20.553333)">
      <path
         id="path22"
         d="m 6.3997031,-5.7646094 c 0.28125,0 0.3984375,0 0.3984375,-0.2695312 0,-0.1523438 -0.1171875,-0.1523438 -0.375,-0.1523438 H 5.2629844 c 0.2695312,-1.4765625 0.4804687,-2.4960937 0.5859375,-2.953125 0.09375,-0.3398437 0.3867187,-0.6679687 0.7617187,-0.6679687 0.3046875,0 0.609375,0.1289062 0.75,0.2578125 -0.5625,0.058594 -0.7382812,0.46875 -0.7382812,0.7148437 0,0.28125 0.2226562,0.4570313 0.4921875,0.4570313 0.2929687,0 0.7148437,-0.2460938 0.7148437,-0.7851563 0,-0.609375 -0.5976562,-0.9375001 -1.2304687,-0.9375001 -0.6210938,0 -1.21875,0.4570314 -1.5,1.0195314 -0.2695313,0.5039062 -0.4101563,1.0195312 -0.7382813,2.8945312 H 3.3997031 c -0.2695312,0 -0.4101562,0 -0.4101562,0.2578125 0,0.1640625 0.082031,0.1640625 0.3632812,0.1640625 H 4.2786094 C 4.0207969,-4.4286719 3.4348594,-1.1942969 3.0950156,0.34085937 2.8606406,1.5947656 2.6379844,2.6377344 1.9231406,2.6377344 c -0.046875,0 -0.4570312,0 -0.7148437,-0.2695313 0.7265625,-0.058594 0.7265625,-0.6914062 0.7265625,-0.703125 0,-0.28125 -0.2109375,-0.4570312 -0.4804688,-0.4570312 -0.2929687,0 -0.72656247,0.2460937 -0.72656247,0.7851562 0,0.6210938 0.63281247,0.9375 1.19531247,0.9375 1.4648438,0 2.0625,-2.62499998 2.2265625,-3.33984373 0.2578125,-1.11328127 0.9609375,-4.92187497 1.03125,-5.35546877 z m 0,0"
         style="fill:#000000;fill-opacity:1;fill-rule:nonzero;stroke:none" />
      <path
         id="path23"
         d="m 13.120406,3.4814844 c 0,-0.035156 0,-0.070312 -0.246093,-0.3046875 -1.429688,-1.453125 -2.238282,-3.82031253 -2.238282,-6.75 0,-2.7773438 0.679688,-5.1796875 2.34375,-6.8671879 0.140625,-0.128906 0.140625,-0.164062 0.140625,-0.199218 0,-0.09375 -0.07031,-0.117188 -0.128906,-0.117188 -0.1875,0 -1.359375,1.0312501 -2.0625,2.4375001 -0.738281,1.453125 -1.0664062,2.9882813 -1.0664062,4.7460938 0,1.2773437 0.1992192,2.98828122 0.9492192,4.52343747 0.84375,1.72265623 2.015625,2.64843753 2.179687,2.64843753 0.05859,0 0.128906,-0.023437 0.128906,-0.1171875 z m 0,0"
         style="fill:#000000;fill-opacity:1;fill-rule:nonzero;stroke:none" />
      <path
         id="path24"
         d="m 17.690719,1.6064844 c -0.386719,0.5507812 -0.949219,1.03125 -1.652344,1.03125 -0.175781,0 -0.855469,-0.023437 -1.078125,-0.6914063 0.04687,0.023437 0.117188,0.023437 0.152344,0.023437 0.421875,0 0.714844,-0.375 0.714844,-0.703125 0,-0.32812498 -0.269532,-0.44531248 -0.492188,-0.44531248 -0.222656,0 -0.726562,0.1640625 -0.726562,0.86718748 0,0.7382813 0.609375,1.2421875 1.429687,1.2421875 1.441406,0 2.882813,-1.3242187 3.28125,-2.91796873 l 1.40625,-5.58984377 c 0.02344,-0.070312 0.04687,-0.1640625 0.04687,-0.2460937 0,-0.2109375 -0.175781,-0.3632813 -0.386719,-0.3632813 -0.128906,0 -0.433593,0.058594 -0.539062,0.4921875 l -1.066406,4.21875 c -0.07031,0.2578125 -0.07031,0.28125 -0.1875,0.4453125 -0.28125,0.39843752 -0.761719,0.89062502 -1.453125,0.89062502 -0.796875,0 -0.867188,-0.796875 -0.867188,-1.18359372 0,-0.8085938 0.386719,-1.921875 0.773438,-2.953125 0.152343,-0.4101563 0.246093,-0.609375 0.246093,-0.9023438 0,-0.5976562 -0.433593,-1.1484375 -1.136718,-1.1484375 -1.324219,0 -1.851563,2.0859375 -1.851563,2.1914063 0,0.058594 0.05859,0.140625 0.164063,0.140625 0.128906,0 0.140625,-0.058594 0.199218,-0.2695313 0.339844,-1.1953125 0.890625,-1.7695312 1.441407,-1.7695312 0.128906,0 0.375,0 0.375,0.46875 0,0.375 -0.152344,0.7851562 -0.375,1.3359375 -0.703125,1.875 -0.703125,2.3554687 -0.703125,2.6953125 0,1.35937497 0.984375,1.67578122 1.699218,1.67578122 0.410157,0 0.925782,-0.12890625 1.429688,-0.65625 l 0.01172,0.0117188 c -0.210938,0.84375 -0.351563,1.40625 -0.855469,2.10937508 z m 0,0"
         style="fill:#000000;fill-opacity:1;fill-rule:nonzero;stroke:none" />
      <path
         id="path25"
         d="m 25.325484,-3.5732031 c 0,-1.0898438 -0.140625,-2.8710938 -0.949218,-4.5351563 -0.84375,-1.7109375 -2.015625,-2.6484376 -2.179688,-2.6484376 -0.05859,0 -0.128906,0.02344 -0.128906,0.117188 0,0.03516 0,0.07031 0.246094,0.316406 1.441406,1.4414061 2.238281,3.8085936 2.238281,6.7382811 0,2.77734377 -0.667969,5.1796875 -2.332031,6.8671875 -0.152344,0.1289063 -0.152344,0.1640625 -0.152344,0.1992188 0,0.09375 0.07031,0.1171875 0.128906,0.1171875 0.1875,0 1.371094,-1.03125 2.074219,-2.4375 0.726562,-1.46484378 1.054687,-3.0117188 1.054687,-4.734375 z m 0,0"
         style="fill:#000000;fill-opacity:1;fill-rule:nonzero;stroke:none" />
    </g>
    <g
       id="g25"
       aria-label="y=3"
       transform="matrix(1.3333333,0,0,1.3333333,306.21067,246.84667)">
      <path
         id="path26"
         d="m 3.7736406,1.6062109 c -0.3867187,0.5507813 -0.9492187,1.03125 -1.6523437,1.03125 -0.1757813,0 -0.8554688,-0.023437 -1.078125,-0.6914062 0.046875,0.023437 0.1171875,0.023437 0.1523437,0.023437 0.421875,0 0.7148438,-0.375 0.7148438,-0.703125 0,-0.32812501 -0.2695313,-0.44531251 -0.4921875,-0.44531251 -0.2226563,0 -0.72656253,0.1640625 -0.72656253,0.86718751 0,0.7382812 0.60937503,1.2421875 1.42968753,1.2421875 1.4414062,0 2.8828125,-1.3242188 3.28125,-2.91796876 l 1.40625,-5.58984374 c 0.023437,-0.070312 0.046875,-0.1640625 0.046875,-0.2460938 0,-0.2109375 -0.1757813,-0.3632812 -0.3867188,-0.3632812 -0.1289062,0 -0.4335937,0.058594 -0.5390625,0.4921875 l -1.0664062,4.21875 c -0.070312,0.2578125 -0.070312,0.28125 -0.1875,0.4453125 -0.28125,0.39843749 -0.7617188,0.89062499 -1.453125,0.89062499 -0.796875,0 -0.8671875,-0.796875 -0.8671875,-1.18359379 0,-0.8085937 0.3867187,-1.921875 0.7734375,-2.953125 0.1523437,-0.4101562 0.2460937,-0.609375 0.2460937,-0.9023437 0,-0.5976563 -0.4335937,-1.1484375 -1.1367187,-1.1484375 -1.32421878,0 -1.85156253,2.0859375 -1.85156253,2.1914062 0,0.058594 0.0585938,0.140625 0.1640625,0.140625 0.12890625,0 0.140625,-0.058594 0.19921875,-0.2695312 0.33984378,-1.1953125 0.89062498,-1.7695313 1.44140628,-1.7695313 0.1289062,0 0.375,0 0.375,0.46875 0,0.375 -0.1523438,0.7851563 -0.375,1.3359375 -0.703125,1.875 -0.703125,2.3554688 -0.703125,2.6953125 0,1.35937504 0.984375,1.67578129 1.6992187,1.67578129 0.4101563,0 0.9257813,-0.12890625 1.4296875,-0.65625 l 0.011719,0.0117188 c -0.2109375,0.84375 -0.3515625,1.40625 -0.855469,2.10937541 z m 0,0"
         style="fill:#000000;fill-opacity:1;fill-rule:nonzero;stroke:none" />
      <path
         id="path27"
         d="m 21.0295,-4.6516016 c 0.199219,0 0.457031,0 0.457031,-0.2578125 0,-0.2695312 -0.234375,-0.2695312 -0.457031,-0.2695312 h -8.449219 c -0.199219,0 -0.457031,0 -0.457031,0.2578125 0,0.2695312 0.246094,0.2695312 0.457031,0.2695312 z m 0,2.671875 c 0.199219,0 0.457031,0 0.457031,-0.2578125 0,-0.2695312 -0.234375,-0.2695312 -0.457031,-0.2695312 h -8.449219 c -0.199219,0 -0.457031,0 -0.457031,0.2578125 0,0.2695312 0.246094,0.2695312 0.457031,0.2695312 z m 7.869141,-3.1640625 c -0.246094,0.011719 -0.292969,0.023437 -0.292969,0.1523438 0,0.140625 0.07031,0.140625 0.328125,0.140625 h 0.65625 c 1.21875,0 1.769531,1.0078125 1.769531,2.3789062 0,1.88671879 -0.984375,2.39062504 -1.6875,2.39062504 -0.679687,0 -1.863281,-0.328125 -2.273437,-1.27734374 0.457031,0.070312 0.867187,-0.1875 0.867187,-0.703125 0,-0.421875 -0.292969,-0.703125 -0.703125,-0.703125 -0.339844,0 -0.714844,0.1992187 -0.714844,0.7382812 0,1.27734379 1.277344,2.33203129 2.871094,2.33203129 1.710938,0 2.964844,-1.31249999 2.964844,-2.75390629 0,-1.3242187 -1.054688,-2.3554687 -2.4375,-2.6015625 1.253906,-0.3515625 2.050781,-1.40625 2.050781,-2.5195312 0,-1.1367188 -1.171875,-1.96875 -2.566406,-1.96875 -1.429688,0 -2.496094,0.8789062 -2.496094,1.921875 0,0.5742187 0.445313,0.6914062 0.667969,0.6914062 0.292969,0 0.644531,-0.2226562 0.644531,-0.6445312 0,-0.4570313 -0.351562,-0.6679688 -0.667969,-0.6679688 -0.08203,0 -0.105468,0 -0.152343,0.023437 0.539062,-0.984375 1.886718,-0.984375 1.96875,-0.984375 0.46875,0 1.394531,0.2226563 1.394531,1.6289063 0,0.2695312 -0.03516,1.078125 -0.457031,1.6875 -0.421875,0.6328125 -0.914063,0.6796875 -1.300782,0.6914062 z m 0,0"
         style="fill:#000000;fill-opacity:1;fill-rule:nonzero;stroke:none" />
    </g>
    <path
       id="path28"
       d="m -70.867,48.72365 c 0,0 4.94923,-22.45656 6.8501,-29.08298 1.90086,-6.62642 4.94923,-14.61941 6.85009,-18.67569 1.90088,-4.05624 4.94923,-8.46895 6.85011,-10.5591 1.90087,-2.09015 4.94924,-3.84156 6.8501,-4.50531 1.90087,-0.66375 4.94924,-0.56625 6.8501,-0.27855 1.90088,0.28769 4.94925,1.52372 6.85013,2.35215 1.90086,0.82843 4.94923,2.59593 6.85009,3.61862 1.90087,1.02267 4.94924,2.81731 6.8501,3.75226 1.90088,0.93495 4.94924,2.35652 6.85012,2.98623 1.90086,0.62972 4.94923,1.3807 6.85009,1.55239 1.90087,0.17167 4.94921,0.06089 6.85007,-0.3149 1.90088,-0.37579 4.94923,-1.44563 6.85011,-2.39366 1.90087,-0.94801 4.94922,-2.95921 6.8501,-4.43913 1.90086,-1.47994 4.94923,-4.31995 6.8501,-6.22725 1.90088,-1.9073 4.94923,-5.353 6.85011,-7.51926 1.90087,-2.16624 4.94924,-5.90117 6.85011,-8.09364 1.90087,-2.19248 4.94924,-5.78728 6.8501,-7.70827 1.90088,-1.92097 4.94924,-4.84906 6.85011,-6.13684 1.90087,-1.28777 4.94922,-2.9171 6.8501,-3.14456 1.90086,-0.22745 4.94924,0.18237 6.8501,1.50524 1.90088,1.32288 4.94923,4.6017 6.85011,8.0292 1.90087,3.4275 4.94922,10.52177 6.8501,16.67392 1.90086,6.15213 4.94923,18.10585 6.8501,27.66639 1.90088,9.56055 6.85011,41.23948 6.85011,41.23948"
       style="fill:none;stroke:#000000;stroke-width:1.19553;stroke-linecap:butt;stroke-linejoin:miter;stroke-miterlimit:10;stroke-dasharray:none;stroke-opacity:1"
       transform="matrix(1.3333333,0,0,-1.3333333,192.336,223.64533)" />
    <g
       id="g28"
       aria-label="y=0"
       transform="matrix(1.3333333,0,0,1.3333333,170.148,209.05067)">
      <path
         id="path29"
         d="m 3.7737656,1.6055547 c -0.3867187,0.5507812 -0.9492187,1.03125 -1.6523437,1.03125 -0.1757813,0 -0.8554688,-0.023437 -1.078125,-0.6914063 0.046875,0.023437 0.1171875,0.023437 0.1523437,0.023437 0.421875,0 0.7148438,-0.375 0.7148438,-0.703125 0,-0.32812496 -0.2695313,-0.44531246 -0.4921875,-0.44531246 -0.2226563,0 -0.72656253,0.1640625 -0.72656253,0.86718746 0,0.7382813 0.60937503,1.2421875 1.42968753,1.2421875 1.4414062,0 2.8828125,-1.3242187 3.28125,-2.91796871 l 1.40625,-5.58984379 c 0.023437,-0.070312 0.046875,-0.1640625 0.046875,-0.2460937 0,-0.2109375 -0.1757813,-0.3632813 -0.3867188,-0.3632813 -0.1289062,0 -0.4335937,0.058594 -0.5390625,0.4921875 l -1.0664062,4.21875 c -0.070312,0.2578125 -0.070312,0.28125 -0.1875,0.4453125 -0.28125,0.39843754 -0.7617188,0.89062504 -1.453125,0.89062504 -0.796875,0 -0.8671875,-0.796875 -0.8671875,-1.18359374 0,-0.8085938 0.3867187,-1.921875 0.7734375,-2.953125 0.1523437,-0.4101563 0.2460937,-0.609375 0.2460937,-0.9023438 0,-0.5976562 -0.4335937,-1.1484375 -1.1367187,-1.1484375 -1.32421878,0 -1.85156253,2.0859375 -1.85156253,2.1914063 0,0.058594 0.0585938,0.140625 0.1640625,0.140625 0.12890625,0 0.140625,-0.058594 0.19921875,-0.2695313 0.33984378,-1.1953125 0.89062498,-1.7695312 1.44140628,-1.7695312 0.1289062,0 0.375,0 0.375,0.46875 0,0.375 -0.1523438,0.7851562 -0.375,1.3359375 -0.703125,1.875 -0.703125,2.3554687 -0.703125,2.6953125 0,1.35937499 0.984375,1.67578124 1.6992187,1.67578124 0.4101563,0 0.9257813,-0.12890625 1.4296875,-0.65625 l 0.011719,0.0117188 c -0.2109375,0.84375 -0.3515625,1.40625 -0.855469,2.10937546 z m 0,0"
         style="fill:#000000;fill-opacity:1;fill-rule:nonzero;stroke:none" />
      <path
         id="path30"
         d="m 21.029625,-4.6522578 c 0.199219,0 0.457031,0 0.457031,-0.2578125 0,-0.2695313 -0.234375,-0.2695313 -0.457031,-0.2695313 h -8.449219 c -0.199219,0 -0.457031,0 -0.457031,0.2578125 0,0.2695313 0.246094,0.2695313 0.457031,0.2695313 z m 0,2.671875 c 0.199219,0 0.457031,0 0.457031,-0.2578125 0,-0.2695313 -0.234375,-0.2695313 -0.457031,-0.2695313 h -8.449219 c -0.199219,0 -0.457031,0 -0.457031,0.2578125 0,0.2695313 0.246094,0.2695313 0.457031,0.2695313 z m 11.654297,-2.6132813 c 0,-1.1835937 -0.07031,-2.34375 -0.585938,-3.4335937 -0.585937,-1.1953125 -1.617187,-1.5117188 -2.320312,-1.5117188 -0.832031,0 -1.851563,0.421875 -2.378906,1.6054688 -0.410157,0.9023437 -0.550782,1.7929687 -0.550782,3.3398437 0,1.3945313 0.105469,2.4375 0.621094,3.4570313 0.5625,1.08984374 1.546875,1.44140624 2.296875,1.44140624 1.242188,0 1.957031,-0.75 2.378906,-1.58203124 0.515625,-1.078125 0.539063,-2.484375 0.539063,-3.3164063 z m -2.917969,4.60546879 c -0.46875,0 -1.394531,-0.2578125 -1.664062,-1.81640629 -0.164063,-0.8671875 -0.164063,-1.9570312 -0.164063,-2.953125 0,-1.1835937 0,-2.2382812 0.234375,-3.09375 0.246094,-0.9609375 0.972656,-1.3945312 1.59375,-1.3945312 0.539063,0 1.371094,0.328125 1.640625,1.5585937 0.1875,0.8203125 0.1875,1.9453125 0.1875,2.9296875 0,0.9609375 0,2.0507813 -0.152344,2.9179688 -0.269531,1.58203124 -1.183593,1.85156249 -1.675781,1.85156249 z m 0,0"
         style="fill:#000000;fill-opacity:1;fill-rule:nonzero;stroke:none" />
    </g>
    <path
       id="path31"
       d="m -52.44176,0 c 0,2.34824 -1.90359,4.25183 -4.25184,4.25183 -2.34824,0 -4.25183,-1.90359 -4.25183,-4.25183 0,-2.34824 1.90359,-4.25183 4.25183,-4.25183 2.34825,0 4.25184,1.90359 4.25184,4.25183"
       style="fill:#000000;fill-opacity:1;fill-rule:nonzero;stroke:none"
       transform="matrix(1.3333333,0,0,-1.3333333,192.336,223.64533)" />
    <g
       id="g31"
       aria-label="y=−2"
       transform="matrix(1.3333333,0,0,1.3333333,53.102667,246.84667)">
      <path
         id="path32"
         d="m 3.7726094,1.6062109 c -0.3867188,0.5507813 -0.9492188,1.03125 -1.6523438,1.03125 -0.1757812,0 -0.8554687,-0.023437 -1.078125,-0.6914062 0.046875,0.023437 0.1171875,0.023437 0.1523438,0.023437 0.421875,0 0.7148437,-0.375 0.7148437,-0.703125 0,-0.32812501 -0.2695312,-0.44531251 -0.4921875,-0.44531251 -0.2226562,0 -0.72656248,0.1640625 -0.72656248,0.86718751 0,0.7382812 0.60937498,1.2421875 1.42968748,1.2421875 1.4414063,0 2.8828125,-1.3242188 3.28125,-2.91796876 l 1.40625,-5.58984374 c 0.023437,-0.070312 0.046875,-0.1640625 0.046875,-0.2460938 0,-0.2109375 -0.1757812,-0.3632812 -0.3867187,-0.3632812 -0.1289063,0 -0.4335938,0.058594 -0.5390625,0.4921875 l -1.0664063,4.21875 c -0.070312,0.2578125 -0.070312,0.28125 -0.1875,0.4453125 -0.28125,0.39843749 -0.7617187,0.89062499 -1.453125,0.89062499 -0.796875,0 -0.8671875,-0.796875 -0.8671875,-1.18359379 0,-0.8085937 0.3867188,-1.921875 0.7734375,-2.953125 0.1523438,-0.4101562 0.2460938,-0.609375 0.2460938,-0.9023437 0,-0.5976563 -0.4335938,-1.1484375 -1.1367188,-1.1484375 -1.32421873,0 -1.85156248,2.0859375 -1.85156248,2.1914062 0,0.058594 0.0585938,0.140625 0.1640625,0.140625 0.12890625,0 0.140625,-0.058594 0.19921875,-0.2695312 0.33984373,-1.1953125 0.89062503,-1.7695313 1.44140623,-1.7695313 0.1289063,0 0.375,0 0.375,0.46875 0,0.375 -0.1523437,0.7851563 -0.375,1.3359375 -0.703125,1.875 -0.703125,2.3554688 -0.703125,2.6953125 0,1.35937504 0.984375,1.67578129 1.6992188,1.67578129 0.4101562,0 0.9257812,-0.12890625 1.4296875,-0.65625 l 0.011719,0.0117188 c -0.2109375,0.84375 -0.3515625,1.40625 -0.855469,2.10937541 z m 0,0"
         style="fill:#000000;fill-opacity:1;fill-rule:nonzero;stroke:none" />
      <path
         id="path33"
         d="m 21.028469,-4.6516016 c 0.199218,0 0.457031,0 0.457031,-0.2578125 0,-0.2695312 -0.234375,-0.2695312 -0.457031,-0.2695312 H 12.57925 c -0.199219,0 -0.457031,0 -0.457031,0.2578125 0,0.2695312 0.246093,0.2695312 0.457031,0.2695312 z m 0,2.671875 c 0.199218,0 0.457031,0 0.457031,-0.2578125 0,-0.2695312 -0.234375,-0.2695312 -0.457031,-0.2695312 H 12.57925 c -0.199219,0 -0.457031,0 -0.457031,0.2578125 0,0.2695312 0.246093,0.2695312 0.457031,0.2695312 z m 0,0"
         style="fill:#000000;fill-opacity:1;fill-rule:nonzero;stroke:none" />
      <path
         id="path34"
         d="m 35.717922,-3.3039453 c 0.234375,0 0.492187,0 0.492187,-0.28125 0,-0.28125 -0.257812,-0.28125 -0.492187,-0.28125 h -7.769531 c -0.234375,0 -0.492188,0 -0.492188,0.28125 0,0.28125 0.257813,0.28125 0.492188,0.28125 z m 0,0"
         style="fill:#000000;fill-opacity:1;fill-rule:nonzero;stroke:none" />
      <path
         id="path35"
         d="m 43.733547,-2.4133203 h -0.316406 c -0.04687,0.2460937 -0.164063,1.03125 -0.304688,1.265625 -0.105469,0.1289062 -0.914062,0.1289062 -1.347656,0.1289062 h -2.660156 c 0.386718,-0.328125 1.265625,-1.2421875 1.640625,-1.59375 2.179687,-2.0039062 2.988281,-2.7539062 2.988281,-4.171875 0,-1.6523437 -1.3125,-2.7539062 -2.976563,-2.7539062 -1.664062,0 -2.636718,1.4179687 -2.636718,2.6484375 0,0.7382812 0.632812,0.7382812 0.679687,0.7382812 0.292969,0 0.667969,-0.2109375 0.667969,-0.6796875 0,-0.3984375 -0.269531,-0.6679687 -0.667969,-0.6679687 -0.140625,0 -0.164062,0 -0.210937,0.011719 0.28125,-0.9726562 1.054687,-1.6289062 1.980468,-1.6289062 1.21875,0 1.96875,1.0078125 1.96875,2.3320312 0,1.21875 -0.703125,2.2851563 -1.523437,3.1992188 l -2.894531,3.24609374 V 7.421875e-4 h 5.238281 z m 0,0"
         style="fill:#000000;fill-opacity:1;fill-rule:nonzero;stroke:none" />
    </g>
    <path
       id="path36"
       d="M 4.25183,0 C 4.25183,2.34824 2.34824,4.25183 0,4.25183 -2.34824,4.25183 -4.25183,2.34824 -4.25183,0 c 0,-2.34824 1.90359,-4.25183 4.25183,-4.25183 2.34824,0 4.25183,1.90359 4.25183,4.25183"
       style="fill:#000000;fill-opacity:1;fill-rule:nonzero;stroke:none"
       transform="matrix(1.3333333,0,0,-1.3333333,192.336,223.64533)" />
    <path
       id="path37"
       d="M 0,3.54333 C -1.95694,3.54333 -3.54333,1.95694 -3.54333,0 -3.54333,-1.95694 -1.95694,-3.54333 0,-3.54333 V 3.54333 Z"
       style="fill:#ffffff;fill-opacity:1;fill-rule:nonzero;stroke:none"
       transform="matrix(1.3333333,0,0,-1.3333333,192.336,223.64533)" />
    <path
       id="path38"
       d="m 89.29227,0 c 0,2.34824 -1.9036,4.25183 -4.25185,4.25183 -2.34825,0 -4.25185,-1.90359 -4.25185,-4.25183 0,-2.34824 1.9036,-4.25183 4.25185,-4.25183 2.34825,0 4.25185,1.90359 4.25185,4.25183"
       style="fill:#000000;fill-opacity:1;fill-rule:nonzero;stroke:none"
       transform="matrix(1.3333333,0,0,-1.3333333,192.336,223.64533)" />
    <path
       id="path39"
       d="m 88.58376,0 c 0,1.95694 -1.58638,3.54333 -3.54334,3.54333 -1.95695,0 -3.54333,-1.58639 -3.54333,-3.54333 0,-1.95694 1.58638,-3.54333 3.54333,-3.54333 1.95696,0 3.54334,1.58639 3.54334,3.54333"
       style="fill:#ffffff;fill-opacity:1;fill-rule:nonzero;stroke:none"
       transform="matrix(1.3333333,0,0,-1.3333333,192.336,223.64533)" />
    <path
       id="path40"
       d="m -92.1271,7.08669 h 20.30367"
       style="fill:none;stroke:#000000;stroke-width:1.19553;stroke-linecap:butt;stroke-linejoin:miter;stroke-miterlimit:10;stroke-dasharray:none;stroke-opacity:1"
       transform="matrix(1.3333333,0,0,-1.3333333,192.336,223.64533)" />
    <path
       id="path41"
       d="M -1.91284,2.55046 C -1.75343,1.59402 0,0.15938 0.4782,0 0,-0.15938 -1.75343,-1.59402 -1.91284,-2.55046"
       style="fill:none;stroke:#000000;stroke-width:0.9564;stroke-linecap:round;stroke-linejoin:round;stroke-miterlimit:10;stroke-dasharray:none;stroke-opacity:1"
       transform="matrix(1.3333333,0,0,-1.3333333,96.571427,214.19641)" />
    <path
       id="path42"
       d="M -21.2601,7.08669 H -41.56378"
       style="fill:none;stroke:#000000;stroke-width:1.19553;stroke-linecap:butt;stroke-linejoin:miter;stroke-miterlimit:10;stroke-dasharray:none;stroke-opacity:1"
       transform="matrix(1.3333333,0,0,-1.3333333,192.336,223.64533)" />
    <path
       id="path43"
       d="M -1.91284,2.55046 C -1.75343,1.59402 0,0.15938 0.4782,0 0,-0.15938 -1.75343,-1.59402 -1.91284,-2.55046"
       style="fill:none;stroke:#000000;stroke-width:0.9564;stroke-linecap:round;stroke-linejoin:round;stroke-miterlimit:10;stroke-dasharray:none;stroke-opacity:1"
       transform="matrix(-1.3333333,0,0,1.3333333,136.91763,214.19641)" />
    <path
       id="path44"
       d="M 35.43349,7.08669 H 55.7372"
       style="fill:none;stroke:#000000;stroke-width:1.19553;stroke-linecap:butt;stroke-linejoin:miter;stroke-miterlimit:10;stroke-dasharray:none;stroke-opacity:1"
       transform="matrix(1.3333333,0,0,-1.3333333,192.336,223.64533)" />
    <path
       id="path45"
       d="M -1.91284,2.55046 C -1.75343,1.59402 0,0.15938 0.4782,0 0,-0.15938 -1.75343,-1.59402 -1.91284,-2.55046"
       style="fill:none;stroke:#000000;stroke-width:0.9564;stroke-linecap:round;stroke-linejoin:round;stroke-miterlimit:10;stroke-dasharray:none;stroke-opacity:1"
       transform="matrix(1.3333333,0,0,-1.3333333,266.65227,214.19641)" />
    <path
       id="path46"
       d="M 127.56062,7.08669 H 107.25694"
       style="fill:none;stroke:#000000;stroke-width:1.19553;stroke-linecap:butt;stroke-linejoin:miter;stroke-miterlimit:10;stroke-dasharray:none;stroke-opacity:1"
       transform="matrix(1.3333333,0,0,-1.3333333,192.336,223.64533)" />
    <path
       id="path47"
       d="M -1.91284,2.55046 C -1.75343,1.59402 0,0.15938 0.4782,0 0,-0.15938 -1.75343,-1.59402 -1.91284,-2.55046"
       style="fill:none;stroke:#000000;stroke-width:0.9564;stroke-linecap:round;stroke-linejoin:round;stroke-miterlimit:10;stroke-dasharray:none;stroke-opacity:1"
       transform="matrix(-1.3333333,0,0,1.3333333,335.34525,214.19641)" />
  </g>
</svg>
