<?xml version="1.0" encoding="UTF-8" standalone="no"?>
<!-- Created with Inkscape (http://www.inkscape.org/) -->

<svg
   version="1.1"
   id="svg1"
   width="387.59332"
   height="194.38"
   viewBox="0 0 387.59332 194.38"
   xmlns="http://www.w3.org/2000/svg"
   xmlns:svg="http://www.w3.org/2000/svg">
  <defs
     id="defs1" />
  <g
     id="g1">
    <path
       id="path1"
       d="M 0,-7.08669 V 112.67987"
       style="fill:none;stroke:#000000;stroke-width:0.79701;stroke-linecap:butt;stroke-linejoin:miter;stroke-miterlimit:10;stroke-dasharray:none;stroke-opacity:1"
       transform="matrix(1.3333333,0,0,-1.3333333,20.729333,184.06933)" />
    <path
       id="path2"
       d="M -1.55415,2.0722 C -1.42464,1.29512 0,0.1295 0.38852,0 0,-0.1295 -1.42464,-1.29512 -1.55415,-2.0722"
       style="fill:none;stroke:#000000;stroke-width:0.6376;stroke-linecap:round;stroke-linejoin:round;stroke-miterlimit:10;stroke-dasharray:none;stroke-opacity:1"
       transform="matrix(0,-1.3333333,-1.3333333,0,20.729333,33.829507)" />
    <path
       id="path3"
       d="M -7.08669,0 H 254.41393"
       style="fill:none;stroke:#000000;stroke-width:0.79701;stroke-linecap:butt;stroke-linejoin:miter;stroke-miterlimit:10;stroke-dasharray:none;stroke-opacity:1"
       transform="matrix(1.3333333,0,0,-1.3333333,20.729333,184.06933)" />
    <path
       id="path4"
       d="M -1.55415,2.0722 C -1.42464,1.29512 0,0.1295 0.38852,0 0,-0.1295 -1.42464,-1.29512 -1.55415,-2.0722"
       style="fill:none;stroke:#000000;stroke-width:0.6376;stroke-linecap:round;stroke-linejoin:round;stroke-miterlimit:10;stroke-dasharray:none;stroke-opacity:1"
       transform="matrix(1.3333333,0,0,-1.3333333,359.94791,184.06933)" />
    <path
       id="path5"
       d="m 2.8825703,-5.7647812 h 1.3242188 c 0.2695312,0 0.4101562,0 0.4101562,-0.2578125 0,-0.1640625 -0.082031,-0.1640625 -0.375,-0.1640625 H 2.9880391 l 0.5273437,-2.0859375 c 0.058594,-0.1992188 0.058594,-0.234375 0.058594,-0.328125 0,-0.234375 -0.1875,-0.3632813 -0.375,-0.3632813 -0.1171875,0 -0.4453125,0.046875 -0.5625,0.5039063 l -0.5625,2.2734375 H 0.72632031 c -0.28125,0 -0.41015625,0 -0.41015625,0.28125 0,0.140625 0.09375,0.140625 0.375,0.140625 H 1.9685078 L 1.0192891,-1.979625 c -0.11718754,0.5039063 -0.16406254,0.6445313 -0.16406254,0.8320313 0,0.67968745 0.48046874,1.28906245 1.27734374,1.28906245 1.453125,0 2.2265625,-2.08593745 2.2265625,-2.19140625 0,-0.082031 -0.058594,-0.1289062 -0.140625,-0.1289062 -0.035156,0 -0.082031,0 -0.1171875,0.058594 -0.011719,0.011719 -0.023437,0.023437 -0.1289062,0.2578125 -0.3046875,0.7148438 -0.9609375,1.72265625 -1.7929688,1.72265625 -0.4335937,0 -0.4570312,-0.36328125 -0.4570312,-0.6796875 0,-0.0117188 0,-0.28124995 0.046875,-0.45703125 z m 0,0"
       style="fill:#000000;fill-opacity:1;fill-rule:nonzero;stroke:none"
       aria-label="t"
       transform="matrix(1.3333333,0,0,1.3333333,376.40267,189.952)" />
    <g
       id="g5"
       aria-label="f(t)"
       transform="matrix(1.3333333,0,0,1.3333333,4.4266667,18.773333)">
      <path
         id="path6"
         d="m 6.3977734,-5.7655469 c 0.28125,0 0.3984375,0 0.3984375,-0.2695312 0,-0.1523438 -0.1171875,-0.1523438 -0.375,-0.1523438 H 5.2610547 c 0.2695312,-1.4765625 0.4804687,-2.4960937 0.5859375,-2.953125 0.09375,-0.3398437 0.3867187,-0.6679687 0.7617187,-0.6679687 0.3046875,0 0.609375,0.1289062 0.75,0.2578125 -0.5625,0.058594 -0.7382812,0.46875 -0.7382812,0.7148437 0,0.28125 0.2226562,0.4570313 0.4921875,0.4570313 0.2929687,0 0.7148437,-0.2460938 0.7148437,-0.7851563 0,-0.609375 -0.5976562,-0.9374996 -1.2304687,-0.9374996 -0.6210938,0 -1.21875,0.4570309 -1.5,1.0195309 -0.2695313,0.5039062 -0.4101563,1.0195312 -0.7382813,2.8945312 H 3.3977734 c -0.2695312,0 -0.4101562,0 -0.4101562,0.2578125 0,0.1640625 0.082031,0.1640625 0.3632812,0.1640625 H 4.2766797 C 4.0188672,-4.4296094 3.4329297,-1.1952344 3.0930859,0.33992187 2.8587109,1.5938281 2.6360547,2.6367969 1.9212109,2.6367969 c -0.046875,0 -0.4570312,0 -0.7148437,-0.2695313 0.7265625,-0.058594 0.7265625,-0.6914062 0.7265625,-0.703125 0,-0.28125 -0.2109375,-0.4570312 -0.4804688,-0.4570312 -0.2929687,0 -0.72656246,0.2460937 -0.72656246,0.7851562 0,0.6210938 0.63281246,0.9375 1.19531246,0.9375 1.4648438,0 2.0625,-2.62499998 2.2265625,-3.33984373 0.2578125,-1.11328127 0.9609375,-4.92187497 1.03125,-5.35546877 z m 0,0"
         style="fill:#000000;fill-opacity:1;fill-rule:nonzero;stroke:none" />
      <path
         id="path7"
         d="m 13.121406,3.4805469 c 0,-0.035156 0,-0.070312 -0.246093,-0.3046875 -1.429688,-1.453125 -2.238282,-3.82031253 -2.238282,-6.75 0,-2.7773438 0.679688,-5.1796875 2.34375,-6.8671874 0.140625,-0.128906 0.140625,-0.164063 0.140625,-0.199219 0,-0.09375 -0.07031,-0.117187 -0.128906,-0.117187 -0.1875,0 -1.359375,1.0312496 -2.0625,2.4374996 -0.738281,1.453125 -1.0664062,2.9882813 -1.0664062,4.7460938 0,1.2773437 0.1992192,2.98828122 0.9492192,4.52343747 0.84375,1.72265623 2.015625,2.64843753 2.179687,2.64843753 0.05859,0 0.128906,-0.023437 0.128906,-0.1171875 z m 0,0"
         style="fill:#000000;fill-opacity:1;fill-rule:nonzero;stroke:none" />
      <path
         id="path8"
         d="m 16.801094,-5.7655469 h 1.324218 c 0.269532,0 0.410157,0 0.410157,-0.2578125 0,-0.1640625 -0.08203,-0.1640625 -0.375,-0.1640625 h -1.253907 l 0.527344,-2.0859375 c 0.05859,-0.1992187 0.05859,-0.234375 0.05859,-0.328125 0,-0.234375 -0.1875,-0.3632812 -0.375,-0.3632812 -0.117188,0 -0.445313,0.046875 -0.5625,0.5039062 l -0.5625,2.2734375 H 14.64484 c -0.28125,0 -0.410156,0 -0.410156,0.28125 0,0.140625 0.09375,0.140625 0.375,0.140625 h 1.277343 l -0.949218,3.7851563 c -0.117188,0.5039062 -0.164063,0.6445312 -0.164063,0.8320312 0,0.67968752 0.480469,1.28906252 1.277344,1.28906252 1.453125,0 2.226562,-2.08593752 2.226562,-2.19140622 0,-0.082031 -0.05859,-0.1289063 -0.140625,-0.1289063 -0.03516,0 -0.08203,0 -0.117187,0.058594 -0.01172,0.011719 -0.02344,0.023437 -0.128907,0.2578125 -0.304687,0.7148437 -0.960937,1.72265622 -1.792968,1.72265622 -0.433594,0 -0.457031,-0.36328125 -0.457031,-0.6796875 0,-0.0117188 0,-0.28125002 0.04687,-0.45703122 z m 0,0"
         style="fill:#000000;fill-opacity:1;fill-rule:nonzero;stroke:none" />
      <path
         id="path9"
         d="m 23.035469,-3.5741406 c 0,-1.0898438 -0.140625,-2.8710938 -0.949219,-4.5351563 -0.84375,-1.7109375 -2.015625,-2.6484371 -2.179688,-2.6484371 -0.05859,0 -0.128906,0.02344 -0.128906,0.117187 0,0.03516 0,0.07031 0.246094,0.316406 1.441406,1.4414066 2.238281,3.8085941 2.238281,6.7382816 0,2.77734377 -0.667969,5.1796875 -2.332031,6.8671875 -0.152344,0.1289063 -0.152344,0.1640625 -0.152344,0.1992188 0,0.09375 0.07031,0.1171875 0.128906,0.1171875 0.1875,0 1.371094,-1.03125 2.074219,-2.4375 0.726563,-1.46484378 1.054688,-3.0117188 1.054688,-4.734375 z m 0,0"
         style="fill:#000000;fill-opacity:1;fill-rule:nonzero;stroke:none" />
    </g>
    <path
       id="path10"
       d="M 113.38724,-4.25183 V 4.25183"
       style="fill:none;stroke:#000000;stroke-width:0.79701;stroke-linecap:butt;stroke-linejoin:miter;stroke-miterlimit:10;stroke-dasharray:none;stroke-opacity:1"
       transform="matrix(1.3333333,0,0,-1.3333333,20.729333,184.06933)" />
    <path
       id="path11"
       d="M 170.08086,-4.25183 V 4.25183"
       style="fill:none;stroke:#000000;stroke-width:0.79701;stroke-linecap:butt;stroke-linejoin:miter;stroke-miterlimit:10;stroke-dasharray:none;stroke-opacity:1"
       transform="matrix(1.3333333,0,0,-1.3333333,20.729333,184.06933)" />
    <path
       id="path12"
       d="m 0,28.3468 c 0,0 3.41324,0.86334 4.72415,1.20505 1.31093,0.3417 3.41325,0.90152 4.72418,1.25781 1.31095,0.35629 3.41326,0.93875 4.72419,1.31017 1.31094,0.37141 3.41325,0.97961 4.72418,1.3668 1.31094,0.3872 3.41325,1.02022 4.72418,1.42392 1.31094,0.40372 3.41325,1.06491 4.72418,1.48578 1.31094,0.42087 3.41327,1.1088 4.72418,1.54762 1.31093,0.43882 3.41326,1.15757 4.72417,1.6151 1.31093,0.45754 3.41324,1.20566 4.72419,1.68257 1.31094,0.47692 3.41323,1.25753 4.72418,1.75479 1.31094,0.49727 3.41323,1.31083 4.72418,1.82921 1.31094,0.51839 3.41324,1.36664 4.72418,1.90706 1.31094,0.54042 3.41324,1.42449 4.72418,1.98795 1.31095,0.56346 3.41326,1.48581 4.72418,2.07315 1.31093,0.58735 3.41324,1.54771 4.72417,2.16009 1.31093,0.61238 3.41324,1.61493 4.72418,2.25354 1.31095,0.6386 3.41324,1.6835 4.72419,2.34911 1.31094,0.6656 3.41323,1.7543 4.72418,2.44816 1.31094,0.69387 3.41324,1.82932 4.72418,2.55283 1.31094,0.72353 3.41324,1.90761 4.72418,2.66187 1.31095,0.75424 3.41324,1.98805 4.72418,2.77427 1.31094,0.78623 3.41326,2.07279 4.72419,2.8924 1.31092,0.81959 3.41323,2.16014 4.72416,3.01478 1.31093,0.85467 4.72419,3.14497 4.72419,3.14497"
       style="fill:none;stroke:#000000;stroke-width:1.19553;stroke-linecap:round;stroke-linejoin:miter;stroke-miterlimit:10;stroke-dasharray:none;stroke-opacity:1"
       transform="matrix(1.3333333,0,0,-1.3333333,20.729333,184.06933)" />
    <path
       id="path13"
       d="m 113.38724,42.5202 c 0,0 1.70662,0.42658 2.36207,0.59041 0.65548,0.16383 1.70662,0.42659 2.36209,0.59042 0.65546,0.16382 1.70664,0.42652 2.3621,0.59041 0.65547,0.1639 1.70661,0.42694 2.36209,0.59084 0.65545,0.16389 1.70663,0.42659 2.36209,0.59042 0.65547,0.16384 1.70662,0.42658 2.36209,0.59041 0.65546,0.16383 1.70663,0.42653 2.36209,0.59041 0.65547,0.16389 1.70662,0.42697 2.36209,0.59086 0.65545,0.1639 1.70662,0.42658 2.36208,0.59042 0.65547,0.16383 1.70663,0.42658 2.3621,0.59042 0.65546,0.16382 1.70662,0.42651 2.36208,0.59041 0.65547,0.16389 1.70663,0.42694 2.36211,0.59083 0.65545,0.1639 1.70661,0.42659 2.36207,0.59042 0.65547,0.16384 1.70664,0.42658 2.36211,0.59042 0.65545,0.16383 1.70662,0.42652 2.36207,0.5904 0.65547,0.1639 1.70662,0.42697 2.36209,0.59087 0.65546,0.16389 1.70664,0.42657 2.3621,0.59041 0.65547,0.16383 1.70661,0.42659 2.36209,0.59042 0.65545,0.16382 1.70663,0.42651 2.36209,0.5904 0.65547,0.1639 1.70662,0.42695 2.36209,0.59084 0.65545,0.1639 1.70663,0.42659 2.36209,0.59043 0.65547,0.16383 1.70662,0.42657 2.36209,0.5904 0.65546,0.16384 1.70662,0.42653 2.36208,0.59041 0.65547,0.1639 2.36211,0.59087 2.36211,0.59087"
       style="fill:none;stroke:#000000;stroke-width:1.19553;stroke-linecap:round;stroke-linejoin:miter;stroke-miterlimit:10;stroke-dasharray:none;stroke-opacity:1"
       transform="matrix(1.3333333,0,0,-1.3333333,20.729333,184.06933)" />
    <path
       id="path14"
       d="m 170.08086,28.27672 c 0,0 2.56007,0.03818 3.54333,0.04759 0.98326,0.0094 2.56009,0.01852 3.54335,0.02033 0.98326,0.0018 2.56009,-0.0015 3.54335,-0.0074 0.98326,-0.0058 2.56009,-0.02116 3.54335,-0.03461 0.98328,-0.01344 2.56009,-0.0411 3.54336,-0.06228 0.98327,-0.02118 2.5601,-0.06148 3.54336,-0.09039 0.98326,-0.02892 2.56009,-0.08161 3.54335,-0.1181 0.98326,-0.03648 2.56009,-0.10098 3.54335,-0.14489 0.98326,-0.04393 2.56007,-0.1203 3.54334,-0.17172 0.98327,-0.05144 2.56008,-0.1398 3.54336,-0.19898 0.98326,-0.05916 2.56009,-0.16084 3.54335,-0.22751 0.98326,-0.06666 2.56009,-0.17923 3.54335,-0.25303 0.98326,-0.07381 2.56009,-0.19791 3.54335,-0.279 0.98326,-0.08107 2.56009,-0.21694 3.54335,-0.30535 0.98328,-0.0884 2.56009,-0.23618 3.54336,-0.33178 0.98327,-0.09558 2.56009,-0.25465 3.54336,-0.35727 0.98326,-0.10261 2.56007,-0.2729 3.54333,-0.38235 0.98326,-0.10947 2.56009,-0.29041 3.54335,-0.40659 0.98326,-0.11616 2.56009,-0.30783 3.54335,-0.4308 0.98328,-0.12297 2.56009,-0.32573 3.54337,-0.45547 0.98326,-0.12975 2.56009,-0.34352 3.54335,-0.47968 0.98326,-0.13617 2.56009,-0.35938 3.54335,-0.50174 0.98326,-0.14236 2.56009,-0.37571 3.54335,-0.52424 0.98326,-0.14853 3.54335,-0.5463 3.54335,-0.5463"
       style="fill:none;stroke:#000000;stroke-width:1.19553;stroke-linecap:round;stroke-linejoin:miter;stroke-miterlimit:10;stroke-dasharray:none;stroke-opacity:1"
       transform="matrix(1.3333333,0,0,-1.3333333,20.729333,184.06933)" />
  </g>
</svg>
