<?xml version="1.0" encoding="UTF-8" standalone="no"?>
<!-- Created with Inkscape (http://www.inkscape.org/) -->

<svg
   version="1.1"
   id="svg1"
   width="1008"
   height="562.5"
   viewBox="0 0 672 374.39999"
   sodipodi:docname="rdrdtheta3d.pdf"
   xmlns:inkscape="http://www.inkscape.org/namespaces/inkscape"
   xmlns:sodipodi="http://sodipodi.sourceforge.net/DTD/sodipodi-0.dtd"
   xmlns="http://www.w3.org/2000/svg"
   xmlns:svg="http://www.w3.org/2000/svg">
  <defs
     id="defs1" />
  <sodipodi:namedview
     id="namedview1"
     pagecolor="#ffffff"
     bordercolor="#666666"
     borderopacity="1.0"
     inkscape:showpageshadow="2"
     inkscape:pageopacity="0.0"
     inkscape:pagecheckerboard="0"
     inkscape:deskcolor="#d1d1d1"
     showgrid="false" />
  <g
     id="g1"
     inkscape:groupmode="layer"
     inkscape:label="1">
    <path
       id="path1"
       d="M -3.63574,7.65184 50.59697,-106.48724"
       style="fill:none;stroke:#000000;stroke-width:0.79701;stroke-linecap:butt;stroke-linejoin:miter;stroke-miterlimit:10;stroke-dasharray:none;stroke-opacity:1"
       transform="matrix(1.3333333,0,0,-1.3333333,64.992,166.632)" />
    <path
       id="path2"
       d="M -1.55415,2.0722 C -1.42464,1.29512 0,0.1295 0.38852,0 0,-0.1295 -1.42464,-1.29512 -1.55415,-2.0722"
       style="fill:none;stroke:#000000;stroke-width:0.6376;stroke-linecap:round;stroke-linejoin:round;stroke-miterlimit:10;stroke-dasharray:none;stroke-opacity:1"
       transform="matrix(0.57216,1.20424,1.20424,-0.57216,132.4546,308.61499)" />
    <path
       id="path3"
       d="m -9.98901,-2.78497 149.15414,41.585"
       style="fill:none;stroke:#000000;stroke-width:0.79701;stroke-linecap:butt;stroke-linejoin:miter;stroke-miterlimit:10;stroke-dasharray:none;stroke-opacity:1"
       transform="matrix(1.3333333,0,0,-1.3333333,64.992,166.632)" />
    <path
       id="path4"
       d="M -1.55415,2.0722 C -1.42464,1.29512 0,0.1295 0.38852,0 0,-0.1295 -1.42464,-1.29512 -1.55415,-2.0722"
       style="fill:none;stroke:#000000;stroke-width:0.6376;stroke-linecap:round;stroke-linejoin:round;stroke-miterlimit:10;stroke-dasharray:none;stroke-opacity:1"
       transform="matrix(1.2842667,-0.35805333,-0.35805333,-1.2842667,250.54551,114.89864)" />
    <path
       id="path5"
       d="M 0,-6.8329 V 94.95335"
       style="fill:none;stroke:#000000;stroke-width:0.79701;stroke-linecap:butt;stroke-linejoin:miter;stroke-miterlimit:10;stroke-dasharray:none;stroke-opacity:1"
       transform="matrix(1.3333333,0,0,-1.3333333,64.992,166.632)" />
    <path
       id="path6"
       d="M -1.55415,2.0722 C -1.42464,1.29512 0,0.1295 0.38852,0 0,-0.1295 -1.42464,-1.29512 -1.55415,-2.0722"
       style="fill:none;stroke:#000000;stroke-width:0.6376;stroke-linecap:round;stroke-linejoin:round;stroke-miterlimit:10;stroke-dasharray:none;stroke-opacity:1"
       transform="matrix(0,-1.3333333,-1.3333333,0,64.992,40.027533)" />
    <path
       id="path7"
       d="m 3.3291797,-3.0105078 c 0.058594,-0.2578125 0.2929687,-1.171875 0.984375,-1.171875 0.046875,0 0.2929687,0 0.5039062,0.1289062 -0.28125,0.046875 -0.4804687,0.3046875 -0.4804687,0.5390625 0,0.1640625 0.1054687,0.3515625 0.375,0.3515625 0.2226562,0 0.5390625,-0.1875 0.5390625,-0.5859375 0,-0.515625 -0.5859375,-0.65625 -0.9257813,-0.65625 -0.5742187,0 -0.9257812,0.5273438 -1.0429687,0.7617188 -0.2578125,-0.65625 -0.7851563,-0.7617188 -1.078125,-0.7617188 -1.0429688,0 -1.60546876,1.2890625 -1.60546876,1.5351563 0,0.1054687 0.10546875,0.1054687 0.1171875,0.1054687 0.0820313,0 0.1171875,-0.023437 0.12890625,-0.1171875 0.33984371,-1.0546875 0.99609371,-1.3007812 1.33593751,-1.3007812 0.1875,0 0.5390625,0.09375 0.5390625,0.6679687 0,0.3046875 -0.1640625,0.9726563 -0.5390625,2.3671875 -0.1523438,0.62109379 -0.5039063,1.04296879 -0.9492188,1.04296879 -0.058594,0 -0.28124996,0 -0.49218746,-0.12890625 0.24609375,-0.0585938 0.46874996,-0.26953125 0.46874996,-0.5390625 0,-0.26953124 -0.22265621,-0.35156254 -0.37499996,-0.35156254 -0.29296875,0 -0.5390625,0.25781254 -0.5390625,0.57421879 0,0.45703125 0.4921875,0.65625 0.93749996,0.65625 0.65625,0 1.0078125,-0.69140625 1.0429688,-0.75 0.1171875,0.36328125 0.4804687,0.75 1.078125,0.75 1.0195312,0 1.59375,-1.27734379 1.59375,-1.53515629 0,-0.09375 -0.09375,-0.09375 -0.1289063,-0.09375 -0.082031,0 -0.1054687,0.035156 -0.1289062,0.1054688 -0.328125,1.06640624 -0.9960938,1.31249999 -1.3242188,1.31249999 -0.3867187,0 -0.5390625,-0.328125 -0.5390625,-0.65625 0,-0.22265625 0.058594,-0.44531249 0.1640625,-0.87890629 z m 0,0"
       style="fill:#000000;fill-opacity:1;fill-rule:nonzero;stroke:none"
       aria-label="x"
       transform="matrix(1.3333333,0,0,1.3333333,132.94,320.48667)" />
    <path
       id="path8"
       d="m 4.8407109,-3.7960234 c 0.046875,-0.140625 0.046875,-0.1523438 0.046875,-0.2226563 0,-0.1875 -0.140625,-0.2695312 -0.2929687,-0.2695312 -0.1054688,0 -0.2578125,0.058594 -0.3515625,0.1992187 -0.023437,0.058594 -0.09375,0.3632813 -0.140625,0.5390625 -0.070312,0.2578125 -0.140625,0.5273438 -0.1992188,0.796875 l -0.4453125,1.79296876 c -0.035156,0.15234375 -0.46875,0.85546875 -1.125,0.85546875 -0.5039062,0 -0.6210937,-0.4453125 -0.6210937,-0.80859375 0,-0.45703126 0.1757812,-1.07812496 0.515625,-1.95703126 0.1523437,-0.4101562 0.1992187,-0.515625 0.1992187,-0.7148437 0,-0.4453125 -0.328125,-0.8203125 -0.8203125,-0.8203125 -0.94921871,0 -1.31249996,1.453125 -1.31249996,1.5351562 0,0.1054688 0.09375,0.1054688 0.1171875,0.1054688 0.09375,0 0.10546875,-0.023437 0.15234375,-0.1875 0.26953125,-0.9375 0.66796871,-1.2304688 1.00781251,-1.2304688 0.082031,0 0.2578125,0 0.2578125,0.3164063 0,0.2460937 -0.1054688,0.515625 -0.1757813,0.703125 -0.3984375,1.0546875 -0.5742187,1.6171875 -0.5742187,2.0859375 0,0.89062496 0.6210937,1.18359371 1.21875,1.18359371 0.3867187,0 0.7265625,-0.1640625 0.9960937,-0.4453125 -0.1289062,0.515625 -0.2460937,1.0078125 -0.6445312,1.53515629 -0.2578125,0.3398437 -0.6328125,0.6328125 -1.0898438,0.6328125 -0.140625,0 -0.59765621,-0.035156 -0.76171871,-0.421875 0.1640625,0 0.29296871,0 0.43359371,-0.1171875 0.09375,-0.09375 0.1992188,-0.2226563 0.1992188,-0.41015629 0,-0.31640625 -0.2695313,-0.3515625 -0.375,-0.3515625 -0.22265626,0 -0.55078126,0.1640625 -0.55078126,0.64453129 0,0.5039062 0.43359375,0.8671875 1.05468746,0.8671875 1.0195313,0 2.0507813,-0.9023438 2.3320313,-2.02734379 z m 0,0"
       style="fill:#000000;fill-opacity:1;fill-rule:nonzero;stroke:none"
       aria-label="y"
       transform="matrix(1.3333333,0,0,1.3333333,253.284,114.72933)" />
    <path
       id="path9"
       d="M 1.32325,-0.83244531 C 1.8623125,-1.4066641 2.1552813,-1.6527578 2.5068438,-1.9574453 c 0,-0.011719 0.6210937,-0.5390625 0.984375,-0.9023438 0.9375,-0.9257812 1.1601562,-1.40625 1.1601562,-1.4414062 0,-0.1054688 -0.09375,-0.1054688 -0.1054687,-0.1054688 -0.070312,0 -0.1054688,0.023437 -0.1523438,0.1171875 -0.3046875,0.46875 -0.5039062,0.6328125 -0.75,0.6328125 -0.234375,0 -0.3515625,-0.1523437 -0.5039062,-0.3164062 -0.1875,-0.234375 -0.3632813,-0.4335938 -0.6914063,-0.4335938 -0.75,0 -1.2070312,0.9257813 -1.2070312,1.1367188 0,0.046875 0.035156,0.1171875 0.1171875,0.1171875 0.09375,0 0.1171875,-0.058594 0.140625,-0.1171875 0.1875,-0.4570313 0.7617187,-0.46875 0.84375,-0.46875 0.2109375,0 0.3984375,0.070312 0.6210937,0.1523437 0.3984375,0.1523438 0.515625,0.1523438 0.7734375,0.1523438 C 3.3740313,-3.0121328 2.542,-2.2972891 2.3545,-2.1332266 L 1.4521563,-1.3011953 C 0.77246875,-0.63322656 0.432625,-0.05900781 0.432625,0.01130469 c 0,0.09375 0.09375,0.09375 0.1171875,0.09375 0.0820313,0 0.09375,-0.01171875 0.15234375,-0.12890625 0.234375,-0.33984375 0.52734375,-0.609375 0.85546875,-0.609375 0.2226563,0 0.328125,0.0820313 0.5742188,0.375 0.1640625,0.2109375 0.3515625,0.36328125 0.6328125,0.36328125 0.984375,0 1.5703125,-1.26562499 1.5703125,-1.53515629 0,-0.046875 -0.046875,-0.09375 -0.1171875,-0.09375 -0.09375,0 -0.1171875,0.058594 -0.140625,0.1289063 -0.234375,0.64453124 -0.8671875,0.83203124 -1.1953125,0.83203124 -0.1992188,0 -0.3867188,-0.0585938 -0.5859375,-0.12890625 -0.3398438,-0.12890625 -0.4921875,-0.1640625 -0.703125,-0.1640625 -0.023437,0 -0.1757813,0 -0.2695313,0.0234375 z m 0,0"
       style="fill:#000000;fill-opacity:1;fill-rule:nonzero;stroke:none"
       aria-label="z"
       transform="matrix(1.3333333,0,0,1.3333333,61.610667,38.301333)" />
    <path
       id="path10"
       d="M 38.13824,14.96591 41.774,7.31406"
       style="fill:none;stroke:#000000;stroke-width:0.3985;stroke-linecap:butt;stroke-linejoin:miter;stroke-miterlimit:10;stroke-dasharray:none;stroke-opacity:1"
       transform="matrix(1.3333333,0,0,-1.3333333,64.992,166.632)" />
    <path
       id="path11"
       d="m 2.9303672,-6.3746953 c 0,-0.234375 0,-0.2578125 -0.234375,-0.2578125 -0.609375,0.6328125 -1.4882813,0.6328125 -1.80468751,0.6328125 v 0.3164062 c 0.19921871,0 0.78515621,0 1.30078121,-0.2578125 v 5.15625004 c 0,0.3515625 -0.035156,0.48046875 -0.9257812,0.48046875 H 0.94989844 V 3.046875e-4 C 1.3014609,-0.03485156 2.1569297,-0.03485156 2.5553672,-0.03485156 c 0.3984375,0 1.265625,0 1.6171875,0.0351562475 V -0.30438281 H 3.8561484 c -0.9023437,0 -0.9257812,-0.1171875 -0.9257812,-0.48046875 z m 0,0"
       style="fill:#000000;fill-opacity:1;fill-rule:nonzero;stroke:none"
       aria-label="1"
       transform="matrix(1.3333333,0,0,1.3333333,109.128,143.816)" />
    <path
       id="path12"
       d="m 118.05052,37.24593 3.63574,-7.65186"
       style="fill:none;stroke:#000000;stroke-width:0.3985;stroke-linecap:butt;stroke-linejoin:miter;stroke-miterlimit:10;stroke-dasharray:none;stroke-opacity:1"
       transform="matrix(1.3333333,0,0,-1.3333333,64.992,166.632)" />
    <path
       id="path13"
       d="m 2.8943672,-3.504875 c 0.8085937,-0.2695312 1.3945312,-0.9726562 1.3945312,-1.7578125 0,-0.8203125 -0.8789062,-1.3710937 -1.8398437,-1.3710937 -1.0078125,0 -1.75781251,0.5976562 -1.75781251,1.3476562 0,0.3398438 0.2109375,0.5273438 0.50390621,0.5273438 0.3046875,0 0.5039063,-0.2226563 0.5039063,-0.515625 0,-0.4921875 -0.46875,-0.4921875 -0.609375,-0.4921875 0.3046875,-0.4921875 0.9609375,-0.6210938 1.3242187,-0.6210938 0.4101563,0 0.9492188,0.2226563 0.9492188,1.1132813 0,0.1289062 -0.011719,0.703125 -0.2695313,1.1367187 -0.3046875,0.4804688 -0.6445312,0.515625 -0.890625,0.515625 -0.082031,0.011719 -0.3164062,0.035156 -0.3867187,0.035156 -0.082031,0.011719 -0.1523438,0.023437 -0.1523438,0.1171875 0,0.1171875 0.070312,0.1171875 0.234375,0.1171875 h 0.4453125 c 0.8085938,0 1.1835938,0.6679687 1.1835938,1.6523437 0,1.34765625 -0.6914063,1.640625 -1.125,1.640625 -0.4335938,0 -1.171875,-0.17578125 -1.52343751,-0.76171875 0.35156251,0.0585938 0.65625001,-0.1640625 0.65625001,-0.53906245 0,-0.3632813 -0.2695313,-0.5625 -0.56250001,-0.5625 -0.234375,0 -0.55078125,0.140625 -0.55078125,0.5742187 0,0.9140625 0.92578126,1.5703125 2.00390626,1.5703125 1.21875,0 2.1210937,-0.9140625 2.1210937,-1.921875 0,-0.8203125 -0.6210937,-1.59375 -1.6523437,-1.8046872 z m 0,0"
       style="fill:#000000;fill-opacity:1;fill-rule:nonzero;stroke:none"
       aria-label="3"
       transform="matrix(1.3333333,0,0,1.3333333,215.676,114.11067)" />
    <path
       id="path14"
       d="m 9.54848,-31.99994 9.98902,2.78497"
       style="fill:none;stroke:#000000;stroke-width:0.3985;stroke-linecap:butt;stroke-linejoin:miter;stroke-miterlimit:10;stroke-dasharray:none;stroke-opacity:1"
       transform="matrix(1.3333333,0,0,-1.3333333,64.992,166.632)" />
    <path
       id="path15"
       d="m 2.9292813,-6.3742344 c 0,-0.234375 0,-0.2578125 -0.234375,-0.2578125 -0.609375,0.6328125 -1.4882813,0.6328125 -1.80468755,0.6328125 v 0.3164063 c 0.19921875,0 0.78515625,0 1.30078125,-0.2578125 v 5.15624998 c 0,0.3515625 -0.035156,0.48046875 -0.9257812,0.48046875 H 0.9488125 V 7.65625e-4 C 1.300375,-0.03439062 2.1558438,-0.03439062 2.5542813,-0.03439062 c 0.3984375,0 1.265625,0 1.6171875,0.035156245 V -0.30392187 H 3.8550625 c -0.9023437,0 -0.9257812,-0.1171875 -0.9257812,-0.48046875 z m 0,0"
       style="fill:#000000;fill-opacity:1;fill-rule:nonzero;stroke:none"
       aria-label="1"
       transform="matrix(1.3333333,0,0,1.3333333,65.078667,216.17867)" />
    <path
       id="path16"
       d="m 38.63448,-93.21487 9.98902,2.78497"
       style="fill:none;stroke:#000000;stroke-width:0.3985;stroke-linecap:butt;stroke-linejoin:miter;stroke-miterlimit:10;stroke-dasharray:none;stroke-opacity:1"
       transform="matrix(1.3333333,0,0,-1.3333333,64.992,166.632)" />
    <path
       id="path17"
       d="m 2.8940625,-3.50425 c 0.8085938,-0.2695312 1.3945313,-0.9726562 1.3945313,-1.7578125 0,-0.8203125 -0.8789063,-1.3710937 -1.8398438,-1.3710937 -1.0078125,0 -1.7578125,0.5976562 -1.7578125,1.3476562 0,0.3398438 0.2109375,0.5273438 0.5039063,0.5273438 0.3046875,0 0.5039062,-0.2226563 0.5039062,-0.515625 0,-0.4921875 -0.46875,-0.4921875 -0.609375,-0.4921875 0.3046875,-0.4921875 0.9609375,-0.6210938 1.3242188,-0.6210938 0.4101562,0 0.9492187,0.2226563 0.9492187,1.1132813 0,0.1289062 -0.011719,0.703125 -0.2695312,1.1367187 -0.3046875,0.4804688 -0.6445313,0.515625 -0.890625,0.515625 -0.082031,0.011719 -0.3164063,0.035156 -0.3867188,0.035156 -0.082031,0.011719 -0.1523437,0.023437 -0.1523437,0.1171875 0,0.1171875 0.070312,0.1171875 0.234375,0.1171875 h 0.4453125 c 0.8085937,0 1.1835937,0.6679687 1.1835937,1.6523437 0,1.34765625 -0.6914062,1.640625 -1.125,1.640625 -0.4335937,0 -1.171875,-0.17578125 -1.5234375,-0.76171875 0.3515625,0.0585938 0.65625,-0.1640625 0.65625,-0.53906245 0,-0.3632813 -0.2695312,-0.5625 -0.5625,-0.5625 -0.234375,0 -0.55078125,0.140625 -0.55078125,0.5742187 0,0.9140625 0.92578125,1.5703125 2.00390625,1.5703125 1.21875,0 2.1210938,-0.9140625 2.1210938,-1.921875 0,-0.8203125 -0.6210938,-1.59375 -1.6523438,-1.8046872 z m 0,0"
       style="fill:#000000;fill-opacity:1;fill-rule:nonzero;stroke:none"
       aria-label="3"
       transform="matrix(1.3333333,0,0,1.3333333,103.86,297.79733)" />
    <path
       id="path18"
       d="m -4.99449,25.93915 9.98898,2.78497"
       style="fill:none;stroke:#000000;stroke-width:0.3985;stroke-linecap:butt;stroke-linejoin:miter;stroke-miterlimit:10;stroke-dasharray:none;stroke-opacity:1"
       transform="matrix(1.3333333,0,0,-1.3333333,64.992,166.632)" />
    <path
       id="path19"
       d="m 2.9293594,-6.3753047 c 0,-0.234375 0,-0.2578125 -0.234375,-0.2578125 -0.609375,0.6328125 -1.4882813,0.6328125 -1.80468752,0.6328125 v 0.3164063 c 0.19921872,0 0.78515622,0 1.30078122,-0.2578125 v 5.15624996 c 0,0.3515625 -0.035156,0.48046875 -0.9257812,0.48046875 H 0.94889063 V -3.046875e-4 C 1.3004531,-0.03546094 2.1559219,-0.03546094 2.5543594,-0.03546094 c 0.3984375,0 1.265625,0 1.6171875,0.0351562525 V -0.30499219 H 3.8551406 c -0.9023437,0 -0.9257812,-0.1171875 -0.9257812,-0.48046875 z m 0,0"
       style="fill:#000000;fill-opacity:1;fill-rule:nonzero;stroke:none"
       aria-label="1"
       transform="matrix(1.3333333,0,0,1.3333333,48.352,138.184)" />
    <path
       id="path20"
       d="m -4.99449,80.60242 9.98898,2.78497"
       style="fill:none;stroke:#000000;stroke-width:0.3985;stroke-linecap:butt;stroke-linejoin:miter;stroke-miterlimit:10;stroke-dasharray:none;stroke-opacity:1"
       transform="matrix(1.3333333,0,0,-1.3333333,64.992,166.632)" />
    <path
       id="path21"
       d="m 2.8942031,-3.5043203 c 0.8085938,-0.2695313 1.3945313,-0.9726563 1.3945313,-1.7578125 0,-0.8203125 -0.8789063,-1.3710938 -1.8398438,-1.3710938 -1.0078125,0 -1.75781247,0.5976563 -1.75781247,1.3476563 0,0.3398437 0.2109375,0.5273437 0.50390627,0.5273437 0.3046875,0 0.5039062,-0.2226562 0.5039062,-0.515625 0,-0.4921875 -0.46875,-0.4921875 -0.609375,-0.4921875 0.3046875,-0.4921875 0.9609375,-0.6210937 1.3242188,-0.6210937 0.4101562,0 0.9492187,0.2226562 0.9492187,1.1132812 0,0.1289063 -0.011719,0.703125 -0.2695312,1.1367188 -0.3046875,0.4804687 -0.6445313,0.515625 -0.890625,0.515625 -0.082031,0.011719 -0.3164063,0.035156 -0.3867188,0.035156 -0.082031,0.011719 -0.1523437,0.023437 -0.1523437,0.1171875 0,0.1171875 0.070312,0.1171875 0.234375,0.1171875 h 0.4453125 c 0.8085937,0 1.1835937,0.6679688 1.1835937,1.6523438 0,1.34765624 -0.6914062,1.64062499 -1.125,1.64062499 -0.4335937,0 -1.171875,-0.17578125 -1.52343747,-0.76171875 0.35156247,0.0585938 0.65624997,-0.1640625 0.65624997,-0.53906254 0,-0.3632812 -0.2695312,-0.5625 -0.56249997,-0.5625 -0.234375,0 -0.55078125,0.140625 -0.55078125,0.5742188 0,0.91406249 0.92578122,1.57031249 2.00390622,1.57031249 1.21875,0 2.1210938,-0.9140625 2.1210938,-1.92187499 0,-0.8203125 -0.6210938,-1.59375 -1.6523438,-1.8046873 z m 0,0"
       style="fill:#000000;fill-opacity:1;fill-rule:nonzero;stroke:none"
       aria-label="3"
       transform="matrix(1.3333333,0,0,1.3333333,48.352,65.301333)" />
    <path
       id="path22"
       d="M 0,0 28.72502,-24.01367"
       style="fill:none;stroke:#000000;stroke-width:0.3985;stroke-linecap:butt;stroke-linejoin:miter;stroke-miterlimit:10;stroke-dasharray:2.98883, 2.98883;stroke-dashoffset:0;stroke-opacity:1"
       transform="matrix(1.3333333,0,0,-1.3333333,64.992,166.632)" />
    <path
       id="path23"
       d="M 28.72502,-24.01367 86.17519,-72.04102"
       style="fill:none;stroke:#e81c2b;stroke-width:0.79701;stroke-linecap:butt;stroke-linejoin:miter;stroke-miterlimit:10;stroke-dasharray:none;stroke-opacity:1"
       transform="matrix(1.3333333,0,0,-1.3333333,64.992,166.632)" />
    <path
       id="path24"
       d="M 0,0 33.27547,-20.27554"
       style="fill:none;stroke:#000000;stroke-width:0.3985;stroke-linecap:butt;stroke-linejoin:miter;stroke-miterlimit:10;stroke-dasharray:2.98883, 2.98883;stroke-dashoffset:0;stroke-opacity:1"
       transform="matrix(1.3333333,0,0,-1.3333333,64.992,166.632)" />
    <path
       id="path25"
       d="M 33.27547,-20.27554 99.82646,-60.8266"
       style="fill:none;stroke:#e81c2b;stroke-width:0.79701;stroke-linecap:butt;stroke-linejoin:miter;stroke-miterlimit:10;stroke-dasharray:none;stroke-opacity:1"
       transform="matrix(1.3333333,0,0,-1.3333333,64.992,166.632)" />
    <path
       id="path26"
       d="M 0,0 37.00658,-16.03807"
       style="fill:none;stroke:#000000;stroke-width:0.3985;stroke-linecap:butt;stroke-linejoin:miter;stroke-miterlimit:10;stroke-dasharray:2.98883, 2.98883;stroke-dashoffset:0;stroke-opacity:1"
       transform="matrix(1.3333333,0,0,-1.3333333,64.992,166.632)" />
    <path
       id="path27"
       d="M 37.00658,-16.03807 111.0198,-48.11421"
       style="fill:none;stroke:#e81c2b;stroke-width:0.79701;stroke-linecap:butt;stroke-linejoin:miter;stroke-miterlimit:10;stroke-dasharray:none;stroke-opacity:1"
       transform="matrix(1.3333333,0,0,-1.3333333,64.992,166.632)" />
    <path
       id="path28"
       d="M 0,0 39.8257,-11.40695"
       style="fill:none;stroke:#000000;stroke-width:0.3985;stroke-linecap:butt;stroke-linejoin:miter;stroke-miterlimit:10;stroke-dasharray:2.98883, 2.98883;stroke-dashoffset:0;stroke-opacity:1"
       transform="matrix(1.3333333,0,0,-1.3333333,64.992,166.632)" />
    <path
       id="path29"
       d="M 39.8257,-11.40695 119.47714,-34.2209"
       style="fill:none;stroke:#e81c2b;stroke-width:0.79701;stroke-linecap:butt;stroke-linejoin:miter;stroke-miterlimit:10;stroke-dasharray:none;stroke-opacity:1"
       transform="matrix(1.3333333,0,0,-1.3333333,64.992,166.632)" />
    <path
       id="path30"
       d="M 0,0 41.66493,-6.49368"
       style="fill:none;stroke:#000000;stroke-width:0.3985;stroke-linecap:butt;stroke-linejoin:miter;stroke-miterlimit:10;stroke-dasharray:2.98883, 2.98883;stroke-dashoffset:0;stroke-opacity:1"
       transform="matrix(1.3333333,0,0,-1.3333333,64.992,166.632)" />
    <path
       id="path31"
       d="m 41.66493,-6.49368 83.32996,-12.98743"
       style="fill:none;stroke:#e81c2b;stroke-width:0.79701;stroke-linecap:butt;stroke-linejoin:miter;stroke-miterlimit:10;stroke-dasharray:none;stroke-opacity:1"
       transform="matrix(1.3333333,0,0,-1.3333333,64.992,166.632)" />
    <path
       id="path32"
       d="M 0,0 42.4782,-1.42064"
       style="fill:none;stroke:#000000;stroke-width:0.3985;stroke-linecap:butt;stroke-linejoin:miter;stroke-miterlimit:10;stroke-dasharray:2.98883, 2.98883;stroke-dashoffset:0;stroke-opacity:1"
       transform="matrix(1.3333333,0,0,-1.3333333,64.992,166.632)" />
    <path
       id="path33"
       d="m 42.4782,-1.42064 84.95646,-2.84125"
       style="fill:none;stroke:#e81c2b;stroke-width:0.79701;stroke-linecap:butt;stroke-linejoin:miter;stroke-miterlimit:10;stroke-dasharray:none;stroke-opacity:1"
       transform="matrix(1.3333333,0,0,-1.3333333,64.992,166.632)" />
    <path
       id="path34"
       d="m 14.543,-30.60745 c 0,0 0.47111,0.13394 0.65134,0.18689 0.1802,0.05295 0.46861,0.13965 0.64758,0.19482 0.17895,0.05519 0.46445,0.14554 0.64238,0.2029 0.17793,0.05737 0.46324,0.15114 0.64004,0.21071 0.17678,0.05955 0.45888,0.15681 0.6342,0.21861 0.17534,0.0618 0.45571,0.16287 0.62963,0.22685 0.1739,0.06395 0.45135,0.16824 0.62402,0.23427 0.17267,0.06604 0.44917,0.17345 0.62047,0.24173 0.1713,0.0683 0.44449,0.18013 0.61418,0.25061 0.16966,0.0705 0.44066,0.18504 0.60881,0.25754 0.16815,0.07249 0.43653,0.19047 0.60323,0.26497 0.16672,0.0745 0.43324,0.19542 0.59843,0.27208 0.16522,0.07666 0.42906,0.20167 0.59241,0.28045 0.16333,0.07878 0.42334,0.20667 0.58499,0.28739 0.16164,0.08072 0.42004,0.21179 0.58017,0.29452 0.16012,0.08273 0.41586,0.21689 0.57399,0.30177 0.15816,0.0849 0.40976,0.22323 0.56589,0.31012 0.15614,0.08692 0.40521,0.22757 0.55954,0.31624 0.15432,0.08866 0.40037,0.23223 0.5529,0.32289 0.15253,0.09066 0.39595,0.23799 0.5465,0.3306 0.15055,0.09261 0.39022,0.24246 0.53866,0.33689 0.14841,0.09443 0.38476,0.24745 0.53122,0.3438 0.14648,0.09636 0.37994,0.2528 0.52443,0.3509 0.14449,0.0981 0.51701,0.35623 0.51701,0.35623"
       style="fill:none;stroke:#000000;stroke-width:0.3985;stroke-linecap:butt;stroke-linejoin:miter;stroke-miterlimit:10;stroke-dasharray:2.98883, 2.98883;stroke-dashoffset:0;stroke-opacity:1"
       transform="matrix(1.3333333,0,0,-1.3333333,64.992,166.632)" />
    <path
       id="path35"
       d="m 28.72502,-24.01367 c 0,0 0.73445,0.52658 1.01036,0.73338 0.27591,0.20679 0.71134,0.54367 0.97829,0.75722 0.26695,0.21355 0.68788,0.56198 0.9458,0.78204 0.25793,0.22008 0.66507,0.57764 0.91321,0.80413 0.24814,0.22651 0.63728,0.59573 0.87539,0.82847 0.2381,0.23276 0.6126,0.61053 0.84079,0.84903 0.22818,0.2385 0.58594,0.62582 0.80391,0.8699 0.21798,0.2441 0.55971,0.6399 0.76709,0.88932 0.2074,0.2494 0.53095,0.65388 0.72768,0.90841 0.19672,0.25454 0.50439,0.66677 0.69025,0.92603 0.18583,0.25928 0.47454,0.679 0.64921,0.94263 0.17467,0.26362 0.44664,0.68965 0.6097,0.95755 0.16307,0.26788 0.41429,0.70132 0.56566,0.97326 0.15136,0.27196 0.38552,0.71115 0.52533,0.98688 0.13981,0.2757 0.35429,0.72125 0.48236,1.00029 0.12806,0.27903 0.32463,0.72887 0.44073,1.01089 0.11612,0.28204 0.29225,0.73699 0.3962,1.02179 0.10397,0.28481 0.26139,0.74375 0.35321,1.03093 0.09179,0.28722 0.22889,0.74981 0.30857,1.03912 0.0797,0.28933 0.19884,0.75501 0.26584,1.04623 0.067,0.29121 0.16289,0.75996 0.21717,1.05276 0.05426,0.29281 0.13211,0.76375 0.17407,1.05768 0.04196,0.29393 0.09894,0.76596 0.1284,1.06081 0.02945,0.29484 0.08396,1.06428 0.08396,1.06428"
       style="fill:none;stroke:#449fe3;stroke-width:0.79701;stroke-linecap:butt;stroke-linejoin:miter;stroke-miterlimit:10;stroke-dasharray:none;stroke-opacity:1"
       transform="matrix(1.3333333,0,0,-1.3333333,64.992,166.632)" />
    <path
       id="path36"
       d="m 42.4782,-1.42064 c 0,0 0.0187,0.38457 0.02392,0.53243 0.0052,0.14785 0.01155,0.38537 0.01379,0.53326 0.0022,0.1479 0.0033,0.3849 0.0023,0.53271 -9.4e-4,0.14782 -0.0052,0.38476 -0.0093,0.53264 -0.0042,0.14786 -0.01333,0.38541 -0.02069,0.53319 -0.0074,0.1478 -0.02201,0.38445 -0.03252,0.532 C 42.4452,1.92314 42.4258,2.15973 42.41234,2.3072 42.3989,2.4547 42.37544,2.69124 42.35869,2.83861 42.34192,2.986 42.31169,3.22227 42.29152,3.36942 42.27133,3.51657 42.23625,3.75244 42.21309,3.89922 42.18993,4.04597 42.1507,4.2807 42.12451,4.42719 42.0983,4.57367 42.0537,4.80884 42.02417,4.95508 41.99464,5.1013 41.94424,5.33545 41.91162,5.48119 41.87898,5.6269 41.82443,5.86018 41.78885,6.00548 41.75325,6.15074 41.69362,6.38336 41.65506,6.52826 41.6165,6.67314 41.55266,6.90533 41.51085,7.04977 41.46906,7.19421 41.39868,7.42548 41.35373,7.56926 41.30879,7.71301 41.23474,7.94286 41.1869,8.08603 41.1391,8.22922 41.05997,8.45871 41.00908,8.60132 40.95818,8.74393 40.87408,8.97197 40.82,9.11398 40.76595,9.25601 40.67628,9.48372 40.61932,9.625 c -0.05696,0.1413 -0.15016,0.3669 -0.21,0.5074 -0.05988,0.14049 -0.15856,0.36545 -0.22142,0.50523 -0.06288,0.13979 -0.23177,0.50235 -0.23177,0.50235"
       style="fill:none;stroke:#000000;stroke-width:0.3985;stroke-linecap:butt;stroke-linejoin:miter;stroke-miterlimit:10;stroke-dasharray:2.98883, 2.98883;stroke-dashoffset:0;stroke-opacity:1"
       transform="matrix(1.3333333,0,0,-1.3333333,64.992,166.632)" />
    <path
       id="path37"
       d="m 21.8145,-45.91118 c 0,0 0.70672,0.20087 0.97703,0.28034 0.2703,0.07946 0.70281,0.2097 0.97127,0.29246 0.26847,0.08278 0.69676,0.21805 0.96366,0.30412 0.26687,0.08609 0.69479,0.22698 0.95994,0.3163 0.26515,0.08933 0.68816,0.2349 0.95116,0.32759 0.26297,0.0927 0.68336,0.2445 0.94427,0.3405 0.26091,0.096 0.67734,0.25245 0.93634,0.35151 0.25901,0.09904 0.6735,0.26008 0.93039,0.36251 0.2569,0.10244 0.66674,0.27012 0.92131,0.37587 0.25457,0.10576 0.66124,0.27767 0.91353,0.38638 0.25229,0.10874 0.65483,0.28548 0.90491,0.39724 0.25009,0.11177 0.64979,0.29336 0.89757,0.40839 0.24778,0.11502 0.64326,0.30247 0.8883,0.42062 0.24504,0.11813 0.63539,0.30981 0.87789,0.43092 0.24247,0.12111 0.62968,0.31781 0.86987,0.44193 0.24017,0.12411 0.62407,0.3254 0.86128,0.45274 0.23723,0.12734 0.61435,0.33478 0.84854,0.46507 0.23419,0.1303 0.60784,0.34114 0.83937,0.47414 0.23156,0.13303 0.60076,0.34866 0.82957,0.48466 0.2288,0.13599 0.59376,0.35668 0.81956,0.49558 0.22578,0.13889 0.5852,0.36389 0.80786,0.50555 0.22264,0.1417 0.57708,0.37114 0.79686,0.51571 0.21974,0.14454 0.57025,0.37902 0.78703,0.52619 0.2168,0.14718 0.77544,0.53456 0.77544,0.53456"
       style="fill:none;stroke:#000000;stroke-width:0.3985;stroke-linecap:butt;stroke-linejoin:miter;stroke-miterlimit:10;stroke-dasharray:2.98883, 2.98883;stroke-dashoffset:0;stroke-opacity:1"
       transform="matrix(1.3333333,0,0,-1.3333333,64.992,166.632)" />
    <path
       id="path38"
       d="m 43.08745,-36.0203 c 0,0 1.10165,0.78989 1.51553,1.1001 0.41387,0.31021 1.06699,0.8155 1.46744,1.13584 0.40044,0.32032 1.03181,0.84297 1.41872,1.17305 0.38688,0.33008 0.99768,0.86616 1.3699,1.20593 0.37224,0.33977 0.95583,0.89386 1.31297,1.243 0.35713,0.34913 0.91895,0.9158 1.26119,1.27349 0.34225,0.35769 0.87872,0.93847 1.20567,1.30459 0.32695,0.36613 0.8398,0.96006 1.15086,1.33424 0.31105,0.37417 0.79605,0.9808 1.09114,1.36255 0.29509,0.38174 0.75701,1.00004 1.0358,1.38891 0.2788,0.38884 0.71163,1.01839 0.97354,1.41387 0.26195,0.39546 0.66982,1.03463 0.91445,1.43651 0.24464,0.40188 0.62166,1.05207 0.84877,1.45999 0.22708,0.40793 0.57843,1.06654 0.78811,1.48008 0.20966,0.41356 0.53106,1.08205 0.72312,1.50062 0.19206,0.41853 0.487,1.09307 0.66122,1.51613 0.17421,0.42303 0.43857,1.10577 0.59452,1.53295 0.15595,0.4272 0.39192,1.1153 0.5296,1.54608 0.13768,0.43076 0.34327,1.12465 0.46286,1.55867 0.11958,0.434 0.29855,1.13259 0.39906,1.56943 0.10051,0.43683 0.24406,1.13985 0.32542,1.57907 0.08136,0.4392 0.19819,1.14562 0.26111,1.5865 0.06295,0.44091 0.14844,1.14899 0.19263,1.59124 0.04419,0.44227 0.12593,1.59643 0.12593,1.59643"
       style="fill:none;stroke:#449fe3;stroke-width:0.79701;stroke-linecap:butt;stroke-linejoin:miter;stroke-miterlimit:10;stroke-dasharray:none;stroke-opacity:1"
       transform="matrix(1.3333333,0,0,-1.3333333,64.992,166.632)" />
    <path
       id="path39"
       d="m 63.71701,-2.13103 c 0,0 0.02834,0.57688 0.03616,0.79869 0.0078,0.22179 0.01702,0.57819 0.02031,0.80007 0.0033,0.22187 0.0049,0.57733 0.0035,0.79907 -0.0014,0.22174 -0.0075,0.57727 -0.01371,0.79904 -0.0062,0.22179 -0.02014,0.57779 -0.03119,0.79946 -0.01108,0.22166 -0.03279,0.57693 -0.0486,0.79832 -0.01579,0.22141 -0.0452,0.57614 -0.0654,0.79733 -0.0202,0.22119 -0.0552,0.57585 -0.08033,0.79691 -0.02512,0.22105 -0.07064,0.57568 -0.10088,0.79642 -0.03024,0.22073 -0.08246,0.57437 -0.1172,0.79451 -0.03476,0.22013 -0.09399,0.57243 -0.13336,0.79216 -0.03936,0.21972 -0.10613,0.57228 -0.15037,0.79159 -0.04423,0.21932 -0.11956,0.57062 -0.16853,0.78922 -0.04895,0.21858 -0.131,0.56843 -0.18445,0.78636 -0.05345,0.21792 -0.14296,0.56708 -0.2008,0.78444 -0.05786,0.21736 -0.15364,0.56564 -0.21631,0.78224 -0.0627,0.21661 -0.16814,0.56335 -0.23554,0.77899 -0.06741,0.21565 -0.17866,0.56055 -0.25035,0.77538 -0.0717,0.21481 -0.19017,0.55913 -0.26648,0.77302 -0.07632,0.21388 -0.20266,0.55571 -0.28375,0.76869 -0.0811,0.21302 -0.2153,0.55466 -0.30076,0.76664 -0.08547,0.21194 -0.22553,0.55024 -0.31533,0.76098 -0.08976,0.21076 -0.23755,0.54827 -0.33181,0.75797 -0.09427,0.20968 -0.34766,0.75351 -0.34766,0.75351"
       style="fill:none;stroke:#000000;stroke-width:0.3985;stroke-linecap:butt;stroke-linejoin:miter;stroke-miterlimit:10;stroke-dasharray:2.98883, 2.98883;stroke-dashoffset:0;stroke-opacity:1"
       transform="matrix(1.3333333,0,0,-1.3333333,64.992,166.632)" />
    <path
       id="path40"
       d="m 29.086,-61.21492 c 0,0 0.94226,0.26787 1.3027,0.37378 0.36046,0.10593 0.93723,0.2793 1.29517,0.38966 0.35794,0.11037 0.92889,0.29105 1.28476,0.4058 0.35587,0.11477 0.92648,0.3023 1.28007,0.42143 0.35358,0.11912 0.91773,0.3136 1.26844,0.43719 0.3507,0.1236 0.91139,0.32576 1.25926,0.45372 0.34784,0.12794 0.90266,0.33646 1.248,0.46852 0.34532,0.13208 0.89834,0.34688 1.24094,0.48351 0.34259,0.1366 0.88899,0.36017 1.22836,0.50116 0.33938,0.14099 0.88132,0.3701 1.21763,0.51509 0.33634,0.14497 0.87302,0.3809 1.20646,0.52992 0.33346,0.14902 0.86642,0.39086 1.19686,0.54419 0.33043,0.15332 0.85813,0.40337 1.18482,0.56093 0.3267,0.15758 0.84663,0.4133 1.16997,0.57478 0.3233,0.16146 0.8401,0.42359 1.16035,0.58904 0.32028,0.16546 0.83168,0.43376 1.14798,0.60356 0.3163,0.16978 0.81952,0.44638 1.13181,0.62019 0.31228,0.1738 0.81034,0.45514 1.11903,0.63248 0.30867,0.17734 0.80077,0.46445 1.10582,0.64578 0.30505,0.18132 0.79185,0.47599 1.09297,0.66119 0.30112,0.1852 0.78046,0.48492 1.07733,0.67379 0.29688,0.18887 0.76953,0.49486 1.06246,0.68759 0.29294,0.19276 0.75985,0.50558 1.04886,0.70178 0.28897,0.19623 1.03405,0.7125 1.03405,0.7125"
       style="fill:none;stroke:#000000;stroke-width:0.3985;stroke-linecap:butt;stroke-linejoin:miter;stroke-miterlimit:10;stroke-dasharray:2.98883, 2.98883;stroke-dashoffset:0;stroke-opacity:1"
       transform="matrix(1.3333333,0,0,-1.3333333,64.992,166.632)" />
    <path
       id="path41"
       d="m 57.4501,-48.02734 c 0,0 1.46886,1.05313 2.02068,1.46674 0.55183,0.41363 1.42268,1.08733 1.95659,1.51447 0.5339,0.42711 1.37575,1.12392 1.8916,1.56406 0.51585,0.44014 1.33013,1.15524 1.82643,1.60826 0.49631,0.45303 1.27454,1.19148 1.75076,1.65698 0.47622,0.4655 1.22521,1.22103 1.68158,1.69802 0.45638,0.47699 1.17189,1.25169 1.60784,1.73985 0.43594,0.48817 1.11943,1.27972 1.53421,1.77856 0.41479,0.49883 1.06184,1.30779 1.45529,1.81685 0.39345,0.50905 1.0088,1.33355 1.38049,1.85208 0.37169,0.51854 0.94913,1.35797 1.29846,1.88526 0.34934,0.52726 0.89328,1.37925 1.21944,1.91504 0.32614,0.53578 0.82853,1.40263 1.13126,1.94654 0.30273,0.54392 0.77105,1.42233 1.05067,1.97376 0.2796,0.55142 0.70857,1.44252 0.96472,2.00063 0.25615,0.55809 0.64923,1.45774 0.88148,2.0218 0.23225,0.56406 0.58448,1.47394 0.79243,2.04352 0.20793,0.56961 0.52275,1.48747 0.70639,2.06187 0.18362,0.57442 0.45776,1.49955 0.61716,2.07823 0.15937,0.57866 0.39762,1.51002 0.53164,2.09246 0.13402,0.58246 0.32578,1.51991 0.43433,2.10553 0.10856,0.58563 0.26423,1.52751 0.34816,2.11537 0.08391,0.58786 0.19787,1.53195 0.2568,2.12164 0.05892,0.58968 0.16793,2.12856 0.16793,2.12856"
       style="fill:none;stroke:#449fe3;stroke-width:0.79701;stroke-linecap:butt;stroke-linejoin:miter;stroke-miterlimit:10;stroke-dasharray:none;stroke-opacity:1"
       transform="matrix(1.3333333,0,0,-1.3333333,64.992,166.632)" />
    <path
       id="path42"
       d="m 84.95644,-2.84126 c 0,0 0.03735,0.7691 0.04782,1.06482 0.01045,0.2957 0.02316,0.77075 0.02763,1.06654 0.0045,0.2958 0.0066,0.76982 0.0047,1.06543 -0.0019,0.29562 -0.01039,0.76953 -0.01871,1.06529 -0.0083,0.29575 -0.02658,0.77082 -0.04132,1.06638 -0.01477,0.29558 -0.04399,0.76887 -0.06503,1.06401 -0.02106,0.29513 -0.05988,0.76823 -0.08678,1.0632 -0.0269,0.29499 -0.07379,0.76805 -0.10732,1.06281 -0.03352,0.29475 -0.09394,0.76731 -0.13432,1.06161 -0.04038,0.2943 -0.1105,0.76604 -0.15683,1.05957 -0.04634,0.29352 -0.12481,0.76299 -0.17723,1.05599 -0.05242,0.29298 -0.14158,0.76331 -0.20065,1.05578 -0.05905,0.29248 -0.15985,0.76071 -0.22513,1.05219 -0.06529,0.29145 -0.17434,0.75804 -0.24553,1.0486 -0.07115,0.29055 -0.19041,0.75579 -0.26756,1.04557 -0.07713,0.28978 -0.20483,0.75414 -0.28844,1.043 -0.08358,0.28888 -0.22431,0.75144 -0.31418,1.03899 -0.08987,0.28754 -0.238,0.74716 -0.33364,1.03354 -0.09563,0.28639 -0.25389,0.74531 -0.35572,1.03054 -0.1018,0.28527 -0.26999,0.74132 -0.37811,1.02537 -0.10814,0.28407 -0.28743,0.73945 -0.40138,1.02206 -0.11394,0.28259 -0.30031,0.73377 -0.42003,1.01474 -0.11972,0.28099 -0.31706,0.73091 -0.44283,1.0105 C 80.25006,21.55486 79.91226,22.28 79.91226,22.28"
       style="fill:none;stroke:#000000;stroke-width:0.3985;stroke-linecap:butt;stroke-linejoin:miter;stroke-miterlimit:10;stroke-dasharray:2.98883, 2.98883;stroke-dashoffset:0;stroke-opacity:1"
       transform="matrix(1.3333333,0,0,-1.3333333,64.992,166.632)" />
    <path
       id="path43"
       d="m 36.3575,-76.51865 c 0,0 1.17784,0.33481 1.62837,0.46723 0.45055,0.13242 1.17142,0.34935 1.61887,0.4873 0.44743,0.13796 1.16122,0.36357 1.60604,0.50702 0.44483,0.14346 1.15806,0.37811 1.60001,0.52702 0.44193,0.1489 1.14699,0.39171 1.58531,0.54621 0.43836,0.15448 1.13909,0.40735 1.57396,0.56734 0.43488,0.15998 1.12868,0.42067 1.56035,0.58577 0.43166,0.16508 1.12261,0.43351 1.55083,0.60427 0.42821,0.17075 1.11123,0.45019 1.5355,0.62644 0.42428,0.17624 1.1019,0.46272 1.52237,0.64392 0.42046,0.18123 1.09131,0.47591 1.50812,0.66218 0.41683,0.18628 1.08299,0.48884 1.496,0.68052 0.41301,0.19168 1.0723,0.50415 1.4807,0.70108 0.4084,0.19693 1.05869,0.51648 1.46285,0.7183 0.40416,0.20185 1.04974,0.52961 1.45007,0.73645 0.40033,0.20685 1.03992,0.54229 1.43529,0.7545 0.39538,0.21224 1.02408,0.55799 1.41441,0.7752 0.39035,0.21719 1.01303,0.56868 1.39893,0.79036 0.38589,0.22169 1.00112,0.58087 1.38247,0.80754 0.38134,0.22665 0.98967,0.59465 1.36602,0.82615 0.37633,0.23154 0.97544,0.60635 1.34654,0.84247 0.37109,0.23612 0.96187,0.61858 1.32808,0.85952 0.36622,0.24093 0.95016,0.6318 1.31144,0.87709 0.3613,0.2453 1.2925,0.89082 1.2925,0.89082"
       style="fill:none;stroke:#000000;stroke-width:0.3985;stroke-linecap:butt;stroke-linejoin:miter;stroke-miterlimit:10;stroke-dasharray:2.98883, 2.98883;stroke-dashoffset:0;stroke-opacity:1"
       transform="matrix(1.3333333,0,0,-1.3333333,64.992,166.632)" />
    <path
       id="path44"
       d="m 71.81253,-60.03395 c 0,0 1.83607,1.31641 2.52587,1.83343 0.68978,0.51705 1.77833,1.3592 2.44572,1.8931 0.6674,0.53391 1.71966,1.40491 2.36452,1.95505 0.64483,0.55014 1.66272,1.44382 2.28312,2.01012 0.62039,0.56628 1.59307,1.48957 2.18833,2.07145 0.59527,0.5819 1.53152,1.52632 2.10197,2.12252 0.57047,0.59617 1.46468,1.56428 2.00961,2.17449 0.54493,0.61022 1.39951,1.5999 1.91796,2.2235 0.51845,0.62359 1.32695,1.6347 1.81878,2.27097 0.49184,0.63627 1.26145,1.6668 1.72608,2.31495 0.46463,0.64817 1.18617,1.69737 1.6228,2.35649 0.43663,0.65912 1.11643,1.72429 1.52414,2.39406 0.40772,0.66977 1.03595,1.75336 1.4144,2.43326 0.37847,0.67989 0.96396,1.77772 1.31343,2.46699 0.34949,0.68926 0.88536,1.80327 1.20551,2.50089 0.32013,0.6976 0.81156,1.82198 1.10193,2.52704 0.29034,0.70508 0.7308,1.84274 0.99075,2.55474 0.25992,0.712 0.65327,1.85903 0.88278,2.577 0.22951,0.71799 0.57214,1.87445 0.77142,2.59778 0.19928,0.72334 0.49739,1.88759 0.6649,2.61568 0.1675,0.72806 0.40691,1.89981 0.54258,2.63184 0.13563,0.73202 0.33032,1.90936 0.43522,2.64419 0.10492,0.73483 0.24735,1.91493 0.321,2.65205 0.0737,0.73713 0.2099,2.66071 0.2099,2.66071"
       style="fill:none;stroke:#449fe3;stroke-width:0.79701;stroke-linecap:butt;stroke-linejoin:miter;stroke-miterlimit:10;stroke-dasharray:none;stroke-opacity:1"
       transform="matrix(1.3333333,0,0,-1.3333333,64.992,166.632)" />
    <path
       id="path45"
       d="m 106.19525,-3.55165 c 0,0 0.047,0.96141 0.0601,1.33108 0.0131,0.36969 0.0286,0.96357 0.0341,1.33335 0.006,0.36976 0.008,0.96223 0.006,1.33178 -0.002,0.36954 -0.0127,0.96206 -0.0231,1.3317 -0.0104,0.36968 -0.0334,0.9632 -0.0519,1.33266 -0.0185,0.36949 -0.0548,0.96138 -0.0811,1.33032 -0.0263,0.36896 -0.0751,0.96026 -0.10878,1.32895 -0.0337,0.36868 -0.0921,0.95984 -0.13399,1.32826 -0.0419,0.36842 -0.11758,0.95935 -0.16803,1.32723 -0.0504,0.36787 -0.13768,0.95742 -0.19563,1.32432 -0.0579,0.3669 -0.15642,0.95389 -0.22197,1.32015 -0.0656,0.36622 -0.17691,0.95395 -0.25068,1.31951 -0.0738,0.36554 -0.19948,0.95098 -0.28109,1.31528 -0.0816,0.36434 -0.21818,0.94745 -0.30723,1.31066 -0.089,0.36322 -0.23818,0.945 -0.33461,1.30725 -0.0964,0.36225 -0.25603,0.94267 -0.36052,1.30371 -0.10448,0.36105 -0.28024,0.93905 -0.3926,1.29849 -0.11235,0.35945 -0.29765,0.9341 -0.41717,1.29215 -0.11954,0.35801 -0.31711,0.93176 -0.44435,1.28828 -0.12723,0.35654 -0.33763,0.92633 -0.47281,1.28139 -0.13518,0.35507 -0.35899,0.92443 -0.50143,1.27768 -0.14246,0.35324 -0.37569,0.91711 -0.52532,1.26835 -0.14964,0.35123 -0.3961,0.91371 -0.55327,1.2632 -0.15715,0.34952 -0.57945,1.25589 -0.57945,1.25589"
       style="fill:none;stroke:#000000;stroke-width:0.3985;stroke-linecap:butt;stroke-linejoin:miter;stroke-miterlimit:10;stroke-dasharray:2.98883, 2.98883;stroke-dashoffset:0;stroke-opacity:1"
       transform="matrix(1.3333333,0,0,-1.3333333,64.992,166.632)" />
    <path
       id="path46"
       d="m 43.629,-91.82239 c 0,0 1.41342,0.40181 1.95408,0.56069 0.54065,0.15887 1.40581,0.41893 1.94274,0.58447 0.53691,0.16556 1.39334,0.43658 1.92712,0.6087 0.5338,0.17215 1.38974,0.45345 1.92014,0.63214 0.53039,0.17869 1.3766,0.47042 1.90265,0.65583 0.52604,0.18542 1.36703,0.4886 1.88884,0.68052 0.52179,0.19194 1.35405,0.50472 1.87205,0.70284 0.51799,0.19815 1.34748,0.52032 1.86139,0.72522 0.5139,0.20491 1.33353,0.54024 1.84258,0.75172 0.50906,0.21152 1.32197,0.55516 1.82646,0.77265 0.5045,0.21746 1.30945,0.57136 1.80965,0.79491 0.50016,0.22353 1.29968,0.58628 1.79533,0.81628 0.49568,0.22998 1.28714,0.60504 1.7772,0.8414 0.49006,0.23636 1.26995,0.61995 1.75492,0.86215 0.48497,0.24222 1.26017,0.63537 1.7406,0.88356 0.48041,0.24818 1.2475,0.65063 1.72195,0.90532 0.47447,0.25469 1.22925,0.66959 1.69768,0.93028 0.46846,0.26073 1.21553,0.68276 1.67856,0.94878 0.46304,0.26602 1.20112,0.69664 1.65874,0.96864 0.45761,0.27199 1.18775,0.71399 1.63943,0.99182 0.45169,0.27783 1.17069,0.7273 1.61601,1.01062 0.44532,0.28333 1.1543,0.74227 1.59369,1.03144 0.43939,0.28915 1.13976,0.75833 1.57324,1.05267 0.43349,0.29434 1.55114,1.06872 1.55114,1.06872"
       style="fill:none;stroke:#000000;stroke-width:0.3985;stroke-linecap:butt;stroke-linejoin:miter;stroke-miterlimit:10;stroke-dasharray:2.98883, 2.98883;stroke-dashoffset:0;stroke-opacity:1"
       transform="matrix(1.3333333,0,0,-1.3333333,64.992,166.632)" />
    <path
       id="path47"
       d="m 86.17519,-72.04102 c 0,0 2.20327,1.57967 3.03101,2.20012 0.82775,0.62044 2.134,1.63098 2.93488,2.27169 0.80089,0.64068 2.06363,1.68586 2.83742,2.34607 0.7738,0.66023 1.99515,1.73284 2.73961,2.41241 0.74448,0.67953 1.91183,1.78725 2.62616,2.48549 0.71433,0.69826 1.83778,1.83151 2.52237,2.547 0.6846,0.7155 1.75784,1.87754 2.41176,2.6098 0.65391,0.73225 1.67913,1.91955 2.3013,2.66784 0.62216,0.74827 1.59274,1.96169 2.18292,2.72527 0.59019,0.76358 1.51321,2.00029 2.07075,2.77811 0.55758,0.7778 1.42371,2.03697 1.94773,2.82788 0.52401,0.79092 1.3399,2.06891 1.82911,2.87259 0.48922,0.80366 1.24282,2.10391 1.69692,2.9198 0.45409,0.8159 1.15655,2.13351 1.576,2.96066 0.41944,0.82716 1.06284,2.16376 1.44707,3.0009 0.38423,0.83714 0.97385,2.18665 1.3222,3.03273 0.34836,0.84607 0.87671,2.21088 1.18863,3.06529 0.31192,0.8544 0.78417,2.23116 1.05962,3.09277 0.27542,0.86164 0.68662,2.24938 0.9257,3.11736 0.23908,0.868 0.59649,2.265 0.79752,3.13869 0.20102,0.8737 0.48862,2.27988 0.65144,3.15831 0.16285,0.87844 0.39639,2.29124 0.52228,3.17304 0.12591,0.88178 0.29685,2.29789 0.38523,3.18244 0.0884,0.88456 0.25184,3.19287 0.25184,3.19287"
       style="fill:none;stroke:#449fe3;stroke-width:0.79701;stroke-linecap:butt;stroke-linejoin:miter;stroke-miterlimit:10;stroke-dasharray:none;stroke-opacity:1"
       transform="matrix(1.3333333,0,0,-1.3333333,64.992,166.632)" />
    <path
       id="path48"
       d="m 127.43466,-4.26189 c 0,0 0.056,1.15363 0.0717,1.59719 0.0157,0.44355 0.0347,1.15616 0.0414,1.59985 0.007,0.44371 0.01,1.15469 0.007,1.59816 -0.003,0.44344 -0.0156,1.15428 -0.028,1.59792 -0.0125,0.44363 -0.0399,1.15618 -0.062,1.59957 -0.0221,0.44338 -0.066,1.15328 -0.0976,1.59601 -0.0316,0.44271 -0.0898,1.15238 -0.13016,1.59484 -0.0404,0.44247 -0.11064,1.15207 -0.16093,1.5942 -0.0503,0.44213 -0.14092,1.15097 -0.20151,1.59243 -0.0606,0.44143 -0.16573,1.14903 -0.23526,1.58932 -0.0695,0.44028 -0.18723,1.14447 -0.26585,1.58399 -0.0786,0.43949 -0.21234,1.14498 -0.30094,1.58371 -0.0886,0.43869 -0.23976,1.14105 -0.3377,1.57824 -0.0979,0.43721 -0.26151,1.13704 -0.36829,1.57286 -0.1068,0.43584 -0.28568,1.13375 -0.40138,1.56842 -0.11571,0.43467 -0.30726,1.13121 -0.43265,1.56448 -0.12538,0.4333 -0.33644,1.12714 -0.47125,1.55845 -0.13482,0.43132 -0.35701,1.12075 -0.50048,1.55032 -0.14345,0.4296 -0.38085,1.11798 -0.53355,1.54585 -0.15273,0.42788 -0.40497,1.11196 -0.56719,1.53806 -0.16223,0.4261 -0.43116,1.10918 -0.60209,1.53307 -0.17093,0.42388 -0.45042,1.10063 -0.63001,1.52212 -0.17956,0.42149 -0.47566,1.09636 -0.66429,1.51576 -0.18863,0.41939 -0.69532,1.50707 -0.69532,1.50707"
       style="fill:none;stroke:#000000;stroke-width:0.3985;stroke-linecap:butt;stroke-linejoin:miter;stroke-miterlimit:10;stroke-dasharray:2.98883, 2.98883;stroke-dashoffset:0;stroke-opacity:1"
       transform="matrix(1.3333333,0,0,-1.3333333,64.992,166.632)" />
    <g
       id="g48"
       aria-label="∆r"
       transform="matrix(1.3333333,0,0,1.3333333,115.87733,233.12)">
      <path
         id="path49"
         d="m 4.4074297,-6.9483984 c -0.070312,-0.1289063 -0.09375,-0.1875 -0.2578125,-0.1875 -0.1757813,0 -0.1992188,0.058594 -0.2578125,0.1875 l -3.37500001,6.74999996 c -0.046875,0.09375 -0.046875,0.10546875 -0.046875,0.1171875 0,0.0820312525 0.0585937,0.0820312525 0.22265625,0.0820312525 H 7.6066484 c 0.1523438,0 0.2109375,0 0.2109375,-0.0820312525 0,-0.01171875 0,-0.0234375 -0.046875,-0.1171875 z m -0.5859375,0.8085937 2.6835937,5.37890626 H 1.1378984 Z m 0,0"
         style="fill:#000000;fill-opacity:1;fill-rule:nonzero;stroke:none" />
      <path
         id="path50"
         d="m 9.1798906,-0.58511719 c -0.035156,0.15234375 -0.09375,0.375 -0.09375,0.421875 0,0.1875 0.140625,0.26953125 0.2929688,0.26953125 0.1171875,0 0.2929687,-0.0703125 0.3632812,-0.26953125 0.023437,-0.046875 0.3632814,-1.39453121 0.3984374,-1.58203121 0.08203,-0.328125 0.257813,-1.0195313 0.316406,-1.2890625 0.04687,-0.1289063 0.328125,-0.5976563 0.5625,-0.8203125 0.08203,-0.070312 0.375,-0.328125 0.796875,-0.328125 0.257813,0 0.410157,0.1171875 0.421875,0.1171875 -0.304687,0.046875 -0.515625,0.2929687 -0.515625,0.5507812 0,0.1640625 0.105469,0.3515625 0.375,0.3515625 0.269532,0 0.550782,-0.234375 0.550782,-0.5859375 0,-0.3515625 -0.328125,-0.65625 -0.832032,-0.65625 -0.644531,0 -1.089843,0.4921875 -1.277343,0.7734375 -0.08203,-0.4570312 -0.433594,-0.7734375 -0.9023441,-0.7734375 -0.4570313,0 -0.6445313,0.3867188 -0.7382813,0.5742188 -0.1757812,0.3398437 -0.3046875,0.9375 -0.3046875,0.9609375 0,0.1054687 0.09375,0.1054687 0.1171875,0.1054687 0.09375,0 0.1054688,-0.011719 0.1640625,-0.234375 0.1757813,-0.703125 0.375,-1.1835937 0.7265625,-1.1835937 0.1757813,0 0.3164063,0.082031 0.3164063,0.4570312 0,0.2109375 -0.035156,0.3164063 -0.1640625,0.8320313 z m 0,0"
         style="fill:#000000;fill-opacity:1;fill-rule:nonzero;stroke:none" />
    </g>
    <g
       id="g50"
       aria-label="∆θ"
       transform="matrix(1.3333333,0,0,1.3333333,231.50933,210.164)">
      <path
         id="path51"
         d="m 4.4051094,-6.9491719 c -0.070312,-0.1289062 -0.09375,-0.1875 -0.2578125,-0.1875 -0.1757813,0 -0.1992188,0.058594 -0.2578125,0.1875 l -3.37500002,6.75000003 c -0.046875,0.09375 -0.046875,0.10546875 -0.046875,0.1171875 0,0.082031245 0.0585937,0.082031245 0.22265625,0.082031245 H 7.6043281 c 0.1523438,0 0.2109375,0 0.2109375,-0.082031245 0,-0.01171875 0,-0.0234375 -0.046875,-0.1171875 z m -0.5859375,0.8085938 2.6835937,5.37890623 H 1.1355781 Z m 0,0"
         style="fill:#000000;fill-opacity:1;fill-rule:nonzero;stroke:none" />
      <path
         id="path52"
         d="m 12.83675,-4.9804219 c 0,-0.65625 -0.1875,-2.0390625 -1.195312,-2.0390625 -1.382813,0 -2.9179692,2.8007813 -2.9179692,5.0859375 0,0.93750003 0.28125,2.03906253 1.1953125,2.03906253 1.4062497,0 2.9179687,-2.85937503 2.9179687,-5.08593753 z m -3.0585937,1.359375 c 0.1640625,-0.6328125 0.3632817,-1.4296875 0.7617187,-2.1328125 0.269531,-0.4921875 0.644531,-1.0546875 1.089844,-1.0546875 0.492187,0 0.550781,0.6445313 0.550781,1.2070313 0,0.4921875 -0.08203,0.9960937 -0.328125,1.9804687 z m 1.9921877,0.328125 c -0.117188,0.4570313 -0.316406,1.3007813 -0.703125,2.015625 -0.339844,0.67968753 -0.726563,1.17187503 -1.1484377,1.17187503 -0.328125,0 -0.5390625,-0.29296875 -0.5390625,-1.21875003 0,-0.421875 0.058594,-0.9960937 0.3164062,-1.96875 z m 0,0"
         style="fill:#000000;fill-opacity:1;fill-rule:nonzero;stroke:none" />
    </g>
    <path
       id="path53"
       d="m 2.6364375,-3.7159141 h 1.125 c -0.328125,1.4765625 -0.4101562,1.8984375 -0.4101562,2.5664063 0,0.15234374 0,0.42187499 0.070312,0.76171874 0.1054687,0.43359375 0.2109375,0.4921875 0.3632812,0.4921875 0.1992188,0 0.4101563,-0.17578125 0.4101563,-0.375 0,-0.0585938 0,-0.0820313 -0.058594,-0.22265625 -0.292968,-0.71484379 -0.292968,-1.35937499 -0.292968,-1.64062499 0,-0.5273438 0.070312,-1.0664063 0.1757812,-1.5820313 h 1.1367188 c 0.1289062,0 0.4921875,0 0.4921875,-0.3398437 0,-0.234375 -0.2109375,-0.234375 -0.3984375,-0.234375 H 1.909875 c -0.2109375,0 -0.5976562,0 -1.03125,0.46875 -0.3515625,0.3867187 -0.609375,0.84375 -0.609375,0.890625 0,0.011719 0,0.1054687 0.1171875,0.1054687 0.0820313,0 0.10546875,-0.046875 0.1640625,-0.1289062 0.4804688,-0.7617188 1.0664063,-0.7617188 1.265625,-0.7617188 h 0.5625 c -0.3164062,1.2070313 -0.8554687,2.4140625 -1.2773437,3.31640629 -0.070312,0.15234375 -0.070312,0.1640625 -0.070312,0.234375 0,0.19921875 0.1523437,0.26953125 0.28125,0.26953125 0.3046875,0 0.3867187,-0.26953125 0.5039062,-0.64453125 C 1.95675,-0.99716406 1.95675,-1.0206016 2.0856563,-1.5127891 Z m 0,0"
       style="fill:#000000;fill-opacity:1;fill-rule:nonzero;stroke:none"
       aria-label="π"
       transform="matrix(1.3333333,0,0,1.3333333,195.016,272.50533)" />
    <path
       id="path54"
       d="M 0,0 H 6.036"
       style="fill:none;stroke:#000000;stroke-width:0.398;stroke-linecap:butt;stroke-linejoin:miter;stroke-miterlimit:10;stroke-dasharray:none;stroke-opacity:1"
       transform="matrix(1.3333333,0,0,-1.3333333,195.016,278.17067)" />
    <path
       id="path55"
       d="m 1.6279688,-4.5457734 c -0.46875,-0.3046875 -0.5039063,-0.6445313 -0.5039063,-0.8085938 0,-0.609375 0.6445313,-1.03125 1.359375,-1.03125 0.7265625,0 1.359375,0.515625 1.359375,1.2421875 0,0.5625 -0.3867187,1.0429688 -0.984375,1.3945313 z m 1.453125,0.9375 c 0.7148437,-0.3632813 1.2070312,-0.8789063 1.2070312,-1.5351563 0,-0.9257812 -0.890625,-1.4882812 -1.7929687,-1.4882812 -0.9960938,0 -1.80468755,0.7382812 -1.80468755,1.6640625 0,0.1757812 0.0117188,0.6210937 0.43359375,1.0898437 0.1054688,0.1289063 0.4804688,0.375 0.7265625,0.5390625 -0.5742187,0.2929688 -1.4296875,0.84375 -1.4296875,1.8398438 0,1.05468746 1.0078125,1.72265621 2.0625,1.72265621 1.125,0 2.0625,-0.83203125 2.0625,-1.89843751 0,-0.3515625 -0.1054687,-0.8085937 -0.4804687,-1.21875 -0.1875,-0.2109375 -0.3515625,-0.3164062 -0.984375,-0.7148437 z M 2.085,-3.1863984 3.30375,-2.4129609 c 0.28125,0.1875 0.75,0.4921875 0.75,1.1015625 0,0.73828121 -0.75,1.25390621 -1.5585937,1.25390621 -0.8671875,0 -1.5820313,-0.62109375 -1.5820313,-1.44140621 0,-0.5859375 0.3164063,-1.21875 1.171875,-1.6875 z m 0,0"
       style="fill:#000000;fill-opacity:1;fill-rule:nonzero;stroke:none"
       aria-label="8"
       transform="matrix(1.3333333,0,0,1.3333333,195.72,290.604)" />
    <g
       id="g55"
       aria-label="3π"
       transform="matrix(1.3333333,0,0,1.3333333,250.212,168.304)">
      <path
         id="path56"
         d="m 2.8937344,-3.5033906 c 0.8085937,-0.2695313 1.3945312,-0.9726563 1.3945312,-1.7578125 0,-0.8203125 -0.8789062,-1.3710938 -1.8398437,-1.3710938 -1.0078125,0 -1.75781252,0.5976563 -1.75781252,1.3476563 0,0.3398437 0.2109375,0.5273437 0.50390622,0.5273437 0.3046875,0 0.5039063,-0.2226562 0.5039063,-0.515625 0,-0.4921875 -0.46875,-0.4921875 -0.609375,-0.4921875 0.3046875,-0.4921875 0.9609375,-0.6210937 1.3242187,-0.6210937 0.4101563,0 0.9492188,0.2226562 0.9492188,1.1132812 0,0.1289063 -0.011719,0.703125 -0.2695313,1.1367188 -0.3046875,0.4804687 -0.6445312,0.515625 -0.890625,0.515625 -0.082031,0.011719 -0.3164062,0.035156 -0.3867187,0.035156 -0.082031,0.011719 -0.1523438,0.023437 -0.1523438,0.1171875 0,0.1171875 0.070312,0.1171875 0.234375,0.1171875 h 0.4453125 c 0.8085938,0 1.1835938,0.6679688 1.1835938,1.6523438 0,1.34765623 -0.6914063,1.64062498 -1.125,1.64062498 -0.4335938,0 -1.171875,-0.17578125 -1.52343752,-0.76171875 0.35156252,0.0585938 0.65625002,-0.1640625 0.65625002,-0.53906253 0,-0.3632812 -0.2695313,-0.5625 -0.56250002,-0.5625 -0.234375,0 -0.55078125,0.140625 -0.55078125,0.5742188 0,0.91406248 0.92578127,1.57031248 2.00390627,1.57031248 1.21875,0 2.1210937,-0.9140625 2.1210937,-1.92187498 0,-0.8203125 -0.6210937,-1.59375 -1.6523437,-1.8046873 z m 0,0"
         style="fill:#000000;fill-opacity:1;fill-rule:nonzero;stroke:none" />
      <path
         id="path57"
         d="m 7.6163906,-3.7143281 h 1.125 c -0.328125,1.4765625 -0.4101562,1.8984375 -0.4101562,2.5664062 0,0.15234378 0,0.42187503 0.070312,0.76171878 0.1054687,0.43359375 0.2109375,0.4921875 0.3632812,0.4921875 0.1992188,0 0.4101563,-0.17578125 0.4101563,-0.375 0,-0.0585938 0,-0.0820313 -0.058594,-0.22265625 -0.292968,-0.71484373 -0.292968,-1.35937503 -0.292968,-1.64062503 0,-0.5273437 0.070312,-1.0664062 0.1757812,-1.5820312 h 1.1367189 c 0.128906,0 0.492187,0 0.492187,-0.3398438 0,-0.234375 -0.210937,-0.234375 -0.398437,-0.234375 H 6.8898281 c -0.2109375,0 -0.5976562,0 -1.03125,0.46875 -0.3515625,0.3867188 -0.609375,0.84375 -0.609375,0.890625 0,0.011719 0,0.1054688 0.1171875,0.1054688 0.082031,0 0.1054688,-0.046875 0.1640625,-0.1289063 0.4804688,-0.7617187 1.0664063,-0.7617187 1.265625,-0.7617187 h 0.5625 c -0.3164062,1.2070312 -0.8554687,2.4140625 -1.2773437,3.31640623 -0.070312,0.15234375 -0.070312,0.1640625 -0.070312,0.234375 0,0.19921875 0.1523437,0.26953125 0.28125,0.26953125 0.3046875,0 0.3867187,-0.26953125 0.5039062,-0.64453125 0.140625,-0.45703125 0.140625,-0.48046873 0.2695313,-0.97265623 z m 0,0"
         style="fill:#000000;fill-opacity:1;fill-rule:nonzero;stroke:none" />
    </g>
    <path
       id="path58"
       d="M 0,0 H 11.018"
       style="fill:none;stroke:#000000;stroke-width:0.398;stroke-linecap:butt;stroke-linejoin:miter;stroke-miterlimit:10;stroke-dasharray:none;stroke-opacity:1"
       transform="matrix(1.3333333,0,0,-1.3333333,250.212,173.96933)" />
    <path
       id="path59"
       d="m 1.6276875,-4.5471172 c -0.46875,-0.3046875 -0.5039062,-0.6445312 -0.5039062,-0.8085937 0,-0.609375 0.6445312,-1.03125 1.359375,-1.03125 0.7265625,0 1.359375,0.515625 1.359375,1.2421875 0,0.5625 -0.3867188,1.0429687 -0.984375,1.3945312 z m 1.453125,0.9375 c 0.7148438,-0.3632812 1.2070313,-0.8789062 1.2070313,-1.5351562 0,-0.9257813 -0.890625,-1.4882813 -1.7929688,-1.4882813 -0.9960937,0 -1.8046875,0.7382813 -1.8046875,1.6640625 0,0.1757813 0.0117188,0.6210938 0.4335938,1.0898438 0.1054687,0.1289062 0.4804687,0.375 0.7265625,0.5390625 -0.5742188,0.2929687 -1.42968755,0.84375 -1.42968755,1.8398437 0,1.05468751 1.00781255,1.72265626 2.06250005,1.72265626 1.125,0 2.0625,-0.83203125 2.0625,-1.89843746 0,-0.3515625 -0.1054688,-0.8085938 -0.4804688,-1.21875 -0.1875,-0.2109375 -0.3515625,-0.3164063 -0.984375,-0.7148438 z m -0.9960937,0.421875 1.21875,0.7734375 c 0.28125,0.1875 0.75,0.4921875 0.75,1.1015625 0,0.73828126 -0.75,1.25390626 -1.5585938,1.25390626 -0.8671875,0 -1.58203125,-0.62109375 -1.58203125,-1.44140626 0,-0.5859375 0.31640625,-1.21875 1.17187505,-1.6875 z m 0,0"
       style="fill:#000000;fill-opacity:1;fill-rule:nonzero;stroke:none"
       aria-label="8"
       transform="matrix(1.3333333,0,0,1.3333333,254.236,186.40267)" />
    <path
       id="path60"
       d="M 42.4782,-1.42064 V 25.91098"
       style="fill:none;stroke:#000000;stroke-width:0.3985;stroke-linecap:butt;stroke-linejoin:miter;stroke-miterlimit:10;stroke-dasharray:2.98883, 2.98883;stroke-dashoffset:0;stroke-opacity:1"
       transform="matrix(1.3333333,0,0,-1.3333333,64.992,166.632)" />
    <path
       id="path61"
       d="M 127.43466,-4.26189 V 23.06972"
       style="fill:none;stroke:#000000;stroke-width:0.3985;stroke-linecap:butt;stroke-linejoin:miter;stroke-miterlimit:10;stroke-dasharray:2.98883, 2.98883;stroke-dashoffset:0;stroke-opacity:1"
       transform="matrix(1.3333333,0,0,-1.3333333,64.992,166.632)" />
    <path
       id="path62"
       d="m 86.17519,-72.04102 v 27.33164"
       style="fill:none;stroke:#000000;stroke-width:0.3985;stroke-linecap:butt;stroke-linejoin:miter;stroke-miterlimit:10;stroke-dasharray:2.98883, 2.98883;stroke-dashoffset:0;stroke-opacity:1"
       transform="matrix(1.3333333,0,0,-1.3333333,64.992,166.632)" />
    <path
       id="path63"
       d="M 28.72502,-24.01367 V 3.31793"
       style="fill:none;stroke:#000000;stroke-width:0.3985;stroke-linecap:butt;stroke-linejoin:miter;stroke-miterlimit:10;stroke-dasharray:2.98883, 2.98883;stroke-dashoffset:0;stroke-opacity:1"
       transform="matrix(1.3333333,0,0,-1.3333333,64.992,166.632)" />
    <path
       id="path64"
       d="m 42.4782,25.91098 84.95646,-2.84126 -41.25947,-67.7791 3.03101,2.20013 2.93488,2.27167 2.83742,2.34608 2.73961,2.4124 2.62616,2.4855 2.52237,2.54699 2.41176,2.60981 2.3013,2.66784 2.18292,2.72526 2.07075,2.77811 1.94773,2.82789 1.82911,2.87258 1.69692,2.91982 1.576,2.96066 1.44707,3.0009 1.3222,3.03271 1.18863,3.06527 1.05962,3.0928 0.9257,3.11734 0.79752,3.13869 0.65144,3.15831 0.52228,3.17303 0.38523,3.18244 0.25184,3.19287 v 0 L 86.17519,-44.70938 28.72502,3.31793 v 0 l 1.01036,0.73339 0.97829,0.75723 0.9458,0.78204 0.91321,0.80412 0.87539,0.82848 0.84079,0.84903 0.80391,0.8699 0.76709,0.8893 0.72768,0.90842 0.69025,0.92602 0.64921,0.94264 0.6097,0.95754 0.56566,0.97328 0.52533,0.98686 0.48236,1.00031 0.44073,1.01089 0.3962,1.02178 0.35321,1.03096 0.30857,1.03909 0.26584,1.04624 0.21717,1.05276 0.17407,1.05766 0.1284,1.06083 0.08396,1.06428 84.95646,-2.84126"
       style="fill:#eace2b;fill-opacity:0.75;fill-rule:nonzero;stroke:none"
       transform="matrix(1.3333333,0,0,-1.3333333,64.992,166.632)" />
    <path
       id="path65"
       d="m 243.7546,10.76784 61.97665,-130.43712"
       style="fill:none;stroke:#000000;stroke-width:0.79701;stroke-linecap:butt;stroke-linejoin:miter;stroke-miterlimit:10;stroke-dasharray:none;stroke-opacity:1"
       transform="matrix(1.3333333,0,0,-1.3333333,64.992,166.632)" />
    <path
       id="path66"
       d="M -1.55415,2.0722 C -1.42464,1.29512 0,0.1295 0.38852,0 0,-0.1295 -1.42464,-1.29512 -1.55415,-2.0722"
       style="fill:none;stroke:#000000;stroke-width:0.6376;stroke-linecap:round;stroke-linejoin:round;stroke-miterlimit:10;stroke-dasharray:none;stroke-opacity:1"
       transform="matrix(0.57216,1.20424,1.20424,-0.57216,472.63364,326.19104)" />
    <path
       id="path67"
       d="M 237.40132,0.331 386.55548,41.91603"
       style="fill:none;stroke:#000000;stroke-width:0.79701;stroke-linecap:butt;stroke-linejoin:miter;stroke-miterlimit:10;stroke-dasharray:none;stroke-opacity:1"
       transform="matrix(1.3333333,0,0,-1.3333333,64.992,166.632)" />
    <path
       id="path68"
       d="M -1.55415,2.0722 C -1.42464,1.29512 0,0.1295 0.38852,0 0,-0.1295 -1.42464,-1.29512 -1.55415,-2.0722"
       style="fill:none;stroke:#000000;stroke-width:0.6376;stroke-linecap:round;stroke-linejoin:round;stroke-miterlimit:10;stroke-dasharray:none;stroke-opacity:1"
       transform="matrix(1.2842667,-0.35805333,-0.35805333,-1.2842667,580.39931,110.74397)" />
    <path
       id="path69"
       d="M 247.39035,-3.7169 V 98.06935"
       style="fill:none;stroke:#000000;stroke-width:0.79701;stroke-linecap:butt;stroke-linejoin:miter;stroke-miterlimit:10;stroke-dasharray:none;stroke-opacity:1"
       transform="matrix(1.3333333,0,0,-1.3333333,64.992,166.632)" />
    <path
       id="path70"
       d="M -1.55415,2.0722 C -1.42464,1.29512 0,0.1295 0.38852,0 0,-0.1295 -1.42464,-1.29512 -1.55415,-2.0722"
       style="fill:none;stroke:#000000;stroke-width:0.6376;stroke-linecap:round;stroke-linejoin:round;stroke-miterlimit:10;stroke-dasharray:none;stroke-opacity:1"
       transform="matrix(0,-1.3333333,-1.3333333,0,394.8458,35.872867)" />
    <path
       id="path71"
       d="m 4.5365078,-4.9812578 c 0,-0.65625 -0.1875,-2.0390625 -1.1953125,-2.0390625 -1.3828125,0 -2.91796874,2.8007812 -2.91796874,5.0859375 0,0.93749999 0.28125,2.03906249 1.19531254,2.03906249 1.40625,0 2.9179687,-2.85937499 2.9179687,-5.08593749 z m -3.0585937,1.359375 c 0.1640625,-0.6328125 0.3632812,-1.4296875 0.7617187,-2.1328125 0.2695313,-0.4921875 0.6445313,-1.0546875 1.0898438,-1.0546875 0.4921875,0 0.5507812,0.6445312 0.5507812,1.2070312 0,0.4921875 -0.082031,0.9960938 -0.328125,1.9804688 z m 1.9921875,0.328125 c -0.1171875,0.4570312 -0.3164063,1.3007812 -0.703125,2.015625 -0.3398438,0.67968749 -0.7265625,1.17187499 -1.1484375,1.17187499 -0.328125,0 -0.5390625,-0.29296875 -0.5390625,-1.21874999 0,-0.421875 0.058594,-0.9960938 0.3164062,-1.96875 z m 0,0"
       style="fill:#000000;fill-opacity:1;fill-rule:nonzero;stroke:none"
       aria-label="θ"
       transform="matrix(1.3333333,0,0,1.3333333,472.97867,338.48933)" />
    <path
       id="path72"
       d="m 0.87982031,-0.58554687 c -0.0351563,0.15234375 -0.09375,0.375 -0.09375,0.421875 0,0.1875 0.140625,0.26953125 0.29296879,0.26953125 0.1171875,0 0.2929687,-0.0703125 0.3632812,-0.26953125 0.023437,-0.046875 0.3632813,-1.39453123 0.3984375,-1.58203123 0.082031,-0.328125 0.2578125,-1.0195313 0.3164063,-1.2890625 0.046875,-0.1289063 0.328125,-0.5976563 0.5625,-0.8203125 0.082031,-0.070312 0.375,-0.328125 0.796875,-0.328125 0.2578125,0 0.4101562,0.1171875 0.421875,0.1171875 -0.3046875,0.046875 -0.515625,0.2929687 -0.515625,0.5507812 0,0.1640625 0.1054687,0.3515625 0.375,0.3515625 0.2695312,0 0.5507812,-0.234375 0.5507812,-0.5859375 0,-0.3515625 -0.328125,-0.65625 -0.8320312,-0.65625 -0.6445313,0 -1.0898438,0.4921875 -1.2773438,0.7734375 -0.082031,-0.4570312 -0.4335937,-0.7734375 -0.9023437,-0.7734375 -0.45703129,0 -0.64453129,0.3867188 -0.73828129,0.5742188 -0.17578125,0.3398437 -0.3046875,0.9375 -0.3046875,0.9609375 0,0.1054687 0.09375,0.1054687 0.1171875,0.1054687 0.09375,0 0.10546875,-0.011719 0.1640625,-0.234375 0.17578125,-0.703125 0.375,-1.1835937 0.72656249,-1.1835937 0.1757813,0 0.3164063,0.082031 0.3164063,0.4570312 0,0.2109375 -0.035156,0.3164063 -0.1640625,0.8320313 z m 0,0"
       style="fill:#000000;fill-opacity:1;fill-rule:nonzero;stroke:none"
       aria-label="r"
       transform="matrix(1.3333333,0,0,1.3333333,583.448,111.86667)" />
    <path
       id="path73"
       d="M 1.3239219,-0.83070312 C 1.8629844,-1.4049219 2.1559531,-1.6510156 2.5075156,-1.9557031 c 0,-0.011719 0.6210938,-0.5390625 0.984375,-0.9023438 0.9375,-0.9257812 1.1601563,-1.40625 1.1601563,-1.4414062 0,-0.1054688 -0.09375,-0.1054688 -0.1054688,-0.1054688 -0.070312,0 -0.1054687,0.023437 -0.1523437,0.1171875 -0.3046875,0.46875 -0.5039063,0.6328125 -0.75,0.6328125 -0.234375,0 -0.3515625,-0.1523437 -0.5039063,-0.3164062 -0.1875,-0.234375 -0.3632812,-0.4335938 -0.6914062,-0.4335938 -0.75,0 -1.2070313,0.9257813 -1.2070313,1.1367188 0,0.046875 0.035156,0.1171875 0.1171875,0.1171875 0.09375,0 0.1171875,-0.058594 0.140625,-0.1171875 0.1875,-0.4570313 0.7617188,-0.46875 0.84375,-0.46875 0.2109375,0 0.3984375,0.070312 0.6210938,0.1523437 0.3984375,0.1523438 0.515625,0.1523438 0.7734375,0.1523438 -0.3632813,0.421875 -1.1953125,1.1367187 -1.3828125,1.3007812 l -0.9023438,0.8320313 c -0.67968748,0.66796873 -1.01953123,1.24218748 -1.01953123,1.31249998 0,0.09375 0.09375,0.09375 0.1171875,0.09375 0.0820313,0 0.09375,-0.01171875 0.15234375,-0.12890625 0.234375,-0.33984375 0.52734378,-0.609375 0.85546878,-0.609375 0.2226562,0 0.328125,0.0820313 0.5742187,0.375 0.1640625,0.2109375 0.3515625,0.36328125 0.6328125,0.36328125 0.984375,0 1.5703125,-1.26562498 1.5703125,-1.53515628 0,-0.046875 -0.046875,-0.09375 -0.1171875,-0.09375 -0.09375,0 -0.1171875,0.058594 -0.140625,0.1289063 -0.234375,0.64453123 -0.8671875,0.83203123 -1.1953125,0.83203123 -0.1992187,0 -0.3867187,-0.0585938 -0.5859375,-0.12890625 -0.3398437,-0.12890625 -0.4921875,-0.1640625 -0.703125,-0.1640625 -0.023437,0 -0.1757812,0 -0.2695312,0.0234375 z m 0,0"
       style="fill:#000000;fill-opacity:1;fill-rule:nonzero;stroke:none"
       aria-label="z"
       transform="matrix(1.3333333,0,0,1.3333333,391.46133,34.146667)" />
    <path
       id="path74"
       d="m 259.52007,-34.31645 9.98903,2.78497"
       style="fill:none;stroke:#000000;stroke-width:0.3985;stroke-linecap:butt;stroke-linejoin:miter;stroke-miterlimit:10;stroke-dasharray:none;stroke-opacity:1"
       transform="matrix(1.3333333,0,0,-1.3333333,64.992,166.632)" />
    <path
       id="path75"
       d="m 2.6366016,-3.7159062 h 1.125 c -0.328125,1.4765625 -0.4101563,1.8984375 -0.4101563,2.5664062 0,0.15234375 0,0.421875 0.070312,0.76171875 0.1054688,0.43359375 0.2109375,0.4921875 0.3632813,0.4921875 0.1992187,0 0.4101562,-0.17578125 0.4101562,-0.375 0,-0.0585938 0,-0.0820313 -0.058594,-0.22265625 C 3.843632,-1.2080937 3.843632,-1.852625 3.843632,-2.133875 c 0,-0.5273437 0.070312,-1.0664062 0.1757813,-1.5820312 H 5.156132 c 0.1289063,0 0.4921875,0 0.4921875,-0.3398438 0,-0.234375 -0.2109375,-0.234375 -0.3984375,-0.234375 H 1.9100391 c -0.2109375,0 -0.5976563,0 -1.03125004,0.46875 -0.3515625,0.3867188 -0.609375,0.84375 -0.609375,0.890625 0,0.011719 0,0.1054688 0.1171875,0.1054688 0.0820313,0 0.10546875,-0.046875 0.1640625,-0.1289063 C 1.0311328,-3.7159062 1.6170703,-3.7159062 1.8162891,-3.7159062 h 0.5625 C 2.0623828,-2.508875 1.5233203,-1.3018437 1.1014453,-0.3995 c -0.070312,0.15234375 -0.070312,0.1640625 -0.070312,0.234375 0,0.19921875 0.1523438,0.26953125 0.28125,0.26953125 0.3046875,0 0.3867188,-0.26953125 0.5039063,-0.64453125 0.140625,-0.45703125 0.140625,-0.4804687 0.2695312,-0.9726562 z m 0,0"
       style="fill:#000000;fill-opacity:1;fill-rule:nonzero;stroke:none"
       aria-label="π"
       transform="matrix(1.3333333,0,0,1.3333333,392.34,210.28267)" />
    <path
       id="path76"
       d="M 0,0 H 6.036"
       style="fill:none;stroke:#000000;stroke-width:0.398;stroke-linecap:butt;stroke-linejoin:miter;stroke-miterlimit:10;stroke-dasharray:none;stroke-opacity:1"
       transform="matrix(1.3333333,0,0,-1.3333333,392.34,215.948)" />
    <path
       id="path77"
       d="m 1.6281328,-4.5476953 c -0.46875,-0.3046875 -0.5039062,-0.6445313 -0.5039062,-0.8085938 0,-0.609375 0.6445312,-1.03125 1.359375,-1.03125 0.7265625,0 1.359375,0.515625 1.359375,1.2421875 0,0.5625 -0.3867188,1.0429688 -0.984375,1.3945313 z m 1.453125,0.9375 c 0.7148438,-0.3632813 1.2070313,-0.8789063 1.2070313,-1.5351563 0,-0.9257812 -0.890625,-1.4882812 -1.7929688,-1.4882812 -0.9960937,0 -1.80468749,0.7382812 -1.80468749,1.6640625 0,0.1757812 0.0117188,0.6210937 0.43359379,1.0898437 0.1054687,0.1289063 0.4804687,0.375 0.7265625,0.5390625 -0.5742188,0.2929688 -1.42968754,0.84375 -1.42968754,1.8398438 0,1.05468749 1.00781254,1.72265624 2.06250004,1.72265624 1.125,0 2.0625,-0.83203125 2.0625,-1.89843754 0,-0.3515625 -0.1054688,-0.8085937 -0.4804688,-1.21875 -0.1875,-0.2109375 -0.3515625,-0.3164062 -0.984375,-0.7148437 z m -0.9960937,0.421875 1.21875,0.7734375 c 0.28125,0.1875 0.75,0.4921875 0.75,1.1015625 0,0.73828124 -0.75,1.25390624 -1.5585938,1.25390624 -0.8671875,0 -1.58203124,-0.62109375 -1.58203124,-1.44140624 0,-0.5859375 0.31640624,-1.21875 1.17187504,-1.6875 z m 0,0"
       style="fill:#000000;fill-opacity:1;fill-rule:nonzero;stroke:none"
       aria-label="8"
       transform="matrix(1.3333333,0,0,1.3333333,393.044,228.38)" />
    <path
       id="path78"
       d="m 293.76877,-106.39691 9.98903,2.78497"
       style="fill:none;stroke:#000000;stroke-width:0.3985;stroke-linecap:butt;stroke-linejoin:miter;stroke-miterlimit:10;stroke-dasharray:none;stroke-opacity:1"
       transform="matrix(1.3333333,0,0,-1.3333333,64.992,166.632)" />
    <g
       id="g78"
       aria-label="3π"
       transform="matrix(1.3333333,0,0,1.3333333,434.684,307.80933)">
      <path
         id="path79"
         d="m 2.8942266,-3.5044609 c 0.8085937,-0.2695313 1.3945312,-0.9726563 1.3945312,-1.7578125 0,-0.8203125 -0.8789062,-1.3710938 -1.8398437,-1.3710938 -1.0078125,0 -1.75781254,0.5976563 -1.75781254,1.3476563 0,0.3398437 0.2109375,0.5273437 0.50390624,0.5273437 0.3046875,0 0.5039063,-0.2226562 0.5039063,-0.515625 0,-0.4921875 -0.46875,-0.4921875 -0.609375,-0.4921875 0.3046875,-0.4921875 0.9609375,-0.6210937 1.3242187,-0.6210937 0.4101563,0 0.9492188,0.2226562 0.9492188,1.1132812 0,0.1289063 -0.011719,0.703125 -0.2695313,1.1367188 -0.3046875,0.4804687 -0.6445312,0.515625 -0.890625,0.515625 -0.082031,0.011719 -0.3164062,0.035156 -0.3867187,0.035156 -0.082031,0.011719 -0.1523438,0.023437 -0.1523438,0.1171875 0,0.1171875 0.070312,0.1171875 0.234375,0.1171875 h 0.4453125 c 0.8085938,0 1.1835938,0.6679688 1.1835938,1.6523438 0,1.34765621 -0.6914063,1.64062496 -1.125,1.64062496 -0.4335938,0 -1.171875,-0.17578125 -1.52343754,-0.76171875 0.35156254,0.0585938 0.65625004,-0.1640625 0.65625004,-0.53906251 0,-0.3632812 -0.2695313,-0.5625 -0.56250004,-0.5625 -0.234375,0 -0.55078125,0.140625 -0.55078125,0.5742188 0,0.91406246 0.92578129,1.57031246 2.00390629,1.57031246 1.21875,0 2.1210937,-0.9140625 2.1210937,-1.92187496 0,-0.8203125 -0.6210937,-1.59375 -1.6523437,-1.8046873 z m 0,0"
         style="fill:#000000;fill-opacity:1;fill-rule:nonzero;stroke:none" />
      <path
         id="path80"
         d="m 7.6168828,-3.7153984 h 1.125 c -0.328125,1.4765625 -0.4101562,1.8984375 -0.4101562,2.5664062 0,0.15234376 0,0.42187501 0.070312,0.76171876 0.1054687,0.43359375 0.2109375,0.4921875 0.3632812,0.4921875 0.1992188,0 0.4101563,-0.17578125 0.4101563,-0.375 0,-0.0585938 0,-0.0820313 -0.058594,-0.22265625 -0.292968,-0.71484371 -0.292968,-1.35937501 -0.292968,-1.64062501 0,-0.5273437 0.070312,-1.0664062 0.1757812,-1.5820312 h 1.1367187 c 0.128906,0 0.492188,0 0.492188,-0.3398438 0,-0.234375 -0.210938,-0.234375 -0.398438,-0.234375 H 6.8903203 c -0.2109375,0 -0.5976562,0 -1.03125,0.46875 -0.3515625,0.3867188 -0.609375,0.84375 -0.609375,0.890625 0,0.011719 0,0.1054688 0.1171875,0.1054688 0.082031,0 0.1054688,-0.046875 0.1640625,-0.1289063 0.4804688,-0.7617187 1.0664063,-0.7617187 1.265625,-0.7617187 h 0.5625 c -0.3164062,1.2070312 -0.8554687,2.4140625 -1.2773437,3.31640621 -0.070312,0.15234375 -0.070312,0.1640625 -0.070312,0.234375 0,0.19921875 0.1523437,0.26953125 0.28125,0.26953125 0.3046875,0 0.3867187,-0.26953125 0.5039062,-0.64453125 0.140625,-0.45703125 0.140625,-0.48046871 0.2695313,-0.97265621 z m 0,0"
         style="fill:#000000;fill-opacity:1;fill-rule:nonzero;stroke:none" />
    </g>
    <path
       id="path81"
       d="M 0,0 H 11.018"
       style="fill:none;stroke:#000000;stroke-width:0.398;stroke-linecap:butt;stroke-linejoin:miter;stroke-miterlimit:10;stroke-dasharray:none;stroke-opacity:1"
       transform="matrix(1.3333333,0,0,-1.3333333,434.684,313.47467)" />
    <path
       id="path82"
       d="m 1.6281797,-4.5471875 c -0.46875,-0.3046875 -0.5039063,-0.6445312 -0.5039063,-0.8085937 0,-0.609375 0.6445313,-1.03125 1.359375,-1.03125 0.7265625,0 1.359375,0.515625 1.359375,1.2421875 0,0.5625 -0.3867187,1.0429687 -0.984375,1.3945312 z m 1.453125,0.9375 c 0.7148437,-0.3632812 1.2070312,-0.8789062 1.2070312,-1.5351562 0,-0.9257813 -0.890625,-1.4882813 -1.7929687,-1.4882813 -0.9960938,0 -1.80468751,0.7382813 -1.80468751,1.6640625 0,0.1757813 0.0117188,0.6210938 0.43359371,1.0898438 0.1054688,0.1289062 0.4804688,0.375 0.7265625,0.5390625 -0.5742187,0.2929687 -1.42968746,0.84375 -1.42968746,1.8398437 0,1.0546875 1.00781246,1.72265625 2.06249996,1.72265625 1.125,0 2.0625,-0.83203125 2.0625,-1.89843745 0,-0.3515625 -0.1054687,-0.8085938 -0.4804687,-1.21875 -0.1875,-0.2109375 -0.3515625,-0.3164063 -0.984375,-0.7148438 z m -0.9960938,0.421875 1.21875,0.7734375 c 0.28125,0.1875 0.75,0.4921875 0.75,1.1015625 0,0.73828125 -0.75,1.25390625 -1.5585937,1.25390625 -0.8671875,0 -1.58203126,-0.62109375 -1.58203126,-1.44140625 0,-0.5859375 0.31640626,-1.21875 1.17187496,-1.6875 z m 0,0"
       style="fill:#000000;fill-opacity:1;fill-rule:nonzero;stroke:none"
       aria-label="8"
       transform="matrix(1.3333333,0,0,1.3333333,438.708,325.90667)" />
    <path
       id="path83"
       d="m 285.5286,18.08191 3.63575,-7.65186"
       style="fill:none;stroke:#000000;stroke-width:0.3985;stroke-linecap:butt;stroke-linejoin:miter;stroke-miterlimit:10;stroke-dasharray:none;stroke-opacity:1"
       transform="matrix(1.3333333,0,0,-1.3333333,64.992,166.632)" />
    <path
       id="path84"
       d="m 2.9291094,-6.3739531 c 0,-0.234375 0,-0.2578125 -0.234375,-0.2578125 -0.609375,0.6328125 -1.4882813,0.6328125 -1.80468752,0.6328125 v 0.3164062 c 0.19921872,0 0.78515622,0 1.30078122,-0.2578125 v 5.15625003 c 0,0.3515625 -0.035156,0.48046875 -0.9257812,0.48046875 H 0.94864063 v 0.3046875 C 1.3002031,-0.03410937 2.1556719,-0.03410937 2.5541094,-0.03410937 c 0.3984375,0 1.265625,0 1.6171875,0.03515625 v -0.3046875 H 3.8548906 c -0.9023437,0 -0.9257812,-0.1171875 -0.9257812,-0.48046875 z m 0,0"
       style="fill:#000000;fill-opacity:1;fill-rule:nonzero;stroke:none"
       aria-label="1"
       transform="matrix(1.3333333,0,0,1.3333333,438.97733,139.66267)" />
    <path
       id="path85"
       d="m 365.44087,40.36191 3.63574,-7.65186"
       style="fill:none;stroke:#000000;stroke-width:0.3985;stroke-linecap:butt;stroke-linejoin:miter;stroke-miterlimit:10;stroke-dasharray:none;stroke-opacity:1"
       transform="matrix(1.3333333,0,0,-1.3333333,64.992,166.632)" />
    <path
       id="path86"
       d="m 2.8931094,-3.5031328 c 0.8085937,-0.2695313 1.3945312,-0.9726563 1.3945312,-1.7578125 0,-0.8203125 -0.8789062,-1.3710938 -1.8398437,-1.3710938 -1.0078125,0 -1.75781252,0.5976563 -1.75781252,1.3476563 0,0.3398437 0.2109375,0.5273437 0.50390622,0.5273437 0.3046875,0 0.5039063,-0.2226562 0.5039063,-0.515625 0,-0.4921875 -0.46875,-0.4921875 -0.609375,-0.4921875 0.3046875,-0.4921875 0.9609375,-0.6210937 1.3242187,-0.6210937 0.4101563,0 0.9492188,0.2226562 0.9492188,1.1132812 0,0.1289063 -0.011719,0.703125 -0.2695313,1.1367188 -0.3046875,0.4804687 -0.6445312,0.515625 -0.890625,0.515625 -0.082031,0.011719 -0.3164062,0.035156 -0.3867187,0.035156 -0.082031,0.011719 -0.1523438,0.023437 -0.1523438,0.1171875 0,0.1171875 0.070312,0.1171875 0.234375,0.1171875 h 0.4453125 c 0.8085938,0 1.1835938,0.6679688 1.1835938,1.6523438 0,1.34765624 -0.6914063,1.64062499 -1.125,1.64062499 -0.4335938,0 -1.171875,-0.17578125 -1.52343752,-0.76171875 0.35156252,0.0585938 0.65625002,-0.1640625 0.65625002,-0.53906254 0,-0.3632812 -0.2695313,-0.5625 -0.56250002,-0.5625 -0.234375,0 -0.55078125,0.140625 -0.55078125,0.5742188 0,0.91406249 0.92578127,1.57031249 2.00390627,1.57031249 1.21875,0 2.1210937,-0.9140625 2.1210937,-1.92187499 0,-0.8203125 -0.6210937,-1.59375 -1.6523437,-1.8046873 z m 0,0"
       style="fill:#000000;fill-opacity:1;fill-rule:nonzero;stroke:none"
       aria-label="3"
       transform="matrix(1.3333333,0,0,1.3333333,545.52533,109.956)" />
    <path
       id="path87"
       d="m 242.39584,29.05515 9.989,2.78495"
       style="fill:none;stroke:#000000;stroke-width:0.3985;stroke-linecap:butt;stroke-linejoin:miter;stroke-miterlimit:10;stroke-dasharray:none;stroke-opacity:1"
       transform="matrix(1.3333333,0,0,-1.3333333,64.992,166.632)" />
    <path
       id="path88"
       d="m 2.9300312,-6.3735625 c 0,-0.234375 0,-0.2578125 -0.234375,-0.2578125 -0.609375,0.6328125 -1.4882812,0.6328125 -1.80468745,0.6328125 v 0.3164063 c 0.19921875,0 0.78515625,0 1.30078125,-0.2578125 v 5.15624995 c 0,0.3515625 -0.035156,0.48046875 -0.9257813,0.48046875 H 0.9495625 v 0.3046875 c 0.3515625,-0.03515625 1.2070312,-0.03515625 1.6054687,-0.03515625 0.3984375,0 1.265625,0 1.6171875,0.03515625 V -0.30325 H 3.8558125 c -0.9023438,0 -0.9257813,-0.1171875 -0.9257813,-0.48046875 z m 0,0"
       style="fill:#000000;fill-opacity:1;fill-rule:nonzero;stroke:none"
       aria-label="1"
       transform="matrix(1.3333333,0,0,1.3333333,378.20267,134.02933)" />
    <path
       id="path89"
       d="m 242.39584,83.71841 9.989,2.78498"
       style="fill:none;stroke:#000000;stroke-width:0.3985;stroke-linecap:butt;stroke-linejoin:miter;stroke-miterlimit:10;stroke-dasharray:none;stroke-opacity:1"
       transform="matrix(1.3333333,0,0,-1.3333333,64.992,166.632)" />
    <path
       id="path90"
       d="m 2.894875,-3.5025781 c 0.8085937,-0.2695313 1.3945312,-0.9726563 1.3945312,-1.7578125 0,-0.8203125 -0.8789062,-1.3710938 -1.8398437,-1.3710938 -1.0078125,0 -1.7578125,0.5976563 -1.7578125,1.3476563 0,0.3398437 0.2109375,0.5273437 0.5039062,0.5273437 0.3046875,0 0.5039063,-0.2226562 0.5039063,-0.515625 0,-0.4921875 -0.46875,-0.4921875 -0.609375,-0.4921875 0.3046875,-0.4921875 0.9609375,-0.6210937 1.3242187,-0.6210937 0.4101563,0 0.9492188,0.2226562 0.9492188,1.1132812 0,0.1289063 -0.011719,0.703125 -0.2695313,1.1367188 -0.3046875,0.4804687 -0.6445312,0.515625 -0.890625,0.515625 -0.082031,0.011719 -0.3164062,0.035156 -0.3867187,0.035156 -0.082031,0.011719 -0.1523438,0.023437 -0.1523438,0.1171875 0,0.1171875 0.070312,0.1171875 0.234375,0.1171875 h 0.4453125 c 0.8085938,0 1.1835938,0.6679688 1.1835938,1.6523438 0,1.34765623 -0.6914063,1.64062498 -1.125,1.64062498 -0.4335938,0 -1.171875,-0.17578125 -1.5234375,-0.76171875 0.3515625,0.0585938 0.65625,-0.1640625 0.65625,-0.53906253 0,-0.3632812 -0.2695313,-0.5625 -0.5625,-0.5625 -0.234375,0 -0.55078125,0.140625 -0.55078125,0.5742188 0,0.91406248 0.92578125,1.57031248 2.00390625,1.57031248 1.21875,0 2.1210937,-0.9140625 2.1210937,-1.92187498 0,-0.8203125 -0.6210937,-1.59375 -1.6523437,-1.8046873 z m 0,0"
       style="fill:#000000;fill-opacity:1;fill-rule:nonzero;stroke:none"
       aria-label="3"
       transform="matrix(1.3333333,0,0,1.3333333,378.20267,61.146667)" />
    <path
       id="path91"
       d="m 264.51457,-32.92397 39.95613,11.14"
       style="fill:none;stroke:#000000;stroke-width:0.3985;stroke-linecap:butt;stroke-linejoin:miter;stroke-miterlimit:10;stroke-dasharray:2.98883, 2.98883;stroke-dashoffset:0;stroke-opacity:1"
       transform="matrix(1.3333333,0,0,-1.3333333,64.992,166.632)" />
    <path
       id="path92"
       d="M 304.4707,-21.78397 384.38298,0.49602"
       style="fill:none;stroke:#e81c2b;stroke-width:0.79701;stroke-linecap:butt;stroke-linejoin:miter;stroke-miterlimit:10;stroke-dasharray:none;stroke-opacity:1"
       transform="matrix(1.3333333,0,0,-1.3333333,64.992,166.632)" />
    <path
       id="path93"
       d="m 271.36421,-47.33986 39.95613,11.13999"
       style="fill:none;stroke:#000000;stroke-width:0.3985;stroke-linecap:butt;stroke-linejoin:miter;stroke-miterlimit:10;stroke-dasharray:2.98883, 2.98883;stroke-dashoffset:0;stroke-opacity:1"
       transform="matrix(1.3333333,0,0,-1.3333333,64.992,166.632)" />
    <path
       id="path94"
       d="m 311.32034,-36.19987 79.91228,22.28001"
       style="fill:none;stroke:#e81c2b;stroke-width:0.79701;stroke-linecap:butt;stroke-linejoin:miter;stroke-miterlimit:10;stroke-dasharray:none;stroke-opacity:1"
       transform="matrix(1.3333333,0,0,-1.3333333,64.992,166.632)" />
    <path
       id="path95"
       d="m 278.2139,-61.7558 39.95613,11.14002"
       style="fill:none;stroke:#000000;stroke-width:0.3985;stroke-linecap:butt;stroke-linejoin:miter;stroke-miterlimit:10;stroke-dasharray:2.98883, 2.98883;stroke-dashoffset:0;stroke-opacity:1"
       transform="matrix(1.3333333,0,0,-1.3333333,64.992,166.632)" />
    <path
       id="path96"
       d="m 318.17003,-50.61578 79.91226,22.28"
       style="fill:none;stroke:#e81c2b;stroke-width:0.79701;stroke-linecap:butt;stroke-linejoin:miter;stroke-miterlimit:10;stroke-dasharray:none;stroke-opacity:1"
       transform="matrix(1.3333333,0,0,-1.3333333,64.992,166.632)" />
    <path
       id="path97"
       d="m 285.06377,-76.17215 39.95613,11.14001"
       style="fill:none;stroke:#000000;stroke-width:0.3985;stroke-linecap:butt;stroke-linejoin:miter;stroke-miterlimit:10;stroke-dasharray:2.98883, 2.98883;stroke-dashoffset:0;stroke-opacity:1"
       transform="matrix(1.3333333,0,0,-1.3333333,64.992,166.632)" />
    <path
       id="path98"
       d="m 325.0199,-65.03214 79.91227,22.28"
       style="fill:none;stroke:#e81c2b;stroke-width:0.79701;stroke-linecap:butt;stroke-linejoin:miter;stroke-miterlimit:10;stroke-dasharray:none;stroke-opacity:1"
       transform="matrix(1.3333333,0,0,-1.3333333,64.992,166.632)" />
    <path
       id="path99"
       d="m 291.9134,-90.58804 39.95615,11.14"
       style="fill:none;stroke:#000000;stroke-width:0.3985;stroke-linecap:butt;stroke-linejoin:miter;stroke-miterlimit:10;stroke-dasharray:2.98883, 2.98883;stroke-dashoffset:0;stroke-opacity:1"
       transform="matrix(1.3333333,0,0,-1.3333333,64.992,166.632)" />
    <path
       id="path100"
       d="m 331.86955,-79.44804 79.91226,22.28001"
       style="fill:none;stroke:#e81c2b;stroke-width:0.79701;stroke-linecap:butt;stroke-linejoin:miter;stroke-miterlimit:10;stroke-dasharray:none;stroke-opacity:1"
       transform="matrix(1.3333333,0,0,-1.3333333,64.992,166.632)" />
    <path
       id="path101"
       d="m 298.76329,-105.00443 39.95613,11.14"
       style="fill:none;stroke:#000000;stroke-width:0.3985;stroke-linecap:butt;stroke-linejoin:miter;stroke-miterlimit:10;stroke-dasharray:2.98883, 2.98883;stroke-dashoffset:0;stroke-opacity:1"
       transform="matrix(1.3333333,0,0,-1.3333333,64.992,166.632)" />
    <path
       id="path102"
       d="m 338.71942,-93.86443 79.91228,22.28"
       style="fill:none;stroke:#e81c2b;stroke-width:0.79701;stroke-linecap:butt;stroke-linejoin:miter;stroke-miterlimit:10;stroke-dasharray:none;stroke-opacity:1"
       transform="matrix(1.3333333,0,0,-1.3333333,64.992,166.632)" />
    <path
       id="path103"
       d="M 287.34648,14.25598 304.4707,-21.78397"
       style="fill:none;stroke:#000000;stroke-width:0.3985;stroke-linecap:butt;stroke-linejoin:miter;stroke-miterlimit:10;stroke-dasharray:2.98883, 2.98883;stroke-dashoffset:0;stroke-opacity:1"
       transform="matrix(1.3333333,0,0,-1.3333333,64.992,166.632)" />
    <path
       id="path104"
       d="m 304.4707,-21.78397 34.24872,-72.08046"
       style="fill:none;stroke:#449fe3;stroke-width:0.79701;stroke-linecap:butt;stroke-linejoin:miter;stroke-miterlimit:10;stroke-dasharray:none;stroke-opacity:1"
       transform="matrix(1.3333333,0,0,-1.3333333,64.992,166.632)" />
    <path
       id="path105"
       d="m 307.32454,19.82597 17.12424,-36.03996"
       style="fill:none;stroke:#000000;stroke-width:0.3985;stroke-linecap:butt;stroke-linejoin:miter;stroke-miterlimit:10;stroke-dasharray:2.98883, 2.98883;stroke-dashoffset:0;stroke-opacity:1"
       transform="matrix(1.3333333,0,0,-1.3333333,64.992,166.632)" />
    <path
       id="path106"
       d="m 324.44878,-16.21399 34.2487,-72.08044"
       style="fill:none;stroke:#449fe3;stroke-width:0.79701;stroke-linecap:butt;stroke-linejoin:miter;stroke-miterlimit:10;stroke-dasharray:none;stroke-opacity:1"
       transform="matrix(1.3333333,0,0,-1.3333333,64.992,166.632)" />
    <path
       id="path107"
       d="m 327.30261,25.396 17.12422,-36.03997"
       style="fill:none;stroke:#000000;stroke-width:0.3985;stroke-linecap:butt;stroke-linejoin:miter;stroke-miterlimit:10;stroke-dasharray:2.98883, 2.98883;stroke-dashoffset:0;stroke-opacity:1"
       transform="matrix(1.3333333,0,0,-1.3333333,64.992,166.632)" />
    <path
       id="path108"
       d="m 344.42683,-10.64397 34.24872,-72.08044"
       style="fill:none;stroke:#449fe3;stroke-width:0.79701;stroke-linecap:butt;stroke-linejoin:miter;stroke-miterlimit:10;stroke-dasharray:none;stroke-opacity:1"
       transform="matrix(1.3333333,0,0,-1.3333333,64.992,166.632)" />
    <path
       id="path109"
       d="M 347.28067,30.96599 364.4049,-5.07397"
       style="fill:none;stroke:#000000;stroke-width:0.3985;stroke-linecap:butt;stroke-linejoin:miter;stroke-miterlimit:10;stroke-dasharray:2.98883, 2.98883;stroke-dashoffset:0;stroke-opacity:1"
       transform="matrix(1.3333333,0,0,-1.3333333,64.992,166.632)" />
    <path
       id="path110"
       d="m 364.4049,-5.07397 34.24873,-72.08045"
       style="fill:none;stroke:#449fe3;stroke-width:0.79701;stroke-linecap:butt;stroke-linejoin:miter;stroke-miterlimit:10;stroke-dasharray:none;stroke-opacity:1"
       transform="matrix(1.3333333,0,0,-1.3333333,64.992,166.632)" />
    <path
       id="path111"
       d="M 367.25874,36.53598 384.38298,0.49602"
       style="fill:none;stroke:#000000;stroke-width:0.3985;stroke-linecap:butt;stroke-linejoin:miter;stroke-miterlimit:10;stroke-dasharray:2.98883, 2.98883;stroke-dashoffset:0;stroke-opacity:1"
       transform="matrix(1.3333333,0,0,-1.3333333,64.992,166.632)" />
    <path
       id="path112"
       d="M 384.38298,0.49602 418.6317,-71.58443"
       style="fill:none;stroke:#449fe3;stroke-width:0.79701;stroke-linecap:butt;stroke-linejoin:miter;stroke-miterlimit:10;stroke-dasharray:none;stroke-opacity:1"
       transform="matrix(1.3333333,0,0,-1.3333333,64.992,166.632)" />
    <g
       id="g112"
       aria-label="∆r"
       transform="matrix(1.3333333,0,0,1.3333333,553.03867,296.1)">
      <path
         id="path113"
         d="m 4.4065469,-6.9480469 c -0.070312,-0.1289062 -0.09375,-0.1875 -0.2578125,-0.1875 -0.1757813,0 -0.1992188,0.058594 -0.2578125,0.1875 l -3.37500002,6.75000003 c -0.046875,0.09375 -0.046875,0.10546875 -0.046875,0.1171875 0,0.08203125 0.0585938,0.08203125 0.22265625,0.08203125 H 7.6057656 c 0.1523438,0 0.2109375,0 0.2109375,-0.08203125 0,-0.01171875 0,-0.0234375 -0.046875,-0.1171875 z m -0.5859375,0.8085938 2.6835937,5.37890623 H 1.1370156 Z m 0,0"
         style="fill:#000000;fill-opacity:1;fill-rule:nonzero;stroke:none" />
      <path
         id="path114"
         d="m 9.1819375,-0.58476562 c -0.035156,0.15234375 -0.09375,0.375 -0.09375,0.421875 0,0.1875 0.140625,0.26953125 0.2929688,0.26953125 0.1171875,0 0.2929687,-0.0703125 0.3632812,-0.26953125 0.023437,-0.046875 0.3632815,-1.39453128 0.3984375,-1.58203128 0.08203,-0.328125 0.257813,-1.0195312 0.316406,-1.2890625 0.04687,-0.1289062 0.328125,-0.5976562 0.5625,-0.8203125 0.08203,-0.070312 0.375,-0.328125 0.796875,-0.328125 0.257813,0 0.410157,0.1171875 0.421875,0.1171875 -0.304687,0.046875 -0.515625,0.2929688 -0.515625,0.5507813 0,0.1640625 0.105469,0.3515625 0.375,0.3515625 0.269532,0 0.550782,-0.234375 0.550782,-0.5859375 0,-0.3515625 -0.328125,-0.65625 -0.832032,-0.65625 -0.644531,0 -1.089843,0.4921875 -1.277343,0.7734375 -0.08203,-0.4570313 -0.433594,-0.7734375 -0.9023442,-0.7734375 -0.4570313,0 -0.6445313,0.3867187 -0.7382813,0.5742187 C 8.7249063,-3.4910156 8.596,-2.8933594 8.596,-2.8699219 c 0,0.1054688 0.09375,0.1054688 0.1171875,0.1054688 0.09375,0 0.1054688,-0.011719 0.1640625,-0.234375 0.1757813,-0.703125 0.375,-1.1835938 0.7265625,-1.1835938 0.1757813,0 0.3164063,0.082031 0.3164063,0.4570313 0,0.2109375 -0.035156,0.3164062 -0.1640625,0.8320312 z m 0,0"
         style="fill:#000000;fill-opacity:1;fill-rule:nonzero;stroke:none" />
    </g>
    <g
       id="g114"
       aria-label="∆θ"
       transform="matrix(1.3333333,0,0,1.3333333,611.744,235.868)">
      <path
         id="path115"
         d="m 4.4048906,-6.9498281 c -0.070312,-0.1289063 -0.09375,-0.1875 -0.2578125,-0.1875 -0.1757812,0 -0.1992187,0.058594 -0.2578125,0.1875 l -3.37499997,6.74999998 c -0.046875,0.09375 -0.046875,0.10546875 -0.046875,0.1171875 0,0.082031245 0.0585938,0.082031245 0.22265625,0.082031245 H 7.6041094 c 0.1523437,0 0.2109375,0 0.2109375,-0.082031245 0,-0.01171875 0,-0.0234375 -0.046875,-0.1171875 z m -0.5859375,0.8085937 2.6835938,5.37890628 H 1.1353594 Z m 0,0"
         style="fill:#000000;fill-opacity:1;fill-rule:nonzero;stroke:none" />
      <path
         id="path116"
         d="m 12.836531,-4.9810781 c 0,-0.65625 -0.1875,-2.0390625 -1.195312,-2.0390625 -1.382813,0 -2.917969,2.8007812 -2.917969,5.0859375 0,0.93749998 0.28125,2.03906248 1.1953125,2.03906248 1.4062505,0 2.9179685,-2.85937498 2.9179685,-5.08593748 z m -3.0585935,1.359375 C 9.942,-4.2545156 10.141219,-5.0513906 10.539656,-5.7545156 c 0.269532,-0.4921875 0.644532,-1.0546875 1.089844,-1.0546875 0.492188,0 0.550781,0.6445312 0.550781,1.2070312 0,0.4921875 -0.08203,0.9960938 -0.328125,1.9804688 z m 1.9921875,0.328125 c -0.117187,0.4570312 -0.316406,1.3007812 -0.703125,2.015625 -0.339844,0.67968748 -0.726562,1.17187498 -1.1484375,1.17187498 -0.328125,0 -0.5390625,-0.29296875 -0.5390625,-1.21874998 0,-0.421875 0.058594,-0.9960938 0.3164063,-1.96875 z m 0,0"
         style="fill:#000000;fill-opacity:1;fill-rule:nonzero;stroke:none" />
    </g>
    <path
       id="path117"
       d="M 304.4707,-21.78397 V 5.54765"
       style="fill:none;stroke:#000000;stroke-width:0.3985;stroke-linecap:butt;stroke-linejoin:miter;stroke-miterlimit:10;stroke-dasharray:2.98883, 2.98883;stroke-dashoffset:0;stroke-opacity:1"
       transform="matrix(1.3333333,0,0,-1.3333333,64.992,166.632)" />
    <path
       id="path118"
       d="m 384.38298,0.49602 v 81.9949"
       style="fill:none;stroke:#000000;stroke-width:0.3985;stroke-linecap:butt;stroke-linejoin:miter;stroke-miterlimit:10;stroke-dasharray:2.98883, 2.98883;stroke-dashoffset:0;stroke-opacity:1"
       transform="matrix(1.3333333,0,0,-1.3333333,64.992,166.632)" />
    <path
       id="path119"
       d="M 418.6317,-71.58443 V 10.41048"
       style="fill:none;stroke:#000000;stroke-width:0.3985;stroke-linecap:butt;stroke-linejoin:miter;stroke-miterlimit:10;stroke-dasharray:2.98883, 2.98883;stroke-dashoffset:0;stroke-opacity:1"
       transform="matrix(1.3333333,0,0,-1.3333333,64.992,166.632)" />
    <path
       id="path120"
       d="m 338.71942,-93.86443 v 27.33164"
       style="fill:none;stroke:#000000;stroke-width:0.3985;stroke-linecap:butt;stroke-linejoin:miter;stroke-miterlimit:10;stroke-dasharray:2.98883, 2.98883;stroke-dashoffset:0;stroke-opacity:1"
       transform="matrix(1.3333333,0,0,-1.3333333,64.992,166.632)" />
    <path
       id="path121"
       d="M 338.71942,-66.53279 418.6317,10.41048 384.38298,82.49092 304.4707,5.54765 Z"
       style="fill:#eace2b;fill-opacity:0.75;fill-rule:nonzero;stroke:none"
       transform="matrix(1.3333333,0,0,-1.3333333,64.992,166.632)" />
  </g>
</svg>
