<?xml version="1.0" encoding="UTF-8" standalone="no"?>
<!-- Created with Inkscape (http://www.inkscape.org/) -->

<svg
   version="1.1"
   id="svg1"
   width="1008"
   height="450"
   viewBox="0 0 672 300"
   xmlns="http://www.w3.org/2000/svg"
   xmlns:svg="http://www.w3.org/2000/svg">
  <defs
     id="defs1" />
  <g
     id="g1">
    <path
       id="path1"
       d="M -10.63002,0 H 148.11337"
       style="fill:none;stroke:#000000;stroke-width:0.79701;stroke-linecap:butt;stroke-linejoin:miter;stroke-miterlimit:10;stroke-dasharray:none;stroke-opacity:1"
       transform="matrix(1.3333333,0,0,-1.3333333,68.681333,236.67333)" />
    <path
       id="path2"
       d="M -1.55415,2.0722 C -1.42464,1.29512 0,0.1295 0.38852,0 0,-0.1295 -1.42464,-1.29512 -1.55415,-2.0722"
       style="fill:none;stroke:#000000;stroke-width:0.6376;stroke-linecap:round;stroke-linejoin:round;stroke-miterlimit:10;stroke-dasharray:none;stroke-opacity:1"
       transform="matrix(1.3333333,0,0,-1.3333333,266.16583,236.67333)" />
    <path
       id="path3"
       d="M 0,-10.63002 V 148.11337"
       style="fill:none;stroke:#000000;stroke-width:0.79701;stroke-linecap:butt;stroke-linejoin:miter;stroke-miterlimit:10;stroke-dasharray:none;stroke-opacity:1"
       transform="matrix(1.3333333,0,0,-1.3333333,68.681333,236.67333)" />
    <path
       id="path4"
       d="M -1.55415,2.0722 C -1.42464,1.29512 0,0.1295 0.38852,0 0,-0.1295 -1.42464,-1.29512 -1.55415,-2.0722"
       style="fill:none;stroke:#000000;stroke-width:0.6376;stroke-linecap:round;stroke-linejoin:round;stroke-miterlimit:10;stroke-dasharray:none;stroke-opacity:1"
       transform="matrix(0,-1.3333333,-1.3333333,0,68.681333,39.18884)" />
    <path
       id="path5"
       d="m 3.3284766,-3.0103516 c 0.058594,-0.2578125 0.2929687,-1.171875 0.984375,-1.171875 0.046875,0 0.2929687,0 0.5039062,0.1289063 -0.28125,0.046875 -0.4804687,0.3046875 -0.4804687,0.5390625 0,0.1640625 0.1054687,0.3515625 0.375,0.3515625 0.2226562,0 0.5390625,-0.1875 0.5390625,-0.5859375 0,-0.515625 -0.5859375,-0.65625 -0.9257813,-0.65625 -0.5742187,0 -0.9257812,0.5273437 -1.0429687,0.7617187 -0.2578125,-0.65625 -0.7851563,-0.7617187 -1.078125,-0.7617187 -1.0429688,0 -1.60546879,1.2890625 -1.60546879,1.5351562 0,0.1054688 0.10546875,0.1054688 0.1171875,0.1054688 0.0820313,0 0.1171875,-0.023437 0.12890625,-0.1171875 0.33984374,-1.0546875 0.99609374,-1.3007813 1.33593754,-1.3007813 0.1875,0 0.5390625,0.09375 0.5390625,0.6679688 0,0.3046875 -0.1640625,0.9726562 -0.5390625,2.3671875 -0.1523438,0.62109374 -0.5039063,1.04296874 -0.9492188,1.04296874 -0.058594,0 -0.28124999,0 -0.49218749,-0.12890625 0.24609375,-0.0585937 0.46874999,-0.26953125 0.46874999,-0.5390625 0,-0.26953129 -0.22265624,-0.35156249 -0.37499999,-0.35156249 -0.29296875,0 -0.5390625,0.25781249 -0.5390625,0.57421874 0,0.45703125 0.4921875,0.65625 0.93749999,0.65625 0.65625,0 1.0078125,-0.69140625 1.0429688,-0.75 0.1171875,0.36328125 0.4804687,0.75 1.078125,0.75 1.0195312,0 1.59375,-1.27734374 1.59375,-1.53515624 0,-0.09375 -0.09375,-0.09375 -0.1289063,-0.09375 -0.082031,0 -0.1054687,0.035156 -0.1289062,0.1054687 -0.328125,1.06640629 -0.9960938,1.31250004 -1.3242188,1.31250004 -0.3867187,0 -0.5390625,-0.328125 -0.5390625,-0.65625 0,-0.22265625 0.058594,-0.44531254 0.1640625,-0.87890624 z m 0,0"
       style="fill:#000000;fill-opacity:1;fill-rule:nonzero;stroke:none"
       aria-label="x"
       transform="matrix(1.3333333,0,0,1.3333333,268.98,239.53333)" />
    <path
       id="path6"
       d="m 4.8404687,-3.7955469 c 0.046875,-0.140625 0.046875,-0.1523437 0.046875,-0.2226562 0,-0.1875 -0.140625,-0.2695313 -0.2929687,-0.2695313 -0.1054688,0 -0.2578125,0.058594 -0.3515625,0.1992188 -0.023437,0.058594 -0.09375,0.3632812 -0.140625,0.5390625 -0.070312,0.2578125 -0.140625,0.5273437 -0.1992188,0.796875 l -0.4453125,1.79296872 c -0.035156,0.15234375 -0.46875,0.85546875 -1.125,0.85546875 -0.5039062,0 -0.6210937,-0.4453125 -0.6210937,-0.80859375 0,-0.45703122 0.1757812,-1.07812502 0.515625,-1.95703122 0.1523437,-0.4101563 0.1992187,-0.515625 0.1992187,-0.7148438 0,-0.4453125 -0.328125,-0.8203125 -0.8203125,-0.8203125 -0.9492187,0 -1.31249995,1.453125 -1.31249995,1.5351563 0,0.1054687 0.09375,0.1054687 0.1171875,0.1054687 0.09375,0 0.10546875,-0.023437 0.15234375,-0.1875 0.26953125,-0.9375 0.6679687,-1.2304687 1.0078125,-1.2304687 0.082031,0 0.2578125,0 0.2578125,0.3164062 0,0.2460938 -0.1054688,0.515625 -0.1757813,0.703125 -0.3984375,1.0546875 -0.5742187,1.6171875 -0.5742187,2.0859375 0,0.89062502 0.6210937,1.18359377 1.21875,1.18359377 0.3867187,0 0.7265625,-0.1640625 0.9960937,-0.4453125 C 3.1646875,0.17710937 3.0475,0.66929687 2.6490625,1.1966406 2.39125,1.5364844 2.01625,1.8294531 1.5592187,1.8294531 c -0.140625,0 -0.5976562,-0.035156 -0.7617187,-0.421875 0.1640625,0 0.2929687,0 0.4335937,-0.1171875 0.09375,-0.09375 0.1992188,-0.2226562 0.1992188,-0.41015623 0,-0.31640625 -0.2695313,-0.3515625 -0.375,-0.3515625 -0.22265625,0 -0.55078125,0.1640625 -0.55078125,0.64453123 0,0.5039063 0.43359375,0.8671875 1.05468745,0.8671875 C 2.57875,2.0403906 3.61,1.1380469 3.89125,0.01304687 Z m 0,0"
       style="fill:#000000;fill-opacity:1;fill-rule:nonzero;stroke:none"
       aria-label="y"
       transform="matrix(1.3333333,0,0,1.3333333,65.186667,34.146667)" />
    <path
       id="path7"
       d="M -5.315,42.5202 H 5.315"
       style="fill:none;stroke:#000000;stroke-width:0.3985;stroke-linecap:butt;stroke-linejoin:miter;stroke-miterlimit:10;stroke-dasharray:none;stroke-opacity:1"
       transform="matrix(1.3333333,0,0,-1.3333333,68.681333,236.67333)" />
    <path
       id="path8"
       d="m 2.9293594,-6.3737109 c 0,-0.234375 0,-0.2578125 -0.234375,-0.2578125 -0.609375,0.6328125 -1.4882813,0.6328125 -1.80468752,0.6328125 v 0.3164062 c 0.19921872,0 0.78515622,0 1.30078122,-0.2578125 v 5.15625001 c 0,0.3515625 -0.035156,0.48046875 -0.9257812,0.48046875 H 0.94889063 v 0.3046875 C 1.3004531,-0.03386719 2.1559219,-0.03386719 2.5543594,-0.03386719 c 0.3984375,0 1.265625,0 1.6171875,0.03515625 v -0.3046875 H 3.8551406 c -0.9023437,0 -0.9257812,-0.1171875 -0.9257812,-0.48046875 z m 0,0"
       style="fill:#000000;fill-opacity:1;fill-rule:nonzero;stroke:none"
       aria-label="1"
       transform="matrix(1.3333333,0,0,1.3333333,48.352,184.26)" />
    <path
       id="path9"
       d="M -5.315,127.56062 H 5.315"
       style="fill:none;stroke:#000000;stroke-width:0.3985;stroke-linecap:butt;stroke-linejoin:miter;stroke-miterlimit:10;stroke-dasharray:none;stroke-opacity:1"
       transform="matrix(1.3333333,0,0,-1.3333333,68.681333,236.67333)" />
    <path
       id="path10"
       d="m 2.8942031,-3.5036563 c 0.8085938,-0.2695312 1.3945313,-0.9726562 1.3945313,-1.7578125 0,-0.8203125 -0.8789063,-1.3710937 -1.8398438,-1.3710937 -1.0078125,0 -1.75781247,0.5976562 -1.75781247,1.3476562 0,0.3398438 0.2109375,0.5273438 0.50390627,0.5273438 0.3046875,0 0.5039062,-0.2226563 0.5039062,-0.515625 0,-0.4921875 -0.46875,-0.4921875 -0.609375,-0.4921875 0.3046875,-0.4921875 0.9609375,-0.6210938 1.3242188,-0.6210938 0.4101562,0 0.9492187,0.2226563 0.9492187,1.1132813 0,0.1289062 -0.011719,0.703125 -0.2695312,1.1367187 -0.3046875,0.4804688 -0.6445313,0.515625 -0.890625,0.515625 -0.082031,0.011719 -0.3164063,0.035156 -0.3867188,0.035156 -0.082031,0.011719 -0.1523437,0.023437 -0.1523437,0.1171875 0,0.1171875 0.070312,0.1171875 0.234375,0.1171875 h 0.4453125 c 0.8085937,0 1.1835937,0.6679687 1.1835937,1.6523437 0,1.3476563 -0.6914062,1.64062505 -1.125,1.64062505 -0.4335937,0 -1.171875,-0.17578125 -1.52343747,-0.76171875 0.35156247,0.0585938 0.65624997,-0.1640625 0.65624997,-0.5390625 0,-0.3632813 -0.2695312,-0.5625 -0.56249997,-0.5625 -0.234375,0 -0.55078125,0.140625 -0.55078125,0.5742187 0,0.91406255 0.92578122,1.57031255 2.00390622,1.57031255 1.21875,0 2.1210938,-0.9140625 2.1210938,-1.92187505 0,-0.8203125 -0.6210938,-1.59375 -1.6523438,-1.8046872 z m 0,0"
       style="fill:#000000;fill-opacity:1;fill-rule:nonzero;stroke:none"
       aria-label="3"
       transform="matrix(1.3333333,0,0,1.3333333,48.352,70.874667)" />
    <path
       id="path11"
       d="M 42.5202,-5.315 V 5.315"
       style="fill:none;stroke:#000000;stroke-width:0.3985;stroke-linecap:butt;stroke-linejoin:miter;stroke-miterlimit:10;stroke-dasharray:none;stroke-opacity:1"
       transform="matrix(1.3333333,0,0,-1.3333333,68.681333,236.67333)" />
    <path
       id="path12"
       d="m 2.9307031,-6.3752969 c 0,-0.234375 0,-0.2578125 -0.234375,-0.2578125 -0.609375,0.6328125 -1.4882812,0.6328125 -1.80468747,0.6328125 v 0.3164063 c 0.19921877,0 0.78515627,0 1.30078127,-0.2578125 v 5.15624997 c 0,0.3515625 -0.035156,0.48046875 -0.9257813,0.48046875 H 0.95023438 V -2.96875e-4 C 1.3017969,-0.03545313 2.1572656,-0.03545313 2.5557031,-0.03545313 c 0.3984375,0 1.265625,0 1.6171875,0.035156255 V -0.30498438 H 3.8564844 c -0.9023438,0 -0.9257813,-0.1171875 -0.9257813,-0.48046875 z m 0,0"
       style="fill:#000000;fill-opacity:1;fill-rule:nonzero;stroke:none"
       aria-label="1"
       transform="matrix(1.3333333,0,0,1.3333333,122.05333,257.96133)" />
    <path
       id="path13"
       d="M 127.56062,-5.315 V 5.315"
       style="fill:none;stroke:#000000;stroke-width:0.3985;stroke-linecap:butt;stroke-linejoin:miter;stroke-miterlimit:10;stroke-dasharray:none;stroke-opacity:1"
       transform="matrix(1.3333333,0,0,-1.3333333,68.681333,236.67333)" />
    <path
       id="path14"
       d="m 2.8936563,-3.5042031 c 0.8085937,-0.2695313 1.3945312,-0.9726563 1.3945312,-1.7578125 0,-0.8203125 -0.8789062,-1.3710938 -1.8398437,-1.3710938 -1.0078125,0 -1.75781255,0.5976563 -1.75781255,1.3476563 0,0.3398437 0.2109375,0.5273437 0.50390625,0.5273437 0.3046875,0 0.5039063,-0.2226562 0.5039063,-0.515625 0,-0.4921875 -0.46875,-0.4921875 -0.609375,-0.4921875 0.3046875,-0.4921875 0.9609375,-0.6210937 1.3242187,-0.6210937 0.4101563,0 0.9492188,0.2226562 0.9492188,1.1132812 0,0.1289063 -0.011719,0.703125 -0.2695313,1.1367188 -0.3046875,0.4804687 -0.6445312,0.515625 -0.890625,0.515625 -0.082031,0.011719 -0.3164062,0.035156 -0.3867187,0.035156 -0.082031,0.011719 -0.1523438,0.023437 -0.1523438,0.1171875 0,0.1171875 0.070312,0.1171875 0.234375,0.1171875 H 2.342875 c 0.8085938,0 1.1835938,0.6679688 1.1835938,1.6523438 0,1.34765622 -0.6914063,1.64062497 -1.125,1.64062497 -0.4335938,0 -1.171875,-0.17578125 -1.52343755,-0.76171875 0.35156255,0.0585938 0.65625005,-0.1640625 0.65625005,-0.53906252 0,-0.3632812 -0.2695313,-0.5625 -0.56250005,-0.5625 -0.234375,0 -0.55078125,0.140625 -0.55078125,0.5742188 0,0.91406247 0.9257813,1.57031247 2.0039063,1.57031247 1.21875,0 2.1210937,-0.9140625 2.1210937,-1.92187497 0,-0.8203125 -0.6210937,-1.59375 -1.6523437,-1.8046873 z m 0,0"
       style="fill:#000000;fill-opacity:1;fill-rule:nonzero;stroke:none"
       aria-label="3"
       transform="matrix(1.3333333,0,0,1.3333333,235.43867,257.96133)" />
    <path
       id="path15"
       d="M 33.32335,54.37909 44.43158,72.50545 55.22774,64.66138 41.42046,48.4957 Z"
       style="fill:#eace2b;fill-opacity:1;fill-rule:nonzero;stroke:none"
       transform="matrix(1.3333333,0,0,-1.3333333,68.681333,236.67333)" />
    <path
       id="path16"
       d="M 0,0 39.282,16.27075"
       style="fill:none;stroke:#000000;stroke-width:0.3985;stroke-linecap:butt;stroke-linejoin:miter;stroke-miterlimit:10;stroke-dasharray:2.98883, 2.98883;stroke-dashoffset:0;stroke-opacity:1"
       transform="matrix(1.3333333,0,0,-1.3333333,68.681333,236.67333)" />
    <path
       id="path17"
       d="m 39.282,16.27075 78.56405,32.54157"
       style="fill:none;stroke:#e81c2b;stroke-width:0.79701;stroke-linecap:butt;stroke-linejoin:miter;stroke-miterlimit:10;stroke-dasharray:none;stroke-opacity:1"
       transform="matrix(1.3333333,0,0,-1.3333333,68.681333,236.67333)" />
    <path
       id="path18"
       d="M 0,0 36.25272,22.21579"
       style="fill:none;stroke:#000000;stroke-width:0.3985;stroke-linecap:butt;stroke-linejoin:miter;stroke-miterlimit:10;stroke-dasharray:2.98883, 2.98883;stroke-dashoffset:0;stroke-opacity:1"
       transform="matrix(1.3333333,0,0,-1.3333333,68.681333,236.67333)" />
    <path
       id="path19"
       d="M 36.25272,22.21579 108.7582,66.64738"
       style="fill:none;stroke:#e81c2b;stroke-width:0.79701;stroke-linecap:butt;stroke-linejoin:miter;stroke-miterlimit:10;stroke-dasharray:none;stroke-opacity:1"
       transform="matrix(1.3333333,0,0,-1.3333333,68.681333,236.67333)" />
    <path
       id="path20"
       d="M 0,0 32.33067,27.61386"
       style="fill:none;stroke:#000000;stroke-width:0.3985;stroke-linecap:butt;stroke-linejoin:miter;stroke-miterlimit:10;stroke-dasharray:2.98883, 2.98883;stroke-dashoffset:0;stroke-opacity:1"
       transform="matrix(1.3333333,0,0,-1.3333333,68.681333,236.67333)" />
    <path
       id="path21"
       d="M 32.33067,27.61386 96.99207,82.8416"
       style="fill:none;stroke:#e81c2b;stroke-width:0.79701;stroke-linecap:butt;stroke-linejoin:miter;stroke-miterlimit:10;stroke-dasharray:none;stroke-opacity:1"
       transform="matrix(1.3333333,0,0,-1.3333333,68.681333,236.67333)" />
    <path
       id="path22"
       d="M 0,0 27.61386,32.33067"
       style="fill:none;stroke:#000000;stroke-width:0.3985;stroke-linecap:butt;stroke-linejoin:miter;stroke-miterlimit:10;stroke-dasharray:2.98883, 2.98883;stroke-dashoffset:0;stroke-opacity:1"
       transform="matrix(1.3333333,0,0,-1.3333333,68.681333,236.67333)" />
    <path
       id="path23"
       d="M 27.61386,32.33067 82.8416,96.99207"
       style="fill:none;stroke:#e81c2b;stroke-width:0.79701;stroke-linecap:butt;stroke-linejoin:miter;stroke-miterlimit:10;stroke-dasharray:none;stroke-opacity:1"
       transform="matrix(1.3333333,0,0,-1.3333333,68.681333,236.67333)" />
    <path
       id="path24"
       d="M 0,0 22.21579,36.25272"
       style="fill:none;stroke:#000000;stroke-width:0.3985;stroke-linecap:butt;stroke-linejoin:miter;stroke-miterlimit:10;stroke-dasharray:2.98883, 2.98883;stroke-dashoffset:0;stroke-opacity:1"
       transform="matrix(1.3333333,0,0,-1.3333333,68.681333,236.67333)" />
    <path
       id="path25"
       d="M 22.21579,36.25272 66.64738,108.7582"
       style="fill:none;stroke:#e81c2b;stroke-width:0.79701;stroke-linecap:butt;stroke-linejoin:miter;stroke-miterlimit:10;stroke-dasharray:none;stroke-opacity:1"
       transform="matrix(1.3333333,0,0,-1.3333333,68.681333,236.67333)" />
    <path
       id="path26"
       d="M 0,0 16.27075,39.282"
       style="fill:none;stroke:#000000;stroke-width:0.3985;stroke-linecap:butt;stroke-linejoin:miter;stroke-miterlimit:10;stroke-dasharray:2.98883, 2.98883;stroke-dashoffset:0;stroke-opacity:1"
       transform="matrix(1.3333333,0,0,-1.3333333,68.681333,236.67333)" />
    <path
       id="path27"
       d="m 16.27075,39.282 32.54157,78.56405"
       style="fill:none;stroke:#e81c2b;stroke-width:0.79701;stroke-linecap:butt;stroke-linejoin:miter;stroke-miterlimit:10;stroke-dasharray:none;stroke-opacity:1"
       transform="matrix(1.3333333,0,0,-1.3333333,68.681333,236.67333)" />
    <path
       id="path28"
       d="m 42.5202,0 c 0,0 -0.0032,0.50252 -0.0065,0.6955 -0.0033,0.19299 -0.01103,0.5027 -0.0175,0.69552 -0.0065,0.19283 -0.0197,0.50141 -0.02922,0.69423 -0.0095,0.19283 -0.02698,0.50279 -0.03955,0.69551 -0.01259,0.19274 -0.03545,0.50122 -0.05127,0.69359 -0.01582,0.19235 -0.04395,0.5009 -0.06294,0.6929 -0.019,0.192 -0.05202,0.49928 -0.07396,0.69101 -0.02197,0.19173 -0.05915,0.49951 -0.08434,0.69096 -0.02521,0.19147 -0.06889,0.49811 -0.09732,0.68905 -0.02844,0.19093 -0.07629,0.49668 -0.10771,0.68707 -0.03139,0.19038 -0.08434,0.49521 -0.11871,0.68515 -0.0344,0.18991 -0.09158,0.49434 -0.12912,0.68382 -0.03754,0.1895 -0.10068,0.49323 -0.14145,0.6819 -0.04077,0.18868 -0.10875,0.49004 -0.15248,0.67801 -0.04373,0.18796 -0.11614,0.4893 -0.16284,0.67671 -0.04671,0.18743 -0.12385,0.48761 -0.17386,0.67411 -0.05003,0.18652 -0.13369,0.48471 -0.18689,0.67022 -0.0532,0.18554 -0.1406,0.48236 -0.19657,0.66698 -0.056,0.18462 -0.14793,0.4799 -0.20697,0.66371 -0.05903,0.18382 -0.15654,0.47835 -0.21866,0.66115 -0.06211,0.18281 -0.16395,0.47494 -0.22903,0.65658 -0.06508,0.18166 -0.17191,0.47204 -0.24004,0.65272 -0.06814,0.18064 -0.18019,0.46987 -0.25111,0.64944 -0.07091,0.17958 -0.26016,0.64491 -0.26016,0.64491"
       style="fill:none;stroke:#000000;stroke-width:0.3985;stroke-linecap:butt;stroke-linejoin:miter;stroke-miterlimit:10;stroke-dasharray:2.98883, 2.98883;stroke-dashoffset:0;stroke-opacity:1"
       transform="matrix(1.3333333,0,0,-1.3333333,68.681333,236.67333)" />
    <path
       id="path29"
       d="m 39.282,16.27075 c 0,0 -0.39476,0.92523 -0.55408,1.27685 -0.15933,0.35163 -0.42364,0.91119 -0.5943,1.25741 -0.17065,0.3462 -0.4541,0.89729 -0.63583,1.23793 -0.18175,0.34062 -0.48113,0.88284 -0.67414,1.21715 -0.193,0.33431 -0.51285,0.86485 -0.71691,1.1925 -0.20406,0.32765 -0.5394,0.84825 -0.75393,1.16914 -0.21449,0.32093 -0.56733,0.83007 -0.79219,1.14385 -0.22487,0.3138 -0.59349,0.81164 -0.82852,1.11789 -0.23503,0.30624 -0.62059,0.79086 -0.8655,1.08935 -0.24494,0.29848 -0.64542,0.77173 -0.89991,1.06211 -0.25447,0.2904 -0.67062,0.74911 -0.93428,1.03096 -0.26364,0.28184 -0.69324,0.72761 -0.96606,1.00046 -0.27285,0.27282 -0.71862,0.70242 -1.00046,0.96606 -0.28185,0.26366 -0.74056,0.67981 -1.03096,0.93428 -0.29038,0.25449 -0.76363,0.65497 -1.06211,0.89991 -0.29849,0.24491 -0.78311,0.63047 -1.08935,0.8655 -0.30625,0.23503 -0.80409,0.60365 -1.11789,0.82852 -0.31378,0.22486 -0.82292,0.5777 -1.14385,0.79219 -0.32089,0.21453 -0.84149,0.54987 -1.16914,0.75393 -0.32765,0.20406 -0.85819,0.52391 -1.1925,0.71691 -0.33431,0.19301 -0.87653,0.49239 -1.21715,0.67414 -0.34064,0.18173 -0.89173,0.46518 -1.23793,0.63583 -0.34622,0.17066 -0.90578,0.43497 -1.25741,0.5943 -0.35162,0.15932 -1.27685,0.55408 -1.27685,0.55408"
       style="fill:none;stroke:#449fe3;stroke-width:0.79701;stroke-linecap:butt;stroke-linejoin:miter;stroke-miterlimit:10;stroke-dasharray:none;stroke-opacity:1"
       transform="matrix(1.3333333,0,0,-1.3333333,68.681333,236.67333)" />
    <path
       id="path30"
       d="m 16.27075,39.282 c 0,0 -0.46533,0.18925 -0.64491,0.26016 -0.17957,0.07092 -0.4688,0.18297 -0.64944,0.25111 -0.18068,0.06813 -0.47106,0.17496 -0.65272,0.24004 -0.18164,0.06508 -0.47377,0.16692 -0.65658,0.22903 -0.1828,0.06212 -0.47733,0.15963 -0.66115,0.21866 -0.18381,0.05904 -0.47909,0.15097 -0.66371,0.20697 -0.18462,0.05597 -0.48144,0.14337 -0.66698,0.19657 -0.18551,0.0532 -0.4837,0.13686 -0.67022,0.18689 -0.1865,0.05001 -0.48668,0.12715 -0.67411,0.17386 -0.18741,0.0467 -0.48875,0.11911 -0.67671,0.16284 -0.18797,0.04373 -0.48933,0.11171 -0.67801,0.15248 -0.18867,0.04077 -0.4924,0.10391 -0.6819,0.14145 C 8.10483,41.7396 7.8004,41.79678 7.61049,41.83118 7.42055,41.86555 7.11572,41.9185 6.92534,41.94989 6.73495,41.98131 6.4292,42.02916 6.23827,42.0576 6.04733,42.08603 5.74069,42.12971 5.54922,42.15492 5.35777,42.18011 5.04999,42.21729 4.85826,42.23926 4.66653,42.2612 4.35925,42.29422 4.16725,42.31322 3.97525,42.33221 3.6667,42.36034 3.47435,42.37616 3.28198,42.39198 2.9735,42.41484 2.78076,42.42743 2.58804,42.44 2.27808,42.45744 2.08525,42.46698 1.89243,42.4765 1.58385,42.48972 1.39102,42.4962 1.1982,42.50267 0.88849,42.51038 0.6955,42.5137 0.50252,42.51704 0,42.5202 0,42.5202"
       style="fill:none;stroke:#000000;stroke-width:0.3985;stroke-linecap:butt;stroke-linejoin:miter;stroke-miterlimit:10;stroke-dasharray:2.98883, 2.98883;stroke-dashoffset:0;stroke-opacity:1"
       transform="matrix(1.3333333,0,0,-1.3333333,68.681333,236.67333)" />
    <path
       id="path31"
       d="m 63.7803,0 c 0,0 -0.0047,0.75377 -0.0097,1.04327 -0.005,0.28951 -0.01687,0.75405 -0.02658,1.04328 -0.0097,0.28925 -0.02919,0.75209 -0.04348,1.04132 -0.0143,0.28924 -0.04078,0.75424 -0.05968,1.04329 C 63.62192,4.4602 63.588,4.9227 63.56424,5.2112 63.54048,5.49971 63.49805,5.96252 63.46951,6.25058 63.441,6.53862 63.39151,6.99977 63.35858,7.28738 63.32565,7.575 63.26985,8.03636 63.23204,8.32353 c -0.03781,0.28716 -0.10329,0.74712 -0.14595,1.03354 -0.04268,0.28644 -0.1145,0.74532 -0.16156,1.03095 -0.04707,0.28563 -0.12621,0.74282 -0.17778,1.02774 -0.05157,0.28489 -0.13765,0.74154 -0.194,1.02572 -0.05635,0.28422 -0.15105,0.73954 -0.21216,1.02254 -0.06111,0.28302 -0.16278,0.7354 -0.22838,1.01733 -0.06559,0.28194 -0.17448,0.73362 -0.24461,1.01473 -0.0701,0.28111 -0.18575,0.73173 -0.26082,1.0115 -0.07506,0.27977 -0.20053,0.72676 -0.28026,1.00499 -0.07975,0.27825 -0.2106,0.72347 -0.29457,1.00046 -0.08398,0.27699 -0.22223,0.72019 -0.31079,0.99593 -0.08856,0.27572 -0.23446,0.71719 -0.32764,0.99138 -0.09314,0.27418 -0.24618,0.7124 -0.34385,0.98489 -0.09766,0.27246 -0.25795,0.70799 -0.36011,0.97903 -0.10216,0.27103 -0.2699,0.7051 -0.3763,0.97451 -0.1064,0.26942 -0.39058,0.96737 -0.39058,0.96737"
       style="fill:none;stroke:#000000;stroke-width:0.3985;stroke-linecap:butt;stroke-linejoin:miter;stroke-miterlimit:10;stroke-dasharray:2.98883, 2.98883;stroke-dashoffset:0;stroke-opacity:1"
       transform="matrix(1.3333333,0,0,-1.3333333,68.681333,236.67333)" />
    <path
       id="path32"
       d="m 58.92268,24.40614 c 0,0 -0.59213,1.38785 -0.83113,1.91529 -0.239,0.52743 -0.63545,1.36676 -0.89145,1.88607 -0.25602,0.51932 -0.68118,1.34597 -0.95375,1.85689 -0.27255,0.51096 -0.72134,1.32427 -1.01085,1.82575 -0.2895,0.50148 -0.76956,1.29727 -1.07571,1.78876 -0.30615,0.4915 -0.80914,1.27241 -1.13086,1.75373 -0.32173,0.48133 -0.85068,1.24475 -1.18797,1.71544 -0.3373,0.4707 -0.89052,1.21779 -1.24314,1.67717 -0.35258,0.45935 -0.9309,1.18593 -1.29826,1.6337 -0.36736,0.44776 -0.96782,1.15785 -1.34949,1.59346 -0.38168,0.4356 -1.00589,1.12338 -1.40142,1.54611 -0.39555,0.42271 -1.04014,1.09137 -1.44945,1.50069 -0.40932,0.40931 -1.07798,1.0539 -1.50069,1.44945 -0.42273,0.39553 -1.11051,1.01974 -1.54611,1.40142 -0.43561,0.38167 -1.1457,0.98213 -1.59346,1.34949 -0.44777,0.36736 -1.17435,0.94568 -1.6337,1.29826 -0.45938,0.35262 -1.20647,0.90584 -1.67717,1.24314 -0.47069,0.33729 -1.23411,0.86624 -1.71544,1.18797 -0.48132,0.32172 -1.26223,0.82471 -1.75373,1.13086 -0.49149,0.30615 -1.28728,0.78621 -1.78876,1.07571 -0.50148,0.28951 -1.31479,0.7383 -1.82575,1.01085 -0.51092,0.27257 -1.33757,0.69773 -1.85689,0.95375 -0.51931,0.256 -1.35864,0.65245 -1.88607,0.89145 -0.52744,0.239 -1.91529,0.83113 -1.91529,0.83113"
       style="fill:none;stroke:#449fe3;stroke-width:0.79701;stroke-linecap:butt;stroke-linejoin:miter;stroke-miterlimit:10;stroke-dasharray:none;stroke-opacity:1"
       transform="matrix(1.3333333,0,0,-1.3333333,68.681333,236.67333)" />
    <path
       id="path33"
       d="m 24.40614,58.92268 c 0,0 -0.69795,0.28418 -0.96737,0.39058 -0.26941,0.1064 -0.70348,0.27414 -0.97451,0.3763 -0.27104,0.10216 -0.70657,0.26245 -0.97903,0.36011 -0.27249,0.09767 -0.71071,0.25071 -0.98489,0.34385 -0.27419,0.09318 -0.71566,0.23908 -0.99138,0.32764 -0.27574,0.08856 -0.71894,0.22681 -0.99593,0.31079 -0.27699,0.08397 -0.72221,0.21482 -1.00046,0.29457 -0.27823,0.07973 -0.72522,0.2052 -1.00499,0.28026 -0.27977,0.07507 -0.73039,0.19072 -1.0115,0.26082 -0.28111,0.07013 -0.73279,0.17902 -1.01473,0.24461 -0.28193,0.0656 -0.73431,0.16727 -1.01733,0.22838 -0.283,0.06111 -0.73832,0.15581 -1.02254,0.21216 -0.28418,0.05635 -0.74083,0.14243 -1.02572,0.194 -0.28492,0.05157 -0.74211,0.13071 -1.02774,0.17778 -0.28563,0.04706 -0.74451,0.11888 -1.03095,0.16156 C 9.07065,63.12875 8.61069,63.19423 8.32353,63.23204 8.03636,63.26985 7.575,63.32565 7.28738,63.35858 6.99977,63.39151 6.53862,63.441 6.25058,63.46951 5.96252,63.49805 5.49971,63.54048 5.2112,63.56424 4.9227,63.588 4.4602,63.62192 4.17116,63.64081 3.88211,63.65971 3.41711,63.68619 3.12787,63.70049 2.83864,63.71478 2.3758,63.73425 2.08655,63.74397 1.79732,63.75368 1.33278,63.76553 1.04327,63.77055 0.75377,63.7756 0,63.7803 0,63.7803"
       style="fill:none;stroke:#000000;stroke-width:0.3985;stroke-linecap:butt;stroke-linejoin:miter;stroke-miterlimit:10;stroke-dasharray:2.98883, 2.98883;stroke-dashoffset:0;stroke-opacity:1"
       transform="matrix(1.3333333,0,0,-1.3333333,68.681333,236.67333)" />
    <path
       id="path34"
       d="m 85.04042,0 c 0,0 -0.0063,1.00502 -0.013,1.39102 C 85.02077,1.777 85.00536,2.39642 84.9924,2.78206 84.97945,3.16771 84.95305,3.78488 84.93399,4.17052 84.91493,4.55617 84.88004,5.17609 84.85486,5.56154 84.82965,5.947 84.784,6.56396 84.75233,6.9487 c -0.03169,0.38472 -0.08789,1.00182 -0.12587,1.38583 -0.03794,0.38404 -0.10401,0.99851 -0.14793,1.38199 -0.04393,0.38347 -0.11827,0.99901 -0.16867,1.38194 -0.0504,0.38294 -0.13777,0.99622 -0.19464,1.37809 -0.05687,0.38185 -0.15259,0.99339 -0.21541,1.37416 -0.06282,0.38079 -0.16869,0.99042 -0.23746,1.37029 -0.06878,0.37988 -0.18316,0.98869 -0.25822,1.36767 -0.07507,0.37898 -0.20136,0.98643 -0.2829,1.3638 -0.08154,0.37736 -0.21745,0.9801 -0.30495,1.356 -0.08749,0.37592 -0.23227,0.97859 -0.32568,1.35343 -0.09344,0.37483 -0.24768,0.97515 -0.34775,1.3482 -0.10009,0.37303 -0.26733,0.9694 -0.37373,1.34046 -0.1064,0.37104 -0.28122,0.96469 -0.39317,1.33394 -0.11197,0.36926 -0.29584,0.95982 -0.41393,1.32745 -0.1181,0.36763 -0.31311,0.95663 -0.43732,1.32228 -0.12422,0.36563 -0.32789,0.94984 -0.45805,1.31317 -0.13015,0.36331 -0.34384,0.94406 -0.4801,1.3054 -0.13628,0.36133 -0.36034,0.93975 -0.5022,1.29891 -0.14185,0.35918 -0.52034,1.28982 -0.52034,1.28982"
       style="fill:none;stroke:#000000;stroke-width:0.3985;stroke-linecap:butt;stroke-linejoin:miter;stroke-miterlimit:10;stroke-dasharray:2.98883, 2.98883;stroke-dashoffset:0;stroke-opacity:1"
       transform="matrix(1.3333333,0,0,-1.3333333,68.681333,236.67333)" />
    <path
       id="path35"
       d="m 78.56401,32.54153 c 0,0 -0.78951,1.85048 -1.10815,2.5537 -0.31866,0.70323 -0.84728,1.82236 -1.1886,2.51479 -0.34136,0.69244 -0.90819,1.7946 -1.27169,2.47586 -0.36351,0.68126 -0.96223,1.76565 -1.34823,2.43432 -0.38597,0.66867 -1.02568,1.72968 -1.43384,2.38501 -0.40814,0.65534 -1.07878,1.69644 -1.50783,2.33829 -0.42903,0.64183 -1.13464,1.6601 -1.58439,2.2877 -0.44974,0.62761 -1.18695,1.6233 -1.65705,2.23578 -0.47007,0.61249 -1.24113,1.5817 -1.73101,2.1787 -0.48987,0.597 -1.29084,1.54342 -1.79981,2.12421 -0.50896,0.58079 -1.34123,1.49819 -1.86856,2.06188 -0.52731,0.5637 -1.38643,1.45525 -1.93215,2.00093 -0.54568,0.54572 -1.43723,1.40484 -2.00093,1.93215 -0.56369,0.52733 -1.48109,1.3596 -2.06188,1.86856 -0.58079,0.50897 -1.52721,1.30994 -2.12421,1.79981 -0.597,0.48988 -1.56621,1.26094 -2.1787,1.73101 -0.61248,0.4701 -1.60817,1.20731 -2.23578,1.65705 -0.6276,0.44975 -1.64587,1.15536 -2.2877,1.58439 -0.64185,0.42905 -1.68295,1.09969 -2.33829,1.50783 -0.65533,0.40816 -1.71634,1.04787 -2.38501,1.43384 -0.66867,0.386 -1.75306,0.98472 -2.43432,1.34823 -0.68126,0.3635 -1.78342,0.93033 -2.47586,1.27169 -0.69243,0.34132 -1.81156,0.86994 -2.51479,1.1886 -0.70322,0.31864 -2.5537,1.10815 -2.5537,1.10815"
       style="fill:none;stroke:#449fe3;stroke-width:0.79701;stroke-linecap:butt;stroke-linejoin:miter;stroke-miterlimit:10;stroke-dasharray:none;stroke-opacity:1"
       transform="matrix(1.3333333,0,0,-1.3333333,68.681333,236.67333)" />
    <path
       id="path36"
       d="m 32.54153,78.56401 c 0,0 -0.93064,0.37849 -1.28982,0.52034 -0.35916,0.14186 -0.93758,0.36592 -1.29891,0.5022 -0.36134,0.13626 -0.94209,0.34995 -1.3054,0.4801 -0.36333,0.13016 -0.94754,0.33383 -1.31317,0.45805 -0.36565,0.12421 -0.95465,0.31922 -1.32228,0.43732 -0.36763,0.11809 -0.95819,0.30196 -1.32745,0.41393 -0.36925,0.11195 -0.9629,0.28677 -1.33394,0.39317 -0.37106,0.1064 -0.96743,0.27364 -1.34046,0.37373 -0.37305,0.10007 -0.97337,0.25431 -1.3482,0.34775 -0.37484,0.09341 -0.97751,0.23819 -1.35343,0.32568 -0.3759,0.0875 -0.97864,0.22341 -1.356,0.30495 -0.37737,0.08154 -0.98482,0.20783 -1.3638,0.2829 -0.37898,0.07506 -0.98779,0.18944 -1.36767,0.25822 -0.37987,0.06877 -0.9895,0.17464 -1.37029,0.23746 -0.38077,0.06282 -0.99231,0.15854 -1.37416,0.21541 -0.38187,0.05687 -0.99515,0.14424 -1.37809,0.19464 -0.38293,0.0504 -0.99847,0.12474 -1.38194,0.16867 C 9.33304,84.52245 8.71857,84.58852 8.33453,84.62646 7.95052,84.66444 7.33342,84.72064 6.9487,84.75233 6.56396,84.784 5.947,84.82965 5.56154,84.85486 5.17609,84.88004 4.55617,84.91493 4.17052,84.93399 3.78488,84.95305 3.16771,84.97945 2.78206,84.9924 2.39642,85.00536 1.777,85.02077 1.39102,85.02742 1.00502,85.03409 0,85.04042 0,85.04042"
       style="fill:none;stroke:#000000;stroke-width:0.3985;stroke-linecap:butt;stroke-linejoin:miter;stroke-miterlimit:10;stroke-dasharray:2.98883, 2.98883;stroke-dashoffset:0;stroke-opacity:1"
       transform="matrix(1.3333333,0,0,-1.3333333,68.681333,236.67333)" />
    <path
       id="path37"
       d="m 106.3005,0 c 0,0 -0.008,1.2563 -0.0162,1.73878 -0.008,0.48249 -0.0279,1.25675 -0.0441,1.7388 -0.0162,0.48206 -0.0488,1.2535 -0.0727,1.73555 -0.0238,0.48206 -0.0678,1.25704 -0.0993,1.73882 -0.0315,0.48178 -0.0882,1.25273 -0.12781,1.7336 -0.0396,0.48088 -0.11014,1.25225 -0.15765,1.73231 -0.0475,0.48007 -0.13001,1.24844 -0.18493,1.72779 -0.0549,0.47933 -0.14784,1.24848 -0.21084,1.72712 -0.063,0.47864 -0.17221,1.2452 -0.24331,1.72258 -0.0711,0.47737 -0.19077,1.24204 -0.26925,1.71804 -0.0785,0.47602 -0.21055,1.238 -0.29652,1.71286 -0.086,0.47483 -0.22923,1.23591 -0.32313,1.70959 -0.0939,0.47369 -0.25169,1.23273 -0.35357,1.70444 -0.10188,0.47169 -0.2715,1.22542 -0.38086,1.69532 -0.10936,0.4699 -0.2906,1.22289 -0.40744,1.69144 -0.11683,0.46856 -0.30959,1.2193 -0.43473,1.68559 -0.1251,0.4663 -0.33419,1.21146 -0.46713,1.67522 -0.13294,0.46376 -0.35116,1.20583 -0.49113,1.66745 -0.13997,0.46163 -0.37013,1.2001 -0.51776,1.65964 -0.14763,0.45956 -0.39102,1.19549 -0.54628,1.65251 -0.15527,0.45703 -0.41017,1.18733 -0.5729,1.64146 -0.16276,0.45415 -0.42983,1.18006 -0.60014,1.63178 -0.17031,0.45169 -0.45007,1.17494 -0.62739,1.62395 -0.17735,0.44902 -0.65076,1.61229 -0.65076,1.61229"
       style="fill:none;stroke:#000000;stroke-width:0.3985;stroke-linecap:butt;stroke-linejoin:miter;stroke-miterlimit:10;stroke-dasharray:2.98883, 2.98883;stroke-dashoffset:0;stroke-opacity:1"
       transform="matrix(1.3333333,0,0,-1.3333333,68.681333,236.67333)" />
    <path
       id="path38"
       d="m 98.20471,40.67693 c 0,0 -0.98689,2.31311 -1.38522,3.19213 -0.39832,0.87904 -1.05907,2.27794 -1.48577,3.14347 -0.42668,0.86554 -1.13525,2.24324 -1.58958,3.09482 -0.45431,0.85157 -1.20244,2.20704 -1.68495,3.04289 -0.48251,0.83584 -1.28244,2.16211 -1.79265,2.98128 -0.51022,0.81918 -1.34856,2.12062 -1.88478,2.92286 -0.53624,0.80226 -1.418,2.07477 -1.98016,2.85929 -0.56217,0.78451 -1.484,2.02946 -2.07163,2.79509 -0.58763,0.76559 -1.55147,1.97677 -2.16377,2.72304 -0.6123,0.74624 -1.61327,1.92954 -2.24942,2.65554 -0.63616,0.726 -1.6765,1.87248 -2.33571,2.57706 -0.65923,0.7046 -1.73334,1.819 -2.4155,2.50117 -0.68217,0.68216 -1.79657,1.75627 -2.50117,2.4155 -0.70458,0.65921 -1.85106,1.69955 -2.57706,2.33571 -0.726,0.63615 -1.9093,1.63712 -2.65554,2.24942 -0.74627,0.6123 -1.95745,1.57614 -2.72304,2.16377 -0.76563,0.58763 -2.01058,1.50946 -2.79509,2.07163 -0.78452,0.56216 -2.05703,1.44392 -2.85929,1.98016 -0.80224,0.53622 -2.10368,1.37456 -2.92286,1.88478 -0.81917,0.51021 -2.14544,1.31014 -2.98128,1.79265 -0.83585,0.48251 -2.19132,1.23064 -3.04289,1.68495 -0.85158,0.45433 -2.22928,1.1629 -3.09482,1.58958 -0.86553,0.4267 -2.26443,1.08745 -3.14347,1.48577 -0.87902,0.39833 -3.19213,1.38522 -3.19213,1.38522"
       style="fill:none;stroke:#449fe3;stroke-width:0.79701;stroke-linecap:butt;stroke-linejoin:miter;stroke-miterlimit:10;stroke-dasharray:none;stroke-opacity:1"
       transform="matrix(1.3333333,0,0,-1.3333333,68.681333,236.67333)" />
    <path
       id="path39"
       d="m 40.67693,98.20471 c 0,0 -1.16327,0.47341 -1.61229,0.65076 -0.44901,0.17732 -1.17226,0.45708 -1.62395,0.62739 -0.45172,0.17031 -1.17763,0.43738 -1.63178,0.60014 -0.45413,0.16273 -1.18443,0.41763 -1.64146,0.5729 -0.45702,0.15526 -1.19295,0.39865 -1.65251,0.54628 -0.45954,0.14763 -1.19801,0.37779 -1.65964,0.51776 -0.46162,0.13997 -1.20369,0.35819 -1.66745,0.49113 -0.46376,0.13294 -1.20892,0.34203 -1.67522,0.46713 -0.46629,0.12514 -1.21703,0.3179 -1.68559,0.43473 -0.46855,0.11684 -1.22154,0.29808 -1.69144,0.40744 -0.4699,0.10936 -1.22363,0.27898 -1.69532,0.38086 -0.47171,0.10188 -1.23075,0.2597 -1.70444,0.35357 -0.47368,0.0939 -1.23476,0.23716 -1.70959,0.32313 -0.47486,0.086 -1.23684,0.21803 -1.71286,0.29652 -0.476,0.0785 -1.24067,0.19815 -1.71804,0.26925 -0.47738,0.0711 -1.24394,0.18029 -1.72258,0.24331 -0.47864,0.063 -1.24779,0.15594 -1.72712,0.21084 -0.47935,0.0549 -1.24772,0.13741 -1.72779,0.18493 -0.48006,0.0475 -1.25143,0.11807 -1.73231,0.15765 -0.48087,0.0396 -1.25182,0.0963 -1.7336,0.12781 -0.48178,0.0315 -1.25676,0.0754 -1.73882,0.0993 -0.48205,0.0239 -1.25349,0.0565 -1.73555,0.0727 -0.48205,0.0162 -1.25631,0.0357 -1.7388,0.0441 C 1.2563,106.29266 0,106.3005 0,106.3005"
       style="fill:none;stroke:#000000;stroke-width:0.3985;stroke-linecap:butt;stroke-linejoin:miter;stroke-miterlimit:10;stroke-dasharray:2.98883, 2.98883;stroke-dashoffset:0;stroke-opacity:1"
       transform="matrix(1.3333333,0,0,-1.3333333,68.681333,236.67333)" />
    <path
       id="path40"
       d="m 127.56062,0 c 0,0 -0.009,1.50754 -0.0195,2.08655 -0.01,0.57902 -0.0331,1.5081 -0.0525,2.08656 -0.0194,0.57848 -0.059,1.50419 -0.0876,2.08266 -0.0286,0.57847 -0.0809,1.50837 -0.11871,2.08656 -0.0378,0.5782 -0.10625,1.50362 -0.15378,2.08074 -0.0475,0.57711 -0.13184,1.50274 -0.18881,2.07876 -0.057,0.57604 -0.15601,1.49773 -0.22188,2.07295 -0.0659,0.57523 -0.17742,1.49852 -0.25302,2.07292 -0.0756,0.57442 -0.20665,1.49433 -0.29198,2.06711 -0.0853,0.5728 -0.22885,1.49009 -0.3231,2.06125 -0.0942,0.57117 -0.25304,1.48561 -0.35619,2.05545 -0.10316,0.56981 -0.27473,1.48303 -0.38733,2.0515 -0.11261,0.56848 -0.302,1.47968 -0.42433,2.0457 -0.12235,0.56606 -0.3262,1.47014 -0.45743,2.03401 -0.13122,0.56388 -0.34837,1.46788 -0.48852,2.03012 -0.14016,0.56226 -0.37151,1.46277 -0.52164,2.02234 -0.15013,0.55956 -0.401,1.45407 -0.56059,2.01064 -0.15961,0.55658 -0.4218,1.44703 -0.58976,2.00091 -0.16796,0.5539 -0.44375,1.43975 -0.62089,1.99121 -0.17717,0.55146 -0.46964,1.43493 -0.65596,1.9834 -0.18633,0.54848 -0.49185,1.42481 -0.68709,1.96976 -0.19525,0.54498 -0.51575,1.41612 -0.72017,1.95813 -0.20444,0.54199 -0.54048,1.40959 -0.75328,1.94835 -0.21278,0.53877 -0.78049,1.93474 -0.78049,1.93474"
       style="fill:none;stroke:#000000;stroke-width:0.3985;stroke-linecap:butt;stroke-linejoin:miter;stroke-miterlimit:10;stroke-dasharray:2.98883, 2.98883;stroke-dashoffset:0;stroke-opacity:1"
       transform="matrix(1.3333333,0,0,-1.3333333,68.681333,236.67333)" />
    <path
       id="path41"
       d="m 117.84605,48.81232 c 0,0 -1.18425,2.77571 -1.66225,3.83056 -0.47799,1.05483 -1.27088,2.73349 -1.78292,3.77216 -0.51204,1.03863 -1.36228,2.69186 -1.9075,3.71377 -0.54526,1.02192 -1.44333,2.6485 -2.02234,3.65149 -0.57901,1.00298 -1.53858,2.5945 -2.15079,3.57752 -0.61221,0.983 -1.61819,2.54469 -2.26173,3.50746 -0.64356,0.96275 -1.70198,2.49013 -2.37657,3.43153 -0.67461,0.94144 -1.78049,2.43496 -2.48562,3.35369 -0.7051,0.91873 -1.86169,2.37251 -2.59652,3.26803 -0.73482,0.89551 -1.93622,2.3151 -2.69966,3.1863 -0.76345,0.87121 -2.01185,2.24731 -2.80285,3.09287 -0.79101,0.84556 -2.07968,2.18281 -2.89823,3.00137 -0.81856,0.81855 -2.15581,2.10722 -3.00137,2.89823 -0.84556,0.791 -2.22166,2.0394 -3.09287,2.80285 -0.8712,0.76344 -2.29079,1.96484 -3.1863,2.69966 -0.89552,0.73483 -2.3493,1.89142 -3.26803,2.59652 -0.91873,0.70513 -2.41225,1.81101 -3.35369,2.48562 -0.9414,0.67459 -2.46878,1.73301 -3.43153,2.37657 -0.96277,0.64354 -2.52446,1.64952 -3.50746,2.26173 -0.98302,0.61221 -2.57454,1.57178 -3.57752,2.15079 -1.00299,0.57901 -2.62957,1.47708 -3.65149,2.02234 -1.02191,0.54522 -2.67514,1.39546 -3.71377,1.9075 -1.03867,0.51204 -2.71733,1.30493 -3.77216,1.78292 -1.05485,0.478 -3.83056,1.66225 -3.83056,1.66225"
       style="fill:none;stroke:#449fe3;stroke-width:0.79701;stroke-linecap:butt;stroke-linejoin:miter;stroke-miterlimit:10;stroke-dasharray:none;stroke-opacity:1"
       transform="matrix(1.3333333,0,0,-1.3333333,68.681333,236.67333)" />
    <path
       id="path42"
       d="m 48.81232,117.84605 c 0,0 -1.39597,0.56771 -1.93474,0.78049 -0.53876,0.2128 -1.40636,0.54884 -1.94835,0.75328 -0.54201,0.20442 -1.41315,0.52492 -1.95813,0.72017 -0.54495,0.19524 -1.42128,0.50076 -1.96976,0.68709 -0.54847,0.18632 -1.43194,0.47879 -1.9834,0.65596 -0.55146,0.17714 -1.43731,0.45293 -1.99121,0.62089 -0.55388,0.16796 -1.44433,0.43015 -2.00091,0.58976 -0.55657,0.15959 -1.45108,0.41046 -2.01064,0.56059 -0.55957,0.15013 -1.46008,0.38148 -2.02234,0.52164 -0.56224,0.14015 -1.46624,0.3573 -2.03012,0.48852 -0.56387,0.13123 -1.46795,0.33508 -2.03401,0.45743 -0.56602,0.12233 -1.47722,0.31172 -2.0457,0.42433 -0.56847,0.1126 -1.48169,0.28417 -2.0515,0.38733 -0.56984,0.10315 -1.48428,0.26195 -2.05545,0.35619 -0.57116,0.0942 -1.48845,0.23778 -2.06125,0.3231 -0.57278,0.0853 -1.49269,0.21636 -2.06711,0.29198 -0.5744,0.0756 -1.49769,0.18713 -2.07292,0.25302 -0.57522,0.0659 -1.49691,0.16492 -2.07295,0.22188 -0.57602,0.057 -1.50165,0.1413 -2.07876,0.18881 -0.57712,0.0475 -1.50254,0.11597 -2.08074,0.15378 -0.57819,0.0378 -1.50809,0.0901 -2.08656,0.11871 -0.57847,0.0286 -1.50418,0.0682 -2.08266,0.0876 -0.57846,0.0194 -1.50754,0.0426 -2.08656,0.0525 C 1.50754,127.55115 0,127.56062 0,127.56062"
       style="fill:none;stroke:#000000;stroke-width:0.3985;stroke-linecap:butt;stroke-linejoin:miter;stroke-miterlimit:10;stroke-dasharray:2.98883, 2.98883;stroke-dashoffset:0;stroke-opacity:1"
       transform="matrix(1.3333333,0,0,-1.3333333,68.681333,236.67333)" />
    <g
       id="g42"
       aria-label="∆r"
       transform="matrix(1.3333333,0,0,1.3333333,156.34267,212.86533)">
      <path
         id="path43"
         d="m 4.4070625,-6.9478281 c -0.070312,-0.1289063 -0.09375,-0.1875 -0.2578125,-0.1875 -0.1757813,0 -0.1992188,0.058594 -0.2578125,0.1875 l -3.375,6.74999997 c -0.046875,0.09375 -0.046875,0.10546875 -0.046875,0.1171875 0,0.08203125 0.0585938,0.08203125 0.22265625,0.08203125 H 7.6062812 c 0.1523438,0 0.2109375,0 0.2109375,-0.08203125 0,-0.01171875 0,-0.0234375 -0.046875,-0.1171875 z M 3.821125,-6.1392344 6.5047187,-0.76032813 H 1.1375312 Z m 0,0"
         style="fill:#000000;fill-opacity:1;fill-rule:nonzero;stroke:none" />
      <path
         id="path44"
         d="m 9.1824531,-0.58454688 c -0.035156,0.15234375 -0.09375,0.375 -0.09375,0.421875 0,0.1875 0.140625,0.26953125 0.2929688,0.26953125 0.1171875,0 0.2929687,-0.0703125 0.3632812,-0.26953125 0.023437,-0.046875 0.3632809,-1.39453122 0.3984379,-1.58203122 0.08203,-0.328125 0.257812,-1.0195313 0.316406,-1.2890625 0.04687,-0.1289063 0.328125,-0.5976563 0.5625,-0.8203125 0.08203,-0.070312 0.375,-0.328125 0.796875,-0.328125 0.257812,0 0.410156,0.1171875 0.421875,0.1171875 -0.304688,0.046875 -0.515625,0.2929687 -0.515625,0.5507812 0,0.1640625 0.105469,0.3515625 0.375,0.3515625 0.269531,0 0.550781,-0.234375 0.550781,-0.5859375 0,-0.3515625 -0.328125,-0.65625 -0.832031,-0.65625 -0.644531,0 -1.089844,0.4921875 -1.277344,0.7734375 -0.08203,-0.4570312 -0.433594,-0.7734375 -0.9023436,-0.7734375 -0.4570313,0 -0.6445313,0.3867188 -0.7382813,0.5742188 -0.1757812,0.3398437 -0.3046875,0.9375 -0.3046875,0.9609375 0,0.1054687 0.09375,0.1054687 0.1171875,0.1054687 0.09375,0 0.1054688,-0.011719 0.1640625,-0.234375 0.1757813,-0.703125 0.375,-1.1835937 0.7265625,-1.1835937 0.1757813,0 0.3164063,0.082031 0.3164063,0.4570312 0,0.2109375 -0.035156,0.3164063 -0.1640625,0.8320313 z m 0,0"
         style="fill:#000000;fill-opacity:1;fill-rule:nonzero;stroke:none" />
    </g>
    <g
       id="g44"
       aria-label="∆θ"
       transform="matrix(1.3333333,0,0,1.3333333,167.56,93.884)">
      <path
         id="path45"
         d="m 4.4051953,-6.9501094 c -0.070312,-0.1289062 -0.09375,-0.1875 -0.2578125,-0.1875 -0.1757812,0 -0.1992187,0.058594 -0.2578125,0.1875 l -3.37499999,6.75000002 c -0.046875,0.09375 -0.046875,0.10546875 -0.046875,0.1171875 0,0.082031255 0.0585938,0.082031255 0.22265625,0.082031255 H 7.6044141 c 0.1523437,0 0.2109375,0 0.2109375,-0.082031255 0,-0.01171875 0,-0.0234375 -0.046875,-0.1171875 z m -0.5859375,0.8085938 2.6835938,5.37890622 H 1.1356641 Z m 0,0"
         style="fill:#000000;fill-opacity:1;fill-rule:nonzero;stroke:none" />
      <path
         id="path46"
         d="m 12.836836,-4.9813594 c 0,-0.65625 -0.1875,-2.0390625 -1.195313,-2.0390625 -1.382812,0 -2.9179683,2.8007813 -2.9179683,5.0859375 0,0.93750002 0.28125,2.03906252 1.1953125,2.03906252 1.4062498,0 2.9179688,-2.85937502 2.9179688,-5.08593752 z m -3.0585938,1.359375 c 0.1640625,-0.6328125 0.3632808,-1.4296875 0.7617188,-2.1328125 0.269531,-0.4921875 0.644531,-1.0546875 1.089844,-1.0546875 0.492187,0 0.550781,0.6445313 0.550781,1.2070313 0,0.4921875 -0.08203,0.9960937 -0.328125,1.9804687 z m 1.9921878,0.328125 c -0.117188,0.4570313 -0.316407,1.3007813 -0.703125,2.015625 -0.339844,0.67968752 -0.726563,1.17187502 -1.1484378,1.17187502 -0.328125,0 -0.5390625,-0.29296875 -0.5390625,-1.21875002 0,-0.421875 0.058594,-0.9960937 0.3164062,-1.96875 z m 0,0"
         style="fill:#000000;fill-opacity:1;fill-rule:nonzero;stroke:none" />
    </g>
    <path
       id="path47"
       d="m 2.6378984,-3.7134922 h 1.125 c -0.328125,1.4765625 -0.4101562,1.8984375 -0.4101562,2.5664063 0,0.15234371 0,0.42187496 0.070312,0.76171871 0.1054687,0.43359375 0.2109375,0.4921875 0.3632812,0.4921875 0.1992188,0 0.4101563,-0.17578125 0.4101563,-0.375 0,-0.0585938 0,-0.0820313 -0.058594,-0.22265625 -0.292968,-0.71484376 -0.292968,-1.35937496 -0.292968,-1.64062496 0,-0.5273438 0.070312,-1.0664063 0.1757812,-1.5820313 h 1.1367188 c 0.1289062,0 0.4921875,0 0.4921875,-0.3398437 0,-0.234375 -0.2109375,-0.234375 -0.3984375,-0.234375 H 1.9113359 c -0.2109375,0 -0.5976562,0 -1.03124996,0.46875 -0.3515625,0.3867187 -0.609375,0.84375 -0.609375,0.890625 0,0.011719 0,0.1054687 0.1171875,0.1054687 0.0820313,0 0.10546875,-0.046875 0.1640625,-0.1289062 C 1.0324297,-3.7134922 1.6183672,-3.7134922 1.8175859,-3.7134922 h 0.5625 c -0.3164062,1.2070313 -0.8554687,2.4140625 -1.2773437,3.31640626 -0.070312,0.15234375 -0.070312,0.1640625 -0.070312,0.234375 0,0.19921875 0.1523437,0.26953125 0.28125,0.26953125 0.3046875,0 0.3867187,-0.26953125 0.5039062,-0.64453125 0.140625,-0.45703125 0.140625,-0.48046876 0.2695313,-0.97265626 z m 0,0"
       style="fill:#000000;fill-opacity:1;fill-rule:nonzero;stroke:none"
       aria-label="π"
       transform="matrix(1.3333333,0,0,1.3333333,234.87733,159.97867)" />
    <path
       id="path48"
       d="M 0,0 H 6.036"
       style="fill:none;stroke:#000000;stroke-width:0.398;stroke-linecap:butt;stroke-linejoin:miter;stroke-miterlimit:10;stroke-dasharray:none;stroke-opacity:1"
       transform="matrix(1.3333333,0,0,-1.3333333,234.87733,165.644)" />
    <path
       id="path49"
       d="M 1.6275,-4.5482109 C 1.15875,-4.8528984 1.1235937,-5.1927422 1.1235937,-5.3568047 c 0,-0.609375 0.6445313,-1.03125 1.359375,-1.03125 0.7265625,0 1.359375,0.515625 1.359375,1.2421875 0,0.5625 -0.3867187,1.0429688 -0.984375,1.3945313 z m 1.453125,0.9375 c 0.7148437,-0.3632813 1.2070312,-0.8789063 1.2070312,-1.5351563 0,-0.9257812 -0.890625,-1.4882812 -1.7929687,-1.4882812 -0.9960938,0 -1.8046875,0.7382812 -1.8046875,1.6640625 0,0.1757812 0.0117188,0.6210937 0.4335937,1.0898437 0.1054688,0.1289063 0.4804688,0.375 0.7265625,0.5390625 -0.5742187,0.2929688 -1.42968745,0.84375 -1.42968745,1.8398438 0,1.05468746 1.00781245,1.72265621 2.06249995,1.72265621 1.125,0 2.0625,-0.83203125 2.0625,-1.89843751 C 4.5454687,-2.0286797 4.44,-2.4857109 4.065,-2.8958672 3.8775,-3.1068047 3.7134375,-3.2122734 3.080625,-3.6107109 Z m -0.9960938,0.421875 1.21875,0.7734375 c 0.28125,0.1875 0.75,0.4921875 0.75,1.1015625 0,0.73828121 -0.75,1.25390621 -1.5585937,1.25390621 -0.8671875,0 -1.58203125,-0.62109375 -1.58203125,-1.44140621 0,-0.5859375 0.31640625,-1.21875 1.17187495,-1.6875 z m 0,0"
       style="fill:#000000;fill-opacity:1;fill-rule:nonzero;stroke:none"
       aria-label="8"
       transform="matrix(1.3333333,0,0,1.3333333,235.58,178.076)" />
    <g
       id="g49"
       aria-label="3π"
       transform="matrix(1.3333333,0,0,1.3333333,135.096,53.829333)">
      <path
         id="path50"
         d="m 2.8957734,-3.5048125 c 0.8085938,-0.2695313 1.3945313,-0.9726563 1.3945313,-1.7578125 0,-0.8203125 -0.8789063,-1.3710938 -1.8398438,-1.3710938 -1.0078125,0 -1.75781246,0.5976563 -1.75781246,1.3476563 0,0.3398437 0.2109375,0.5273437 0.50390626,0.5273437 0.3046875,0 0.5039062,-0.2226562 0.5039062,-0.515625 0,-0.4921875 -0.46875,-0.4921875 -0.609375,-0.4921875 0.3046875,-0.4921875 0.9609375,-0.6210937 1.3242188,-0.6210937 0.4101562,0 0.9492187,0.2226562 0.9492187,1.1132812 0,0.1289063 -0.011719,0.703125 -0.2695312,1.1367188 C 2.7903047,-3.6571563 2.4504609,-3.622 2.2043672,-3.622 c -0.082031,0.011719 -0.3164063,0.035156 -0.3867188,0.035156 -0.082031,0.011719 -0.1523437,0.023437 -0.1523437,0.1171875 0,0.1171875 0.070312,0.1171875 0.234375,0.1171875 h 0.4453125 c 0.8085937,0 1.1835937,0.6679688 1.1835937,1.6523438 0,1.34765625 -0.6914062,1.640625 -1.125,1.640625 -0.4335937,0 -1.171875,-0.17578125 -1.52343746,-0.76171875 0.35156246,0.0585938 0.65624996,-0.1640625 0.65624996,-0.53906255 0,-0.3632812 -0.2695312,-0.5625 -0.56249996,-0.5625 -0.234375,0 -0.55078125,0.140625 -0.55078125,0.5742188 0,0.9140625 0.92578121,1.5703125 2.00390621,1.5703125 1.21875,0 2.1210938,-0.9140625 2.1210938,-1.921875 0,-0.8203125 -0.6210938,-1.59375 -1.6523438,-1.8046873 z m 0,0"
         style="fill:#000000;fill-opacity:1;fill-rule:nonzero;stroke:none" />
      <path
         id="path51"
         d="m 7.6184297,-3.71575 h 1.125 c -0.328125,1.4765625 -0.4101563,1.8984375 -0.4101563,2.5664062 0,0.1523438 0,0.42187505 0.070312,0.7617188 0.1054688,0.43359375 0.2109375,0.4921875 0.3632813,0.4921875 0.1992187,0 0.4101562,-0.17578125 0.4101562,-0.375 0,-0.0585938 0,-0.0820313 -0.058594,-0.22265625 -0.292968,-0.71484375 -0.292968,-1.35937505 -0.292968,-1.64062505 0,-0.5273437 0.070312,-1.0664062 0.1757813,-1.5820312 h 1.1367188 c 0.128906,0 0.492187,0 0.492187,-0.3398438 0,-0.234375 -0.210937,-0.234375 -0.398437,-0.234375 H 6.8918672 c -0.2109375,0 -0.5976563,0 -1.03125,0.46875 -0.3515625,0.3867188 -0.609375,0.84375 -0.609375,0.890625 0,0.011719 0,0.1054688 0.1171875,0.1054688 0.082031,0 0.1054687,-0.046875 0.1640625,-0.1289063 C 6.0129609,-3.71575 6.5988984,-3.71575 6.7981172,-3.71575 h 0.5625 c -0.3164063,1.2070312 -0.8554688,2.4140625 -1.2773438,3.31640625 -0.070312,0.15234375 -0.070312,0.1640625 -0.070312,0.234375 0,0.19921875 0.1523438,0.26953125 0.28125,0.26953125 0.3046875,0 0.3867188,-0.26953125 0.5039063,-0.64453125 C 6.9387422,-0.997 6.9387422,-1.0204375 7.0676484,-1.512625 Z m 0,0"
         style="fill:#000000;fill-opacity:1;fill-rule:nonzero;stroke:none" />
    </g>
    <path
       id="path52"
       d="M 0,0 H 11.018"
       style="fill:none;stroke:#000000;stroke-width:0.398;stroke-linecap:butt;stroke-linejoin:miter;stroke-miterlimit:10;stroke-dasharray:none;stroke-opacity:1"
       transform="matrix(1.3333333,0,0,-1.3333333,135.096,59.494667)" />
    <path
       id="path53"
       d="m 1.6297266,-4.5475391 c -0.46875,-0.3046875 -0.5039063,-0.6445312 -0.5039063,-0.8085937 0,-0.609375 0.6445313,-1.03125 1.359375,-1.03125 0.7265625,0 1.359375,0.515625 1.359375,1.2421875 0,0.5625 -0.3867187,1.0429687 -0.984375,1.3945312 z m 1.453125,0.9375 c 0.7148437,-0.3632812 1.2070312,-0.8789062 1.2070312,-1.5351562 0,-0.9257813 -0.890625,-1.4882813 -1.7929687,-1.4882813 -0.9960938,0 -1.80468754,0.7382813 -1.80468754,1.6640625 0,0.1757813 0.0117188,0.6210938 0.43359374,1.0898438 0.1054688,0.1289062 0.4804688,0.375 0.7265625,0.5390625 -0.5742187,0.2929687 -1.42968749,0.84375 -1.42968749,1.8398437 0,1.05468754 1.00781249,1.72265629 2.06249999,1.72265629 1.125,0 2.0625,-0.83203125 2.0625,-1.89843749 0,-0.3515625 -0.1054687,-0.8085938 -0.4804687,-1.21875 -0.1875,-0.2109375 -0.3515625,-0.3164063 -0.984375,-0.7148438 z m -0.9960938,0.421875 1.21875,0.7734375 c 0.28125,0.1875 0.75,0.4921875 0.75,1.1015625 0,0.73828129 -0.75,1.25390629 -1.5585937,1.25390629 -0.8671875,0 -1.58203129,-0.62109375 -1.58203129,-1.44140629 0,-0.5859375 0.31640629,-1.21875 1.17187499,-1.6875 z m 0,0"
       style="fill:#000000;fill-opacity:1;fill-rule:nonzero;stroke:none"
       aria-label="8"
       transform="matrix(1.3333333,0,0,1.3333333,139.12,71.926667)" />
    <path
       id="path54"
       d="m 223.23114,0 h 181.3848"
       style="fill:none;stroke:#000000;stroke-width:0.79701;stroke-linecap:butt;stroke-linejoin:miter;stroke-miterlimit:10;stroke-dasharray:none;stroke-opacity:1"
       transform="matrix(1.3333333,0,0,-1.3333333,68.681333,236.67333)" />
    <path
       id="path55"
       d="M -1.55415,2.0722 C -1.42464,1.29512 0,0.1295 0.38852,0 0,-0.1295 -1.42464,-1.29512 -1.55415,-2.0722"
       style="fill:none;stroke:#000000;stroke-width:0.6376;stroke-linecap:round;stroke-linejoin:round;stroke-miterlimit:10;stroke-dasharray:none;stroke-opacity:1"
       transform="matrix(1.3333333,0,0,-1.3333333,608.16925,236.67333)" />
    <path
       id="path56"
       d="M 233.86116,-10.63002 V 148.11337"
       style="fill:none;stroke:#000000;stroke-width:0.79701;stroke-linecap:butt;stroke-linejoin:miter;stroke-miterlimit:10;stroke-dasharray:none;stroke-opacity:1"
       transform="matrix(1.3333333,0,0,-1.3333333,68.681333,236.67333)" />
    <path
       id="path57"
       d="M -1.55415,2.0722 C -1.42464,1.29512 0,0.1295 0.38852,0 0,-0.1295 -1.42464,-1.29512 -1.55415,-2.0722"
       style="fill:none;stroke:#000000;stroke-width:0.6376;stroke-linecap:round;stroke-linejoin:round;stroke-miterlimit:10;stroke-dasharray:none;stroke-opacity:1"
       transform="matrix(0,-1.3333333,-1.3333333,0,380.49621,39.18884)" />
    <path
       id="path58"
       d="m 4.5346484,-4.9806016 c 0,-0.65625 -0.1875,-2.0390625 -1.1953125,-2.0390625 -1.3828125,0 -2.91796871,2.8007813 -2.91796871,5.0859375 0,0.93750004 0.28125,2.03906254 1.19531251,2.03906254 1.40625,0 2.9179687,-2.85937504 2.9179687,-5.08593754 z m -3.0585937,1.359375 c 0.1640625,-0.6328125 0.3632812,-1.4296875 0.7617187,-2.1328125 0.2695313,-0.4921875 0.6445313,-1.0546875 1.0898438,-1.0546875 0.4921875,0 0.5507812,0.6445313 0.5507812,1.2070313 0,0.4921875 -0.082031,0.9960937 -0.328125,1.9804687 z m 1.9921875,0.328125 c -0.1171875,0.4570313 -0.3164063,1.3007813 -0.703125,2.015625 -0.3398438,0.67968754 -0.7265625,1.17187504 -1.1484375,1.17187504 -0.328125,0 -0.5390625,-0.29296875 -0.5390625,-1.21875004 0,-0.421875 0.058594,-0.9960937 0.3164062,-1.96875 z m 0,0"
       style="fill:#000000;fill-opacity:1;fill-rule:nonzero;stroke:none"
       aria-label="θ"
       transform="matrix(1.3333333,0,0,1.3333333,611.47333,241.28533)" />
    <path
       id="path59"
       d="m 0.88028125,-0.5868125 c -0.0351563,0.15234375 -0.09375,0.375 -0.09375,0.421875 0,0.1875 0.140625,0.26953125 0.29296875,0.26953125 0.1171875,0 0.2929688,-0.0703125 0.3632813,-0.26953125 0.023437,-0.046875 0.3632812,-1.3945313 0.3984375,-1.5820313 C 1.92325,-2.0750938 2.0990313,-2.7665 2.157625,-3.0360313 2.2045,-3.1649375 2.48575,-3.6336875 2.720125,-3.8563438 c 0.082031,-0.070312 0.375,-0.328125 0.796875,-0.328125 0.2578125,0 0.4101563,0.1171875 0.421875,0.1171875 -0.3046875,0.046875 -0.515625,0.2929688 -0.515625,0.5507813 0,0.1640625 0.1054688,0.3515625 0.375,0.3515625 0.2695313,0 0.5507813,-0.234375 0.5507813,-0.5859375 0,-0.3515625 -0.328125,-0.65625 -0.8320313,-0.65625 -0.6445312,0 -1.0898437,0.4921875 -1.2773437,0.7734375 C 2.157625,-4.0907188 1.8060625,-4.407125 1.3373125,-4.407125 c -0.45703125,0 -0.64453125,0.3867187 -0.73828125,0.5742187 -0.17578125,0.3398438 -0.3046875,0.9375 -0.3046875,0.9609375 0,0.1054688 0.09375,0.1054688 0.1171875,0.1054688 0.09375,0 0.10546875,-0.011719 0.1640625,-0.234375 0.17578125,-0.703125 0.375,-1.1835938 0.72656255,-1.1835938 0.1757812,0 0.3164062,0.082031 0.3164062,0.4570313 0,0.2109375 -0.035156,0.3164062 -0.1640625,0.8320312 z m 0,0"
       style="fill:#000000;fill-opacity:1;fill-rule:nonzero;stroke:none"
       aria-label="r"
       transform="matrix(1.3333333,0,0,1.3333333,377.31067,35.438667)" />
    <path
       id="path60"
       d="M 283.92828,-5.315 V 5.315"
       style="fill:none;stroke:#000000;stroke-width:0.3985;stroke-linecap:butt;stroke-linejoin:miter;stroke-miterlimit:10;stroke-dasharray:none;stroke-opacity:1"
       transform="matrix(1.3333333,0,0,-1.3333333,68.681333,236.67333)" />
    <path
       id="path61"
       d="m 2.6367109,-3.7147266 h 1.125 c -0.328125,1.4765625 -0.4101562,1.8984375 -0.4101562,2.5664063 0,0.15234374 0,0.42187499 0.070312,0.76171874 0.1054687,0.43359375 0.2109375,0.4921875 0.3632812,0.4921875 0.1992188,0 0.4101563,-0.17578125 0.4101563,-0.375 0,-0.0585938 0,-0.0820313 -0.058594,-0.22265625 -0.292968,-0.71484379 -0.292968,-1.35937499 -0.292968,-1.64062499 0,-0.5273438 0.070312,-1.0664063 0.1757812,-1.5820313 h 1.1367188 c 0.1289062,0 0.4921875,0 0.4921875,-0.3398437 0,-0.234375 -0.2109375,-0.234375 -0.3984375,-0.234375 H 1.9101484 c -0.2109375,0 -0.5976562,0 -1.03124996,0.46875 -0.3515625,0.3867187 -0.609375,0.84375 -0.609375,0.890625 0,0.011719 0,0.1054687 0.1171875,0.1054687 0.0820313,0 0.10546875,-0.046875 0.1640625,-0.1289062 C 1.0312422,-3.7147266 1.6171797,-3.7147266 1.8163984,-3.7147266 h 0.5625 c -0.3164062,1.2070313 -0.8554687,2.4140625 -1.2773437,3.31640629 -0.070312,0.15234375 -0.070312,0.1640625 -0.070312,0.234375 0,0.19921875 0.1523437,0.26953125 0.28125,0.26953125 0.3046875,0 0.3867187,-0.26953125 0.5039062,-0.64453125 0.140625,-0.45703125 0.140625,-0.48046879 0.2695313,-0.97265629 z m 0,0"
       style="fill:#000000;fill-opacity:1;fill-rule:nonzero;stroke:none"
       aria-label="π"
       transform="matrix(1.3333333,0,0,1.3333333,443.22267,253.16)" />
    <path
       id="path62"
       d="M 0,0 H 6.036"
       style="fill:none;stroke:#000000;stroke-width:0.398;stroke-linecap:butt;stroke-linejoin:miter;stroke-miterlimit:10;stroke-dasharray:none;stroke-opacity:1"
       transform="matrix(1.3333333,0,0,-1.3333333,443.22267,258.82667)" />
    <path
       id="path63"
       d="m 1.6282422,-4.5475156 c -0.46875,-0.3046875 -0.5039063,-0.6445313 -0.5039063,-0.8085938 0,-0.609375 0.6445313,-1.03125 1.359375,-1.03125 0.7265625,0 1.359375,0.515625 1.359375,1.2421875 0,0.5625 -0.3867187,1.0429688 -0.984375,1.3945313 z m 1.453125,0.9375 c 0.7148437,-0.3632813 1.2070312,-0.8789063 1.2070312,-1.5351563 0,-0.9257812 -0.890625,-1.4882812 -1.7929687,-1.4882812 -0.9960938,0 -1.80468751,0.7382812 -1.80468751,1.6640625 0,0.1757812 0.0117188,0.6210937 0.43359371,1.0898437 0.1054688,0.1289063 0.4804688,0.375 0.7265625,0.5390625 -0.5742187,0.2929688 -1.42968746,0.84375 -1.42968746,1.8398438 0,1.05468747 1.00781246,1.72265622 2.06249996,1.72265622 1.125,0 2.0625,-0.83203125 2.0625,-1.89843752 0,-0.3515625 -0.1054687,-0.8085937 -0.4804687,-1.21875 -0.1875,-0.2109375 -0.3515625,-0.3164062 -0.984375,-0.7148437 z m -0.9960938,0.421875 1.21875,0.7734375 c 0.28125,0.1875 0.75,0.4921875 0.75,1.1015625 0,0.73828122 -0.75,1.25390622 -1.5585937,1.25390622 -0.8671875,0 -1.58203126,-0.62109375 -1.58203126,-1.44140622 0,-0.5859375 0.31640626,-1.21875 1.17187496,-1.6875 z m 0,0"
       style="fill:#000000;fill-opacity:1;fill-rule:nonzero;stroke:none"
       aria-label="8"
       transform="matrix(1.3333333,0,0,1.3333333,443.92667,271.25867)" />
    <path
       id="path64"
       d="M 384.06322,-5.315 V 5.315"
       style="fill:none;stroke:#000000;stroke-width:0.3985;stroke-linecap:butt;stroke-linejoin:miter;stroke-miterlimit:10;stroke-dasharray:none;stroke-opacity:1"
       transform="matrix(1.3333333,0,0,-1.3333333,68.681333,236.67333)" />
    <g
       id="g64"
       aria-label="3π"
       transform="matrix(1.3333333,0,0,1.3333333,573.41333,254.58133)">
      <path
         id="path65"
         d="m 2.8950781,-3.5033828 c 0.8085938,-0.2695313 1.3945313,-0.9726563 1.3945313,-1.7578125 0,-0.8203125 -0.8789063,-1.3710938 -1.8398438,-1.3710938 -1.0078125,0 -1.75781248,0.5976563 -1.75781248,1.3476563 0,0.3398437 0.2109375,0.5273437 0.50390628,0.5273437 0.3046875,0 0.5039062,-0.2226562 0.5039062,-0.515625 0,-0.4921875 -0.46875,-0.4921875 -0.609375,-0.4921875 0.3046875,-0.4921875 0.9609375,-0.6210937 1.3242188,-0.6210937 0.4101562,0 0.9492187,0.2226562 0.9492187,1.1132812 0,0.1289063 -0.011719,0.703125 -0.2695312,1.1367188 -0.3046875,0.4804687 -0.6445313,0.515625 -0.890625,0.515625 -0.082031,0.011719 -0.3164063,0.035156 -0.3867188,0.035156 -0.082031,0.011719 -0.1523437,0.023437 -0.1523437,0.1171875 0,0.1171875 0.070312,0.1171875 0.234375,0.1171875 h 0.4453125 c 0.8085937,0 1.1835937,0.6679688 1.1835937,1.6523438 0,1.34765624 -0.6914062,1.64062499 -1.125,1.64062499 -0.4335937,0 -1.171875,-0.17578125 -1.52343748,-0.76171875 0.35156248,0.0585938 0.65624998,-0.1640625 0.65624998,-0.53906254 0,-0.3632812 -0.2695312,-0.5625 -0.56249998,-0.5625 -0.234375,0 -0.55078125,0.140625 -0.55078125,0.5742188 0,0.91406249 0.92578123,1.57031249 2.00390623,1.57031249 1.21875,0 2.1210938,-0.9140625 2.1210938,-1.92187499 0,-0.8203125 -0.6210938,-1.59375 -1.6523438,-1.8046873 z m 0,0"
         style="fill:#000000;fill-opacity:1;fill-rule:nonzero;stroke:none" />
      <path
         id="path66"
         d="m 7.6177344,-3.7143203 h 1.125 c -0.328125,1.4765625 -0.4101563,1.8984375 -0.4101563,2.5664062 0,0.15234379 0,0.42187504 0.070312,0.76171879 0.1054688,0.43359375 0.2109375,0.4921875 0.3632813,0.4921875 0.1992187,0 0.4101562,-0.17578125 0.4101562,-0.375 0,-0.0585938 0,-0.0820313 -0.058594,-0.22265625 -0.292968,-0.71484374 -0.292968,-1.35937504 -0.292968,-1.64062504 0,-0.5273437 0.070312,-1.0664062 0.1757813,-1.5820312 h 1.1367191 c 0.128906,0 0.492187,0 0.492187,-0.3398438 0,-0.234375 -0.210937,-0.234375 -0.398437,-0.234375 H 6.8911719 c -0.2109375,0 -0.5976563,0 -1.03125,0.46875 -0.3515625,0.3867188 -0.609375,0.84375 -0.609375,0.890625 0,0.011719 0,0.1054688 0.1171875,0.1054688 0.082031,0 0.1054687,-0.046875 0.1640625,-0.1289063 0.4804687,-0.7617187 1.0664062,-0.7617187 1.265625,-0.7617187 h 0.5625 c -0.3164063,1.2070312 -0.8554688,2.4140625 -1.2773438,3.31640624 -0.070312,0.15234375 -0.070312,0.1640625 -0.070312,0.234375 0,0.19921875 0.1523438,0.26953125 0.28125,0.26953125 0.3046875,0 0.3867188,-0.26953125 0.5039063,-0.64453125 0.140625,-0.45703125 0.140625,-0.48046874 0.2695312,-0.97265624 z m 0,0"
         style="fill:#000000;fill-opacity:1;fill-rule:nonzero;stroke:none" />
    </g>
    <path
       id="path67"
       d="M 0,0 H 11.018"
       style="fill:none;stroke:#000000;stroke-width:0.398;stroke-linecap:butt;stroke-linejoin:miter;stroke-miterlimit:10;stroke-dasharray:none;stroke-opacity:1"
       transform="matrix(1.3333333,0,0,-1.3333333,573.41333,260.24667)" />
    <path
       id="path68"
       d="M 1.6280312,-4.5471094 C 1.1592812,-4.8517969 1.124125,-5.1916406 1.124125,-5.3557031 c 0,-0.609375 0.6445312,-1.03125 1.359375,-1.03125 0.7265625,0 1.359375,0.515625 1.359375,1.2421875 0,0.5625 -0.3867188,1.0429687 -0.984375,1.3945312 z m 1.453125,0.9375 C 3.796,-3.9728906 4.2881875,-4.4885156 4.2881875,-5.1447656 c 0,-0.9257813 -0.890625,-1.4882813 -1.7929688,-1.4882813 -0.9960937,0 -1.80468745,0.7382813 -1.80468745,1.6640625 0,0.1757813 0.0117188,0.6210938 0.43359375,1.0898438 0.1054687,0.1289062 0.4804687,0.375 0.7265625,0.5390625 C 1.2764687,-3.0471094 0.421,-2.4963281 0.421,-1.5002344 c 0,1.05468753 1.0078125,1.72265628 2.0625,1.72265628 1.125,0 2.0625,-0.83203125 2.0625,-1.89843748 0,-0.3515625 -0.1054688,-0.8085938 -0.4804688,-1.21875 -0.1875,-0.2109375 -0.3515625,-0.3164063 -0.984375,-0.7148438 z m -0.9960937,0.421875 1.21875,0.7734375 c 0.28125,0.1875 0.75,0.4921875 0.75,1.1015625 0,0.73828128 -0.75,1.25390628 -1.5585938,1.25390628 -0.8671875,0 -1.5820312,-0.62109375 -1.5820312,-1.44140628 0,-0.5859375 0.3164062,-1.21875 1.171875,-1.6875 z m 0,0"
       style="fill:#000000;fill-opacity:1;fill-rule:nonzero;stroke:none"
       aria-label="8"
       transform="matrix(1.3333333,0,0,1.3333333,577.43867,272.68)" />
    <path
       id="path69"
       d="m 228.54616,42.5202 h 10.63"
       style="fill:none;stroke:#000000;stroke-width:0.3985;stroke-linecap:butt;stroke-linejoin:miter;stroke-miterlimit:10;stroke-dasharray:none;stroke-opacity:1"
       transform="matrix(1.3333333,0,0,-1.3333333,68.681333,236.67333)" />
    <path
       id="path70"
       d="m 2.9297344,-6.3737109 c 0,-0.234375 0,-0.2578125 -0.234375,-0.2578125 -0.609375,0.6328125 -1.4882813,0.6328125 -1.80468752,0.6328125 v 0.3164062 c 0.19921872,0 0.78515622,0 1.30078122,-0.2578125 v 5.15625001 c 0,0.3515625 -0.035156,0.48046875 -0.9257812,0.48046875 H 0.94926563 v 0.3046875 C 1.3008281,-0.03386719 2.1562969,-0.03386719 2.5547344,-0.03386719 c 0.3984375,0 1.265625,0 1.6171875,0.03515625 v -0.3046875 H 3.8555156 c -0.9023437,0 -0.9257812,-0.1171875 -0.9257812,-0.48046875 z m 0,0"
       style="fill:#000000;fill-opacity:1;fill-rule:nonzero;stroke:none"
       aria-label="1"
       transform="matrix(1.3333333,0,0,1.3333333,360.164,184.26)" />
    <path
       id="path71"
       d="m 228.54616,127.56062 h 10.63"
       style="fill:none;stroke:#000000;stroke-width:0.3985;stroke-linecap:butt;stroke-linejoin:miter;stroke-miterlimit:10;stroke-dasharray:none;stroke-opacity:1"
       transform="matrix(1.3333333,0,0,-1.3333333,68.681333,236.67333)" />
    <path
       id="path72"
       d="m 2.8945781,-3.5036563 c 0.8085938,-0.2695312 1.3945313,-0.9726562 1.3945313,-1.7578125 0,-0.8203125 -0.8789063,-1.3710937 -1.8398438,-1.3710937 -1.0078125,0 -1.75781247,0.5976562 -1.75781247,1.3476562 0,0.3398438 0.2109375,0.5273438 0.50390627,0.5273438 0.3046875,0 0.5039062,-0.2226563 0.5039062,-0.515625 0,-0.4921875 -0.46875,-0.4921875 -0.609375,-0.4921875 0.3046875,-0.4921875 0.9609375,-0.6210938 1.3242188,-0.6210938 0.4101562,0 0.9492187,0.2226563 0.9492187,1.1132813 0,0.1289062 -0.011719,0.703125 -0.2695312,1.1367187 -0.3046875,0.4804688 -0.6445313,0.515625 -0.890625,0.515625 -0.082031,0.011719 -0.3164063,0.035156 -0.3867188,0.035156 -0.082031,0.011719 -0.1523437,0.023437 -0.1523437,0.1171875 0,0.1171875 0.070312,0.1171875 0.234375,0.1171875 h 0.4453125 c 0.8085937,0 1.1835937,0.6679687 1.1835937,1.6523437 0,1.3476563 -0.6914062,1.64062505 -1.125,1.64062505 -0.4335937,0 -1.171875,-0.17578125 -1.52343747,-0.76171875 0.35156247,0.0585938 0.65624997,-0.1640625 0.65624997,-0.5390625 0,-0.3632813 -0.2695312,-0.5625 -0.56249997,-0.5625 -0.234375,0 -0.55078125,0.140625 -0.55078125,0.5742187 0,0.91406255 0.92578122,1.57031255 2.00390622,1.57031255 1.21875,0 2.1210938,-0.9140625 2.1210938,-1.92187505 0,-0.8203125 -0.6210938,-1.59375 -1.6523438,-1.8046872 z m 0,0"
       style="fill:#000000;fill-opacity:1;fill-rule:nonzero;stroke:none"
       aria-label="3"
       transform="matrix(1.3333333,0,0,1.3333333,360.164,70.874667)" />
    <path
       id="path73"
       d="m 344.00912,63.7803 v 21.26012 h 20.02672 V 63.7803 Z"
       style="fill:#eace2b;fill-opacity:1;fill-rule:nonzero;stroke:none"
       transform="matrix(1.3333333,0,0,-1.3333333,68.681333,236.67333)" />
    <path
       id="path74"
       d="M 283.92828,0 V 42.5202"
       style="fill:none;stroke:#000000;stroke-width:0.3985;stroke-linecap:butt;stroke-linejoin:miter;stroke-miterlimit:10;stroke-dasharray:2.98883, 2.98883;stroke-dashoffset:0;stroke-opacity:1"
       transform="matrix(1.3333333,0,0,-1.3333333,68.681333,236.67333)" />
    <path
       id="path75"
       d="m 283.92828,42.5202 v 85.04042"
       style="fill:none;stroke:#e81c2b;stroke-width:0.79701;stroke-linecap:butt;stroke-linejoin:miter;stroke-miterlimit:10;stroke-dasharray:none;stroke-opacity:1"
       transform="matrix(1.3333333,0,0,-1.3333333,68.681333,236.67333)" />
    <path
       id="path76"
       d="M 303.95502,0 V 42.5202"
       style="fill:none;stroke:#000000;stroke-width:0.3985;stroke-linecap:butt;stroke-linejoin:miter;stroke-miterlimit:10;stroke-dasharray:2.98883, 2.98883;stroke-dashoffset:0;stroke-opacity:1"
       transform="matrix(1.3333333,0,0,-1.3333333,68.681333,236.67333)" />
    <path
       id="path77"
       d="m 303.95502,42.5202 v 85.04042"
       style="fill:none;stroke:#e81c2b;stroke-width:0.79701;stroke-linecap:butt;stroke-linejoin:miter;stroke-miterlimit:10;stroke-dasharray:none;stroke-opacity:1"
       transform="matrix(1.3333333,0,0,-1.3333333,68.681333,236.67333)" />
    <path
       id="path78"
       d="M 323.98174,0 V 42.5202"
       style="fill:none;stroke:#000000;stroke-width:0.3985;stroke-linecap:butt;stroke-linejoin:miter;stroke-miterlimit:10;stroke-dasharray:2.98883, 2.98883;stroke-dashoffset:0;stroke-opacity:1"
       transform="matrix(1.3333333,0,0,-1.3333333,68.681333,236.67333)" />
    <path
       id="path79"
       d="m 323.98174,42.5202 v 85.04042"
       style="fill:none;stroke:#e81c2b;stroke-width:0.79701;stroke-linecap:butt;stroke-linejoin:miter;stroke-miterlimit:10;stroke-dasharray:none;stroke-opacity:1"
       transform="matrix(1.3333333,0,0,-1.3333333,68.681333,236.67333)" />
    <path
       id="path80"
       d="M 344.00912,0 V 42.5202"
       style="fill:none;stroke:#000000;stroke-width:0.3985;stroke-linecap:butt;stroke-linejoin:miter;stroke-miterlimit:10;stroke-dasharray:2.98883, 2.98883;stroke-dashoffset:0;stroke-opacity:1"
       transform="matrix(1.3333333,0,0,-1.3333333,68.681333,236.67333)" />
    <path
       id="path81"
       d="m 344.00912,42.5202 v 85.04042"
       style="fill:none;stroke:#e81c2b;stroke-width:0.79701;stroke-linecap:butt;stroke-linejoin:miter;stroke-miterlimit:10;stroke-dasharray:none;stroke-opacity:1"
       transform="matrix(1.3333333,0,0,-1.3333333,68.681333,236.67333)" />
    <path
       id="path82"
       d="M 364.03584,0 V 42.5202"
       style="fill:none;stroke:#000000;stroke-width:0.3985;stroke-linecap:butt;stroke-linejoin:miter;stroke-miterlimit:10;stroke-dasharray:2.98883, 2.98883;stroke-dashoffset:0;stroke-opacity:1"
       transform="matrix(1.3333333,0,0,-1.3333333,68.681333,236.67333)" />
    <path
       id="path83"
       d="m 364.03584,42.5202 v 85.04042"
       style="fill:none;stroke:#e81c2b;stroke-width:0.79701;stroke-linecap:butt;stroke-linejoin:miter;stroke-miterlimit:10;stroke-dasharray:none;stroke-opacity:1"
       transform="matrix(1.3333333,0,0,-1.3333333,68.681333,236.67333)" />
    <path
       id="path84"
       d="M 384.06322,0 V 42.5202"
       style="fill:none;stroke:#000000;stroke-width:0.3985;stroke-linecap:butt;stroke-linejoin:miter;stroke-miterlimit:10;stroke-dasharray:2.98883, 2.98883;stroke-dashoffset:0;stroke-opacity:1"
       transform="matrix(1.3333333,0,0,-1.3333333,68.681333,236.67333)" />
    <path
       id="path85"
       d="m 384.06322,42.5202 v 85.04042"
       style="fill:none;stroke:#e81c2b;stroke-width:0.79701;stroke-linecap:butt;stroke-linejoin:miter;stroke-miterlimit:10;stroke-dasharray:none;stroke-opacity:1"
       transform="matrix(1.3333333,0,0,-1.3333333,68.681333,236.67333)" />
    <path
       id="path86"
       d="m 233.86116,42.5202 h 50.06712"
       style="fill:none;stroke:#000000;stroke-width:0.3985;stroke-linecap:butt;stroke-linejoin:miter;stroke-miterlimit:10;stroke-dasharray:2.98883, 2.98883;stroke-dashoffset:0;stroke-opacity:1"
       transform="matrix(1.3333333,0,0,-1.3333333,68.681333,236.67333)" />
    <path
       id="path87"
       d="M 283.92828,42.5202 H 384.06322"
       style="fill:none;stroke:#449fe3;stroke-width:0.79701;stroke-linecap:butt;stroke-linejoin:miter;stroke-miterlimit:10;stroke-dasharray:none;stroke-opacity:1"
       transform="matrix(1.3333333,0,0,-1.3333333,68.681333,236.67333)" />
    <path
       id="path88"
       d="m 233.86116,63.7803 h 50.06712"
       style="fill:none;stroke:#000000;stroke-width:0.3985;stroke-linecap:butt;stroke-linejoin:miter;stroke-miterlimit:10;stroke-dasharray:2.98883, 2.98883;stroke-dashoffset:0;stroke-opacity:1"
       transform="matrix(1.3333333,0,0,-1.3333333,68.681333,236.67333)" />
    <path
       id="path89"
       d="M 283.92828,63.7803 H 384.06322"
       style="fill:none;stroke:#449fe3;stroke-width:0.79701;stroke-linecap:butt;stroke-linejoin:miter;stroke-miterlimit:10;stroke-dasharray:none;stroke-opacity:1"
       transform="matrix(1.3333333,0,0,-1.3333333,68.681333,236.67333)" />
    <path
       id="path90"
       d="m 233.86116,85.04042 h 50.06712"
       style="fill:none;stroke:#000000;stroke-width:0.3985;stroke-linecap:butt;stroke-linejoin:miter;stroke-miterlimit:10;stroke-dasharray:2.98883, 2.98883;stroke-dashoffset:0;stroke-opacity:1"
       transform="matrix(1.3333333,0,0,-1.3333333,68.681333,236.67333)" />
    <path
       id="path91"
       d="M 283.92828,85.04042 H 384.06322"
       style="fill:none;stroke:#449fe3;stroke-width:0.79701;stroke-linecap:butt;stroke-linejoin:miter;stroke-miterlimit:10;stroke-dasharray:none;stroke-opacity:1"
       transform="matrix(1.3333333,0,0,-1.3333333,68.681333,236.67333)" />
    <path
       id="path92"
       d="m 233.86116,106.3005 h 50.06712"
       style="fill:none;stroke:#000000;stroke-width:0.3985;stroke-linecap:butt;stroke-linejoin:miter;stroke-miterlimit:10;stroke-dasharray:2.98883, 2.98883;stroke-dashoffset:0;stroke-opacity:1"
       transform="matrix(1.3333333,0,0,-1.3333333,68.681333,236.67333)" />
    <path
       id="path93"
       d="M 283.92828,106.3005 H 384.06322"
       style="fill:none;stroke:#449fe3;stroke-width:0.79701;stroke-linecap:butt;stroke-linejoin:miter;stroke-miterlimit:10;stroke-dasharray:none;stroke-opacity:1"
       transform="matrix(1.3333333,0,0,-1.3333333,68.681333,236.67333)" />
    <path
       id="path94"
       d="m 233.86116,127.56062 h 50.06712"
       style="fill:none;stroke:#000000;stroke-width:0.3985;stroke-linecap:butt;stroke-linejoin:miter;stroke-miterlimit:10;stroke-dasharray:2.98883, 2.98883;stroke-dashoffset:0;stroke-opacity:1"
       transform="matrix(1.3333333,0,0,-1.3333333,68.681333,236.67333)" />
    <path
       id="path95"
       d="M 283.92828,127.56062 H 384.06322"
       style="fill:none;stroke:#449fe3;stroke-width:0.79701;stroke-linecap:butt;stroke-linejoin:miter;stroke-miterlimit:10;stroke-dasharray:none;stroke-opacity:1"
       transform="matrix(1.3333333,0,0,-1.3333333,68.681333,236.67333)" />
    <g
       id="g95"
       aria-label="∆r"
       transform="matrix(1.3333333,0,0,1.3333333,587.20933,141.99867)">
      <path
         id="path96"
         d="m 4.4074531,-6.9482188 c -0.070312,-0.1289062 -0.09375,-0.1875 -0.2578125,-0.1875 -0.1757812,0 -0.1992187,0.058594 -0.2578125,0.1875 l -3.37499997,6.75000005 c -0.046875,0.09375 -0.046875,0.10546875 -0.046875,0.1171875 C 0.46995313,0.001 0.52854688,0.001 0.69260938,0.001 H 7.6066719 c 0.1523437,0 0.2109375,0 0.2109375,-0.08203125 0,-0.01171875 0,-0.0234375 -0.046875,-0.1171875 z M 3.8215156,-6.139625 6.5051094,-0.76071875 H 1.1379219 Z m 0,0"
         style="fill:#000000;fill-opacity:1;fill-rule:nonzero;stroke:none" />
      <path
         id="path97"
         d="m 9.1799141,-0.5849375 c -0.035156,0.15234375 -0.09375,0.375 -0.09375,0.421875 0,0.1875 0.140625,0.26953125 0.2929687,0.26953125 0.1171875,0 0.2929688,-0.0703125 0.3632813,-0.26953125 0.023437,-0.046875 0.3632809,-1.3945313 0.3984379,-1.5820313 0.08203,-0.328125 0.257812,-1.0195312 0.316406,-1.2890625 0.04687,-0.1289062 0.328125,-0.5976562 0.5625,-0.8203125 0.08203,-0.070312 0.375,-0.328125 0.796875,-0.328125 0.257812,0 0.410156,0.1171875 0.421875,0.1171875 -0.304688,0.046875 -0.515625,0.2929688 -0.515625,0.5507813 0,0.1640625 0.105469,0.3515625 0.375,0.3515625 0.269531,0 0.550781,-0.234375 0.550781,-0.5859375 0,-0.3515625 -0.328125,-0.65625 -0.832031,-0.65625 -0.644531,0 -1.089844,0.4921875 -1.277344,0.7734375 -0.08203,-0.4570313 -0.433594,-0.7734375 -0.9023437,-0.7734375 -0.4570312,0 -0.6445312,0.3867187 -0.7382812,0.5742187 -0.1757813,0.3398438 -0.3046875,0.9375 -0.3046875,0.9609375 0,0.1054688 0.09375,0.1054688 0.1171875,0.1054688 0.09375,0 0.1054687,-0.011719 0.1640625,-0.234375 0.1757812,-0.703125 0.375,-1.1835938 0.7265625,-1.1835938 0.1757812,0 0.3164062,0.082031 0.3164062,0.4570313 0,0.2109375 -0.035156,0.3164062 -0.1640625,0.8320312 z m 0,0"
         style="fill:#000000;fill-opacity:1;fill-rule:nonzero;stroke:none" />
    </g>
    <g
       id="g97"
       aria-label="∆θ"
       transform="matrix(1.3333333,0,0,1.3333333,533.23067,59.868)">
      <path
         id="path98"
         d="m 4.4061016,-6.9498281 c -0.070312,-0.1289063 -0.09375,-0.1875 -0.2578125,-0.1875 -0.1757813,0 -0.1992188,0.058594 -0.2578125,0.1875 l -3.37500004,6.74999997 c -0.046875,0.09375 -0.046875,0.10546875 -0.046875,0.1171875 0,0.082031255 0.0585938,0.082031255 0.22265625,0.082031255 H 7.6053203 c 0.1523438,0 0.2109375,0 0.2109375,-0.082031255 0,-0.01171875 0,-0.0234375 -0.046875,-0.1171875 z m -0.5859375,0.8085937 2.6835937,5.37890627 H 1.1365703 Z m 0,0"
         style="fill:#000000;fill-opacity:1;fill-rule:nonzero;stroke:none" />
      <path
         id="path99"
         d="m 12.837742,-4.9810781 c 0,-0.65625 -0.1875,-2.0390625 -1.195312,-2.0390625 -1.382813,0 -2.9179691,2.8007812 -2.9179691,5.0859375 0,0.93749997 0.28125,2.03906247 1.1953125,2.03906247 1.4062496,0 2.9179686,-2.85937497 2.9179686,-5.08593747 z m -3.0585936,1.359375 c 0.1640625,-0.6328125 0.3632816,-1.4296875 0.7617186,-2.1328125 0.269531,-0.4921875 0.644531,-1.0546875 1.089844,-1.0546875 0.492187,0 0.550781,0.6445312 0.550781,1.2070312 0,0.4921875 -0.08203,0.9960938 -0.328125,1.9804688 z m 1.9921876,0.328125 c -0.117188,0.4570312 -0.316406,1.3007812 -0.703125,2.015625 -0.339844,0.67968747 -0.726563,1.17187497 -1.1484376,1.17187497 -0.328125,0 -0.5390625,-0.29296875 -0.5390625,-1.21874997 0,-0.421875 0.058594,-0.9960938 0.3164063,-1.96875 z m 0,0"
         style="fill:#000000;fill-opacity:1;fill-rule:nonzero;stroke:none" />
    </g>
  </g>
</svg>
