<?xml version="1.0" encoding="UTF-8" standalone="no"?>
<!-- Created with Inkscape (http://www.inkscape.org/) -->

<svg
   version="1.1"
   id="svg1"
   width="404.624"
   height="288.84266"
   viewBox="0 0 202.312 144.42133"
   xmlns="http://www.w3.org/2000/svg"
   xmlns:svg="http://www.w3.org/2000/svg">
  <defs
     id="defs1" />
  <g
     id="g1">
    <path
       id="path1"
       d="m 0,0 v 14.17339 m 0,0 V 28.3468 m 0,4.2024 v 19.942 m 0,4.20242 V 70.867 m 0,0 v 14.17342 l 40.81941,-2e-5 m 31.7484,0 40.81943,2e-5 V 46.48868 m 0,-7.93695 V 0 H 68.59933 M 44.78789,0 H 0"
       style="fill:none;stroke:#000000;stroke-width:0.3985;stroke-linecap:butt;stroke-linejoin:miter;stroke-miterlimit:10;stroke-dasharray:none;stroke-opacity:1"
       transform="matrix(1.3333333,0,0,-1.3333333,33.132,139.70933)" />
    <path
       id="path2"
       d="m 6.5616641,-2.2970938 c 0.1757812,0 0.3515625,0 0.3515625,-0.1992187 0,-0.1992188 -0.1757813,-0.1992188 -0.3515625,-0.1992188 h -5.390625 c -0.1640625,0 -0.33984379,0 -0.33984379,0.1992188 0,0.1992187 0.17578129,0.1992187 0.33984379,0.1992187 z m 0,0"
       style="fill:#000000;fill-opacity:1;fill-rule:nonzero;stroke:none"
       aria-label="−"
       transform="matrix(1.3333333,0,0,1.3333333,37.825333,105.23467)" />
    <path
       id="path3"
       d="m 1.58714,28.3468 c 0,0.87656 -0.71058,1.58714 -1.58714,1.58714 -0.87656,0 -1.58714,-0.71058 -1.58714,-1.58714 0,-0.87655 0.71058,-1.58714 1.58714,-1.58714 0.87656,0 1.58714,0.71059 1.58714,1.58714 z"
       style="fill:#ffffff;fill-opacity:1;fill-rule:nonzero;stroke:#000000;stroke-width:0.3985;stroke-linecap:butt;stroke-linejoin:miter;stroke-miterlimit:10;stroke-dasharray:none;stroke-opacity:1"
       transform="matrix(1.3333333,0,0,-1.3333333,33.132,139.70933)" />
    <path
       id="path4"
       d="m 1.58714,56.69362 c 0,0.87656 -0.71058,1.58714 -1.58714,1.58714 -0.87656,0 -1.58714,-0.71058 -1.58714,-1.58714 0,-0.87657 0.71058,-1.58716 1.58714,-1.58716 0.87656,0 1.58714,0.71059 1.58714,1.58716 z"
       style="fill:#ffffff;fill-opacity:1;fill-rule:nonzero;stroke:#000000;stroke-width:0.3985;stroke-linecap:butt;stroke-linejoin:miter;stroke-miterlimit:10;stroke-dasharray:none;stroke-opacity:1"
       transform="matrix(1.3333333,0,0,-1.3333333,33.132,139.70933)" />
    <path
       id="path5"
       d="M 0,48.27464 H 1.98425 L 0,52.4912 -1.98425,48.27464 H 0"
       style="fill:#000000;fill-opacity:1;fill-rule:nonzero;stroke:#000000;stroke-width:0.3985;stroke-linecap:butt;stroke-linejoin:miter;stroke-miterlimit:10;stroke-dasharray:none;stroke-opacity:1"
       transform="matrix(1.3333333,0,0,-1.3333333,33.132,139.70933)" />
    <g
       id="g5"
       aria-label="E(t)"
       transform="matrix(1.3333333,0,0,1.3333333,2.6573333,86.337333)">
      <path
         id="path6"
         d="m 7.053875,-2.3213594 c 0.023437,-0.046875 0.046875,-0.1171875 0.046875,-0.140625 0,-0.011719 0,-0.1054687 -0.1171875,-0.1054687 -0.09375,0 -0.1054687,0.058594 -0.1289062,0.1171875 -0.6445313,1.47656247 -1.0195313,2.14453122 -2.71875,2.14453122 h -1.453125 c -0.140625,0 -0.1640625,0 -0.2226563,-0.0117188 -0.1054687,-0.0117188 -0.1289062,-0.0234375 -0.1289062,-0.10546875 0,-0.0234375 0,-0.046875 0.046875,-0.22265625 L 3.0577813,-3.3643281 h 0.984375 c 0.84375,0 0.84375,0.2109375 0.84375,0.4570312 0,0.070312 0,0.1875 -0.070312,0.4804688 -0.011719,0.058594 -0.023437,0.082031 -0.023437,0.1171875 0,0.046875 0.035156,0.1054687 0.1289062,0.1054687 0.082031,0 0.1054688,-0.046875 0.1523438,-0.1992187 l 0.5625,-2.3320313 c 0,-0.058594 -0.046875,-0.1054687 -0.1171875,-0.1054687 -0.09375,0 -0.1054688,0.058594 -0.140625,0.1757812 -0.2109375,0.7617188 -0.3867188,0.984375 -1.3007813,0.984375 h -0.9375 l 0.5976563,-2.4023437 c 0.082031,-0.3398438 0.09375,-0.3867188 0.5390625,-0.3867188 h 1.40625 c 1.2070312,0 1.5117187,0.2929688 1.5117187,1.1132813 0,0.234375 0,0.2578125 -0.046875,0.5273437 0,0.058594 -0.011719,0.1289063 -0.011719,0.1757813 0,0.046875 0.035156,0.1171875 0.1289062,0.1171875 0.1054688,0 0.1171875,-0.058594 0.140625,-0.2460938 L 7.6046563,-6.5049531 C 7.6280938,-6.7744844 7.5812188,-6.7744844 7.335125,-6.7744844 H 2.2960625 c -0.1992187,0 -0.2929687,0 -0.2929687,0.1992188 0,0.1054687 0.09375,0.1054687 0.28125,0.1054687 0.3632812,0 0.6445312,0 0.6445312,0.1875 0,0.035156 0,0.058594 -0.046875,0.234375 l -1.3242187,5.27343752 c -0.09375,0.38671875 -0.1171875,0.46875 -0.9023438,0.46875 -0.1640625,0 -0.28125,0 -0.28125,0.1875 0,0.1171875 0.09375,0.1171875 0.28125,0.1171875 h 5.1679688 c 0.234375,0 0.2460937,-0.01171875 0.3164062,-0.1640625 z m 0,0"
         style="fill:#000000;fill-opacity:1;fill-rule:nonzero;stroke:none" />
      <path
         id="path7"
         d="m 11.219891,2.3895781 c 0,-0.035156 0,-0.046875 -0.164063,-0.2226562 -1.2421874,-1.25390628 -1.5703124,-3.12890628 -1.5703124,-4.6640625 0,-1.7226563 0.3867188,-3.4570313 1.6054684,-4.7109375 0.128907,-0.1171875 0.128907,-0.1289063 0.128907,-0.1640625 0,-0.070312 -0.03516,-0.1054688 -0.09375,-0.1054688 -0.105469,0 -0.996094,0.6796875 -1.5820316,1.9453125 -0.515625,1.1015625 -0.6328125,2.203125 -0.6328125,3.0351563 0,0.7851562 0.1171875,1.99218747 0.65625,3.11718747 0.5976561,1.21875003 1.4531251,1.87500003 1.5585941,1.87500003 0.05859,0 0.09375,-0.035156 0.09375,-0.1054688 z m 0,0"
         style="fill:#000000;fill-opacity:1;fill-rule:nonzero;stroke:none" />
      <path
         id="path8"
         d="m 13.85368,-3.9854219 h 0.9375 c 0.199218,0 0.304687,0 0.304687,-0.1992187 0,-0.1054688 -0.105469,-0.1054688 -0.28125,-0.1054688 h -0.878906 c 0.363281,-1.4179687 0.410156,-1.6171875 0.410156,-1.6757812 0,-0.1757813 -0.117187,-0.2695313 -0.292969,-0.2695313 -0.02344,0 -0.304687,0.011719 -0.398437,0.3515625 l -0.386719,1.59375 h -0.9375 c -0.199219,0 -0.292969,0 -0.292969,0.1875 0,0.1171875 0.07031,0.1171875 0.269532,0.1171875 h 0.878906 c -0.714844,2.8242188 -0.75,3.00000002 -0.75,3.17578127 0,0.5390625 0.375,0.9140625 0.914062,0.9140625 1.007813,0 1.582032,-1.45312497 1.582032,-1.53515627 0,-0.09375 -0.08203,-0.09375 -0.117188,-0.09375 -0.09375,0 -0.105469,0.023437 -0.152344,0.140625 -0.433593,1.03125002 -0.960937,1.27734377 -1.300781,1.27734377 -0.199219,0 -0.304687,-0.12890625 -0.304687,-0.45703125 0,-0.24609375 0.02344,-0.31640625 0.05859,-0.48046872 z m 0,0"
         style="fill:#000000;fill-opacity:1;fill-rule:nonzero;stroke:none" />
      <path
         id="path9"
         d="m 18.283367,-2.4971406 c 0,-0.7734375 -0.117187,-1.9804688 -0.65625,-3.1054688 -0.597656,-1.21875 -1.464844,-1.875 -1.558594,-1.875 -0.05859,0 -0.105468,0.046875 -0.105468,0.1054688 0,0.035156 0,0.046875 0.199218,0.234375 0.972657,0.984375 1.535157,2.5664062 1.535157,4.640625 0,1.71093747 -0.363282,3.45703122 -1.59375,4.7226562 -0.140625,0.1171875 -0.140625,0.1289063 -0.140625,0.1640625 0,0.058594 0.04687,0.1054688 0.105468,0.1054688 0.09375,0 0.996094,-0.6796875 1.582032,-1.94531253 0.503906,-1.1015625 0.632812,-2.20312497 0.632812,-3.04687497 z m 0,0"
         style="fill:#000000;fill-opacity:1;fill-rule:nonzero;stroke:none" />
    </g>
    <path
       id="path10"
       d="m 4.0772891,-2.2958203 h 2.7773437 c 0.140625,0 0.328125,0 0.328125,-0.1992188 0,-0.1992187 -0.1875,-0.1992187 -0.328125,-0.1992187 H 4.0772891 v -2.7890625 c 0,-0.1289063 0,-0.328125 -0.1992188,-0.328125 -0.1992187,0 -0.1992187,0.1992187 -0.1992187,0.328125 v 2.7890625 H 0.88978906 c -0.140625,0 -0.328125,0 -0.328125,0.1992187 0,0.1992188 0.1875,0.1992188 0.328125,0.1992188 H 3.6788516 v 2.80078124 c 0,0.12890625 0,0.328125 0.1992187,0.328125 0.1992188,0 0.1992188,-0.19921875 0.1992188,-0.328125 z m 0,0"
       style="fill:#000000;fill-opacity:1;fill-rule:nonzero;stroke:none"
       aria-label="+"
       transform="matrix(1.3333333,0,0,1.3333333,37.825333,67.44)" />
    <path
       id="path11"
       d="m 40.42091,85.0404 1.73795,5.95286 2.67889,-11.90571 2.6789,11.90571 2.67889,-11.90571 2.6789,11.90571 2.67889,-11.90571 2.67889,11.90571 2.6789,-11.90571 2.67889,11.90571 2.67888,-11.90571 2.67889,11.90571 2.6789,-11.90571 1.33945,5.95285"
       style="fill:none;stroke:#000000;stroke-width:0.797;stroke-linecap:butt;stroke-linejoin:bevel;stroke-miterlimit:10;stroke-dasharray:none;stroke-opacity:1"
       transform="matrix(1.3333333,0,0,-1.3333333,33.132,139.70933)" />
    <path
       id="path12"
       d="m 3.7389609,-6.1186016 c 0.058594,-0.234375 0.082031,-0.3398437 0.28125,-0.3632812 0.082031,-0.011719 0.3984375,-0.011719 0.5976563,-0.011719 0.7148437,0 1.8164062,0 1.8164062,0.984375 0,0.3398438 -0.1523437,1.0195313 -0.5507812,1.4179688 -0.2578125,0.2578125 -0.7851563,0.5742187 -1.6757813,0.5742187 H 3.0944297 Z m 1.4296875,2.7304688 c 1.0078125,-0.2226563 2.1914063,-0.9140625 2.1914063,-1.921875 0,-0.8554688 -0.890625,-1.5 -2.203125,-1.5 H 2.3209922 c -0.1992188,0 -0.2929688,0 -0.2929688,0.1992187 0,0.1171875 0.09375,0.1171875 0.28125,0.1171875 0.023437,0 0.2109375,0 0.3867188,0.011719 0.1757812,0.023437 0.2578125,0.035156 0.2578125,0.1640625 0,0.035156 0,0.070312 -0.035156,0.1875 l -1.3359375,5.35546874 c -0.09375,0.38671875 -0.1171875,0.46875 -0.90234371,0.46875 -0.17578125,0 -0.26953125,0 -0.26953125,0.19921875 0,0.10546875 0.1171875,0.10546875 0.140625,0.10546875 0.28125,0 0.97265626,-0.03515625 1.25390626,-0.03515625 0.28125,0 0.984375,0.03515625 1.265625,0.03515625 0.082031,0 0.1992187,0 0.1992187,-0.19921875 0,-0.10546875 -0.09375,-0.10546875 -0.28125,-0.10546875 -0.3632812,0 -0.6445312,0 -0.6445312,-0.1875 0,-0.0585938 0.011719,-0.10546875 0.023437,-0.1640625 l 0.65625,-2.63671874 h 1.1953125 c 0.9023437,0 1.078125,0.5507812 1.078125,0.9023437 0,0.1523438 -0.082031,0.4570313 -0.140625,0.6914063 -0.070312,0.2695312 -0.1523438,0.6445312 -0.1523438,0.84374999 0,1.078125 1.1953125,1.078125 1.3242188,1.078125 0.84375,0 1.1953125,-1.0078125 1.1953125,-1.1484375 0,-0.11718749 -0.1171875,-0.11718749 -0.1171875,-0.11718749 -0.09375,0 -0.1171875,0.0703125 -0.1289063,0.14062499 -0.2578125,0.73828125 -0.6796875,0.90234375 -0.9140625,0.90234375 -0.328125,0 -0.3984375,-0.22265625 -0.3984375,-0.609375 0,-0.3046875 0.058594,-0.82031254 0.1054688,-1.13671874 0.011719,-0.140625 0.035156,-0.328125 0.035156,-0.46875 0,-0.7617188 -0.6679687,-1.078125 -0.9374996,-1.1718752 z m 0,0"
       style="fill:#000000;fill-opacity:1;fill-rule:nonzero;stroke:none"
       aria-label="R"
       transform="matrix(1.3333333,0,0,1.3333333,103.628,13.302667)" />
    <path
       id="path13"
       d="m 18.67348,85.0404 v -1.98425 l 4.21653,1.98425 -4.21653,1.98426 V 85.0404"
       style="fill:#000000;fill-opacity:1;fill-rule:nonzero;stroke:#000000;stroke-width:0.3985;stroke-linecap:butt;stroke-linejoin:miter;stroke-miterlimit:10;stroke-dasharray:none;stroke-opacity:1"
       transform="matrix(1.3333333,0,0,-1.3333333,33.132,139.70933)" />
    <path
       id="path14"
       d="m 3.7253203,-6.0364766 c 0.09375,-0.3632812 0.1171875,-0.4570312 0.9023438,-0.4570312 0.2460937,0 0.3164062,0 0.3164062,-0.1875 0,-0.1289063 -0.1054687,-0.1289063 -0.140625,-0.1289063 -0.2929687,0 -1.03125,0.035156 -1.3125,0.035156 -0.3046875,0 -1.03125,-0.035156 -1.3359375,-0.035156 -0.058594,0 -0.1992187,0 -0.1992187,0.1992188 0,0.1171875 0.09375,0.1171875 0.28125,0.1171875 0.421875,0 0.6914062,0 0.6914062,0.1875 0,0.046875 0,0.070312 -0.023437,0.1640625 l -1.3476562,5.36718749 c -0.082031,0.36328125 -0.1171875,0.46875 -0.90234379,0.46875 -0.22265625,0 -0.31640625,0 -0.31640625,0.19921875 0,0.10546875 0.1171875,0.10546875 0.15234375,0.10546875 0.28125,0 1.00781249,-0.03515625 1.30078129,-0.03515625 0.3046875,0 1.03125,0.03515625 1.3359375,0.03515625 0.082031,0 0.1992187,0 0.1992187,-0.1875 0,-0.1171875 -0.082031,-0.1171875 -0.3046875,-0.1171875 -0.1757812,0 -0.2226562,0 -0.421875,-0.0234375 -0.2109375,-0.0234375 -0.2460937,-0.0585938 -0.2460937,-0.17578125 0,-0.0703125 0.011719,-0.15234375 0.035156,-0.22265625 z m 0,0"
       style="fill:#000000;fill-opacity:1;fill-rule:nonzero;stroke:none"
       aria-label="I"
       transform="matrix(1.3333333,0,0,1.3333333,56.904,21.630667)" />
    <path
       id="path15"
       d="m 125.29295,38.55173 c -3.88131,2.235 -7.59585,4.36534 -11.90571,4.36534 -4.30986,0 -8.0244,-2.13033 -11.90574,-4.36534"
       style="fill:none;stroke:#000000;stroke-width:3.18803;stroke-linecap:butt;stroke-linejoin:miter;stroke-miterlimit:10;stroke-dasharray:none;stroke-opacity:1"
       transform="matrix(1.3333333,0,0,-1.3333333,33.132,139.70933)" />
    <path
       id="path16"
       d="M 125.29295,46.48868 H 101.4815"
       style="fill:none;stroke:#000000;stroke-width:3.18803;stroke-linecap:butt;stroke-linejoin:miter;stroke-miterlimit:10;stroke-dasharray:none;stroke-opacity:1"
       transform="matrix(1.3333333,0,0,-1.3333333,33.132,139.70933)" />
    <path
       id="path17"
       d="M 113.38724,42.91707 V 38.55173"
       style="fill:none;stroke:#000000;stroke-width:0.3985;stroke-linecap:butt;stroke-linejoin:miter;stroke-miterlimit:10;stroke-dasharray:none;stroke-opacity:1"
       transform="matrix(1.3333333,0,0,-1.3333333,33.132,139.70933)" />
    <path
       id="path18"
       d="m 7.5696016,-6.9265313 c 0,-0.023437 -0.023437,-0.09375 -0.1054688,-0.09375 -0.035156,0 -0.046875,0.011719 -0.1523437,0.1171875 L 6.6086641,-6.141375 C 6.5266328,-6.282 6.0696016,-7.0202813 4.9563203,-7.0202813 c -2.2148437,0 -4.45312499,2.203125 -4.45312499,4.5117188 0,1.640625 1.17187499,2.73046875 2.69531249,2.73046875 0.8671875,0 1.6171875,-0.3984375 2.1445313,-0.85546875 0.9375,-0.8203125 1.1015625,-1.7226563 1.1015625,-1.7578125 0,-0.1054688 -0.1054688,-0.1054688 -0.1171875,-0.1054688 -0.058594,0 -0.1171875,0.023437 -0.1289063,0.1054688 -0.09375,0.2929687 -0.3164062,0.9960937 -1.0078125,1.5703125 -0.6914062,0.5625 -1.3125,0.7265625 -1.8398437,0.7265625 -0.890625,0 -1.9453125,-0.515625 -1.9453125,-2.0625 0,-0.5742188 0.2109375,-2.1914063 1.2070312,-3.3515625 0.609375,-0.703125 1.5351563,-1.2070313 2.4257813,-1.2070313 1.0195312,0 1.6054687,0.7734375 1.6054687,1.921875 0,0.3984375 -0.035156,0.4101563 -0.035156,0.5039063 0,0.1054687 0.1171875,0.1054687 0.1523437,0.1054687 0.1289063,0 0.1289063,-0.023437 0.1757813,-0.1992187 z m 0,0"
       style="fill:#000000;fill-opacity:1;fill-rule:nonzero;stroke:none"
       aria-label="C"
       transform="matrix(1.3333333,0,0,1.3333333,154.26267,85.876)" />
    <path
       id="path19"
       d="m 68.99783,-0.15938 c 0,3.28768 -1.63475,5.95284 -3.65135,5.95284 -2.0166,0 -3.65134,-2.66516 -3.65134,-5.95284 0,-1.64377 0.66625,-2.97629 1.48813,-2.97629 0.82189,0 1.48815,1.33252 1.48815,2.97629 0,3.28768 -1.63475,5.95284 -3.65135,5.95284 -2.01661,0 -3.65136,-2.66516 -3.65136,-5.95284 0,-1.64377 0.66626,-2.97629 1.48815,-2.97629 0.82187,0 1.48813,1.33252 1.48813,2.97629 0,3.28768 -1.63474,5.95284 -3.65134,5.95284 -2.01662,0 -3.65135,-2.66516 -3.65135,-5.95284 0,-1.64377 0.66626,-2.97629 1.48813,-2.97629 0.82188,0 1.48814,1.33252 1.48814,2.97629 0,3.28768 -1.63475,5.95284 -3.65135,5.95284 -2.0166,0 -3.65135,-2.66516 -3.65135,-5.95284 0,-1.64377 0.66626,-2.97629 1.48814,-2.97629 0.82189,0 1.48813,1.33252 1.48813,2.97629 0,3.28768 -1.63474,5.95284 -3.65134,5.95284 -2.0166,0 -3.65135,-2.66516 -3.65135,-5.95284"
       style="fill:none;stroke:#000000;stroke-width:0.797;stroke-linecap:butt;stroke-linejoin:bevel;stroke-miterlimit:10;stroke-dasharray:none;stroke-opacity:1"
       transform="matrix(1.3333333,0,0,-1.3333333,33.132,139.70933)" />
    <path
       id="path20"
       d="m 3.7269063,-6.0248125 c 0.09375,-0.3632812 0.1171875,-0.46875 1.0546875,-0.46875 0.3046875,0 0.375,0 0.375,-0.1875 0,-0.1289062 -0.1054688,-0.1289062 -0.1523438,-0.1289062 -0.328125,0 -1.1484375,0.035156 -1.4765625,0.035156 -0.3046875,0 -1.03125,-0.035156 -1.3242187,-0.035156 -0.070312,0 -0.1875,0 -0.1875,0.1992187 0,0.1171875 0.082031,0.1171875 0.28125,0.1171875 0.011719,0 0.1992187,0 0.375,0.011719 0.1757812,0.023437 0.2695312,0.035156 0.2695312,0.1640625 0,0.035156 -0.011719,0.070312 -0.046875,0.1875 l -1.3359375,5.3554687 c -0.09375,0.38671875 -0.1171875,0.46875 -0.90234375,0.46875 -0.1640625,0 -0.26953125,0 -0.26953125,0.19921875 0,0.10546875 0.09375,0.10546875 0.26953125,0.10546875 H 5.2737813 c 0.234375,0 0.2460937,0 0.3046875,-0.1640625 l 0.7851562,-2.15625 C 6.4105,-2.4271562 6.4105,-2.4505937 6.4105,-2.4623125 c 0,-0.035156 -0.035156,-0.1054687 -0.1289062,-0.1054687 -0.082031,0 -0.09375,0.046875 -0.1640625,0.2109375 -0.3398438,0.9140625 -0.7734375,2.0507812 -2.4960938,2.0507812 h -0.9375 c -0.140625,0 -0.1640625,0 -0.2226562,-0.0117188 C 2.3558125,-0.3295 2.332375,-0.34121875 2.332375,-0.42325 c 0,-0.0234375 0,-0.046875 0.046875,-0.22265625 z m 0,0"
       style="fill:#000000;fill-opacity:1;fill-rule:nonzero;stroke:none"
       aria-label="L"
       transform="matrix(1.3333333,0,0,1.3333333,104.20267,126.68933)" />
  </g>
</svg>
