<?xml version="1.0" encoding="UTF-8" standalone="no"?>
<!-- Created with Inkscape (http://www.inkscape.org/) -->

<svg
   version="1.1"
   id="svg1"
   width="201.228"
   height="141.16667"
   viewBox="0 0 201.228 141.16667"
   xmlns="http://www.w3.org/2000/svg"
   xmlns:svg="http://www.w3.org/2000/svg">
  <defs
     id="defs1" />
  <g
     id="g1">
    <path
       id="path1"
       d="m 28.3468,0 -0.0078,0.61807 -0.02032,0.61811 -0.03374,0.61766 -0.04628,0.6168 -0.06141,0.61464 -0.07396,0.6142 -0.08782,0.61247 -0.09906,0.61032 -0.11503,0.60727 -0.12761,0.60556 -0.14015,0.60167 -0.15267,0.59993 -0.16783,0.59517 -0.1795,0.5917 -0.19205,0.58783 -0.20417,0.58393 -0.21887,0.57787 -0.23053,0.57397 -0.2431,0.5688 -0.25389,0.56401 -0.2686,0.55669 -0.27985,0.55148 -0.2911,0.54543 -0.30236,0.53981"
       style="fill:none;stroke:#e81c2b;stroke-width:0.79701;stroke-linecap:butt;stroke-linejoin:miter;stroke-miterlimit:10;stroke-dasharray:none;stroke-opacity:1"
       transform="matrix(1.3333333,0,0,-1.3333333,9.7146667,113.65067)" />
    <path
       id="path2"
       d="m 5.2970078,-6.0119766 c 0,-1.21875 -0.3867187,-2.4023437 -1.359375,-2.4023437 -1.6757812,0 -3.45703124,3.5039062 -3.45703124,6.1289062 0,0.5507813 0.1171875,2.40234379 1.37109374,2.40234379 1.6289063,0 3.4453125,-3.42187499 3.4453125,-6.12890629 z m -3.6210937,1.6875 c 0.1757812,-0.703125 0.4335937,-1.7109375 0.9023437,-2.5664062 0.3984375,-0.7148438 0.8203125,-1.2890625 1.3476563,-1.2890625 0.3867187,0 0.65625,0.3398437 0.65625,1.4882812 0,0.4335938 -0.035156,1.03125 -0.3867188,2.3671875 z m 2.4375,0.3515625 c -0.3046875,1.171875 -0.5507813,1.9335938 -0.984375,2.6835938 -0.3398438,0.60937499 -0.7617188,1.17187499 -1.265625,1.17187499 -0.3632813,0 -0.6679688,-0.29296875 -0.6679688,-1.47656249 0,-0.7734375 0.1875,-1.5820313 0.3867188,-2.3789063 z m 0,0"
       style="fill:#000000;fill-opacity:1;fill-rule:nonzero;stroke:none"
       aria-label="θ"
       transform="matrix(1.3333333,0,0,1.3333333,51.214667,107.848)" />
    <path
       id="path3"
       d="m 4.6533281,-4.8868047 c -0.375,0.070312 -0.5625,0.328125 -0.5625,0.5976563 0,0.28125 0.2226563,0.375 0.3984375,0.375 0.328125,0 0.609375,-0.28125 0.609375,-0.6445313 0,-0.375 -0.375,-0.7148437 -0.9726562,-0.7148437 -0.4804688,0 -1.03125,0.2226562 -1.5351563,0.9492187 -0.082031,-0.6328125 -0.5625,-0.9492187 -1.03125,-0.9492187 -0.46875,0 -0.71484372,0.3632812 -0.85546872,0.6210937 -0.19921875,0.4335938 -0.375,1.1484375 -0.375,1.2070313 0,0.046875 0.046875,0.1054687 0.12890625,0.1054687 0.09375,0 0.10546875,-0.011719 0.17578125,-0.28125 0.17578125,-0.7148437 0.41015622,-1.40625 0.89062502,-1.40625 0.28125,0 0.3632812,0.1992188 0.3632812,0.5390625 0,0.2695313 -0.1171875,0.7382813 -0.1992187,1.1015625 l -0.3398438,1.2890625 c -0.046875,0.234375 -0.1757812,0.7734375 -0.234375,0.984375 -0.082031,0.31640626 -0.21093747,0.87890626 -0.21093747,0.93750001 0,0.1640625 0.12890627,0.29296875 0.30468747,0.29296875 0.1289063,0 0.3632813,-0.08203125 0.4335938,-0.31640625 0.035156,-0.10546875 0.4804687,-1.91015621 0.5507812,-2.17968751 0.058594,-0.2578125 0.1289063,-0.515625 0.1875,-0.7734375 0.046875,-0.1757812 0.09375,-0.3632812 0.1289063,-0.515625 0.035156,-0.1054687 0.3632812,-0.6914062 0.65625,-0.9609375 0.1523437,-0.1289062 0.4570312,-0.3984375 0.9492187,-0.3984375 0.1875,0 0.3867188,0.035156 0.5390625,0.140625 z m 0,0"
       style="fill:#000000;fill-opacity:1;fill-rule:nonzero;stroke:none"
       aria-label="r"
       transform="matrix(1.3333333,0,0,1.3333333,71.444,67.949333)" />
    <g
       id="g3"
       aria-label="rcos(θ)"
       transform="matrix(1.3333333,0,0,1.3333333,67.429333,132.75467)">
      <path
         id="path4"
         d="m 4.6526094,-4.8872891 c -0.375,0.070312 -0.5625,0.328125 -0.5625,0.5976563 0,0.28125 0.2226562,0.375 0.3984375,0.375 0.328125,0 0.609375,-0.28125 0.609375,-0.6445313 0,-0.375 -0.375,-0.7148437 -0.9726563,-0.7148437 -0.4804687,0 -1.03125,0.2226562 -1.5351562,0.9492187 -0.082031,-0.6328125 -0.5625,-0.9492187 -1.03125,-0.9492187 -0.46875,0 -0.71484378,0.3632812 -0.85546878,0.6210937 -0.19921875,0.4335938 -0.375,1.1484375 -0.375,1.2070313 0,0.046875 0.046875,0.1054687 0.12890625,0.1054687 0.09375,0 0.10546875,-0.011719 0.17578125,-0.28125 0.17578125,-0.7148437 0.41015628,-1.40625 0.89062498,-1.40625 0.28125,0 0.3632813,0.1992188 0.3632813,0.5390625 0,0.2695313 -0.1171875,0.7382813 -0.1992188,1.1015625 l -0.3398437,1.2890625 c -0.046875,0.234375 -0.1757813,0.7734375 -0.234375,0.984375 -0.082031,0.31640629 -0.21093753,0.87890629 -0.21093753,0.93750004 0,0.1640625 0.12890623,0.29296875 0.30468753,0.29296875 0.1289062,0 0.3632812,-0.08203125 0.4335937,-0.31640625 0.035156,-0.10546875 0.4804688,-1.91015624 0.5507813,-2.17968754 0.058594,-0.2578125 0.1289062,-0.515625 0.1875,-0.7734375 0.046875,-0.1757812 0.09375,-0.3632812 0.1289062,-0.515625 0.035156,-0.1054687 0.3632813,-0.6914062 0.65625,-0.9609375 0.1523438,-0.1289062 0.4570313,-0.3984375 0.9492188,-0.3984375 0.1875,0 0.3867187,0.035156 0.5390625,0.140625 z m 0,0"
         style="fill:#000000;fill-opacity:1;fill-rule:nonzero;stroke:none" />
      <path
         id="path5"
         d="m 11.918234,-4.4185391 c -0.140625,0 -0.585937,0 -0.585937,0.4804688 0,0.2929687 0.210937,0.4921875 0.492187,0.4921875 0.28125,0 0.503907,-0.1640625 0.503907,-0.515625 0,-0.796875 -0.832032,-1.3710938 -1.804688,-1.3710938 -1.3945311,0 -2.5078124,1.2421875 -2.5078124,2.7539063 0,1.5234375 1.1484375,2.69531249 2.4960934,2.69531249 1.582032,0 1.933594,-1.42968749 1.933594,-1.53515629 0,-0.1171875 -0.08203,-0.1171875 -0.117187,-0.1171875 -0.105469,0 -0.117188,0.035156 -0.152344,0.1875 -0.269531,0.84375004 -0.914063,1.20703129 -1.558594,1.20703129 -0.7265624,0 -1.6992186,-0.6328125 -1.6992186,-2.44921879 0,-1.9921875 1.0195312,-2.4726562 1.6171876,-2.4726562 0.457031,0 1.113281,0.1757812 1.382812,0.6445312 z m 6.363282,1.8632813 c 0,-1.546875 -1.171875,-2.7773438 -2.554688,-2.7773438 -1.429687,0 -2.566406,1.265625 -2.566406,2.7773438 0,1.5234375 1.195312,2.67187499 2.554687,2.67187499 1.40625,0 2.566407,-1.17187499 2.566407,-2.67187499 z m -2.554688,2.41406249 c -0.445312,0 -0.984375,-0.19921875 -1.324219,-0.78515625 -0.328125,-0.52734374 -0.339843,-1.24218754 -0.339843,-1.73437504 0,-0.4570312 0,-1.1835937 0.375,-1.7226562 0.328125,-0.515625 0.855468,-0.7148438 1.277343,-0.7148438 0.46875,0 0.972657,0.2226563 1.289063,0.6914063 0.375,0.5507812 0.375,1.3007812 0.375,1.7460937 0,0.4101563 0,1.1484375 -0.316406,1.71093754 -0.328125,0.57421875 -0.878907,0.80859375 -1.335938,0.80859375 z m 6.84668,-4.91015629 c 0,-0.2226562 0,-0.28125 -0.128906,-0.28125 -0.09375,0 -0.316407,0.2695313 -0.398438,0.375 -0.375,-0.3046875 -0.75,-0.375 -1.125,-0.375 -1.453125,0 -1.875,0.7851563 -1.875,1.4414063 0,0.140625 0,0.5507812 0.445313,0.9726562 0.386718,0.3398438 0.796875,0.421875 1.347656,0.5273438 0.65625,0.1289062 0.808594,0.1640625 1.113281,0.4101562 0.210938,0.1757813 0.363281,0.4335938 0.363281,0.7734375 0,0.51562504 -0.292968,1.08984379 -1.347656,1.08984379 -0.785156,0 -1.359375,-0.45703125 -1.628906,-1.65234379 -0.04687,-0.2109375 -0.04687,-0.2226562 -0.05859,-0.234375 -0.02344,-0.046875 -0.07031,-0.046875 -0.105469,-0.046875 -0.128906,0 -0.128906,0.058594 -0.128906,0.2695313 v 1.62890624 c 0,0.2109375 0,0.26953125 0.117188,0.26953125 0.05859,0 0.07031,-0.0117188 0.269531,-0.2578125 0.05859,-0.0820313 0.05859,-0.10546875 0.246094,-0.3046875 0.445312,0.5625 1.101562,0.5625 1.300781,0.5625 1.253906,0 1.875,-0.69140625 1.875,-1.64062499 0,-0.6445313 -0.398438,-1.0195313 -0.503906,-1.125 -0.433594,-0.375 -0.75,-0.4453125 -1.535157,-0.5859375 -0.363281,-0.082031 -1.230468,-0.2460938 -1.230468,-0.9609375 0,-0.375 0.246093,-0.9257813 1.324218,-0.9257813 1.300782,0 1.371094,1.1132813 1.394532,1.4882813 0.01172,0.09375 0.09375,0.09375 0.128906,0.09375 0.140625,0 0.140625,-0.058594 0.140625,-0.2695313 z m 4.582031,7.9570313 c 0,-0.035156 0,-0.058594 -0.210937,-0.2695313 -1.195313,-1.2070312 -1.863282,-3.17578121 -1.863282,-5.6132812 0,-2.3203125 0.5625,-4.3125 1.945313,-5.7304688 0.128906,-0.1054687 0.128906,-0.1289062 0.128906,-0.1640625 0,-0.070312 -0.07031,-0.09375 -0.117187,-0.09375 -0.152344,0 -1.136719,0.8554688 -1.722657,2.0273438 -0.609375,1.2070312 -0.878906,2.4960937 -0.878906,3.9609375 0,1.0664062 0.164063,2.48437499 0.785156,3.76171874 0.703125,1.44140626 1.6875,2.21484376 1.816407,2.21484376 0.04687,0 0.117187,-0.023437 0.117187,-0.09375 z m 0,0"
         style="fill:#000000;fill-opacity:1;fill-rule:nonzero;stroke:none" />
      <path
         id="path6"
         d="m 33.114523,-6.0122891 c 0,-1.21875 -0.386718,-2.4023437 -1.359375,-2.4023437 -1.675781,0 -3.457031,3.5039062 -3.457031,6.1289062 0,0.5507813 0.117188,2.40234379 1.371094,2.40234379 1.628906,0 3.445312,-3.42187499 3.445312,-6.12890629 z m -3.621093,1.6875 c 0.175781,-0.703125 0.433593,-1.7109375 0.902343,-2.5664062 0.398438,-0.7148438 0.820313,-1.2890625 1.347657,-1.2890625 0.386718,0 0.65625,0.3398437 0.65625,1.4882812 0,0.4335938 -0.03516,1.03125 -0.386719,2.3671875 z m 2.4375,0.3515625 c -0.304688,1.171875 -0.550782,1.9335938 -0.984375,2.6835938 -0.339844,0.60937499 -0.761719,1.17187499 -1.265625,1.17187499 -0.363282,0 -0.667969,-0.29296875 -0.667969,-1.47656249 0,-0.7734375 0.1875,-1.5820313 0.386719,-2.3789063 z m 0,0"
         style="fill:#000000;fill-opacity:1;fill-rule:nonzero;stroke:none" />
      <path
         id="path7"
         d="m 36.972922,-2.9771328 c 0,-0.9140625 -0.128906,-2.390625 -0.796875,-3.7734375 -0.703125,-1.4414063 -1.675781,-2.2148438 -1.816406,-2.2148438 -0.04687,0 -0.105469,0.023437 -0.105469,0.09375 0,0.035156 0,0.058594 0.199219,0.2695313 1.195312,1.2070312 1.875,3.1757812 1.875,5.6132812 0,2.32031254 -0.5625,4.3125 -1.957032,5.7304688 -0.117187,0.1054687 -0.117187,0.1289062 -0.117187,0.1640625 0,0.070312 0.05859,0.09375 0.105469,0.09375 0.164062,0 1.136718,-0.8554688 1.722656,-2.02734376 0.609375,-1.21875 0.890625,-2.51953124 0.890625,-3.94921874 z m 0,0"
         style="fill:#000000;fill-opacity:1;fill-rule:nonzero;stroke:none" />
    </g>
    <path
       id="path8"
       d="M 0,0 H 98.19649"
       style="fill:none;stroke:#449fe3;stroke-width:1.19553;stroke-linecap:butt;stroke-linejoin:miter;stroke-miterlimit:10;stroke-dasharray:2.98883, 2.98883;stroke-dashoffset:0;stroke-opacity:1"
       transform="matrix(1.3333333,0,0,-1.3333333,9.7146667,113.65067)" />
    <g
       id="g8"
       aria-label="rsin(θ)"
       transform="matrix(1.3333333,0,0,1.3333333,147.66667,79.841333)">
      <path
         id="path9"
         d="m 4.6533203,-4.8878359 c -0.375,0.070312 -0.5625,0.328125 -0.5625,0.5976562 0,0.28125 0.2226563,0.375 0.3984375,0.375 0.328125,0 0.609375,-0.28125 0.609375,-0.6445312 0,-0.375 -0.375,-0.7148438 -0.9726562,-0.7148438 -0.4804688,0 -1.03125,0.2226563 -1.5351563,0.9492188 -0.082031,-0.6328125 -0.5625,-0.9492188 -1.03125,-0.9492188 -0.46875,0 -0.71484374,0.3632813 -0.85546874,0.6210938 -0.19921875,0.4335937 -0.375,1.1484375 -0.375,1.2070312 0,0.046875 0.046875,0.1054688 0.12890625,0.1054688 0.09375,0 0.10546875,-0.011719 0.17578125,-0.28125 0.17578125,-0.7148438 0.41015624,-1.40625 0.89062504,-1.40625 0.28125,0 0.3632812,0.1992187 0.3632812,0.5390625 0,0.2695312 -0.1171875,0.7382812 -0.1992187,1.1015625 l -0.3398438,1.2890625 c -0.046875,0.234375 -0.1757812,0.7734375 -0.234375,0.984375 -0.082031,0.31640621 -0.21093749,0.87890621 -0.21093749,0.93749996 0,0.1640625 0.12890629,0.29296875 0.30468749,0.29296875 0.1289063,0 0.3632813,-0.08203125 0.4335938,-0.31640625 0.035156,-0.10546875 0.4804687,-1.91015626 0.5507812,-2.17968746 0.058594,-0.2578125 0.1289063,-0.515625 0.1875,-0.7734375 0.046875,-0.1757813 0.09375,-0.3632813 0.1289063,-0.515625 0.035156,-0.1054688 0.3632812,-0.6914063 0.65625,-0.9609375 0.1523437,-0.1289063 0.4570312,-0.3984375 0.9492187,-0.3984375 0.1875,0 0.3867188,0.035156 0.5390625,0.140625 z m 0,0"
         style="fill:#000000;fill-opacity:1;fill-rule:nonzero;stroke:none" />
      <path
         id="path10"
         d="m 11.517578,-5.0518984 c 0,-0.2226563 0,-0.28125 -0.128906,-0.28125 -0.09375,0 -0.316406,0.2695312 -0.398438,0.375 -0.375,-0.3046875 -0.75,-0.375 -1.1249996,-0.375 -1.453125,0 -1.875,0.7851562 -1.875,1.4414062 0,0.140625 0,0.5507813 0.4453125,0.9726563 0.3867187,0.3398437 0.796875,0.421875 1.3476562,0.5273437 0.6562499,0.1289063 0.8085939,0.1640625 1.1132809,0.4101563 0.210938,0.1757812 0.363282,0.4335937 0.363282,0.7734375 0,0.51562496 -0.292969,1.08984371 -1.3476566,1.08984371 -0.7851563,0 -1.359375,-0.45703125 -1.6289063,-1.65234371 -0.046875,-0.2109375 -0.046875,-0.2226563 -0.058594,-0.234375 -0.023437,-0.046875 -0.070312,-0.046875 -0.1054688,-0.046875 -0.1289062,0 -0.1289062,0.058594 -0.1289062,0.2695312 v 1.62890626 c 0,0.2109375 0,0.26953125 0.1171875,0.26953125 0.058594,0 0.070312,-0.0117188 0.2695312,-0.2578125 0.058594,-0.0820313 0.058594,-0.10546875 0.2460938,-0.3046875 0.4453125,0.5625 1.1015625,0.5625 1.3007812,0.5625 1.2539062,0 1.8750002,-0.69140625 1.8750002,-1.64062501 0,-0.6445312 -0.398437,-1.0195312 -0.503906,-1.125 -0.433594,-0.375 -0.75,-0.4453125 -1.5351567,-0.5859375 -0.3632812,-0.082031 -1.2304687,-0.2460937 -1.2304687,-0.9609375 0,-0.375 0.2460937,-0.9257812 1.3242187,-0.9257812 1.3007817,0 1.3710937,1.1132812 1.3945317,1.4882812 0.01172,0.09375 0.09375,0.09375 0.128906,0.09375 0.140625,0 0.140625,-0.058594 0.140625,-0.2695312 z m 2.765625,-2.3085938 c 0,-0.3164062 -0.246094,-0.5859375 -0.574219,-0.5859375 -0.316406,0 -0.574218,0.2460938 -0.574218,0.5742188 0,0.3515625 0.28125,0.5859375 0.574218,0.5859375 0.363282,0 0.574219,-0.3164063 0.574219,-0.5742188 z m -1.640625,2.2148438 v 0.3515625 c 0.761719,0 0.867188,0.070312 0.867188,0.65625 v 3.25781246 c 0,0.52734375 -0.128907,0.52734375 -0.902344,0.52734375 v 0.3515625 c 0.328125,-0.0234375 0.902344,-0.0234375 1.253906,-0.0234375 0.128906,0 0.820313,0 1.230469,0.0234375 v -0.3515625 c -0.773438,0 -0.832031,-0.0585938 -0.832031,-0.515625 V -5.2745547 Z m 8.138672,2.2382812 c 0,-1.1132812 0,-1.4414062 -0.28125,-1.828125 -0.339844,-0.46875 -0.902344,-0.5390625 -1.3125,-0.5390625 -1.160156,0 -1.605469,0.9960938 -1.710938,1.2304688 h -0.01172 v -1.2304688 l -1.617188,0.1289063 v 0.3515625 c 0.808594,0 0.902344,0.082031 0.902344,0.6679687 v 3.24609376 c 0,0.52734375 -0.128906,0.52734375 -0.902344,0.52734375 v 0.3515625 c 0.304688,-0.0234375 0.949219,-0.0234375 1.289063,-0.0234375 0.339843,0 0.984375,0 1.300781,0.0234375 v -0.3515625 c -0.761719,0 -0.914063,0 -0.914063,-0.52734375 V -3.1065859 c 0,-1.2539063 0.832032,-1.921875 1.570313,-1.921875 0.738281,0 0.914062,0.609375 0.914062,1.3359375 v 2.81249996 c 0,0.52734375 -0.140625,0.52734375 -0.914062,0.52734375 v 0.3515625 c 0.316406,-0.0234375 0.960937,-0.0234375 1.289062,-0.0234375 0.351563,0 0.996094,0 1.300782,0.0234375 v -0.3515625 c -0.597657,0 -0.890625,0 -0.902344,-0.3515625 z m 5.074219,5.8125 c 0,-0.035156 0,-0.058594 -0.210938,-0.2695312 -1.195312,-1.2070313 -1.863281,-3.17578129 -1.863281,-5.6132813 0,-2.3203125 0.5625,-4.3125 1.945312,-5.7304687 0.128907,-0.1054688 0.128907,-0.1289063 0.128907,-0.1640625 0,-0.070312 -0.07031,-0.09375 -0.117188,-0.09375 -0.152344,0 -1.136719,0.8554687 -1.722656,2.0273437 -0.609375,1.2070313 -0.878906,2.4960938 -0.878906,3.9609375 0,1.0664063 0.164062,2.48437501 0.785156,3.76171876 0.703125,1.44140624 1.6875,2.21484374 1.816406,2.21484374 0.04687,0 0.117188,-0.023437 0.117188,-0.09375 z m 0,0"
         style="fill:#000000;fill-opacity:1;fill-rule:nonzero;stroke:none" />
      <path
         id="path11"
         d="m 31.814453,-6.0128359 c 0,-1.21875 -0.386719,-2.4023438 -1.359375,-2.4023438 -1.675781,0 -3.457031,3.5039063 -3.457031,6.1289063 0,0.5507812 0.117187,2.40234371 1.371094,2.40234371 1.628906,0 3.445312,-3.42187501 3.445312,-6.12890621 z m -3.621094,1.6875 c 0.175782,-0.703125 0.433594,-1.7109375 0.902344,-2.5664063 0.398438,-0.7148437 0.820313,-1.2890625 1.347656,-1.2890625 0.386719,0 0.65625,0.3398438 0.65625,1.4882813 0,0.4335937 -0.03516,1.03125 -0.386718,2.3671875 z m 2.4375,0.3515625 c -0.304687,1.171875 -0.550781,1.9335937 -0.984375,2.6835937 -0.339843,0.60937501 -0.761718,1.17187501 -1.265625,1.17187501 -0.363281,0 -0.667968,-0.29296875 -0.667968,-1.47656251 0,-0.7734375 0.1875,-1.5820312 0.386718,-2.3789062 z m 0,0"
         style="fill:#000000;fill-opacity:1;fill-rule:nonzero;stroke:none" />
      <path
         id="path12"
         d="m 35.672852,-2.9776797 c 0,-0.9140625 -0.128907,-2.390625 -0.796875,-3.7734375 -0.703125,-1.4414062 -1.675782,-2.2148437 -1.816407,-2.2148437 -0.04687,0 -0.105468,0.023437 -0.105468,0.09375 0,0.035156 0,0.058594 0.199218,0.2695312 1.195313,1.2070313 1.875,3.1757813 1.875,5.6132813 0,2.32031246 -0.5625,4.3125 -1.957031,5.7304687 -0.117187,0.1054688 -0.117187,0.1289063 -0.117187,0.1640625 0,0.070312 0.05859,0.09375 0.105468,0.09375 0.164063,0 1.136719,-0.8554687 1.722657,-2.02734374 0.609375,-1.21875 0.890625,-2.51953126 0.890625,-3.94921876 z m 0,0"
         style="fill:#000000;fill-opacity:1;fill-rule:nonzero;stroke:none" />
    </g>
    <path
       id="path13"
       d="M 98.19649,0 V 56.69362"
       style="fill:none;stroke:#449fe3;stroke-width:1.19553;stroke-linecap:butt;stroke-linejoin:miter;stroke-miterlimit:10;stroke-dasharray:2.98883, 2.98883;stroke-dashoffset:0;stroke-opacity:1"
       transform="matrix(1.3333333,0,0,-1.3333333,9.7146667,113.65067)" />
    <path
       id="path14"
       d="M -7.08669,0 H 127.10236"
       style="fill:none;stroke:#000000;stroke-width:0.3985;stroke-linecap:butt;stroke-linejoin:miter;stroke-miterlimit:10;stroke-dasharray:none;stroke-opacity:1"
       transform="matrix(1.3333333,0,0,-1.3333333,9.7146667,113.65067)" />
    <path
       id="path15"
       d="M -1.19551,1.59401 C -1.09587,0.99626 0,0.09961 0.29886,0 0,-0.09961 -1.09587,-0.99626 -1.19551,-1.59401"
       style="fill:none;stroke:#000000;stroke-width:0.31879;stroke-linecap:round;stroke-linejoin:round;stroke-miterlimit:10;stroke-dasharray:none;stroke-opacity:1"
       transform="matrix(1.3333333,0,0,-1.3333333,179.18448,113.65067)" />
    <path
       id="path16"
       d="M 0,-7.08669 V 84.58214"
       style="fill:none;stroke:#000000;stroke-width:0.3985;stroke-linecap:butt;stroke-linejoin:miter;stroke-miterlimit:10;stroke-dasharray:none;stroke-opacity:1"
       transform="matrix(1.3333333,0,0,-1.3333333,9.7146667,113.65067)" />
    <path
       id="path17"
       d="M -1.19551,1.59401 C -1.09587,0.99626 0,0.09961 0.29886,0 0,-0.09961 -1.09587,-0.99626 -1.19551,-1.59401"
       style="fill:none;stroke:#000000;stroke-width:0.31879;stroke-linecap:round;stroke-linejoin:round;stroke-miterlimit:10;stroke-dasharray:none;stroke-opacity:1"
       transform="matrix(0,-1.3333333,-1.3333333,0,9.7146667,0.87448)" />
    <path
       id="path18"
       d="M 0,0 98.19649,56.69362"
       style="fill:none;stroke:#000000;stroke-width:0.79701;stroke-linecap:butt;stroke-linejoin:miter;stroke-miterlimit:10;stroke-dasharray:none;stroke-opacity:1"
       transform="matrix(1.3333333,0,0,-1.3333333,9.7146667,113.65067)" />
    <path
       id="path19"
       d="m 99.89722,56.69362 c 0,0.9393 -0.76143,1.70073 -1.70073,1.70073 -0.9393,0 -1.70073,-0.76143 -1.70073,-1.70073 0,-0.9393 0.76143,-1.70075 1.70073,-1.70075 0.9393,0 1.70073,0.76145 1.70073,1.70075 z"
       style="fill:#000000;fill-opacity:1;fill-rule:nonzero;stroke:#000000;stroke-width:0.3985;stroke-linecap:butt;stroke-linejoin:miter;stroke-miterlimit:10;stroke-dasharray:none;stroke-opacity:1"
       transform="matrix(1.3333333,0,0,-1.3333333,9.7146667,113.65067)" />
    <g
       id="g19"
       aria-label="(x,y)"
       transform="matrix(1.3333333,0,0,1.3333333,145.22667,34.485333)">
      <path
         id="path20"
         d="m 3.8905469,2.9055313 c 0,-0.035156 0,-0.058594 -0.2109375,-0.2695313 -1.1953125,-1.2070312 -1.8632813,-3.17578125 -1.8632813,-5.6132812 0,-2.3203125 0.5625,-4.3125 1.9453125,-5.7304688 0.1289063,-0.1054687 0.1289063,-0.1289062 0.1289063,-0.1640625 0,-0.070312 -0.070312,-0.09375 -0.1171875,-0.09375 -0.1523438,0 -1.1367188,0.8554688 -1.7226563,2.0273438 -0.609375,1.2070312 -0.8789062,2.4960937 -0.8789062,3.9609375 0,1.0664062 0.1640625,2.48437495 0.7851562,3.7617187 0.703125,1.4414063 1.6875,2.2148438 1.8164063,2.2148438 0.046875,0 0.1171875,-0.023437 0.1171875,-0.09375 z m 0,0"
         style="fill:#000000;fill-opacity:1;fill-rule:nonzero;stroke:none" />
      <path
         id="path21"
         d="m 10.212813,-4.8757187 c -0.3750005,0.070312 -0.5156255,0.3515625 -0.5156255,0.5859375 0,0.28125 0.2226563,0.375 0.3867185,0.375 0.363282,0 0.609375,-0.3046875 0.609375,-0.6328125 0,-0.4921875 -0.574218,-0.7265625 -1.0781247,-0.7265625 -0.7265625,0 -1.125,0.7148437 -1.2421875,0.9492187 C 8.1034375,-5.2272812 7.3651563,-5.2741562 7.1425,-5.2741562 c -1.21875,0 -1.8632812,1.5703125 -1.8632812,1.828125 0,0.046875 0.046875,0.1054687 0.1289062,0.1054687 0.1054688,0 0.1289063,-0.070312 0.1523438,-0.1171875 0.3984375,-1.3242187 1.2070312,-1.5703125 1.546875,-1.5703125 0.5390625,0 0.6445312,0.4921875 0.6445312,0.7851563 0,0.2578125 -0.070312,0.5390625 -0.2109375,1.1132812 L 7.1307813,-1.5007187 C 6.955,-0.77415625 6.6034375,-0.11790625 5.970625,-0.11790625 c -0.058594,0 -0.3515625,0 -0.609375,-0.15234375 0.4335938,-0.09375 0.5273438,-0.4453125 0.5273438,-0.5859375 0,-0.2460937 -0.1757813,-0.3867187 -0.3984375,-0.3867187 -0.2929688,0 -0.5976563,0.2460937 -0.5976563,0.63281245 0,0.50390625 0.5625,0.7265625 1.0664063,0.7265625 0.5742187,0 0.984375,-0.45703125 1.2304687,-0.9375 0.1992188,0.703125 0.796875,0.9375 1.2304688,0.9375 1.2304687,0 1.8750002,-1.55859375 1.8750002,-1.82812495 0,-0.058594 -0.04687,-0.1054688 -0.128906,-0.1054688 -0.105469,0 -0.117188,0.058594 -0.152344,0.1523438 -0.3164065,1.05468745 -1.0195315,1.54687495 -1.5468752,1.54687495 -0.421875,0 -0.65625,-0.31640625 -0.65625,-0.80859375 0,-0.2578125 0.058594,-0.4453125 0.2460937,-1.2421875 l 0.421875,-1.6171875 c 0.1757813,-0.7265625 0.5859375,-1.2421875 1.125,-1.2421875 0.035156,0 0.3632813,0 0.6093755,0.1523438 z m 3.325195,4.92187495 c 0,-0.69140625 -0.222656,-1.20703125 -0.714844,-1.20703125 -0.386719,0 -0.574219,0.31640625 -0.574219,0.57421875 0,0.2578125 0.175782,0.5859375 0.585938,0.5859375 0.152344,0 0.28125,-0.046875 0.386719,-0.15234375 0.02344,-0.0234375 0.03516,-0.0234375 0.04687,-0.0234375 0.03516,0 0.03516,0.1640625 0.03516,0.22265625 0,0.3984375 -0.08203,1.17187505 -0.773438,1.94531255 -0.128906,0.1523437 -0.128906,0.1757812 -0.128906,0.1992187 0,0.058594 0.05859,0.1171875 0.117188,0.1171875 0.09375,0 1.019531,-0.890625 1.019532,-2.26171875 z m 6.055664,1.28906255 c -0.316406,0.4570312 -0.785156,0.8671875 -1.371094,0.8671875 -0.140625,0 -0.714844,-0.023437 -0.902344,-0.5742188 0.04687,0.011719 0.105469,0.011719 0.128907,0.011719 0.351562,0 0.597656,-0.3164063 0.597656,-0.5859375 0,-0.28125005 -0.234375,-0.37500005 -0.410156,-0.37500005 -0.1875,0 -0.609375,0.140625 -0.609375,0.72656255 0,0.609375 0.515625,1.03125 1.195312,1.03125 1.195313,0 2.402344,-1.1015625 2.742188,-2.4257813 l 1.171875,-4.6640625 c 0.01172,-0.058594 0.03516,-0.1289062 0.03516,-0.1992187 0,-0.1757813 -0.152344,-0.3046875 -0.328125,-0.3046875 -0.105469,0 -0.363281,0.046875 -0.457031,0.4101562 l -0.878907,3.515625 c -0.05859,0.2109375 -0.05859,0.234375 -0.152343,0.375 -0.246094,0.328125 -0.644532,0.73828125 -1.207032,0.73828125 -0.679687,0 -0.738281,-0.65625 -0.738281,-0.98437495 0,-0.6796875 0.328125,-1.6054688 0.644531,-2.4609375 0.140625,-0.3515625 0.210938,-0.515625 0.210938,-0.75 0,-0.5039063 -0.363281,-0.9609375 -0.949219,-0.9609375 -1.101562,0 -1.535156,1.734375 -1.535156,1.828125 0,0.046875 0.04687,0.1054687 0.128906,0.1054687 0.105469,0 0.117188,-0.046875 0.164063,-0.2109375 0.292968,-1.0078125 0.738281,-1.4765625 1.207031,-1.4765625 0.105469,0 0.316406,0 0.316406,0.3867188 0,0.3164062 -0.140625,0.65625 -0.316406,1.1132812 -0.585938,1.5703125 -0.585938,1.9570313 -0.585938,2.25 0,1.13671875 0.808594,1.39453125 1.40625,1.39453125 0.351563,0 0.785157,-0.10546875 1.195313,-0.55078125 l 0.01172,0.0117188 c -0.175782,0.703125 -0.292969,1.171875 -0.714844,1.7578125 z m 0,0"
         style="fill:#000000;fill-opacity:1;fill-rule:nonzero;stroke:none" />
      <path
         id="path22"
         d="m 25.959883,-2.9772812 c 0,-0.9140625 -0.128906,-2.390625 -0.796875,-3.7734375 -0.703125,-1.4414063 -1.675781,-2.2148438 -1.816406,-2.2148438 -0.04687,0 -0.105469,0.023437 -0.105469,0.09375 0,0.035156 0,0.058594 0.199219,0.2695313 1.195312,1.2070312 1.875,3.1757812 1.875,5.6132812 0,2.3203125 -0.5625,4.3125 -1.957032,5.7304688 -0.117187,0.1054687 -0.117187,0.1289062 -0.117187,0.1640625 0,0.070312 0.05859,0.09375 0.105469,0.09375 0.164062,0 1.136718,-0.8554688 1.722656,-2.0273438 0.609375,-1.21875 0.890625,-2.5195312 0.890625,-3.9492187 z m 0,0"
         style="fill:#000000;fill-opacity:1;fill-rule:nonzero;stroke:none" />
    </g>
  </g>
</svg>
